<?xml version="1.0" encoding="UTF-8" standalone="no"?>
<!DOCTYPE svg PUBLIC "-//W3C//DTD SVG 1.1//EN" "http://www.w3.org/Graphics/SVG/1.1/DTD/svg11.dtd">
<svg xmlns="http://www.w3.org/2000/svg" version="1.1" viewBox="0.00 0.00 624.00 231.00">
<path fill="#4578bc" d="
  M 367.50 13.88
  Q 394.92 2.93 422.01 0.95
  C 460.80 -1.87 498.39 9.26 529.98 31.80
  C 576.36 64.88 606.94 117.12 618.33 172.95
  A 0.20 0.20 0.0 0 1 618.14 173.19
  L 542.99 173.19
  A 0.42 0.42 0.0 0 1 542.57 172.76
  C 543.38 129.50 528.72 87.55 499.00 56.04
  C 465.19 20.18 416.11 3.21 367.54 13.99
  A 0.06 0.06 0.0 0 1 367.50 13.88
  Z"
/>
<path fill="#8cc63f" d="
  M 444.18 27.06
  Q 435.88 26.20 431.01 25.98
  C 396.17 24.39 364.53 37.42 347.86 69.37
  A 0.93 0.92 -76.2 0 1 347.04 69.87
  L 305.06 69.87
  A 0.28 0.28 0.0 0 1 304.81 69.46
  C 320.34 39.19 350.41 20.57 383.56 17.57
  Q 413.67 14.84 444.25 26.74
  A 0.17 0.16 57.9 0 1 444.18 27.06
  Z"
/>
<path fill="#231f20" d="
  M 21.36 127.45
  C 21.17 146.53 37.54 158.79 55.59 152.89
  Q 64.90 149.84 69.84 139.92
  A 0.88 0.87 -76.8 0 1 70.62 139.43
  L 90.47 139.43
  A 0.62 0.62 0.0 0 1 91.06 140.23
  Q 86.08 156.93 72.62 165.86
  C 57.13 176.14 36.13 176.23 20.66 165.97
  C 7.85 157.47 0.41 142.85 0.56 127.25
  C 0.71 111.65 8.42 97.18 21.40 88.92
  C 37.05 78.96 58.05 79.45 73.34 90.02
  Q 86.63 99.20 91.29 116.00
  A 0.62 0.62 0.0 0 1 90.69 116.79
  L 70.84 116.41
  A 0.88 0.87 77.9 0 1 70.07 115.90
  Q 65.32 105.89 56.07 102.67
  C 38.13 96.42 21.54 108.37 21.36 127.45
  Z"
/>
<path fill="#231f20" d="
  M 369.04 144.34
  A 0.20 0.19 11.8 0 1 369.22 144.61
  C 357.24 173.61 322.43 182.99 298.13 163.31
  C 277.40 146.51 276.07 114.60 294.30 95.75
  C 315.16 74.19 350.84 77.96 366.15 104.18
  Q 373.83 117.34 371.91 134.31
  A 0.33 0.32 2.9 0 1 371.58 134.60
  L 302.76 134.60
  A 0.46 0.45 87.1 0 0 302.31 135.11
  C 303.92 149.36 316.58 157.16 330.29 155.83
  Q 341.95 154.70 347.85 144.82
  A 0.99 0.99 0.0 0 1 348.70 144.34
  L 369.04 144.34
  Z
  M 327.04 118.81
  Q 349.50 118.82 351.13 118.75
  A 0.42 0.42 0.0 0 0 351.52 118.25
  C 349.33 106.43 338.78 99.28 327.04 99.28
  C 315.31 99.28 304.75 106.42 302.55 118.24
  A 0.42 0.42 0.0 0 0 302.95 118.74
  Q 304.57 118.81 327.04 118.81
  Z"
/>
<path fill="#231f20" d="
  M 226.71 81.94
  C 238.34 82.05 249.41 85.84 257.85 93.59
  C 271.53 106.16 276.09 126.30 269.79 143.60
  C 262.78 162.81 246.03 173.67 225.83 173.47
  C 205.63 173.27 189.09 162.10 182.46 142.76
  C 176.49 125.34 181.44 105.29 195.36 92.99
  C 203.95 85.40 215.09 81.83 226.71 81.94
  Z
  M 226.0709 154.1996
  A 26.56 25.71 90.3 0 0 251.9196 127.7746
  A 26.56 25.71 90.3 0 0 226.3491 101.0804
  A 26.56 25.71 90.3 0 0 200.5004 127.5054
  A 26.56 25.71 90.3 0 0 226.0709 154.1996
  Z"
/>
<path fill="#231f20" d="
  M 428.24 81.93
  C 454.36 82.12 474.42 101.72 474.23 128.04
  C 474.04 154.37 453.69 173.67 427.57 173.47
  C 401.45 173.28 381.39 153.69 381.58 127.36
  C 381.77 101.04 402.12 81.74 428.24 81.93
  Z
  M 427.7109 154.1996
  A 26.56 25.71 90.3 0 0 453.5596 127.7746
  A 26.56 25.71 90.3 0 0 427.9891 101.0804
  A 26.56 25.71 90.3 0 0 402.1404 127.5054
  A 26.56 25.71 90.3 0 0 427.7109 154.1996
  Z"
/>
<path fill="#231f20" d="
  M 136.26 144.47
  Q 136.44 144.47 136.51 144.29
  Q 144.53 120.90 156.91 84.92
  A 0.69 0.68 -80.5 0 1 157.56 84.45
  L 178.05 84.45
  A 0.32 0.32 0.0 0 1 178.35 84.88
  L 146.48 170.65
  A 0.51 0.50 9.7 0 1 146.02 170.98
  Q 144.88 171.00 136.26 171.00
  Q 127.64 171.00 126.51 170.98
  A 0.51 0.50 -9.7 0 1 126.04 170.65
  L 94.18 84.88
  A 0.32 0.32 0.0 0 1 94.48 84.45
  L 114.97 84.45
  A 0.69 0.68 80.5 0 1 115.62 84.92
  Q 127.99 120.90 136.02 144.29
  Q 136.08 144.47 136.26 144.47
  Z"
/>
<path fill="#231f20" d="
  M 9.37 212.05
  C 9.36 214.94 9.79 219.42 12.42 220.87
  C 16.64 223.19 19.00 219.81 19.19 216.00
  A 0.34 0.34 0.0 0 1 19.53 215.67
  L 22.25 215.67
  A 0.23 0.22 1.2 0 1 22.48 215.90
  C 22.34 222.29 17.25 226.57 11.17 223.87
  C 6.91 221.98 6.06 216.08 6.07 212.04
  C 6.09 208.00 6.97 202.10 11.24 200.24
  C 17.35 197.58 22.41 201.89 22.51 208.28
  A 0.23 0.22 -0.8 0 1 22.27 208.51
  L 19.55 208.49
  A 0.34 0.34 0.0 0 1 19.22 208.16
  C 19.05 204.35 16.71 200.96 12.48 203.25
  C 9.84 204.68 9.38 209.16 9.37 212.05
  Z"
/>
<path fill="#231f20" d="
  M 244.8700 224.8400
  A 12.80 9.02 90.0 0 1 235.8500 212.0400
  A 12.80 9.02 90.0 0 1 244.8700 199.2400
  A 12.80 9.02 90.0 0 1 253.8900 212.0400
  A 12.80 9.02 90.0 0 1 244.8700 224.8400
  Z
  M 244.8600 221.8500
  A 9.81 5.69 90.0 0 0 250.5500 212.0400
  A 9.81 5.69 90.0 0 0 244.8600 202.2300
  A 9.81 5.69 90.0 0 0 239.1700 212.0400
  A 9.81 5.69 90.0 0 0 244.8600 221.8500
  Z"
/>
<path fill="#231f20" d="
  M 256.25 206.13
  L 256.67 206.07
  A 0.78 0.78 0.0 0 0 257.32 205.28
  Q 257.16 199.87 262.47 199.47
  A 0.60 0.59 87.8 0 1 263.11 200.07
  L 263.11 201.36
  A 0.75 0.75 0.0 0 1 262.46 202.10
  Q 260.08 202.42 260.15 205.46
  A 0.63 0.63 0.0 0 0 260.78 206.08
  L 262.61 206.08
  A 0.52 0.52 0.0 0 1 263.13 206.60
  L 263.13 208.21
  A 0.59 0.59 0.0 0 1 262.54 208.80
  L 260.77 208.80
  A 0.61 0.61 0.0 0 0 260.16 209.41
  L 260.15 223.87
  A 0.33 0.33 0.0 0 1 259.82 224.20
  L 257.59 224.20
  A 0.32 0.31 -90.0 0 1 257.28 223.88
  L 257.28 209.46
  A 0.66 0.66 0.0 0 0 256.63 208.80
  Q 256.28 208.80 256.24 208.79
  A 1.35 1.35 0.0 0 1 256.25 206.13
  Z"
/>
<path fill="#231f20" d="
  M 264.58 206.14
  L 265.00 206.08
  A 0.78 0.78 0.0 0 0 265.65 205.29
  Q 265.49 199.89 270.79 199.49
  A 0.60 0.59 87.8 0 1 271.43 200.09
  L 271.43 201.38
  A 0.75 0.75 0.0 0 1 270.78 202.12
  Q 268.40 202.44 268.47 205.47
  A 0.63 0.63 0.0 0 0 269.10 206.09
  L 270.93 206.09
  A 0.52 0.52 0.0 0 1 271.45 206.61
  L 271.45 208.22
  A 0.59 0.59 0.0 0 1 270.86 208.81
  L 269.09 208.81
  A 0.61 0.61 0.0 0 0 268.48 209.42
  L 268.48 223.85
  A 0.33 0.33 0.0 0 1 268.15 224.18
  L 265.92 224.18
  A 0.32 0.31 -90.0 0 1 265.61 223.86
  L 265.61 209.47
  A 0.66 0.66 0.0 0 0 264.96 208.81
  Q 264.61 208.81 264.57 208.80
  A 1.35 1.35 0.0 0 1 264.58 206.14
  Z"
/>
<path fill="#231f20" d="
  M 333.11 206.14
  L 333.53 206.08
  A 0.78 0.78 0.0 0 0 334.18 205.29
  Q 334.02 199.88 339.32 199.48
  A 0.60 0.59 87.7 0 1 339.97 200.08
  L 339.97 201.37
  A 0.75 0.75 0.0 0 1 339.32 202.11
  Q 336.93 202.43 337.01 205.47
  A 0.63 0.63 0.0 0 0 337.64 206.09
  L 339.47 206.09
  A 0.52 0.52 0.0 0 1 339.99 206.61
  L 339.99 208.22
  A 0.59 0.59 0.0 0 1 339.40 208.81
  L 337.63 208.81
  A 0.61 0.61 0.0 0 0 337.02 209.42
  L 337.03 223.87
  A 0.33 0.33 0.0 0 1 336.70 224.20
  L 334.47 224.20
  A 0.32 0.31 89.9 0 1 334.16 223.88
  L 334.15 209.47
  A 0.66 0.66 0.0 0 0 333.50 208.81
  Q 333.15 208.81 333.11 208.80
  A 1.35 1.35 0.0 0 1 333.11 206.14
  Z"
/>
<path fill="#231f20" d="
  M 487.3700 224.8300
  A 12.79 9.02 90.0 0 1 478.3500 212.0400
  A 12.79 9.02 90.0 0 1 487.3700 199.2500
  A 12.79 9.02 90.0 0 1 496.3900 212.0400
  A 12.79 9.02 90.0 0 1 487.3700 224.8300
  Z
  M 487.3600 221.8500
  A 9.81 5.68 90.0 0 0 493.0400 212.0400
  A 9.81 5.68 90.0 0 0 487.3600 202.2300
  A 9.81 5.68 90.0 0 0 481.6800 212.0400
  A 9.81 5.68 90.0 0 0 487.3600 221.8500
  Z"
/>
<path fill="#231f20" d="
  M 28.73 207.44
  C 32.51 203.83 37.77 205.92 37.79 211.24
  Q 37.81 217.69 37.81 223.76
  A 0.43 0.42 90.0 0 1 37.39 224.19
  L 35.29 224.19
  A 0.39 0.39 0.0 0 1 34.90 223.80
  L 34.90 211.32
  A 2.72 2.72 0.0 0 0 31.89 208.62
  L 31.45 208.66
  A 3.36 3.35 87.1 0 0 28.44 212.00
  L 28.44 223.92
  A 0.26 0.26 0.0 0 1 28.18 224.18
  L 25.82 224.18
  A 0.26 0.26 0.0 0 1 25.56 223.92
  L 25.56 200.25
  A 0.39 0.39 0.0 0 1 25.95 199.86
  L 28.01 199.86
  A 0.40 0.40 0.0 0 1 28.41 200.26
  L 28.41 207.30
  A 0.19 0.19 0.0 0 0 28.73 207.44
  Z"
/>
<rect fill="#231f20" x="98.50" y="199.87" width="2.88" height="24.32" rx="0.36"/>
<rect fill="#231f20" x="-1.44" y="-1.70" transform="translate(123.52,201.57) rotate(0.6)" width="2.88" height="3.40" rx="0.35"/>
<path fill="#231f20" d="
  M 159.10 219.11
  Q 159.22 219.11 159.32 218.72
  Q 161.79 209.32 164.28 200.20
  A 0.46 0.45 7.4 0 1 164.72 199.87
  L 167.27 199.87
  A 0.39 0.39 0.0 0 1 167.65 200.37
  L 160.48 223.70
  A 0.63 0.62 -84.5 0 1 159.95 224.14
  Q 159.53 224.19 159.10 224.19
  Q 158.67 224.19 158.26 224.14
  A 0.63 0.62 84.6 0 1 157.72 223.70
  L 150.57 200.36
  A 0.39 0.39 0.0 0 1 150.95 199.86
  L 153.50 199.87
  A 0.46 0.45 -7.4 0 1 153.94 200.20
  Q 156.43 209.32 158.88 218.72
  Q 158.98 219.11 159.10 219.11
  Z"
/>
<rect fill="#231f20" x="184.58" y="199.88" width="2.88" height="24.32" rx="0.34"/>
<rect fill="#231f20" x="192.13" y="199.87" width="2.90" height="24.32" rx="0.34"/>
<rect fill="#231f20" x="-1.45" y="-1.70" transform="translate(276.14,201.56) rotate(-0.1)" width="2.90" height="3.40" rx="0.38"/>
<path fill="#231f20" d="
  M 359.81 210.53
  L 359.81 212.80
  A 0.34 0.34 0.0 0 1 359.47 213.14
  L 351.89 213.14
  A 0.34 0.34 0.0 0 0 351.55 213.48
  L 351.55 220.85
  A 0.34 0.34 0.0 0 0 351.89 221.19
  L 359.48 221.19
  A 0.34 0.34 0.0 0 1 359.82 221.53
  L 359.82 223.85
  A 0.34 0.34 0.0 0 1 359.48 224.19
  L 348.64 224.19
  A 0.34 0.34 0.0 0 1 348.30 223.85
  L 348.30 200.21
  A 0.34 0.34 0.0 0 1 348.64 199.87
  L 359.48 199.87
  A 0.34 0.34 0.0 0 1 359.82 200.21
  L 359.82 202.53
  A 0.34 0.34 0.0 0 1 359.48 202.87
  L 351.89 202.87
  A 0.34 0.34 0.0 0 0 351.55 203.21
  L 351.55 209.85
  A 0.34 0.34 0.0 0 0 351.89 210.19
  L 359.47 210.19
  A 0.34 0.34 0.0 0 1 359.81 210.53
  Z"
/>
<rect fill="#231f20" x="-1.45" y="-1.70" transform="translate(453.19,201.56) rotate(0.2)" width="2.90" height="3.40" rx="0.37"/>
<rect fill="#231f20" x="-1.44" y="-1.70" transform="translate(598.02,201.57) rotate(0.8)" width="2.88" height="3.40" rx="0.36"/>
<path fill="#231f20" d="
  M 559.03 224.19
  Q 558.55 224.19 558.14 224.15
  A 0.62 0.62 0.0 0 1 557.57 223.54
  L 557.56 209.41
  A 0.61 0.60 90.0 0 0 556.96 208.80
  L 555.77 208.81
  A 0.52 0.51 -0.0 0 1 555.25 208.30
  L 555.25 206.60
  A 0.48 0.47 90.0 0 1 555.72 206.12
  L 556.85 206.12
  A 0.72 0.71 -0.0 0 0 557.57 205.40
  L 557.56 201.79
  A 0.68 0.67 86.9 0 1 558.16 201.11
  Q 558.45 201.08 559.02 201.08
  Q 559.59 201.08 559.88 201.11
  A 0.68 0.67 -87.0 0 1 560.48 201.79
  L 560.48 205.40
  A 0.72 0.71 0.0 0 0 561.20 206.11
  L 562.32 206.11
  A 0.48 0.47 -90.0 0 1 562.79 206.59
  L 562.79 208.29
  A 0.52 0.51 0.0 0 1 562.27 208.80
  L 561.08 208.80
  A 0.61 0.60 -90.0 0 0 560.48 209.41
  L 560.48 223.54
  A 0.62 0.62 0.0 0 1 559.92 224.15
  Q 559.50 224.19 559.03 224.19
  Z"
/>
<path fill="#231f20" d="
  M 605.98 201.06
  Q 606.55 201.06 606.84 201.10
  A 0.68 0.67 -87.0 0 1 607.44 201.77
  L 607.44 205.39
  A 0.72 0.71 0.0 0 0 608.16 206.10
  L 609.29 206.10
  A 0.48 0.47 -90.0 0 1 609.76 206.58
  L 609.76 208.28
  A 0.52 0.51 0.0 0 1 609.24 208.79
  L 608.05 208.79
  A 0.61 0.60 90.0 0 0 607.45 209.40
  L 607.45 223.53
  A 0.62 0.62 0.0 0 1 606.89 224.14
  Q 606.47 224.19 606.00 224.19
  Q 605.52 224.19 605.11 224.15
  A 0.62 0.62 0.0 0 1 604.54 223.53
  L 604.52 209.40
  A 0.61 0.60 89.9 0 0 603.92 208.79
  L 602.73 208.79
  A 0.52 0.51 -0.1 0 1 602.21 208.28
  L 602.21 206.58
  A 0.48 0.47 89.9 0 1 602.68 206.10
  L 603.81 206.10
  A 0.72 0.71 -0.1 0 0 604.53 205.39
  L 604.52 201.77
  A 0.68 0.67 86.9 0 1 605.12 201.10
  Q 605.41 201.06 605.98 201.06
  Z"
/>
<path fill="#231f20" d="
  M 40.36 215.13
  C 40.35 212.02 41.11 207.12 44.64 205.98
  Q 48.30 204.81 50.27 208.21
  A 0.20 0.20 0.0 0 0 50.65 208.11
  L 50.64 206.51
  A 0.46 0.46 0.0 0 1 51.10 206.05
  L 52.77 206.05
  A 0.53 0.53 0.0 0 1 53.31 206.58
  Q 53.30 210.70 53.32 215.11
  Q 53.31 219.53 53.33 223.65
  A 0.53 0.53 0.0 0 1 52.80 224.18
  L 51.12 224.18
  A 0.46 0.46 0.0 0 1 50.66 223.72
  L 50.66 222.12
  A 0.20 0.20 0.0 0 0 50.28 222.02
  Q 48.32 225.43 44.66 224.27
  C 41.13 223.14 40.36 218.24 40.36 215.13
  Z
  M 46.8500 221.8600
  A 6.73 3.70 90.0 0 0 50.5500 215.1300
  A 6.73 3.70 90.0 0 0 46.8500 208.4000
  A 6.73 3.70 90.0 0 0 43.1500 215.1300
  A 6.73 3.70 90.0 0 0 46.8500 221.8600
  Z"
/>
<path fill="#231f20" d="
  M 60.17 207.86
  A 0.19 0.19 0.0 0 0 60.51 207.97
  Q 61.77 206.35 61.97 206.27
  Q 66.00 204.52 68.11 207.86
  A 0.37 0.36 42.8 0 0 68.74 207.84
  C 70.52 204.59 75.50 205.34 77.25 208.11
  Q 78.01 209.31 78.11 212.75
  Q 78.15 213.81 78.10 223.80
  A 0.39 0.38 -89.9 0 1 77.72 224.19
  L 75.59 224.18
  A 0.42 0.42 0.0 0 1 75.18 223.76
  L 75.19 211.12
  A 2.52 2.51 86.4 0 0 72.36 208.62
  L 71.92 208.68
  A 3.11 3.10 86.5 0 0 69.20 211.76
  L 69.19 223.82
  A 0.37 0.37 0.0 0 1 68.82 224.19
  L 66.67 224.19
  A 0.38 0.38 0.0 0 1 66.29 223.81
  L 66.31 211.21
  A 2.60 2.60 0.0 0 0 63.50 208.62
  L 63.11 208.65
  A 3.04 3.03 -2.3 0 0 60.32 211.66
  L 60.31 223.69
  A 0.49 0.49 0.0 0 1 59.82 224.18
  L 57.86 224.18
  A 0.47 0.46 -89.9 0 1 57.40 223.71
  L 57.42 206.61
  A 0.54 0.54 0.0 0 1 57.96 206.07
  L 59.55 206.07
  A 0.62 0.62 0.0 0 1 60.17 206.69
  L 60.17 207.86
  Z"
/>
<path fill="#231f20" d="
  M 85.22 208.13
  Q 87.24 204.86 90.50 205.90
  C 96.56 207.82 96.69 221.66 91.06 224.18
  Q 87.99 225.55 85.43 222.47
  A 0.23 0.23 0.0 0 0 85.02 222.62
  L 85.02 230.06
  A 0.49 0.49 0.0 0 1 84.53 230.55
  L 82.63 230.55
  A 0.48 0.48 0.0 0 1 82.15 230.07
  L 82.15 206.64
  A 0.57 0.57 0.0 0 1 82.72 206.07
  L 84.21 206.07
  A 0.59 0.59 0.0 0 1 84.80 206.66
  L 84.80 208.01
  A 0.23 0.23 0.0 0 0 85.22 208.13
  Z
  M 88.6100 221.8500
  A 6.72 3.68 90.0 0 0 92.2900 215.1300
  A 6.72 3.68 90.0 0 0 88.6100 208.4100
  A 6.72 3.68 90.0 0 0 84.9300 215.1300
  A 6.72 3.68 90.0 0 0 88.6100 221.8500
  Z"
/>
<path fill="#231f20" d="
  M 117.78 215.11
  Q 117.78 219.53 117.79 223.65
  A 0.53 0.53 0.0 0 1 117.26 224.18
  L 115.59 224.18
  A 0.46 0.46 0.0 0 1 115.13 223.72
  L 115.13 222.12
  A 0.20 0.20 0.0 0 0 114.75 222.02
  Q 112.79 225.43 109.13 224.26
  C 105.60 223.14 104.83 218.24 104.83 215.13
  C 104.82 212.02 105.58 207.12 109.11 205.98
  Q 112.77 204.81 114.74 208.22
  A 0.20 0.20 0.0 0 0 115.12 208.12
  L 115.11 206.52
  A 0.46 0.46 0.0 0 1 115.57 206.05
  L 117.24 206.05
  A 0.53 0.53 0.0 0 1 117.78 206.58
  Q 117.77 210.70 117.78 215.11
  Z
  M 111.3300 221.8600
  A 6.73 3.70 90.0 0 0 115.0300 215.1300
  A 6.73 3.70 90.0 0 0 111.3300 208.4000
  A 6.73 3.70 90.0 0 0 107.6300 215.1300
  A 6.73 3.70 90.0 0 0 111.3300 221.8600
  Z"
/>
<path fill="#231f20" d="
  M 131.87 208.00
  A 0.18 0.18 0.0 0 0 132.20 208.10
  Q 134.39 204.76 138.42 206.02
  C 140.91 206.79 141.54 209.29 141.55 211.75
  Q 141.57 217.40 141.57 223.78
  A 0.41 0.41 0.0 0 1 141.16 224.19
  L 139.06 224.19
  A 0.42 0.41 -0.0 0 1 138.64 223.78
  L 138.63 211.36
  A 2.80 2.79 87.0 0 0 135.54 208.57
  L 135.25 208.60
  A 3.42 3.41 87.0 0 0 132.20 212.01
  L 132.20 223.81
  A 0.39 0.39 0.0 0 1 131.81 224.20
  L 129.68 224.20
  A 0.38 0.38 0.0 0 1 129.30 223.82
  L 129.30 206.60
  A 0.52 0.52 0.0 0 1 129.82 206.08
  L 131.30 206.08
  A 0.57 0.56 -0.0 0 1 131.87 206.64
  L 131.87 208.00
  Z"
/>
<path fill="#231f20" d="
  M 167.33 215.13
  C 167.32 212.02 168.08 207.12 171.61 205.98
  Q 175.27 204.81 177.24 208.21
  A 0.20 0.20 0.0 0 0 177.62 208.11
  L 177.62 206.51
  A 0.46 0.46 0.0 0 1 178.08 206.05
  L 179.75 206.05
  A 0.53 0.53 0.0 0 1 180.28 206.57
  Q 180.28 210.70 180.29 215.11
  Q 180.29 219.53 180.31 223.65
  A 0.53 0.53 0.0 0 1 179.77 224.18
  L 178.10 224.18
  A 0.46 0.46 0.0 0 1 177.64 223.72
  L 177.64 222.12
  A 0.20 0.20 0.0 0 0 177.26 222.02
  Q 175.30 225.43 171.64 224.27
  C 168.10 223.14 167.33 218.24 167.33 215.13
  Z
  M 173.8300 221.8600
  A 6.73 3.70 90.0 0 0 177.5300 215.1300
  A 6.73 3.70 90.0 0 0 173.8300 208.4000
  A 6.73 3.70 90.0 0 0 170.1300 215.1300
  A 6.73 3.70 90.0 0 0 173.8300 221.8600
  Z"
/>
<path fill="#231f20" d="
  M 202.64 216.07
  A 1.06 1.05 -8.2 0 0 201.62 217.42
  L 202.22 219.46
  A 3.25 3.24 -0.1 0 0 204.46 221.68
  Q 207.72 222.59 208.90 218.94
  A 0.31 0.31 0.0 0 1 209.19 218.73
  L 211.50 218.73
  A 0.19 0.19 0.0 0 1 211.69 218.95
  C 210.90 223.82 206.04 226.21 201.95 223.49
  C 196.78 220.05 197.27 206.89 204.43 205.80
  C 210.30 204.91 212.01 210.47 211.96 215.42
  A 0.65 0.65 0.0 0 1 211.31 216.07
  L 202.64 216.07
  Z
  M 202.03 213.58
  L 208.65 213.62
  A 0.34 0.34 0.0 0 0 208.99 213.28
  L 208.99 213.07
  A 4.91 3.49 -89.7 0 0 205.52 208.14
  L 205.20 208.14
  A 4.91 3.49 -89.7 0 0 201.69 213.03
  L 201.69 213.24
  A 0.34 0.34 0.0 0 0 202.03 213.58
  Z"
/>
<path fill="#231f20" d="
  M 283.47 215.14
  C 283.47 218.13 284.30 223.07 288.21 221.65
  C 289.55 221.16 290.14 219.35 290.24 218.07
  A 0.32 0.31 1.9 0 1 290.56 217.78
  L 293.01 217.78
  A 0.23 0.23 0.0 0 1 293.24 218.03
  C 292.85 222.75 289.41 226.05 284.73 223.99
  C 281.40 222.53 280.40 218.58 280.39 215.14
  C 280.39 211.70 281.39 207.76 284.72 206.29
  C 289.40 204.22 292.84 207.52 293.24 212.24
  A 0.23 0.23 0.0 0 1 293.01 212.49
  L 290.56 212.49
  A 0.32 0.31 -2.0 0 1 290.24 212.20
  C 290.14 210.92 289.54 209.11 288.20 208.62
  C 284.29 207.21 283.47 212.15 283.47 215.14
  Z"
/>
<path fill="#231f20" d="
  M 299.14 216.07
  A 1.06 1.05 -8.2 0 0 298.12 217.42
  L 298.72 219.46
  A 3.25 3.24 -0.1 0 0 300.95 221.68
  Q 304.21 222.59 305.39 218.94
  A 0.31 0.31 0.0 0 1 305.68 218.73
  L 307.99 218.73
  A 0.19 0.19 0.0 0 1 308.18 218.95
  C 307.39 223.82 302.53 226.21 298.44 223.49
  C 293.28 220.05 293.77 206.89 300.93 205.81
  C 306.80 204.92 308.50 210.48 308.45 215.43
  A 0.65 0.65 0.0 0 1 307.80 216.07
  L 299.14 216.07
  Z
  M 298.57 213.60
  L 305.11 213.62
  A 0.38 0.38 0.0 0 0 305.49 213.24
  L 305.49 213.01
  A 4.87 3.54 -89.9 0 0 301.95 208.13
  L 301.73 208.13
  A 4.87 3.54 -89.9 0 0 298.19 212.99
  L 298.19 213.22
  A 0.38 0.38 0.0 0 0 298.57 213.60
  Z"
/>
<path fill="#231f20" d="
  M 323.6800 224.7300
  A 9.60 7.10 90.0 0 1 316.5800 215.1300
  A 9.60 7.10 90.0 0 1 323.6800 205.5300
  A 9.60 7.10 90.0 0 1 330.7800 215.1300
  A 9.60 7.10 90.0 0 1 323.6800 224.7300
  Z
  M 323.7121 222.0600
  A 6.92 4.06 89.9 0 0 327.7600 215.1329
  A 6.92 4.06 89.9 0 0 323.6879 208.2200
  A 6.92 4.06 89.9 0 0 319.6400 215.1471
  A 6.92 4.06 89.9 0 0 323.7121 222.0600
  Z"
/>
<path fill="#231f20" d="
  M 362.72 215.15
  C 362.71 211.71 363.71 207.76 367.04 206.29
  C 371.72 204.22 375.16 207.52 375.56 212.24
  A 0.23 0.23 0.0 0 1 375.33 212.49
  L 372.88 212.49
  A 0.32 0.31 -2.0 0 1 372.56 212.20
  C 372.46 210.92 371.86 209.11 370.52 208.63
  C 366.61 207.21 365.79 212.16 365.80 215.14
  C 365.80 218.13 366.63 223.07 370.54 221.65
  C 371.88 221.16 372.47 219.35 372.57 218.07
  A 0.32 0.31 1.9 0 1 372.89 217.78
  L 375.34 217.78
  A 0.23 0.23 0.0 0 1 375.57 218.03
  C 375.18 222.75 371.74 226.05 367.06 223.99
  C 363.73 222.53 362.72 218.59 362.72 215.15
  Z"
/>
<path fill="#231f20" d="
  M 384.2400 224.7300
  A 9.60 7.10 90.0 0 1 377.1400 215.1300
  A 9.60 7.10 90.0 0 1 384.2400 205.5300
  A 9.60 7.10 90.0 0 1 391.3400 215.1300
  A 9.60 7.10 90.0 0 1 384.2400 224.7300
  Z
  M 384.2721 222.0500
  A 6.92 4.06 89.9 0 0 388.3200 215.1229
  A 6.92 4.06 89.9 0 0 384.2479 208.2100
  A 6.92 4.06 89.9 0 0 380.2000 215.1371
  A 6.92 4.06 89.9 0 0 384.2721 222.0500
  Z"
/>
<path fill="#231f20" d="
  M 397.18 208.09
  Q 399.37 204.76 403.40 206.02
  C 405.89 206.79 406.51 209.29 406.52 211.75
  Q 406.54 217.39 406.54 223.77
  A 0.41 0.41 0.0 0 1 406.13 224.18
  L 404.03 224.18
  A 0.42 0.41 0.0 0 1 403.61 223.77
  L 403.61 211.35
  A 2.80 2.79 87.0 0 0 400.52 208.57
  L 400.23 208.60
  A 3.42 3.41 87.0 0 0 397.18 212.00
  L 397.18 223.80
  A 0.39 0.39 0.0 0 1 396.79 224.19
  L 394.66 224.19
  A 0.38 0.38 0.0 0 1 394.28 223.81
  L 394.28 206.60
  A 0.52 0.52 0.0 0 1 394.80 206.08
  L 396.28 206.08
  A 0.57 0.56 -0.0 0 1 396.85 206.64
  L 396.85 207.99
  A 0.18 0.18 0.0 0 0 397.18 208.09
  Z"
/>
<path fill="#231f20" d="
  M 416.5200 224.7300
  A 9.60 7.10 90.0 0 1 409.4200 215.1300
  A 9.60 7.10 90.0 0 1 416.5200 205.5300
  A 9.60 7.10 90.0 0 1 423.6200 215.1300
  A 9.60 7.10 90.0 0 1 416.5200 224.7300
  Z
  M 416.5400 222.0600
  A 6.92 4.05 90.0 0 0 420.5900 215.1400
  A 6.92 4.05 90.0 0 0 416.5400 208.2200
  A 6.92 4.05 90.0 0 0 412.4900 215.1400
  A 6.92 4.05 90.0 0 0 416.5400 222.0600
  Z"
/>
<path fill="#231f20" d="
  M 429.77 207.98
  Q 431.03 206.36 431.23 206.28
  Q 435.27 204.52 437.38 207.86
  A 0.37 0.36 42.8 0 0 438.01 207.84
  C 439.79 204.59 444.78 205.33 446.53 208.11
  Q 447.29 209.31 447.40 212.75
  Q 447.44 213.81 447.40 223.81
  A 0.39 0.38 90.0 0 1 447.02 224.20
  L 444.89 224.20
  A 0.42 0.42 0.0 0 1 444.47 223.78
  L 444.47 211.12
  A 2.52 2.51 86.4 0 0 441.64 208.62
  L 441.20 208.68
  A 3.12 3.11 86.4 0 0 438.48 211.77
  L 438.48 223.84
  A 0.37 0.37 0.0 0 1 438.11 224.21
  L 435.96 224.21
  A 0.38 0.38 0.0 0 1 435.58 223.83
  L 435.58 211.22
  A 2.61 2.60 -2.2 0 0 432.77 208.63
  L 432.38 208.66
  A 3.04 3.03 -2.4 0 0 429.59 211.68
  L 429.59 223.72
  A 0.49 0.49 0.0 0 1 429.10 224.21
  L 427.14 224.21
  A 0.47 0.46 -90.0 0 1 426.68 223.74
  L 426.68 206.62
  A 0.54 0.54 0.0 0 1 427.22 206.08
  L 428.81 206.08
  A 0.62 0.62 0.0 0 1 429.43 206.70
  L 429.43 207.87
  A 0.19 0.19 0.0 0 0 429.77 207.98
  Z"
/>
<path fill="#231f20" d="
  M 457.94 215.15
  C 457.93 211.71 458.93 207.76 462.26 206.29
  C 466.94 204.23 470.38 207.52 470.78 212.24
  A 0.23 0.23 0.0 0 1 470.55 212.49
  L 468.10 212.49
  A 0.32 0.31 -2.0 0 1 467.78 212.20
  C 467.68 210.92 467.09 209.12 465.74 208.63
  C 461.84 207.21 461.01 212.16 461.02 215.14
  C 461.02 218.13 461.85 223.07 465.76 221.65
  C 467.10 221.16 467.69 219.35 467.79 218.07
  A 0.32 0.31 1.9 0 1 468.11 217.78
  L 470.56 217.78
  A 0.23 0.23 0.0 0 1 470.79 218.03
  C 470.40 222.75 466.96 226.05 462.27 223.99
  C 458.95 222.53 457.94 218.59 457.94 215.15
  Z"
/>
<path fill="#231f20" d="
  M 501.49 208.02
  A 0.23 0.23 0.0 0 0 501.91 208.14
  Q 503.93 204.87 507.19 205.91
  C 513.25 207.83 513.37 221.67 507.74 224.18
  Q 504.67 225.55 502.12 222.47
  A 0.23 0.23 0.0 0 0 501.71 222.62
  L 501.70 230.06
  A 0.49 0.49 0.0 0 1 501.21 230.55
  L 499.32 230.55
  A 0.48 0.48 0.0 0 1 498.84 230.07
  L 498.84 206.65
  A 0.57 0.57 0.0 0 1 499.41 206.08
  L 500.90 206.08
  A 0.59 0.59 0.0 0 1 501.49 206.67
  L 501.49 208.02
  Z
  M 505.3100 221.8500
  A 6.72 3.68 90.0 0 0 508.9900 215.1300
  A 6.72 3.68 90.0 0 0 505.3100 208.4100
  A 6.72 3.68 90.0 0 0 501.6300 215.1300
  A 6.72 3.68 90.0 0 0 505.3100 221.8500
  Z"
/>
<path fill="#231f20" d="
  M 517.36 208.01
  A 0.23 0.23 0.0 0 0 517.78 208.13
  Q 519.80 204.86 523.06 205.90
  C 529.12 207.82 529.24 221.66 523.61 224.18
  Q 520.54 225.55 517.98 222.47
  A 0.23 0.23 0.0 0 0 517.57 222.62
  L 517.57 230.06
  A 0.49 0.49 0.0 0 1 517.08 230.55
  L 515.18 230.55
  A 0.48 0.48 0.0 0 1 514.70 230.07
  L 514.71 206.63
  A 0.57 0.57 0.0 0 1 515.28 206.06
  L 516.77 206.07
  A 0.59 0.59 0.0 0 1 517.36 206.66
  L 517.36 208.01
  Z
  M 521.1700 221.8400
  A 6.71 3.68 90.0 0 0 524.8500 215.1300
  A 6.71 3.68 90.0 0 0 521.1700 208.4200
  A 6.71 3.68 90.0 0 0 517.4900 215.1300
  A 6.71 3.68 90.0 0 0 521.1700 221.8400
  Z"
/>
<path fill="#231f20" d="
  M 536.7900 224.7300
  A 9.60 7.10 90.0 0 1 529.6900 215.1300
  A 9.60 7.10 90.0 0 1 536.7900 205.5300
  A 9.60 7.10 90.0 0 1 543.8900 215.1300
  A 9.60 7.10 90.0 0 1 536.7900 224.7300
  Z
  M 536.8221 222.0700
  A 6.93 4.06 89.9 0 0 540.8700 215.1329
  A 6.93 4.06 89.9 0 0 536.7979 208.2100
  A 6.93 4.06 89.9 0 0 532.7500 215.1471
  A 6.93 4.06 89.9 0 0 536.8221 222.0700
  Z"
/>
<path fill="#231f20" d="
  M 549.23 223.84
  A 0.34 0.33 89.2 0 1 548.90 224.19
  L 546.65 224.19
  A 0.32 0.32 0.0 0 1 546.33 223.87
  L 546.33 206.51
  A 0.45 0.44 0.0 0 1 546.78 206.07
  L 548.57 206.07
  A 0.45 0.45 0.0 0 1 549.02 206.56
  Q 548.88 208.19 548.97 208.36
  A 0.30 0.30 0.0 0 0 549.51 208.31
  Q 550.35 205.92 553.41 205.70
  A 0.28 0.28 0.0 0 1 553.71 205.98
  L 553.71 208.64
  A 0.26 0.25 4.0 0 1 553.42 208.89
  Q 549.73 208.47 549.37 213.08
  Q 549.07 216.74 549.23 223.84
  Z"
/>
<path fill="#231f20" d="
  M 583.47 207.99
  A 0.18 0.18 0.0 0 0 583.80 208.09
  Q 585.99 204.76 590.02 206.03
  C 592.51 206.80 593.13 209.30 593.14 211.76
  Q 593.15 217.40 593.14 223.78
  A 0.41 0.41 0.0 0 1 592.73 224.19
  L 590.63 224.19
  A 0.42 0.41 0.0 0 1 590.22 223.78
  L 590.23 211.36
  A 2.80 2.79 87.0 0 0 587.14 208.57
  L 586.85 208.60
  A 3.42 3.40 87.1 0 0 583.80 212.00
  L 583.79 223.80
  A 0.39 0.39 0.0 0 1 583.40 224.19
  L 581.27 224.19
  A 0.38 0.38 0.0 0 1 580.89 223.81
  L 580.90 206.60
  A 0.52 0.52 0.0 0 1 581.42 206.08
  L 582.90 206.08
  A 0.57 0.56 0.0 0 1 583.47 206.64
  L 583.47 207.99
  Z"
/>
<rect fill="#231f20" x="122.09" y="206.07" width="2.86" height="18.12" rx="0.26"/>
<path fill="#231f20" d="
  M 223.64 206.08
  L 225.77 206.08
  A 0.33 0.33 0.0 0 1 226.09 206.51
  L 218.77 230.31
  A 0.33 0.33 0.0 0 1 218.46 230.54
  L 216.33 230.54
  A 0.33 0.33 0.0 0 1 216.01 230.11
  L 218.02 223.57
  A 0.33 0.33 0.0 0 0 218.02 223.39
  L 213.08 206.49
  A 0.33 0.33 0.0 0 1 213.40 206.07
  L 215.58 206.07
  A 0.33 0.33 0.0 0 1 215.90 206.31
  L 219.21 217.64
  A 0.33 0.33 0.0 0 0 219.84 217.65
  L 223.33 206.31
  A 0.33 0.33 0.0 0 1 223.64 206.08
  Z"
/>
<rect fill="#231f20" x="274.69" y="206.09" width="2.90" height="18.10" rx="0.41"/>
<rect fill="#231f20" x="451.74" y="206.09" width="2.90" height="18.10" rx="0.37"/>
<path fill="#231f20" d="
  M 574.79 222.29
  A 0.18 0.18 0.0 0 0 574.46 222.19
  Q 572.26 225.51 568.23 224.24
  C 565.74 223.46 565.13 220.96 565.12 218.49
  Q 565.12 212.85 565.14 206.46
  A 0.41 0.41 0.0 0 1 565.55 206.05
  L 567.65 206.06
  A 0.42 0.41 0.2 0 1 568.07 206.47
  L 568.04 218.90
  A 2.80 2.80 0.0 0 0 571.12 221.70
  L 571.41 221.67
  A 3.42 3.41 87.2 0 0 574.47 218.27
  L 574.51 206.46
  A 0.39 0.39 0.0 0 1 574.90 206.07
  L 577.03 206.07
  A 0.38 0.38 0.0 0 1 577.41 206.46
  L 577.36 223.69
  A 0.52 0.52 0.0 0 1 576.84 224.21
  L 575.36 224.20
  A 0.57 0.56 0.2 0 1 574.79 223.64
  L 574.79 222.29
  Z"
/>
<rect fill="#231f20" x="596.58" y="206.09" width="2.88" height="18.10" rx="0.34"/>
<path fill="#231f20" d="
  M 624.00 206.22
  Q 623.98 206.28 624.00 206.33
  L 616.72 229.89
  A 0.93 0.93 0.0 0 1 615.83 230.55
  L 614.21 230.55
  A 0.41 0.41 0.0 0 1 613.82 230.02
  L 615.66 224.02
  A 1.92 1.91 -44.7 0 0 615.67 222.92
  L 610.88 206.53
  A 0.37 0.37 0.0 0 1 611.23 206.06
  L 613.19 206.06
  A 0.58 0.58 0.0 0 1 613.75 206.48
  L 617.26 218.46
  A 0.06 0.06 0.0 0 0 617.38 218.46
  L 621.02 206.61
  A 0.70 0.67 -87.2 0 1 621.50 206.15
  Q 622.63 205.85 624.00 206.22
  Z"
/>
</svg>
