<?xml version="1.0" encoding="UTF-8" standalone="no"?>
<!DOCTYPE svg PUBLIC "-//W3C//DTD SVG 1.1//EN" "http://www.w3.org/Graphics/SVG/1.1/DTD/svg11.dtd">
<svg width="100%" height="100%" viewBox="0 0 624 231" version="1.1" xmlns="http://www.w3.org/2000/svg" xmlns:xlink="http://www.w3.org/1999/xlink" xml:space="preserve" xmlns:serif="http://www.serif.com/" style="fill-rule:evenodd;clip-rule:evenodd;stroke-linejoin:round;stroke-miterlimit:2;">
    <g transform="matrix(1,0,0,1,-1501,-2079)">
        <g transform="matrix(4.16667,0,0,4.16667,0,0)">
            <g id="LOGO">
                <g transform="matrix(1,0,0,1,456.772,529.631)">
                    <path d="M0,-0.038C0,-3.708 2.762,-6.395 6.167,-6.395C9.573,-6.395 12.297,-3.708 12.297,-0.038C12.297,3.632 9.573,6.319 6.167,6.319C2.762,6.319 0,3.632 0,0L0,-0.038ZM-4.957,-0.038C-4.957,5.335 -1.059,10.972 6.167,10.972C13.394,10.972 17.291,5.335 17.291,-0.038C17.291,-5.373 13.394,-11.011 6.167,-11.011C-1.059,-11.011 -4.957,-5.373 -4.957,-0.076L-4.957,-0.038ZM-23.912,-2.157C-23.723,-4.2 -21.717,-6.849 -18.047,-6.849C-14.415,-6.886 -12.334,-4.124 -12.145,-2.157L-23.912,-2.157ZM-7.264,1.627C-6.848,-2.005 -7.793,-5.259 -10.329,-7.87C-12.258,-9.875 -14.982,-11.048 -18.085,-11.048C-24.366,-11.048 -28.982,-5.865 -28.982,0.038C-28.982,5.827 -24.404,11.01 -18.009,11.01C-15.853,11.01 -13.81,10.405 -12.069,9.194C-10.329,8.021 -8.853,6.281 -7.869,3.973L-12.977,3.973C-13.923,5.675 -15.55,6.773 -17.971,6.773C-20.809,6.81 -23.76,4.956 -23.987,1.627L-7.264,1.627ZM-48.392,-0.038C-48.392,-3.708 -45.63,-6.395 -42.225,-6.395C-38.819,-6.395 -36.095,-3.708 -36.095,-0.038C-36.095,3.632 -38.819,6.319 -42.225,6.319C-45.63,6.319 -48.392,3.632 -48.392,0L-48.392,-0.038ZM-53.349,-0.038C-53.349,5.335 -49.451,10.972 -42.225,10.972C-34.998,10.972 -31.101,5.335 -31.101,-0.038C-31.101,-5.373 -34.998,-11.011 -42.225,-11.011C-49.451,-11.011 -53.349,-5.373 -53.349,-0.076L-53.349,-0.038ZM-53.689,-10.405L-58.835,-10.405L-63.829,4.124L-68.824,-10.405L-73.969,-10.405L-66.251,10.367L-61.408,10.367L-53.689,-10.405ZM-79.683,2.8C-80.439,4.502 -82.18,6.356 -85.282,6.356C-88.801,6.356 -91.412,3.708 -91.412,-0.038C-91.412,-1.854 -90.769,-3.519 -89.709,-4.654C-88.498,-5.827 -87.099,-6.47 -85.282,-6.432C-82.558,-6.432 -80.553,-4.881 -79.683,-2.687L-74.613,-2.687C-75.823,-7.757 -80.25,-11.048 -85.472,-11.048C-91.677,-11.048 -96.406,-6.167 -96.406,-0.038C-96.406,5.902 -91.866,11.01 -85.282,11.01C-79.91,11.01 -75.785,7.416 -74.613,2.8L-79.683,2.8Z" style="fill:rgb(35,31,32);fill-rule:nonzero;"/>
                </g>
                <g transform="matrix(1,0,0,1,507.502,546.824)">
                    <path d="M0,7.472L0.694,7.472L2.498,1.592L1.774,1.592L0.899,4.753L0.039,1.592L-0.685,1.592L0.544,5.793L0,7.472ZM-2.175,5.943L-1.474,5.943L-1.474,2.246L-0.922,2.246L-0.922,1.592L-1.474,1.592L-1.474,0.394L-2.175,0.394L-2.175,1.592L-2.727,1.592L-2.727,2.246L-2.175,2.246L-2.175,5.943ZM-4.082,5.943L-3.389,5.943L-3.389,1.593L-4.082,1.593L-4.082,5.943ZM-4.082,0.914L-3.389,0.914L-3.389,0.111L-4.082,0.111L-4.082,0.914ZM-7.85,5.943L-7.157,5.943L-7.157,3.263C-7.157,2.53 -6.818,2.183 -6.305,2.183C-5.667,2.183 -5.604,2.735 -5.604,3.137L-5.604,5.943L-4.911,5.943L-4.911,2.908C-4.911,1.916 -5.391,1.498 -6.116,1.498C-6.629,1.498 -7.039,1.719 -7.244,2.23C-7.236,2.001 -7.236,1.805 -7.236,1.592L-7.85,1.592L-7.85,5.943ZM-8.687,1.592L-9.379,1.592L-9.379,4.28C-9.379,5.013 -9.726,5.352 -10.239,5.352C-10.87,5.352 -10.933,4.801 -10.933,4.406L-10.933,1.592L-11.634,1.592L-11.634,4.635C-11.634,5.628 -11.154,6.037 -10.421,6.037C-9.908,6.037 -9.498,5.817 -9.316,5.281C-9.324,5.518 -9.324,5.723 -9.324,5.943L-8.687,5.943L-8.687,1.592ZM-13.447,5.943L-12.746,5.943L-12.746,2.246L-12.194,2.246L-12.194,1.592L-12.746,1.592L-12.746,0.394L-13.447,0.394L-13.447,1.592L-13.999,1.592L-13.999,2.246L-13.447,2.246L-13.447,5.943ZM-16.143,5.943L-15.45,5.943L-15.45,3.547C-15.45,2.656 -15.024,2.246 -14.654,2.246C-14.559,2.246 -14.465,2.262 -14.37,2.325L-14.37,1.498C-14.819,1.506 -15.316,1.648 -15.513,2.396C-15.505,2.16 -15.505,1.931 -15.505,1.592L-16.143,1.592L-16.143,5.943ZM-19.375,3.768C-19.375,2.656 -19.044,2.151 -18.437,2.151C-17.814,2.151 -17.482,2.656 -17.482,3.768C-17.482,4.887 -17.814,5.392 -18.421,5.392C-19.044,5.392 -19.375,4.887 -19.375,3.776L-19.375,3.768ZM-20.107,3.768C-20.107,5.021 -19.587,6.037 -18.429,6.037C-17.278,6.037 -16.758,5.021 -16.758,3.768C-16.758,2.522 -17.278,1.498 -18.429,1.498C-19.587,1.498 -20.107,2.522 -20.107,3.76L-20.107,3.768ZM-21.313,3.768C-21.313,4.753 -21.613,5.352 -22.181,5.352C-22.465,5.352 -22.654,5.21 -22.804,4.966C-22.978,4.714 -23.041,4.375 -23.041,3.768C-23.041,3.161 -22.978,2.821 -22.804,2.569C-22.654,2.333 -22.465,2.183 -22.181,2.183C-21.613,2.183 -21.313,2.79 -21.313,3.76L-21.313,3.768ZM-23.733,7.472L-23.041,7.472L-23.041,5.943C-23.041,5.652 -23.041,5.471 -23.049,5.305C-22.883,5.754 -22.52,6.037 -22.047,6.037C-21.148,6.037 -20.621,5.147 -20.621,3.776C-20.621,2.333 -21.211,1.498 -22.047,1.498C-22.551,1.498 -22.899,1.758 -23.096,2.293L-23.096,1.592L-23.733,1.592L-23.733,7.472ZM-25.12,3.768C-25.12,4.753 -25.421,5.352 -25.988,5.352C-26.272,5.352 -26.461,5.21 -26.611,4.966C-26.785,4.714 -26.848,4.375 -26.848,3.768C-26.848,3.161 -26.785,2.821 -26.611,2.569C-26.461,2.333 -26.272,2.183 -25.988,2.183C-25.421,2.183 -25.12,2.79 -25.12,3.76L-25.12,3.768ZM-27.54,7.472L-26.848,7.472L-26.848,5.943C-26.848,5.652 -26.848,5.471 -26.856,5.305C-26.69,5.754 -26.327,6.037 -25.854,6.037C-24.955,6.037 -24.428,5.147 -24.428,3.776C-24.428,2.333 -25.018,1.498 -25.854,1.498C-26.359,1.498 -26.706,1.758 -26.903,2.293L-26.903,1.592L-27.54,1.592L-27.54,7.472ZM-31.625,3.027C-31.625,1.489 -31.128,0.717 -30.292,0.717C-29.456,0.717 -28.967,1.489 -28.967,3.027C-28.967,4.564 -29.456,5.337 -30.292,5.337C-31.128,5.337 -31.625,4.564 -31.625,3.035L-31.625,3.027ZM-32.419,3.027C-32.419,4.777 -31.704,6.053 -30.292,6.053C-28.794,6.053 -28.164,4.627 -28.164,3.027C-28.164,1.276 -28.881,0 -30.292,0C-31.704,0 -32.419,1.276 -32.419,3.019L-32.419,3.027ZM-34.972,4.406C-35.027,4.99 -35.264,5.392 -35.73,5.392C-36.297,5.392 -36.628,4.864 -36.628,3.768C-36.628,3.224 -36.55,2.853 -36.392,2.553C-36.226,2.246 -35.998,2.151 -35.73,2.151C-35.366,2.151 -35.043,2.396 -34.98,3.144L-34.271,3.144C-34.295,2.23 -34.783,1.498 -35.698,1.498C-36.699,1.498 -37.361,2.34 -37.361,3.776C-37.361,5.045 -36.802,6.037 -35.682,6.037C-34.783,6.037 -34.319,5.297 -34.256,4.406L-34.972,4.406ZM-38.843,5.943L-38.15,5.943L-38.15,1.593L-38.843,1.593L-38.843,5.943ZM-38.843,0.914L-38.15,0.914L-38.15,0.111L-38.843,0.111L-38.843,0.914ZM-44.857,5.943L-44.164,5.943L-44.164,3.223C-44.164,2.932 -44.125,2.648 -43.967,2.443C-43.802,2.246 -43.604,2.183 -43.375,2.183C-43.115,2.183 -42.902,2.309 -42.815,2.53C-42.737,2.727 -42.721,2.924 -42.721,3.215L-42.721,5.943L-42.028,5.943L-42.028,3.208C-42.028,2.94 -41.981,2.656 -41.831,2.451C-41.665,2.23 -41.453,2.183 -41.239,2.183C-40.979,2.183 -40.766,2.301 -40.671,2.53C-40.6,2.687 -40.585,2.932 -40.585,3.2L-40.585,5.943L-39.884,5.943L-39.884,3.113C-39.884,2.711 -39.947,2.269 -40.12,2.009C-40.309,1.726 -40.64,1.498 -41.129,1.498C-41.421,1.498 -41.689,1.585 -41.902,1.734C-42.052,1.853 -42.154,1.994 -42.241,2.199C-42.28,2.025 -42.359,1.868 -42.461,1.758C-42.65,1.585 -42.894,1.498 -43.178,1.498C-43.597,1.498 -44.014,1.648 -44.211,2.238C-44.204,2.01 -44.204,1.805 -44.204,1.592L-44.857,1.592L-44.857,5.943ZM-48.239,3.768C-48.239,2.656 -47.908,2.151 -47.301,2.151C-46.678,2.151 -46.347,2.656 -46.347,3.768C-46.347,4.887 -46.678,5.392 -47.285,5.392C-47.908,5.392 -48.239,4.887 -48.239,3.776L-48.239,3.768ZM-48.972,3.768C-48.972,5.021 -48.452,6.037 -47.293,6.037C-46.142,6.037 -45.622,5.021 -45.622,3.768C-45.622,2.522 -46.142,1.498 -47.293,1.498C-48.452,1.498 -48.972,2.522 -48.972,3.76L-48.972,3.768ZM-52.637,5.943L-51.944,5.943L-51.944,3.263C-51.944,2.53 -51.605,2.183 -51.092,2.183C-50.454,2.183 -50.391,2.735 -50.391,3.137L-50.391,5.943L-49.698,5.943L-49.698,2.908C-49.698,1.916 -50.178,1.498 -50.903,1.498C-51.416,1.498 -51.826,1.719 -52.031,2.23C-52.023,2.001 -52.023,1.805 -52.023,1.592L-52.637,1.592L-52.637,5.943ZM-55.988,3.768C-55.988,2.656 -55.657,2.151 -55.049,2.151C-54.426,2.151 -54.095,2.656 -54.095,3.768C-54.095,4.887 -54.426,5.392 -55.033,5.392C-55.657,5.392 -55.988,4.887 -55.988,3.776L-55.988,3.768ZM-56.72,3.768C-56.72,5.021 -56.201,6.037 -55.041,6.037C-53.89,6.037 -53.371,5.021 -53.371,3.768C-53.371,2.522 -53.89,1.498 -55.041,1.498C-56.201,1.498 -56.72,2.522 -56.72,3.76L-56.72,3.768ZM-57.824,4.406C-57.879,4.99 -58.115,5.392 -58.581,5.392C-59.149,5.392 -59.48,4.864 -59.48,3.768C-59.48,3.224 -59.401,2.853 -59.243,2.553C-59.077,2.246 -58.849,2.151 -58.581,2.151C-58.218,2.151 -57.895,2.396 -57.832,3.144L-57.123,3.144C-57.147,2.23 -57.635,1.498 -58.549,1.498C-59.551,1.498 -60.212,2.34 -60.212,3.776C-60.212,5.045 -59.653,6.037 -58.533,6.037C-57.635,6.037 -57.17,5.297 -57.107,4.406L-57.824,4.406ZM-63.672,5.943L-60.907,5.943L-60.907,5.226L-62.893,5.226L-62.893,3.294L-60.907,3.294L-60.907,2.578L-62.893,2.578L-62.893,0.827L-60.907,0.827L-60.907,0.11L-63.672,0.11L-63.672,5.943ZM-67.068,5.943L-66.375,5.943L-66.375,2.246L-65.674,2.246L-65.674,1.592L-66.375,1.592L-66.375,1.38C-66.375,0.756 -66.021,0.63 -65.674,0.614L-65.674,0.008C-66.044,0.008 -67.068,0.063 -67.068,1.317L-67.068,1.592L-67.525,1.592L-67.525,2.246L-67.068,2.246L-67.068,5.943ZM-70.522,3.768C-70.522,2.656 -70.19,2.151 -69.583,2.151C-68.96,2.151 -68.629,2.656 -68.629,3.768C-68.629,4.887 -68.96,5.392 -69.568,5.392C-70.19,5.392 -70.522,4.887 -70.522,3.776L-70.522,3.768ZM-71.254,3.768C-71.254,5.021 -70.734,6.037 -69.576,6.037C-68.424,6.037 -67.904,5.021 -67.904,3.768C-67.904,2.522 -68.424,1.498 -69.576,1.498C-70.734,1.498 -71.254,2.522 -71.254,3.76L-71.254,3.768ZM-75.723,3.398C-75.707,2.609 -75.352,2.08 -74.808,2.08C-74.201,2.08 -73.941,2.704 -73.925,3.398L-75.723,3.398ZM-73.232,3.996C-73.216,3.358 -73.263,2.664 -73.602,2.136C-73.862,1.726 -74.264,1.498 -74.8,1.498C-75.857,1.498 -76.455,2.451 -76.455,3.776C-76.455,4.935 -75.967,6.037 -74.784,6.037C-74.453,6.037 -74.114,5.943 -73.838,5.723C-73.563,5.494 -73.35,5.132 -73.271,4.635L-73.956,4.635C-74.051,5.092 -74.343,5.392 -74.784,5.392C-75.431,5.392 -75.723,4.745 -75.723,3.996L-73.232,3.996ZM-77.582,4.406C-77.638,4.99 -77.874,5.392 -78.339,5.392C-78.907,5.392 -79.238,4.864 -79.238,3.768C-79.238,3.224 -79.16,2.853 -79.002,2.553C-78.836,2.246 -78.608,2.151 -78.339,2.151C-77.976,2.151 -77.653,2.396 -77.59,3.144L-76.882,3.144C-76.905,2.23 -77.393,1.498 -78.308,1.498C-79.309,1.498 -79.971,2.34 -79.971,3.776C-79.971,5.045 -79.412,6.037 -78.292,6.037C-77.393,6.037 -76.929,5.297 -76.866,4.406L-77.582,4.406ZM-81.334,5.943L-80.641,5.943L-80.641,1.593L-81.334,1.593L-81.334,5.943ZM-81.334,0.914L-80.641,0.914L-80.641,0.111L-81.334,0.111L-81.334,0.914ZM-83.518,5.943L-82.825,5.943L-82.825,2.246L-82.124,2.246L-82.124,1.592L-82.825,1.592L-82.825,1.38C-82.825,0.756 -82.47,0.63 -82.124,0.614L-82.124,0.008C-82.494,0.008 -83.518,0.063 -83.518,1.317L-83.518,1.592L-83.975,1.592L-83.975,2.246L-83.518,2.246L-83.518,5.943ZM-85.519,5.943L-84.827,5.943L-84.827,2.246L-84.126,2.246L-84.126,1.592L-84.827,1.592L-84.827,1.38C-84.827,0.756 -84.473,0.63 -84.126,0.614L-84.126,0.008C-84.496,0.008 -85.519,0.063 -85.519,1.317L-85.519,1.592L-85.977,1.592L-85.977,2.246L-85.519,2.246L-85.519,5.943ZM-89.825,3.027C-89.825,1.489 -89.327,0.717 -88.492,0.717C-87.656,0.717 -87.167,1.489 -87.167,3.027C-87.167,4.564 -87.656,5.337 -88.492,5.337C-89.327,5.337 -89.825,4.564 -89.825,3.035L-89.825,3.027ZM-90.619,3.027C-90.619,4.777 -89.904,6.053 -88.492,6.053C-86.994,6.053 -86.364,4.627 -86.364,3.027C-86.364,1.276 -87.081,0 -88.492,0C-89.904,0 -90.619,1.276 -90.619,3.019L-90.619,3.027ZM-95.468,7.472L-94.774,7.472L-92.97,1.592L-93.694,1.592L-94.569,4.753L-95.429,1.592L-96.153,1.592L-94.924,5.793L-95.468,7.472ZM-98.881,3.398C-98.865,2.609 -98.511,2.08 -97.967,2.08C-97.359,2.08 -97.099,2.704 -97.083,3.398L-98.881,3.398ZM-96.39,3.996C-96.374,3.358 -96.422,2.664 -96.761,2.136C-97.02,1.726 -97.422,1.498 -97.959,1.498C-99.015,1.498 -99.613,2.451 -99.613,3.776C-99.613,4.935 -99.125,6.037 -97.943,6.037C-97.612,6.037 -97.272,5.943 -96.996,5.723C-96.721,5.494 -96.508,5.132 -96.43,4.635L-97.115,4.635C-97.209,5.092 -97.501,5.392 -97.943,5.392C-98.589,5.392 -98.881,4.745 -98.881,3.996L-96.39,3.996ZM-101.15,5.943L-100.457,5.943L-100.457,0.111L-101.15,0.111L-101.15,5.943ZM-102.963,5.943L-102.27,5.943L-102.27,0.111L-102.963,0.111L-102.963,5.943ZM-106.417,3.768C-106.417,2.79 -106.109,2.183 -105.55,2.183C-105.249,2.183 -105.052,2.333 -104.903,2.569C-104.737,2.821 -104.69,3.161 -104.69,3.768C-104.69,4.375 -104.737,4.714 -104.903,4.966C-105.052,5.21 -105.249,5.352 -105.55,5.352C-106.109,5.352 -106.417,4.753 -106.417,3.776L-106.417,3.768ZM-103.997,1.592L-104.635,1.592L-104.635,2.31C-104.832,1.703 -105.242,1.498 -105.684,1.498C-106.582,1.498 -107.11,2.388 -107.11,3.776C-107.11,5.203 -106.519,6.037 -105.684,6.037C-105.178,6.037 -104.824,5.762 -104.635,5.25L-104.635,5.943L-103.997,5.943L-103.997,1.592ZM-109.443,5.943L-108.719,5.943L-107.063,0.11L-107.812,0.11L-109.072,4.808L-110.326,0.11L-111.098,0.11L-109.443,5.943ZM-116.23,5.943L-115.537,5.943L-115.537,3.263C-115.537,2.53 -115.198,2.183 -114.685,2.183C-114.046,2.183 -113.983,2.735 -113.983,3.137L-113.983,5.943L-113.29,5.943L-113.29,2.908C-113.29,1.916 -113.77,1.498 -114.496,1.498C-115.009,1.498 -115.419,1.719 -115.624,2.23C-115.616,2.001 -115.616,1.805 -115.616,1.592L-116.23,1.592L-116.23,5.943ZM-117.964,5.943L-117.271,5.943L-117.271,1.593L-117.964,1.593L-117.964,5.943ZM-117.964,0.914L-117.271,0.914L-117.271,0.111L-117.964,0.111L-117.964,0.914ZM-121.417,3.768C-121.417,2.79 -121.11,2.183 -120.549,2.183C-120.25,2.183 -120.053,2.333 -119.903,2.569C-119.738,2.821 -119.69,3.161 -119.69,3.768C-119.69,4.375 -119.738,4.714 -119.903,4.966C-120.053,5.21 -120.25,5.352 -120.549,5.352C-121.11,5.352 -121.417,4.753 -121.417,3.776L-121.417,3.768ZM-118.997,1.592L-119.635,1.592L-119.635,2.31C-119.832,1.703 -120.242,1.498 -120.683,1.498C-121.582,1.498 -122.11,2.388 -122.11,3.776C-122.11,5.203 -121.52,6.037 -120.683,6.037C-120.179,6.037 -119.824,5.762 -119.635,5.25L-119.635,5.943L-118.997,5.943L-118.997,1.592ZM-123.623,5.943L-122.93,5.943L-122.93,0.111L-123.623,0.111L-123.623,5.943ZM-125.128,3.768C-125.128,4.753 -125.429,5.352 -125.996,5.352C-126.28,5.352 -126.469,5.21 -126.619,4.966C-126.793,4.714 -126.856,4.375 -126.856,3.768C-126.856,3.161 -126.793,2.821 -126.619,2.569C-126.469,2.333 -126.28,2.183 -125.996,2.183C-125.429,2.183 -125.128,2.79 -125.128,3.76L-125.128,3.768ZM-127.548,7.472L-126.856,7.472L-126.856,5.943C-126.856,5.652 -126.856,5.471 -126.864,5.305C-126.698,5.754 -126.335,6.037 -125.862,6.037C-124.964,6.037 -124.436,5.147 -124.436,3.776C-124.436,2.333 -125.027,1.498 -125.862,1.498C-126.367,1.498 -126.714,1.758 -126.911,2.293L-126.911,1.592L-127.548,1.592L-127.548,7.472ZM-133.484,5.943L-132.792,5.943L-132.792,3.223C-132.792,2.932 -132.752,2.648 -132.594,2.443C-132.429,2.246 -132.231,2.183 -132.003,2.183C-131.743,2.183 -131.529,2.309 -131.442,2.53C-131.364,2.727 -131.348,2.924 -131.348,3.215L-131.348,5.943L-130.656,5.943L-130.656,3.208C-130.656,2.94 -130.608,2.656 -130.458,2.451C-130.292,2.23 -130.08,2.183 -129.867,2.183C-129.607,2.183 -129.393,2.301 -129.298,2.53C-129.227,2.687 -129.212,2.932 -129.212,3.2L-129.212,5.943L-128.512,5.943L-128.512,3.113C-128.512,2.711 -128.574,2.269 -128.747,2.009C-128.937,1.726 -129.267,1.498 -129.756,1.498C-130.048,1.498 -130.316,1.585 -130.529,1.734C-130.679,1.853 -130.781,1.994 -130.868,2.199C-130.907,2.025 -130.986,1.868 -131.088,1.758C-131.277,1.585 -131.521,1.498 -131.806,1.498C-132.224,1.498 -132.641,1.648 -132.838,2.238C-132.831,2.01 -132.831,1.805 -132.831,1.592L-133.484,1.592L-133.484,5.943ZM-136.89,3.768C-136.89,2.79 -136.583,2.183 -136.023,2.183C-135.723,2.183 -135.526,2.333 -135.376,2.569C-135.21,2.821 -135.163,3.161 -135.163,3.768C-135.163,4.375 -135.21,4.714 -135.376,4.966C-135.526,5.21 -135.723,5.352 -136.023,5.352C-136.583,5.352 -136.89,4.753 -136.89,3.776L-136.89,3.768ZM-134.47,1.592L-135.108,1.592L-135.108,2.31C-135.305,1.703 -135.716,1.498 -136.157,1.498C-137.056,1.498 -137.583,2.388 -137.583,3.776C-137.583,5.203 -136.993,6.037 -136.157,6.037C-135.652,6.037 -135.297,5.762 -135.108,5.25L-135.108,5.943L-134.47,5.943L-134.47,1.592ZM-141.13,5.943L-140.437,5.943L-140.437,3.326C-140.437,2.869 -140.358,2.648 -140.209,2.459C-140.012,2.214 -139.759,2.183 -139.578,2.183C-139.404,2.183 -139.167,2.238 -139.041,2.427C-138.915,2.616 -138.884,2.853 -138.884,3.192L-138.884,5.943L-138.191,5.943L-138.191,2.987C-138.191,2.49 -138.27,2.128 -138.49,1.876C-138.694,1.632 -139.01,1.498 -139.404,1.498C-139.933,1.498 -140.295,1.719 -140.445,2.151C-140.437,1.931 -140.437,1.742 -140.437,1.545L-140.437,0.11L-141.13,0.11L-141.13,5.943ZM-142.636,3.934C-142.667,4.604 -142.904,5.313 -143.708,5.313C-144.457,5.313 -145.017,4.635 -145.017,3.066C-145.017,1.568 -144.583,0.74 -143.708,0.74C-142.951,0.74 -142.651,1.379 -142.636,2.223L-141.848,2.223C-141.84,1.04 -142.478,0 -143.764,0C-145.08,0 -145.812,1.119 -145.812,3.027C-145.812,5.021 -145.017,6.053 -143.764,6.053C-142.486,6.053 -141.848,5.037 -141.848,3.934L-142.636,3.934Z" style="fill:rgb(35,31,32);fill-rule:nonzero;"/>
                </g>
                <g transform="matrix(1,0,0,1,490.474,490.392)">
                    <path d="M0,50.138C0.447,23.791 -21.814,7.001 -42.333,12.008C-12.748,0 12.573,22.363 18.19,50.138L0,50.138Z" style="fill:rgb(69,120,188);fill-rule:nonzero;"/>
                </g>
                <g transform="matrix(1,0,0,1,443.662,499.474)">
                    <path d="M0,16.248L-10.317,16.248C-4.897,5.584 8.381,0 23.667,6.073C12.277,4.346 3.953,8.436 0,16.248" style="fill:rgb(140,198,63);fill-rule:nonzero;"/>
                </g>
            </g>
        </g>
    </g>
</svg>
