<?xml version="1.0" encoding="UTF-8" standalone="no"?>
<!DOCTYPE svg PUBLIC "-//W3C//DTD SVG 1.1//EN" "http://www.w3.org/Graphics/SVG/1.1/DTD/svg11.dtd">
<svg xmlns="http://www.w3.org/2000/svg" version="1.1" viewBox="0.00 0.00 300.00 158.00">
<rect fill="#000000" x="93.73" y="50.91" width="13.98" height="55.26" rx="0.64"/>
<rect fill="#000000" x="158.27" y="50.91" width="13.94" height="9.54" rx="0.61"/>
<path fill="#000000" d="
  M 0.00 106.16
  L 0.00 51.40
  Q 11.48 51.30 19.28 51.32
  Q 22.87 51.33 25.49 51.80
  Q 42.38 54.84 45.14 71.50
  Q 45.69 74.85 45.50 79.67
  C 45.02 91.87 39.46 101.47 27.48 104.98
  Q 23.52 106.15 13.82 106.19
  Q 6.92 106.22 0.00 106.16
  Z
  M 14.50 63.56
  L 14.30 93.40
  A 0.58 0.58 0.0 0 0 14.87 93.99
  L 18.39 94.01
  A 12.39 11.94 -89.6 0 0 30.42 81.71
  L 30.46 75.49
  A 12.39 11.94 -89.6 0 0 18.61 63.01
  L 15.09 62.99
  A 0.58 0.58 0.0 0 0 14.50 63.56
  Z"
/>
<path fill="#000000" d="
  M 205.42 94.64
  A 1.24 1.23 -9.1 0 1 207.04 95.81
  L 207.04 103.03
  A 2.39 2.39 0.0 0 1 205.48 105.27
  Q 196.79 108.45 189.11 105.92
  C 184.12 104.27 182.61 98.57 182.48 93.14
  Q 182.29 85.12 182.40 76.50
  A 0.70 0.70 0.0 0 0 181.70 75.79
  L 178.23 75.79
  A 0.72 0.72 0.0 0 1 177.51 75.07
  L 177.51 66.12
  A 0.80 0.79 0.0 0 1 178.31 65.33
  L 181.72 65.33
  A 0.62 0.61 90.0 0 0 182.33 64.71
  L 182.33 55.71
  A 1.17 1.16 85.3 0 1 183.30 54.56
  L 195.57 52.51
  A 0.57 0.57 0.0 0 1 196.23 53.07
  L 196.23 64.69
  A 0.60 0.60 0.0 0 0 196.83 65.29
  L 204.64 65.29
  A 0.56 0.56 0.0 0 1 205.20 65.85
  L 205.20 75.03
  A 0.72 0.72 0.0 0 1 204.48 75.75
  L 196.86 75.75
  A 0.58 0.58 0.0 0 0 196.28 76.33
  Q 196.29 82.47 196.29 87.80
  C 196.30 91.74 195.82 95.87 200.65 95.78
  Q 201.99 95.76 205.42 94.64
  Z"
/>
<path fill="#000000" d="
  M 237.46 94.67
  A 1.24 1.23 -8.8 0 1 239.08 95.84
  L 239.05 103.06
  A 2.39 2.39 0.0 0 1 237.48 105.30
  Q 228.77 108.44 221.11 105.88
  C 216.12 104.21 214.64 98.50 214.53 93.07
  Q 214.38 85.05 214.52 76.43
  A 0.70 0.70 0.0 0 0 213.83 75.72
  L 210.36 75.70
  A 0.72 0.72 0.0 0 1 209.64 74.98
  L 209.68 66.03
  A 0.80 0.79 0.2 0 1 210.48 65.25
  L 213.89 65.26
  A 0.62 0.61 -89.8 0 0 214.50 64.64
  L 214.54 55.64
  A 1.17 1.16 85.6 0 1 215.52 54.50
  L 227.79 52.50
  A 0.57 0.57 0.0 0 1 228.45 53.06
  L 228.40 64.68
  A 0.60 0.60 0.0 0 0 229.00 65.29
  L 236.81 65.32
  A 0.56 0.56 0.0 0 1 237.36 65.88
  L 237.33 75.06
  A 0.72 0.72 0.0 0 1 236.60 75.78
  L 228.98 75.74
  A 0.58 0.58 0.0 0 0 228.40 76.32
  Q 228.38 82.46 228.36 87.79
  C 228.36 91.73 227.86 95.86 232.69 95.79
  Q 234.03 95.77 237.46 94.67
  Z"
/>
<path fill="#000000" d="
  M 63.69 90.43
  C 64.54 94.88 67.72 96.51 72.01 96.88
  Q 75.97 97.22 82.68 95.00
  A 1.12 1.11 75.9 0 1 84.13 95.87
  L 85.34 103.10
  A 1.40 1.40 0.0 0 1 84.45 104.63
  Q 72.91 108.98 62.12 105.68
  C 50.47 102.12 47.90 88.78 50.47 78.49
  Q 53.06 68.10 62.54 65.40
  Q 69.00 63.55 76.01 65.31
  C 87.45 68.18 89.09 78.73 88.46 88.90
  A 0.83 0.83 0.0 0 1 87.63 89.68
  L 64.31 89.68
  A 0.63 0.63 0.0 0 0 63.69 90.43
  Z
  M 64.50 80.53
  L 75.24 80.55
  A 0.40 0.40 0.0 0 0 75.65 80.15
  L 75.65 79.84
  A 5.70 5.69 0.1 0 0 69.96 74.14
  L 69.82 74.14
  A 5.70 5.69 0.1 0 0 64.11 79.82
  L 64.11 80.13
  A 0.40 0.40 0.0 0 0 64.50 80.53
  Z"
/>
<path fill="#000000" d="
  M 152.7792 88.0912
  A 18.10 18.10 0.0 0 1 135.2893 106.7814
  L 131.8512 106.8954
  A 18.10 18.10 0.0 0 1 113.1610 89.4055
  L 112.9608 83.3688
  A 18.10 18.10 0.0 0 1 130.4507 64.6786
  L 133.8888 64.5646
  A 18.10 18.10 0.0 0 1 152.5790 82.0545
  L 152.7792 88.0912
  Z
  M 126.96 85.70
  C 126.98 90.05 127.28 96.21 132.89 96.19
  C 138.50 96.17 138.74 90.00 138.72 85.65
  C 138.71 81.30 138.41 75.13 132.80 75.15
  C 127.19 75.18 126.95 81.35 126.96 85.70
  Z"
/>
<path fill="#000000" d="
  M 256.66 89.67
  A 0.63 0.63 0.0 0 0 256.04 90.42
  C 256.88 94.86 260.06 96.49 264.35 96.87
  Q 268.31 97.21 275.01 95.00
  A 1.11 1.11 0.0 0 1 276.46 95.87
  L 277.67 103.09
  A 1.40 1.40 0.0 0 1 276.78 104.62
  Q 265.24 108.96 254.46 105.66
  C 242.82 102.09 240.26 88.76 242.83 78.47
  Q 245.43 68.09 254.91 65.40
  Q 261.36 63.56 268.37 65.32
  C 279.80 68.20 281.43 78.74 280.79 88.90
  A 0.83 0.83 0.0 0 1 279.96 89.68
  L 256.66 89.67
  Z
  M 256.91 80.51
  L 267.63 80.55
  A 0.39 0.39 0.0 0 0 268.02 80.16
  L 268.02 79.86
  A 5.75 5.71 0.2 0 0 262.29 74.13
  L 262.29 74.13
  A 5.75 5.71 0.2 0 0 256.52 79.82
  L 256.52 80.12
  A 0.39 0.39 0.0 0 0 256.91 80.51
  Z"
/>
<rect fill="#000000" x="158.28" y="65.26" width="13.94" height="40.92" rx="0.70"/>
<path fill="#86bc25" d="
  M 300.00 97.75
  L 300.00 100.80
  Q 296.91 108.83 288.92 106.50
  A 2.40 2.31 69.3 0 1 288.16 106.14
  Q 283.14 102.68 284.58 96.85
  C 285.40 93.55 287.96 91.63 291.36 91.37
  Q 297.75 90.87 300.00 97.75
  Z"
/>
</svg>
