<?xml version="1.0" encoding="UTF-8" standalone="no"?>
<!DOCTYPE svg PUBLIC "-//W3C//DTD SVG 1.1//EN" "http://www.w3.org/Graphics/SVG/1.1/DTD/svg11.dtd">
<svg xmlns="http://www.w3.org/2000/svg" version="1.1" viewBox="0.00 0.00 182.00 34.00">
<path fill="#ffffff" d="
  M 0.91 0.00
  Q 5.83 0.05 10.76 0.06
  C 19.56 0.09 26.34 4.05 27.30 13.33
  C 28.46 24.45 24.03 33.15 11.73 33.26
  Q 5.89 33.31 0.00 33.35
  L 0.00 0.00
  L 0.91 0.00
  Z
  M 8.83 7.74
  L 8.77 25.58
  A 0.40 0.40 0.0 0 0 9.17 25.98
  L 11.37 25.99
  A 7.30 6.92 -89.8 0 0 18.31 18.72
  L 18.33 14.68
  A 7.30 6.92 -89.8 0 0 11.43 7.35
  L 9.23 7.34
  A 0.40 0.40 0.0 0 0 8.83 7.74
  Z"
/>
<path fill="#ffffff" d="
  M 64.97 0.00
  L 64.99 33.08
  A 0.29 0.29 0.0 0 1 64.70 33.37
  L 56.98 33.37
  A 0.29 0.28 -90.0 0 1 56.70 33.08
  L 56.71 0.00
  L 64.97 0.00
  Z"
/>
<path fill="#ffffff" d="
  M 104.01 0.00
  L 104.21 4.24
  A 1.32 1.32 0.0 0 1 102.89 5.63
  L 97.03 5.63
  A 1.32 1.31 0.8 0 1 95.71 4.28
  L 95.83 0.00
  L 104.01 0.00
  Z"
/>
<path fill="#ffffff" d="
  M 123.25 15.00
  L 119.24 15.00
  A 0.68 0.68 0.0 0 0 118.56 15.68
  Q 118.63 20.93 118.58 22.66
  C 118.44 27.94 121.04 27.45 124.78 26.24
  A 0.17 0.17 0.0 0 1 125.00 26.40
  L 125.00 32.25
  A 0.37 0.36 79.5 0 1 124.77 32.59
  C 119.16 34.79 110.86 34.87 110.37 26.74
  Q 110.05 21.33 110.23 15.56
  A 0.68 0.67 -89.2 0 0 109.56 14.86
  L 107.87 14.86
  A 0.57 0.57 0.0 0 1 107.30 14.29
  L 107.30 9.11
  A 0.56 0.56 0.0 0 1 107.86 8.55
  L 109.64 8.55
  A 0.55 0.54 0.0 0 0 110.19 8.01
  L 110.19 3.44
  A 1.41 1.41 0.0 0 1 111.38 2.05
  L 117.81 1.05
  A 0.69 0.69 0.0 0 1 118.61 1.73
  L 118.61 8.16
  A 0.51 0.50 -90.0 0 0 119.11 8.67
  L 123.24 8.67
  A 0.77 0.76 -0.0 0 1 124.01 9.43
  L 124.01 14.24
  A 0.76 0.76 0.0 0 1 123.25 15.00
  Z"
/>
<path fill="#ffffff" d="
  M 143.41 14.23
  A 0.76 0.76 0.0 0 1 142.65 14.99
  L 138.64 14.99
  A 0.68 0.68 0.0 0 0 137.96 15.67
  Q 138.02 20.92 137.97 22.65
  C 137.83 27.93 140.43 27.44 144.17 26.24
  A 0.17 0.17 0.0 0 1 144.39 26.40
  L 144.39 32.25
  A 0.37 0.36 79.5 0 1 144.16 32.59
  C 138.54 34.78 130.24 34.86 129.76 26.73
  Q 129.44 21.31 129.63 15.54
  A 0.68 0.67 -89.1 0 0 128.96 14.84
  L 127.27 14.84
  A 0.57 0.57 0.0 0 1 126.70 14.27
  L 126.70 9.09
  A 0.56 0.56 0.0 0 1 127.26 8.53
  L 129.04 8.53
  A 0.55 0.54 0.0 0 0 129.59 7.99
  L 129.59 3.42
  A 1.41 1.41 0.0 0 1 130.79 2.03
  L 137.22 1.04
  A 0.69 0.69 0.0 0 1 138.02 1.72
  L 138.01 8.15
  A 0.51 0.50 -90.0 0 0 138.51 8.66
  L 142.64 8.66
  A 0.77 0.76 0.0 0 1 143.41 9.42
  L 143.41 14.23
  Z"
/>
<path fill="#ffffff" d="
  M 39.77 23.37
  A 1.05 1.05 0.0 0 0 38.86 24.95
  L 39.18 25.49
  A 4.31 4.28 77.2 0 0 42.51 27.61
  Q 47.19 28.02 50.16 26.50
  A 0.46 0.46 0.0 0 1 50.82 26.83
  L 51.61 31.80
  A 0.49 0.49 0.0 0 1 51.32 32.33
  C 46.46 34.40 38.96 34.76 34.41 31.38
  C 30.51 28.48 29.68 23.03 30.32 18.36
  C 31.01 13.25 33.86 9.32 39.03 8.44
  C 49.57 6.65 54.24 12.72 53.57 22.75
  A 0.62 0.61 1.8 0 1 52.96 23.32
  L 39.77 23.37
  Z
  M 38.97 17.87
  L 45.45 17.83
  A 0.26 0.26 0.0 0 0 45.71 17.57
  L 45.71 17.40
  A 3.37 3.28 89.7 0 0 42.41 14.05
  L 41.97 14.05
  A 3.37 3.28 89.7 0 0 38.71 17.44
  L 38.71 17.61
  A 0.26 0.26 0.0 0 0 38.97 17.87
  Z"
/>
<path fill="#ffffff" d="
  M 92.3579 21.9113
  A 10.96 10.96 0.0 0 1 82.1280 33.5557
  L 80.0324 33.6913
  A 10.96 10.96 0.0 0 1 68.3880 23.4614
  L 68.1621 19.9687
  A 10.96 10.96 0.0 0 1 78.3920 8.3243
  L 80.4876 8.1887
  A 10.96 10.96 0.0 0 1 92.1320 18.4186
  L 92.3579 21.9113
  Z
  M 80.2884 27.5400
  A 6.62 3.71 90.1 0 0 84.0100 20.9265
  A 6.62 3.71 90.1 0 0 80.3116 14.3000
  A 6.62 3.71 90.1 0 0 76.5900 20.9135
  A 6.62 3.71 90.1 0 0 80.2884 27.5400
  Z"
/>
<path fill="#ffffff" d="
  M 156.06 23.38
  A 1.05 1.05 0.0 0 0 155.15 24.96
  L 155.46 25.50
  A 4.32 4.29 77.4 0 0 158.79 27.63
  Q 163.47 28.06 166.45 26.55
  A 0.46 0.46 0.0 0 1 167.11 26.89
  L 167.88 31.86
  A 0.49 0.49 0.0 0 1 167.59 32.39
  C 162.72 34.45 155.21 34.78 150.67 31.38
  C 146.78 28.46 145.97 23.00 146.62 18.33
  C 147.33 13.22 150.20 9.30 155.38 8.44
  C 165.93 6.68 170.59 12.78 169.88 22.81
  A 0.62 0.61 2.0 0 1 169.26 23.38
  L 156.06 23.38
  Z
  M 155.39 17.87
  L 161.81 17.87
  A 0.27 0.27 0.0 0 0 162.08 17.60
  L 162.08 17.43
  A 3.38 3.23 -90.0 0 0 158.85 14.05
  L 158.35 14.05
  A 3.38 3.23 90.0 0 0 155.12 17.43
  L 155.12 17.60
  A 0.27 0.27 0.0 0 0 155.39 17.87
  Z"
/>
<rect fill="#ffffff" x="95.82" y="8.50" width="8.28" height="24.80" rx="0.35"/>
<circle fill="#86bc25" cx="176.59" cy="28.99" r="4.77"/>
</svg>
