<?xml version="1.0" encoding="UTF-8" standalone="no"?>
<!DOCTYPE svg PUBLIC "-//W3C//DTD SVG 1.1//EN" "http://www.w3.org/Graphics/SVG/1.1/DTD/svg11.dtd">
<svg xmlns="http://www.w3.org/2000/svg" version="1.1" viewBox="0.00 0.00 1024.00 537.00">
<g stroke-width="2.00" fill="none" stroke-linecap="butt">
<path stroke="#fc858f" vector-effect="non-scaling-stroke" d="
  M 475.57 158.85
  Q 446.16 189.42 395.23 244.98
  C 387.98 252.88 380.21 252.59 368.23 252.59
  Q 217.90 252.59 190.29 252.55
  C 182.74 252.54 177.08 245.71 178.69 238.51
  Q 179.33 235.63 184.20 230.44
  Q 207.91 205.12 226.26 185.39
  C 229.88 181.49 233.00 179.34 237.65 177.79
  Q 240.56 176.82 247.95 176.81
  Q 269.26 176.80 356.79 176.84
  Q 365.04 176.84 368.60 175.69
  Q 374.33 173.84 378.55 169.30
  Q 381.10 166.57 450.83 91.82
  A 0.35 0.34 -68.4 0 0 450.58 91.24
  Q 378.70 91.21 223.98 91.21
  Q 211.75 91.21 207.58 92.17
  Q 199.45 94.03 192.35 98.30
  Q 187.37 101.29 177.89 111.58
  Q 162.06 128.76 63.40 234.38
  Q 52.20 246.37 48.94 252.19
  C 32.81 281.01 44.66 318.28 74.56 332.64
  Q 85.76 338.02 100.49 338.02
  Q 315.93 337.96 400.25 338.02
  Q 411.70 338.03 415.68 337.00
  Q 423.11 335.09 430.04 331.12
  Q 434.33 328.66 445.22 316.99
  Q 472.18 288.09 537.63 217.88
  Q 537.69 217.82 537.75 217.75
  Q 567.16 187.19 618.09 131.63
  C 625.34 123.73 633.11 124.02 645.09 124.02
  Q 795.42 124.02 823.03 124.06
  C 830.58 124.07 836.24 130.90 834.63 138.10
  Q 833.99 140.98 829.12 146.17
  Q 805.41 171.49 787.06 191.22
  C 783.44 195.12 780.32 197.27 775.67 198.82
  Q 772.76 199.79 765.37 199.80
  Q 744.06 199.81 656.53 199.77
  Q 648.28 199.77 644.72 200.92
  Q 638.99 202.77 634.77 207.31
  Q 632.22 210.04 562.49 284.79
  A 0.35 0.34 -68.4 0 0 562.74 285.37
  Q 634.62 285.40 789.34 285.40
  Q 801.57 285.40 805.74 284.44
  Q 813.87 282.58 820.97 278.31
  Q 825.95 275.32 835.43 265.03
  Q 851.26 247.85 949.92 142.23
  Q 961.12 130.24 964.38 124.42
  C 980.51 95.60 968.66 58.33 938.76 43.97
  Q 927.56 38.59 912.83 38.59
  Q 697.39 38.65 613.07 38.59
  Q 601.62 38.58 597.64 39.61
  Q 590.21 41.52 583.28 45.49
  Q 578.99 47.95 568.10 59.62
  Q 541.14 88.52 475.69 158.73
  Q 475.63 158.79 475.57 158.85"
/>
<path stroke="#999999" vector-effect="non-scaling-stroke" d="
  M 647.2342 498.5396
  A 37.77 37.21 93.5 0 0 686.6806 463.1116
  A 37.77 37.21 93.5 0 0 651.8458 423.1404
  A 37.77 37.21 93.5 0 0 612.3994 458.5684
  A 37.77 37.21 93.5 0 0 647.2342 498.5396"
/>
<path stroke="#999999" vector-effect="non-scaling-stroke" d="
  M 834.86 461.13
  C 835.06 481.24 849.63 496.81 869.46 498.21
  Q 885.32 499.33 897.92 488.36
  A 3.41 3.41 0.0 0 0 898.19 483.48
  L 897.26 482.48
  A 3.41 3.40 49.4 0 0 892.63 482.12
  Q 888.37 485.52 887.07 486.28
  C 866.56 498.29 843.76 484.19 843.53 461.04
  C 843.30 437.89 865.82 423.34 886.56 434.94
  Q 887.88 435.68 892.20 439.00
  A 3.41 3.40 -50.5 0 0 896.83 438.54
  L 897.74 437.53
  A 3.41 3.41 0.0 0 0 897.37 432.65
  Q 884.55 421.93 868.72 423.37
  C 848.92 425.16 834.66 441.01 834.86 461.13"
/>
<path stroke="#999999" vector-effect="non-scaling-stroke" d="
  M 1023.46 438.40
  A 14.48 14.48 0.0 0 0 1008.98 423.92
  A 14.48 14.48 0.0 0 0 994.50 438.40
  A 14.48 14.48 0.0 0 0 1008.98 452.88
  A 14.48 14.48 0.0 0 0 1023.46 438.40"
/>
<path stroke="#999999" vector-effect="non-scaling-stroke" d="
  M 211.35 484.32
  Q 217.74 484.33 223.91 484.41
  A 2.09 2.08 78.9 0 1 225.80 485.69
  Q 227.82 490.55 229.68 495.40
  Q 230.33 497.10 232.75 497.10
  Q 241.58 497.09 248.15 497.09
  A 2.08 1.95 -55.8 0 0 249.00 496.90
  Q 250.87 496.03 250.54 493.74
  A 1.72 1.41 -66.0 0 0 250.44 493.38
  L 221.88 425.60
  A 2.46 2.45 -10.9 0 0 219.65 424.09
  Q 215.97 424.03 211.42 424.02
  Q 206.86 424.02 203.18 424.08
  A 2.46 2.45 11.0 0 0 200.95 425.58
  L 172.25 493.30
  A 1.72 1.41 66.2 0 0 172.15 493.66
  Q 171.82 495.95 173.68 496.82
  A 2.08 1.95 55.9 0 0 174.53 497.01
  Q 181.10 497.03 189.93 497.06
  Q 192.35 497.06 193.01 495.36
  Q 194.88 490.52 196.91 485.66
  A 2.09 2.08 -78.8 0 1 198.80 484.39
  Q 204.97 484.32 211.35 484.32"
/>
<path stroke="#999999" vector-effect="non-scaling-stroke" d="
  M 0.35 427.01
  L -0.01 494.19
  A 2.60 2.60 0.0 0 0 2.58 496.80
  L 31.75 496.96
  A 37.27 34.55 0.3 0 0 69.20 462.60
  L 69.22 459.32
  A 37.27 34.55 0.3 0 0 32.13 424.58
  L 2.96 424.42
  A 2.60 2.60 0.0 0 0 0.35 427.01"
/>
<path stroke="#999999" vector-effect="non-scaling-stroke" d="
  M 112.34 444.15
  C 112.40 443.15 113.00 442.15 114.09 442.11
  Q 119.11 441.94 147.25 442.08
  Q 149.05 442.09 150.31 440.32
  A 1.48 1.46 63.6 0 0 150.60 439.44
  Q 150.63 435.36 150.66 427.73
  Q 150.68 424.47 147.00 424.47
  Q 96.79 424.44 96.55 424.44
  C 94.20 424.43 92.19 424.86 92.19 427.51
  Q 92.16 472.82 92.13 493.56
  C 92.13 495.27 92.63 497.00 94.52 497.01
  Q 115.37 497.07 146.16 497.06
  C 148.62 497.06 150.85 497.36 151.07 494.70
  Q 151.26 492.29 151.17 483.26
  Q 151.14 480.05 148.42 480.03
  Q 131.40 479.94 114.88 479.97
  A 2.56 2.56 0.0 0 1 112.32 477.49
  Q 112.19 473.38 112.24 471.75
  C 112.31 469.27 113.55 468.59 115.91 468.60
  Q 142.36 468.68 143.99 468.59
  C 145.92 468.48 147.08 467.57 147.04 465.45
  Q 146.99 462.51 147.05 456.30
  C 147.06 454.43 146.53 452.66 144.41 452.62
  Q 142.52 452.58 114.82 452.56
  A 2.49 2.48 88.3 0 1 112.34 450.22
  Q 112.15 447.00 112.34 444.15"
/>
<path stroke="#999999" vector-effect="non-scaling-stroke" d="
  M 277.00 424.47
  C 275.35 424.48 273.94 425.75 273.94 427.40
  Q 273.78 462.86 273.86 492.96
  C 273.87 495.63 274.39 497.07 277.25 497.07
  Q 318.35 497.05 326.00 497.06
  C 329.90 497.07 329.33 494.76 329.32 491.59
  Q 329.28 484.67 329.33 482.52
  C 329.37 480.29 328.12 479.48 326.00 479.48
  Q 303.57 479.47 298.45 479.48
  C 296.74 479.48 294.30 478.97 294.29 476.95
  Q 294.24 462.83 294.26 428.97
  C 294.26 425.82 293.79 424.43 290.53 424.44
  Q 279.98 424.46 277.00 424.47"
/>
<path stroke="#999999" vector-effect="non-scaling-stroke" d="
  M 372.61 444.16
  C 372.67 443.16 373.27 442.16 374.36 442.12
  Q 379.38 441.95 407.53 442.05
  Q 409.33 442.06 410.59 440.29
  A 1.48 1.46 63.6 0 0 410.88 439.41
  Q 410.90 435.32 410.92 427.69
  Q 410.94 424.43 407.26 424.44
  Q 357.03 424.47 356.79 424.47
  C 354.44 424.46 352.43 424.89 352.43 427.54
  Q 352.46 472.87 352.46 493.61
  C 352.46 495.32 352.96 497.05 354.85 497.06
  Q 375.71 497.10 406.51 497.05
  C 408.97 497.04 411.20 497.34 411.41 494.68
  Q 411.60 492.27 411.50 483.24
  Q 411.47 480.03 408.74 480.01
  Q 391.72 479.94 375.20 479.99
  A 2.56 2.56 0.0 0 1 372.63 477.51
  Q 372.50 473.40 372.54 471.77
  C 372.61 469.29 373.85 468.61 376.21 468.62
  Q 402.67 468.66 404.30 468.57
  C 406.23 468.46 407.39 467.55 407.35 465.43
  Q 407.29 462.49 407.35 456.28
  C 407.35 454.40 406.82 452.63 404.70 452.60
  Q 402.81 452.56 375.10 452.57
  A 2.49 2.48 88.2 0 1 372.62 450.24
  Q 372.42 447.02 372.61 444.16"
/>
<path stroke="#999999" vector-effect="non-scaling-stroke" d="
  M 460.96 475.31
  L 466.28 475.36
  A 1.62 1.60 76.2 0 1 467.68 476.22
  Q 468.49 477.57 480.88 496.06
  Q 481.57 497.10 484.00 497.09
  Q 492.84 497.08 500.06 497.04
  A 2.07 2.02 -60.3 0 0 501.07 496.75
  C 503.20 495.48 502.53 493.49 501.19 491.53
  Q 490.46 475.88 489.39 474.27
  A 2.47 2.47 0.0 0 1 490.19 470.77
  Q 505.21 461.92 502.01 443.72
  C 500.06 432.59 490.14 425.95 479.50 424.93
  Q 474.42 424.44 473.75 424.44
  Q 447.76 424.44 442.14 424.46
  C 440.28 424.46 437.97 425.06 437.97 427.04
  Q 437.89 461.32 437.95 492.96
  C 437.95 495.62 438.47 497.04 441.25 497.05
  Q 453.20 497.12 455.73 497.00
  Q 458.06 496.89 458.22 494.94
  Q 458.30 493.95 458.29 477.95
  A 2.64 2.64 0.0 0 1 460.96 475.31"
/>
<path stroke="#999999" vector-effect="non-scaling-stroke" d="
  M 538.42 424.65
  Q 536.48 425.34 536.48 427.73
  Q 536.51 493.45 536.47 494.07
  A 3.07 3.07 0.0 0 0 539.58 497.13
  L 541.91 497.09
  A 3.13 3.13 0.0 0 0 545.00 493.93
  Q 544.92 486.68 545.00 474.28
  Q 545.02 471.68 547.51 471.67
  C 558.58 471.63 564.96 472.28 572.55 470.32
  C 582.09 467.87 590.15 460.58 590.84 450.25
  C 592.06 431.93 578.68 424.41 562.51 424.43
  Q 549.92 424.46 539.47 424.47
  A 3.16 3.15 -54.6 0 0 538.42 424.65"
/>
<path stroke="#999999" vector-effect="non-scaling-stroke" d="
  M 720.80 424.40
  L 718.94 424.40
  A 3.27 3.27 0.0 0 0 715.67 427.67
  Q 715.60 483.21 715.74 494.49
  Q 715.77 497.07 718.14 497.07
  Q 760.65 497.02 761.74 497.10
  A 3.14 3.14 0.0 0 0 765.11 494.04
  L 765.14 493.24
  A 3.79 3.77 -88.8 0 0 761.37 489.30
  L 726.39 489.30
  A 2.20 2.20 0.0 0 1 724.19 487.10
  L 724.19 427.79
  A 3.39 3.39 0.0 0 0 720.80 424.40"
/>
<path stroke="#999999" vector-effect="non-scaling-stroke" d="
  M 803.26 427.44
  A 2.91 2.91 0.0 0 0 800.35 424.53
  L 797.63 424.53
  A 2.91 2.91 0.0 0 0 794.72 427.44
  L 794.72 494.22
  A 2.91 2.91 0.0 0 0 797.63 497.13
  L 800.35 497.13
  A 2.91 2.91 0.0 0 0 803.26 494.22
  L 803.26 427.44"
/>
<path stroke="#999999" vector-effect="non-scaling-stroke" d="
  M 952.63 497.10
  Q 954.46 497.11 954.98 496.98
  A 2.44 2.44 0.0 0 0 956.85 494.61
  L 956.87 469.45
  A 3.07 3.06 -27.7 0 1 957.42 467.70
  L 984.62 428.37
  A 2.57 2.57 0.0 0 0 982.51 424.34
  L 980.88 424.34
  A 6.84 6.83 -73.2 0 0 975.19 427.39
  Q 965.42 442.04 954.97 457.22
  Q 953.99 458.64 952.69 458.63
  Q 951.40 458.63 950.42 457.21
  Q 940.02 442.00 930.30 427.32
  A 6.84 6.83 73.3 0 0 924.62 424.25
  L 922.99 424.25
  A 2.57 2.57 0.0 0 0 920.86 428.27
  L 947.94 467.69
  A 3.07 3.06 27.9 0 1 948.48 469.44
  L 948.42 494.60
  A 2.44 2.44 0.0 0 0 950.29 496.97
  Q 950.81 497.10 952.63 497.10"
/>
<path stroke="#999999" vector-effect="non-scaling-stroke" d="
  M 650.9318 490.7967
  A 29.97 28.45 87.3 0 0 677.9384 459.5198
  A 29.97 28.45 87.3 0 0 648.1082 430.9233
  A 29.97 28.45 87.3 0 0 621.1016 462.2002
  A 29.97 28.45 87.3 0 0 650.9318 490.7967"
/>
<path stroke="#999999" vector-effect="non-scaling-stroke" d="
  M 1022.41 438.44
  A 13.38 13.38 0.0 0 0 1009.03 425.06
  A 13.38 13.38 0.0 0 0 995.65 438.44
  A 13.38 13.38 0.0 0 0 1009.03 451.82
  A 13.38 13.38 0.0 0 0 1022.41 438.44"
/>
<path stroke="#999999" vector-effect="non-scaling-stroke" d="
  M 204.65 464.75
  A 2.65 2.65 0.0 0 0 207.11 468.39
  L 215.27 468.40
  A 2.65 2.65 0.0 0 0 217.74 464.78
  L 213.68 454.49
  A 2.65 2.65 0.0 0 0 208.75 454.49
  L 204.65 464.75"
/>
<path stroke="#999999" vector-effect="non-scaling-stroke" d="
  M 20.57 445.03
  L 20.41 476.49
  A 2.54 2.54 0.0 0 0 22.93 479.04
  L 30.31 479.08
  A 17.96 17.17 0.3 0 0 48.36 462.00
  L 48.38 459.80
  A 17.96 17.17 0.3 0 0 30.51 442.54
  L 23.13 442.50
  A 2.54 2.54 0.0 0 0 20.57 445.03"
/>
<path stroke="#999999" vector-effect="non-scaling-stroke" d="
  M 458.29 444.78
  L 458.29 456.54
  A 2.57 2.57 0.0 0 0 460.86 459.11
  L 473.48 459.11
  A 8.51 7.55 -0.0 0 0 481.99 451.56
  L 481.99 449.76
  A 8.51 7.55 0.0 0 0 473.48 442.21
  L 460.86 442.21
  A 2.57 2.57 0.0 0 0 458.29 444.78"
/>
<path stroke="#999999" vector-effect="non-scaling-stroke" d="
  M 544.91 434.80
  L 545.01 461.32
  A 2.58 2.58 0.0 0 0 547.60 463.89
  L 564.70 463.83
  A 17.74 14.93 -0.2 0 0 582.38 448.83
  L 582.38 447.01
  A 17.74 14.93 -0.2 0 0 564.58 432.15
  L 547.48 432.21
  A 2.58 2.58 0.0 0 0 544.91 434.80"
/>
<path stroke="#999999" vector-effect="non-scaling-stroke" d="
  M 1015.52 446.16
  L 1012.26 440.50
  A 0.67 0.67 0.0 0 1 1012.46 439.61
  Q 1016.12 437.17 1014.81 433.63
  C 1013.31 429.59 1008.37 430.41 1004.75 430.50
  A 0.50 0.50 0.0 0 0 1004.26 431.00
  L 1004.26 446.26
  A 0.61 0.61 0.0 0 0 1004.87 446.87
  L 1005.22 446.87
  A 0.62 0.62 0.0 0 0 1005.84 446.25
  L 1005.84 440.70
  A 0.62 0.61 0.0 0 1 1006.46 440.09
  L 1009.77 440.09
  A 1.01 1.00 -15.0 0 1 1010.64 440.59
  L 1014.08 446.54
  A 0.50 0.49 -13.9 0 0 1014.52 446.80
  L 1015.15 446.80
  A 0.43 0.43 0.0 0 0 1015.52 446.16"
/>
<path stroke="#999999" vector-effect="non-scaling-stroke" d="
  M 1005.81 432.11
  L 1005.79 438.49
  A 0.39 0.39 0.0 0 0 1006.18 438.88
  L 1009.23 438.89
  A 4.42 3.44 0.1 0 0 1013.66 435.46
  L 1013.66 435.18
  A 4.42 3.44 0.1 0 0 1009.25 431.73
  L 1006.20 431.72
  A 0.39 0.39 0.0 0 0 1005.81 432.11"
/>
</g>
<path fill="#ffffff" d="
  M 1024.00 0.00
  L 1024.00 537.00
  L 0.00 537.00
  L 0.00 0.00
  L 1024.00 0.00
  Z
  M 475.57 158.85
  Q 446.16 189.42 395.23 244.98
  C 387.98 252.88 380.21 252.59 368.23 252.59
  Q 217.90 252.59 190.29 252.55
  C 182.74 252.54 177.08 245.71 178.69 238.51
  Q 179.33 235.63 184.20 230.44
  Q 207.91 205.12 226.26 185.39
  C 229.88 181.49 233.00 179.34 237.65 177.79
  Q 240.56 176.82 247.95 176.81
  Q 269.26 176.80 356.79 176.84
  Q 365.04 176.84 368.60 175.69
  Q 374.33 173.84 378.55 169.30
  Q 381.10 166.57 450.83 91.82
  A 0.35 0.34 -68.4 0 0 450.58 91.24
  Q 378.70 91.21 223.98 91.21
  Q 211.75 91.21 207.58 92.17
  Q 199.45 94.03 192.35 98.30
  Q 187.37 101.29 177.89 111.58
  Q 162.06 128.76 63.40 234.38
  Q 52.20 246.37 48.94 252.19
  C 32.81 281.01 44.66 318.28 74.56 332.64
  Q 85.76 338.02 100.49 338.02
  Q 315.93 337.96 400.25 338.02
  Q 411.70 338.03 415.68 337.00
  Q 423.11 335.09 430.04 331.12
  Q 434.33 328.66 445.22 316.99
  Q 472.18 288.09 537.63 217.88
  Q 537.69 217.82 537.75 217.75
  Q 567.16 187.19 618.09 131.63
  C 625.34 123.73 633.11 124.02 645.09 124.02
  Q 795.42 124.02 823.03 124.06
  C 830.58 124.07 836.24 130.90 834.63 138.10
  Q 833.99 140.98 829.12 146.17
  Q 805.41 171.49 787.06 191.22
  C 783.44 195.12 780.32 197.27 775.67 198.82
  Q 772.76 199.79 765.37 199.80
  Q 744.06 199.81 656.53 199.77
  Q 648.28 199.77 644.72 200.92
  Q 638.99 202.77 634.77 207.31
  Q 632.22 210.04 562.49 284.79
  A 0.35 0.34 -68.4 0 0 562.74 285.37
  Q 634.62 285.40 789.34 285.40
  Q 801.57 285.40 805.74 284.44
  Q 813.87 282.58 820.97 278.31
  Q 825.95 275.32 835.43 265.03
  Q 851.26 247.85 949.92 142.23
  Q 961.12 130.24 964.38 124.42
  C 980.51 95.60 968.66 58.33 938.76 43.97
  Q 927.56 38.59 912.83 38.59
  Q 697.39 38.65 613.07 38.59
  Q 601.62 38.58 597.64 39.61
  Q 590.21 41.52 583.28 45.49
  Q 578.99 47.95 568.10 59.62
  Q 541.14 88.52 475.69 158.73
  Q 475.63 158.79 475.57 158.85
  Z
  M 647.2342 498.5396
  A 37.77 37.21 93.5 0 0 686.6806 463.1116
  A 37.77 37.21 93.5 0 0 651.8458 423.1404
  A 37.77 37.21 93.5 0 0 612.3994 458.5684
  A 37.77 37.21 93.5 0 0 647.2342 498.5396
  Z
  M 834.86 461.13
  C 835.06 481.24 849.63 496.81 869.46 498.21
  Q 885.32 499.33 897.92 488.36
  A 3.41 3.41 0.0 0 0 898.19 483.48
  L 897.26 482.48
  A 3.41 3.40 49.4 0 0 892.63 482.12
  Q 888.37 485.52 887.07 486.28
  C 866.56 498.29 843.76 484.19 843.53 461.04
  C 843.30 437.89 865.82 423.34 886.56 434.94
  Q 887.88 435.68 892.20 439.00
  A 3.41 3.40 -50.5 0 0 896.83 438.54
  L 897.74 437.53
  A 3.41 3.41 0.0 0 0 897.37 432.65
  Q 884.55 421.93 868.72 423.37
  C 848.92 425.16 834.66 441.01 834.86 461.13
  Z
  M 1023.46 438.40
  A 14.48 14.48 0.0 0 0 1008.98 423.92
  A 14.48 14.48 0.0 0 0 994.50 438.40
  A 14.48 14.48 0.0 0 0 1008.98 452.88
  A 14.48 14.48 0.0 0 0 1023.46 438.40
  Z
  M 211.35 484.32
  Q 217.74 484.33 223.91 484.41
  A 2.09 2.08 78.9 0 1 225.80 485.69
  Q 227.82 490.55 229.68 495.40
  Q 230.33 497.10 232.75 497.10
  Q 241.58 497.09 248.15 497.09
  A 2.08 1.95 -55.8 0 0 249.00 496.90
  Q 250.87 496.03 250.54 493.74
  A 1.72 1.41 -66.0 0 0 250.44 493.38
  L 221.88 425.60
  A 2.46 2.45 -10.9 0 0 219.65 424.09
  Q 215.97 424.03 211.42 424.02
  Q 206.86 424.02 203.18 424.08
  A 2.46 2.45 11.0 0 0 200.95 425.58
  L 172.25 493.30
  A 1.72 1.41 66.2 0 0 172.15 493.66
  Q 171.82 495.95 173.68 496.82
  A 2.08 1.95 55.9 0 0 174.53 497.01
  Q 181.10 497.03 189.93 497.06
  Q 192.35 497.06 193.01 495.36
  Q 194.88 490.52 196.91 485.66
  A 2.09 2.08 -78.8 0 1 198.80 484.39
  Q 204.97 484.32 211.35 484.32
  Z
  M 0.35 427.01
  L -0.01 494.19
  A 2.60 2.60 0.0 0 0 2.58 496.80
  L 31.75 496.96
  A 37.27 34.55 0.3 0 0 69.20 462.60
  L 69.22 459.32
  A 37.27 34.55 0.3 0 0 32.13 424.58
  L 2.96 424.42
  A 2.60 2.60 0.0 0 0 0.35 427.01
  Z
  M 112.34 444.15
  C 112.40 443.15 113.00 442.15 114.09 442.11
  Q 119.11 441.94 147.25 442.08
  Q 149.05 442.09 150.31 440.32
  A 1.48 1.46 63.6 0 0 150.60 439.44
  Q 150.63 435.36 150.66 427.73
  Q 150.68 424.47 147.00 424.47
  Q 96.79 424.44 96.55 424.44
  C 94.20 424.43 92.19 424.86 92.19 427.51
  Q 92.16 472.82 92.13 493.56
  C 92.13 495.27 92.63 497.00 94.52 497.01
  Q 115.37 497.07 146.16 497.06
  C 148.62 497.06 150.85 497.36 151.07 494.70
  Q 151.26 492.29 151.17 483.26
  Q 151.14 480.05 148.42 480.03
  Q 131.40 479.94 114.88 479.97
  A 2.56 2.56 0.0 0 1 112.32 477.49
  Q 112.19 473.38 112.24 471.75
  C 112.31 469.27 113.55 468.59 115.91 468.60
  Q 142.36 468.68 143.99 468.59
  C 145.92 468.48 147.08 467.57 147.04 465.45
  Q 146.99 462.51 147.05 456.30
  C 147.06 454.43 146.53 452.66 144.41 452.62
  Q 142.52 452.58 114.82 452.56
  A 2.49 2.48 88.3 0 1 112.34 450.22
  Q 112.15 447.00 112.34 444.15
  Z
  M 277.00 424.47
  C 275.35 424.48 273.94 425.75 273.94 427.40
  Q 273.78 462.86 273.86 492.96
  C 273.87 495.63 274.39 497.07 277.25 497.07
  Q 318.35 497.05 326.00 497.06
  C 329.90 497.07 329.33 494.76 329.32 491.59
  Q 329.28 484.67 329.33 482.52
  C 329.37 480.29 328.12 479.48 326.00 479.48
  Q 303.57 479.47 298.45 479.48
  C 296.74 479.48 294.30 478.97 294.29 476.95
  Q 294.24 462.83 294.26 428.97
  C 294.26 425.82 293.79 424.43 290.53 424.44
  Q 279.98 424.46 277.00 424.47
  Z
  M 372.61 444.16
  C 372.67 443.16 373.27 442.16 374.36 442.12
  Q 379.38 441.95 407.53 442.05
  Q 409.33 442.06 410.59 440.29
  A 1.48 1.46 63.6 0 0 410.88 439.41
  Q 410.90 435.32 410.92 427.69
  Q 410.94 424.43 407.26 424.44
  Q 357.03 424.47 356.79 424.47
  C 354.44 424.46 352.43 424.89 352.43 427.54
  Q 352.46 472.87 352.46 493.61
  C 352.46 495.32 352.96 497.05 354.85 497.06
  Q 375.71 497.10 406.51 497.05
  C 408.97 497.04 411.20 497.34 411.41 494.68
  Q 411.60 492.27 411.50 483.24
  Q 411.47 480.03 408.74 480.01
  Q 391.72 479.94 375.20 479.99
  A 2.56 2.56 0.0 0 1 372.63 477.51
  Q 372.50 473.40 372.54 471.77
  C 372.61 469.29 373.85 468.61 376.21 468.62
  Q 402.67 468.66 404.30 468.57
  C 406.23 468.46 407.39 467.55 407.35 465.43
  Q 407.29 462.49 407.35 456.28
  C 407.35 454.40 406.82 452.63 404.70 452.60
  Q 402.81 452.56 375.10 452.57
  A 2.49 2.48 88.2 0 1 372.62 450.24
  Q 372.42 447.02 372.61 444.16
  Z
  M 460.96 475.31
  L 466.28 475.36
  A 1.62 1.60 76.2 0 1 467.68 476.22
  Q 468.49 477.57 480.88 496.06
  Q 481.57 497.10 484.00 497.09
  Q 492.84 497.08 500.06 497.04
  A 2.07 2.02 -60.3 0 0 501.07 496.75
  C 503.20 495.48 502.53 493.49 501.19 491.53
  Q 490.46 475.88 489.39 474.27
  A 2.47 2.47 0.0 0 1 490.19 470.77
  Q 505.21 461.92 502.01 443.72
  C 500.06 432.59 490.14 425.95 479.50 424.93
  Q 474.42 424.44 473.75 424.44
  Q 447.76 424.44 442.14 424.46
  C 440.28 424.46 437.97 425.06 437.97 427.04
  Q 437.89 461.32 437.95 492.96
  C 437.95 495.62 438.47 497.04 441.25 497.05
  Q 453.20 497.12 455.73 497.00
  Q 458.06 496.89 458.22 494.94
  Q 458.30 493.95 458.29 477.95
  A 2.64 2.64 0.0 0 1 460.96 475.31
  Z
  M 538.42 424.65
  Q 536.48 425.34 536.48 427.73
  Q 536.51 493.45 536.47 494.07
  A 3.07 3.07 0.0 0 0 539.58 497.13
  L 541.91 497.09
  A 3.13 3.13 0.0 0 0 545.00 493.93
  Q 544.92 486.68 545.00 474.28
  Q 545.02 471.68 547.51 471.67
  C 558.58 471.63 564.96 472.28 572.55 470.32
  C 582.09 467.87 590.15 460.58 590.84 450.25
  C 592.06 431.93 578.68 424.41 562.51 424.43
  Q 549.92 424.46 539.47 424.47
  A 3.16 3.15 -54.6 0 0 538.42 424.65
  Z
  M 720.80 424.40
  L 718.94 424.40
  A 3.27 3.27 0.0 0 0 715.67 427.67
  Q 715.60 483.21 715.74 494.49
  Q 715.77 497.07 718.14 497.07
  Q 760.65 497.02 761.74 497.10
  A 3.14 3.14 0.0 0 0 765.11 494.04
  L 765.14 493.24
  A 3.79 3.77 -88.8 0 0 761.37 489.30
  L 726.39 489.30
  A 2.20 2.20 0.0 0 1 724.19 487.10
  L 724.19 427.79
  A 3.39 3.39 0.0 0 0 720.80 424.40
  Z
  M 803.26 427.44
  A 2.91 2.91 0.0 0 0 800.35 424.53
  L 797.63 424.53
  A 2.91 2.91 0.0 0 0 794.72 427.44
  L 794.72 494.22
  A 2.91 2.91 0.0 0 0 797.63 497.13
  L 800.35 497.13
  A 2.91 2.91 0.0 0 0 803.26 494.22
  L 803.26 427.44
  Z
  M 952.63 497.10
  Q 954.46 497.11 954.98 496.98
  A 2.44 2.44 0.0 0 0 956.85 494.61
  L 956.87 469.45
  A 3.07 3.06 -27.7 0 1 957.42 467.70
  L 984.62 428.37
  A 2.57 2.57 0.0 0 0 982.51 424.34
  L 980.88 424.34
  A 6.84 6.83 -73.2 0 0 975.19 427.39
  Q 965.42 442.04 954.97 457.22
  Q 953.99 458.64 952.69 458.63
  Q 951.40 458.63 950.42 457.21
  Q 940.02 442.00 930.30 427.32
  A 6.84 6.83 73.3 0 0 924.62 424.25
  L 922.99 424.25
  A 2.57 2.57 0.0 0 0 920.86 428.27
  L 947.94 467.69
  A 3.07 3.06 27.9 0 1 948.48 469.44
  L 948.42 494.60
  A 2.44 2.44 0.0 0 0 950.29 496.97
  Q 950.81 497.10 952.63 497.10
  Z"
/>
<path fill="#f90a1f" d="
  M 537.75 217.75
  Q 537.69 217.82 537.63 217.88
  Q 472.18 288.09 445.22 316.99
  Q 434.33 328.66 430.04 331.12
  Q 423.11 335.09 415.68 337.00
  Q 411.70 338.03 400.25 338.02
  Q 315.93 337.96 100.49 338.02
  Q 85.76 338.02 74.56 332.64
  C 44.66 318.28 32.81 281.01 48.94 252.19
  Q 52.20 246.37 63.40 234.38
  Q 162.06 128.76 177.89 111.58
  Q 187.37 101.29 192.35 98.30
  Q 199.45 94.03 207.58 92.17
  Q 211.75 91.21 223.98 91.21
  Q 378.70 91.21 450.58 91.24
  A 0.35 0.34 -68.4 0 1 450.83 91.82
  Q 381.10 166.57 378.55 169.30
  Q 374.33 173.84 368.60 175.69
  Q 365.04 176.84 356.79 176.84
  Q 269.26 176.80 247.95 176.81
  Q 240.56 176.82 237.65 177.79
  C 233.00 179.34 229.88 181.49 226.26 185.39
  Q 207.91 205.12 184.20 230.44
  Q 179.33 235.63 178.69 238.51
  C 177.08 245.71 182.74 252.54 190.29 252.55
  Q 217.90 252.59 368.23 252.59
  C 380.21 252.59 387.98 252.88 395.23 244.98
  Q 446.16 189.42 475.57 158.85
  Q 475.63 158.79 475.69 158.73
  Q 541.14 88.52 568.10 59.62
  Q 578.99 47.95 583.28 45.49
  Q 590.21 41.52 597.64 39.61
  Q 601.62 38.58 613.07 38.59
  Q 697.39 38.65 912.83 38.59
  Q 927.56 38.59 938.76 43.97
  C 968.66 58.33 980.51 95.60 964.38 124.42
  Q 961.12 130.24 949.92 142.23
  Q 851.26 247.85 835.43 265.03
  Q 825.95 275.32 820.97 278.31
  Q 813.87 282.58 805.74 284.44
  Q 801.57 285.40 789.34 285.40
  Q 634.62 285.40 562.74 285.37
  A 0.35 0.34 -68.4 0 1 562.49 284.79
  Q 632.22 210.04 634.77 207.31
  Q 638.99 202.77 644.72 200.92
  Q 648.28 199.77 656.53 199.77
  Q 744.06 199.81 765.37 199.80
  Q 772.76 199.79 775.67 198.82
  C 780.32 197.27 783.44 195.12 787.06 191.22
  Q 805.41 171.49 829.12 146.17
  Q 833.99 140.98 834.63 138.10
  C 836.24 130.90 830.58 124.07 823.03 124.06
  Q 795.42 124.02 645.09 124.02
  C 633.11 124.02 625.34 123.73 618.09 131.63
  Q 567.16 187.19 537.75 217.75
  Z"
/>
<path fill="#333333" d="
  M 647.2342 498.5396
  A 37.77 37.21 93.5 0 1 612.3994 458.5684
  A 37.77 37.21 93.5 0 1 651.8458 423.1404
  A 37.77 37.21 93.5 0 1 686.6806 463.1116
  A 37.77 37.21 93.5 0 1 647.2342 498.5396
  Z
  M 650.9318 490.7967
  A 29.97 28.45 87.3 0 0 677.9384 459.5198
  A 29.97 28.45 87.3 0 0 648.1082 430.9233
  A 29.97 28.45 87.3 0 0 621.1016 462.2002
  A 29.97 28.45 87.3 0 0 650.9318 490.7967
  Z"
/>
<path fill="#333333" d="
  M 843.53 461.04
  C 843.76 484.19 866.56 498.29 887.07 486.28
  Q 888.37 485.52 892.63 482.12
  A 3.41 3.40 49.4 0 1 897.26 482.48
  L 898.19 483.48
  A 3.41 3.41 0.0 0 1 897.92 488.36
  Q 885.32 499.33 869.46 498.21
  C 849.63 496.81 835.06 481.24 834.86 461.13
  C 834.66 441.01 848.92 425.16 868.72 423.37
  Q 884.55 421.93 897.37 432.65
  A 3.41 3.41 0.0 0 1 897.74 437.53
  L 896.83 438.54
  A 3.41 3.40 -50.5 0 1 892.20 439.00
  Q 887.88 435.68 886.56 434.94
  C 865.82 423.34 843.30 437.89 843.53 461.04
  Z"
/>
<path fill="#333333" d="
  M 1023.46 438.40
  A 14.48 14.48 0.0 0 1 1008.98 452.88
  A 14.48 14.48 0.0 0 1 994.50 438.40
  A 14.48 14.48 0.0 0 1 1008.98 423.92
  A 14.48 14.48 0.0 0 1 1023.46 438.40
  Z
  M 1022.41 438.44
  A 13.38 13.38 0.0 0 0 1009.03 425.06
  A 13.38 13.38 0.0 0 0 995.65 438.44
  A 13.38 13.38 0.0 0 0 1009.03 451.82
  A 13.38 13.38 0.0 0 0 1022.41 438.44
  Z"
/>
<path fill="#333333" d="
  M 211.42 424.02
  Q 215.97 424.03 219.65 424.09
  A 2.46 2.45 -10.9 0 1 221.88 425.60
  L 250.44 493.38
  A 1.72 1.41 -66.0 0 1 250.54 493.74
  Q 250.87 496.03 249.00 496.90
  A 2.08 1.95 -55.8 0 1 248.15 497.09
  Q 241.58 497.09 232.75 497.10
  Q 230.33 497.10 229.68 495.40
  Q 227.82 490.55 225.80 485.69
  A 2.09 2.08 78.9 0 0 223.91 484.41
  Q 217.74 484.33 211.35 484.32
  Q 204.97 484.32 198.80 484.39
  A 2.09 2.08 -78.8 0 0 196.91 485.66
  Q 194.88 490.52 193.01 495.36
  Q 192.35 497.06 189.93 497.06
  Q 181.10 497.03 174.53 497.01
  A 2.08 1.95 55.9 0 1 173.68 496.82
  Q 171.82 495.95 172.15 493.66
  A 1.72 1.41 66.2 0 1 172.25 493.30
  L 200.95 425.58
  A 2.46 2.45 11.0 0 1 203.18 424.08
  Q 206.86 424.02 211.42 424.02
  Z
  M 204.65 464.75
  A 2.65 2.65 0.0 0 0 207.11 468.39
  L 215.27 468.40
  A 2.65 2.65 0.0 0 0 217.74 464.78
  L 213.68 454.49
  A 2.65 2.65 0.0 0 0 208.75 454.49
  L 204.65 464.75
  Z"
/>
<path fill="#333333" d="
  M 0.35 427.01
  A 2.60 2.60 0.0 0 1 2.96 424.42
  L 32.13 424.58
  A 37.27 34.55 0.3 0 1 69.22 459.32
  L 69.20 462.60
  A 37.27 34.55 0.3 0 1 31.75 496.96
  L 2.58 496.80
  A 2.60 2.60 0.0 0 1 -0.01 494.19
  L 0.35 427.01
  Z
  M 20.57 445.03
  L 20.41 476.49
  A 2.54 2.54 0.0 0 0 22.93 479.04
  L 30.31 479.08
  A 17.96 17.17 0.3 0 0 48.36 462.00
  L 48.38 459.80
  A 17.96 17.17 0.3 0 0 30.51 442.54
  L 23.13 442.50
  A 2.54 2.54 0.0 0 0 20.57 445.03
  Z"
/>
<path fill="#333333" d="
  M 114.09 442.11
  C 113.00 442.15 112.40 443.15 112.34 444.15
  Q 112.15 447.00 112.34 450.22
  A 2.49 2.48 88.3 0 0 114.82 452.56
  Q 142.52 452.58 144.41 452.62
  C 146.53 452.66 147.06 454.43 147.05 456.30
  Q 146.99 462.51 147.04 465.45
  C 147.08 467.57 145.92 468.48 143.99 468.59
  Q 142.36 468.68 115.91 468.60
  C 113.55 468.59 112.31 469.27 112.24 471.75
  Q 112.19 473.38 112.32 477.49
  A 2.56 2.56 0.0 0 0 114.88 479.97
  Q 131.40 479.94 148.42 480.03
  Q 151.14 480.05 151.17 483.26
  Q 151.26 492.29 151.07 494.70
  C 150.85 497.36 148.62 497.06 146.16 497.06
  Q 115.37 497.07 94.52 497.01
  C 92.63 497.00 92.13 495.27 92.13 493.56
  Q 92.16 472.82 92.19 427.51
  C 92.19 424.86 94.20 424.43 96.55 424.44
  Q 96.79 424.44 147.00 424.47
  Q 150.68 424.47 150.66 427.73
  Q 150.63 435.36 150.60 439.44
  A 1.48 1.46 63.6 0 1 150.31 440.32
  Q 149.05 442.09 147.25 442.08
  Q 119.11 441.94 114.09 442.11
  Z"
/>
<path fill="#333333" d="
  M 273.94 427.40
  C 273.94 425.75 275.35 424.48 277.00 424.47
  Q 279.98 424.46 290.53 424.44
  C 293.79 424.43 294.26 425.82 294.26 428.97
  Q 294.24 462.83 294.29 476.95
  C 294.30 478.97 296.74 479.48 298.45 479.48
  Q 303.57 479.47 326.00 479.48
  C 328.12 479.48 329.37 480.29 329.33 482.52
  Q 329.28 484.67 329.32 491.59
  C 329.33 494.76 329.90 497.07 326.00 497.06
  Q 318.35 497.05 277.25 497.07
  C 274.39 497.07 273.87 495.63 273.86 492.96
  Q 273.78 462.86 273.94 427.40
  Z"
/>
<path fill="#333333" d="
  M 372.61 444.16
  Q 372.42 447.02 372.62 450.24
  A 2.49 2.48 88.2 0 0 375.10 452.57
  Q 402.81 452.56 404.70 452.60
  C 406.82 452.63 407.35 454.40 407.35 456.28
  Q 407.29 462.49 407.35 465.43
  C 407.39 467.55 406.23 468.46 404.30 468.57
  Q 402.67 468.66 376.21 468.62
  C 373.85 468.61 372.61 469.29 372.54 471.77
  Q 372.50 473.40 372.63 477.51
  A 2.56 2.56 0.0 0 0 375.20 479.99
  Q 391.72 479.94 408.74 480.01
  Q 411.47 480.03 411.50 483.24
  Q 411.60 492.27 411.41 494.68
  C 411.20 497.34 408.97 497.04 406.51 497.05
  Q 375.71 497.10 354.85 497.06
  C 352.96 497.05 352.46 495.32 352.46 493.61
  Q 352.46 472.87 352.43 427.54
  C 352.43 424.89 354.44 424.46 356.79 424.47
  Q 357.03 424.47 407.26 424.44
  Q 410.94 424.43 410.92 427.69
  Q 410.90 435.32 410.88 439.41
  A 1.48 1.46 63.6 0 1 410.59 440.29
  Q 409.33 442.06 407.53 442.05
  Q 379.38 441.95 374.36 442.12
  C 373.27 442.16 372.67 443.16 372.61 444.16
  Z"
/>
<path fill="#333333" d="
  M 460.96 475.31
  A 2.64 2.64 0.0 0 0 458.29 477.95
  Q 458.30 493.95 458.22 494.94
  Q 458.06 496.89 455.73 497.00
  Q 453.20 497.12 441.25 497.05
  C 438.47 497.04 437.95 495.62 437.95 492.96
  Q 437.89 461.32 437.97 427.04
  C 437.97 425.06 440.28 424.46 442.14 424.46
  Q 447.76 424.44 473.75 424.44
  Q 474.42 424.44 479.50 424.93
  C 490.14 425.95 500.06 432.59 502.01 443.72
  Q 505.21 461.92 490.19 470.77
  A 2.47 2.47 0.0 0 0 489.39 474.27
  Q 490.46 475.88 501.19 491.53
  C 502.53 493.49 503.20 495.48 501.07 496.75
  A 2.07 2.02 -60.3 0 1 500.06 497.04
  Q 492.84 497.08 484.00 497.09
  Q 481.57 497.10 480.88 496.06
  Q 468.49 477.57 467.68 476.22
  A 1.62 1.60 76.2 0 0 466.28 475.36
  L 460.96 475.31
  Z
  M 458.29 444.78
  L 458.29 456.54
  A 2.57 2.57 0.0 0 0 460.86 459.11
  L 473.48 459.11
  A 8.51 7.55 -0.0 0 0 481.99 451.56
  L 481.99 449.76
  A 8.51 7.55 0.0 0 0 473.48 442.21
  L 460.86 442.21
  A 2.57 2.57 0.0 0 0 458.29 444.78
  Z"
/>
<path fill="#333333" d="
  M 539.47 424.47
  Q 549.92 424.46 562.51 424.43
  C 578.68 424.41 592.06 431.93 590.84 450.25
  C 590.15 460.58 582.09 467.87 572.55 470.32
  C 564.96 472.28 558.58 471.63 547.51 471.67
  Q 545.02 471.68 545.00 474.28
  Q 544.92 486.68 545.00 493.93
  A 3.13 3.13 0.0 0 1 541.91 497.09
  L 539.58 497.13
  A 3.07 3.07 0.0 0 1 536.47 494.07
  Q 536.51 493.45 536.48 427.73
  Q 536.48 425.34 538.42 424.65
  A 3.16 3.15 -54.6 0 1 539.47 424.47
  Z
  M 544.91 434.80
  L 545.01 461.32
  A 2.58 2.58 0.0 0 0 547.60 463.89
  L 564.70 463.83
  A 17.74 14.93 -0.2 0 0 582.38 448.83
  L 582.38 447.01
  A 17.74 14.93 -0.2 0 0 564.58 432.15
  L 547.48 432.21
  A 2.58 2.58 0.0 0 0 544.91 434.80
  Z"
/>
<path fill="#333333" d="
  M 720.80 424.40
  A 3.39 3.39 0.0 0 1 724.19 427.79
  L 724.19 487.10
  A 2.20 2.20 0.0 0 0 726.39 489.30
  L 761.37 489.30
  A 3.79 3.77 -88.8 0 1 765.14 493.24
  L 765.11 494.04
  A 3.14 3.14 0.0 0 1 761.74 497.10
  Q 760.65 497.02 718.14 497.07
  Q 715.77 497.07 715.74 494.49
  Q 715.60 483.21 715.67 427.67
  A 3.27 3.27 0.0 0 1 718.94 424.40
  L 720.80 424.40
  Z"
/>
<rect fill="#333333" x="794.72" y="424.53" width="8.54" height="72.60" rx="2.91"/>
<path fill="#333333" d="
  M 952.69 458.63
  Q 953.99 458.64 954.97 457.22
  Q 965.42 442.04 975.19 427.39
  A 6.84 6.83 -73.2 0 1 980.88 424.34
  L 982.51 424.34
  A 2.57 2.57 0.0 0 1 984.62 428.37
  L 957.42 467.70
  A 3.07 3.06 -27.7 0 0 956.87 469.45
  L 956.85 494.61
  A 2.44 2.44 0.0 0 1 954.98 496.98
  Q 954.46 497.11 952.63 497.10
  Q 950.81 497.10 950.29 496.97
  A 2.44 2.44 0.0 0 1 948.42 494.60
  L 948.48 469.44
  A 3.07 3.06 27.9 0 0 947.94 467.69
  L 920.86 428.27
  A 2.57 2.57 0.0 0 1 922.99 424.25
  L 924.62 424.25
  A 6.84 6.83 73.3 0 1 930.30 427.32
  Q 940.02 442.00 950.42 457.21
  Q 951.40 458.63 952.69 458.63
  Z"
/>
<path fill="#ffffff" d="
  M 1022.41 438.44
  A 13.38 13.38 0.0 0 1 1009.03 451.82
  A 13.38 13.38 0.0 0 1 995.65 438.44
  A 13.38 13.38 0.0 0 1 1009.03 425.06
  A 13.38 13.38 0.0 0 1 1022.41 438.44
  Z
  M 1015.52 446.16
  L 1012.26 440.50
  A 0.67 0.67 0.0 0 1 1012.46 439.61
  Q 1016.12 437.17 1014.81 433.63
  C 1013.31 429.59 1008.37 430.41 1004.75 430.50
  A 0.50 0.50 0.0 0 0 1004.26 431.00
  L 1004.26 446.26
  A 0.61 0.61 0.0 0 0 1004.87 446.87
  L 1005.22 446.87
  A 0.62 0.62 0.0 0 0 1005.84 446.25
  L 1005.84 440.70
  A 0.62 0.61 0.0 0 1 1006.46 440.09
  L 1009.77 440.09
  A 1.01 1.00 -15.0 0 1 1010.64 440.59
  L 1014.08 446.54
  A 0.50 0.49 -13.9 0 0 1014.52 446.80
  L 1015.15 446.80
  A 0.43 0.43 0.0 0 0 1015.52 446.16
  Z"
/>
<path fill="#333333" d="
  M 1015.52 446.16
  A 0.43 0.43 0.0 0 1 1015.15 446.80
  L 1014.52 446.80
  A 0.50 0.49 -13.9 0 1 1014.08 446.54
  L 1010.64 440.59
  A 1.01 1.00 -15.0 0 0 1009.77 440.09
  L 1006.46 440.09
  A 0.62 0.61 0.0 0 0 1005.84 440.70
  L 1005.84 446.25
  A 0.62 0.62 0.0 0 1 1005.22 446.87
  L 1004.87 446.87
  A 0.61 0.61 0.0 0 1 1004.26 446.26
  L 1004.26 431.00
  A 0.50 0.50 0.0 0 1 1004.75 430.50
  C 1008.37 430.41 1013.31 429.59 1014.81 433.63
  Q 1016.12 437.17 1012.46 439.61
  A 0.67 0.67 0.0 0 0 1012.26 440.50
  L 1015.52 446.16
  Z
  M 1005.81 432.11
  L 1005.79 438.49
  A 0.39 0.39 0.0 0 0 1006.18 438.88
  L 1009.23 438.89
  A 4.42 3.44 0.1 0 0 1013.66 435.46
  L 1013.66 435.18
  A 4.42 3.44 0.1 0 0 1009.25 431.73
  L 1006.20 431.72
  A 0.39 0.39 0.0 0 0 1005.81 432.11
  Z"
/>
<ellipse fill="#ffffff" cx="0.00" cy="0.00" transform="translate(649.52,460.86) rotate(87.3)" rx="29.97" ry="28.45"/>
<path fill="#ffffff" d="
  M 1005.81 432.11
  A 0.39 0.39 0.0 0 1 1006.20 431.72
  L 1009.25 431.73
  A 4.42 3.44 0.1 0 1 1013.66 435.18
  L 1013.66 435.46
  A 4.42 3.44 0.1 0 1 1009.23 438.89
  L 1006.18 438.88
  A 0.39 0.39 0.0 0 1 1005.79 438.49
  L 1005.81 432.11
  Z"
/>
<path fill="#ffffff" d="
  M 544.91 434.80
  A 2.58 2.58 0.0 0 1 547.48 432.21
  L 564.58 432.15
  A 17.74 14.93 -0.2 0 1 582.38 447.01
  L 582.38 448.83
  A 17.74 14.93 -0.2 0 1 564.70 463.83
  L 547.60 463.89
  A 2.58 2.58 0.0 0 1 545.01 461.32
  L 544.91 434.80
  Z"
/>
<path fill="#ffffff" d="
  M 20.57 445.03
  A 2.54 2.54 0.0 0 1 23.13 442.50
  L 30.51 442.54
  A 17.96 17.17 0.3 0 1 48.38 459.80
  L 48.36 462.00
  A 17.96 17.17 0.3 0 1 30.31 479.08
  L 22.93 479.04
  A 2.54 2.54 0.0 0 1 20.41 476.49
  L 20.57 445.03
  Z"
/>
<path fill="#ffffff" d="
  M 458.29 444.78
  A 2.57 2.57 0.0 0 1 460.86 442.21
  L 473.48 442.21
  A 8.51 7.55 0.0 0 1 481.99 449.76
  L 481.99 451.56
  A 8.51 7.55 -0.0 0 1 473.48 459.11
  L 460.86 459.11
  A 2.57 2.57 0.0 0 1 458.29 456.54
  L 458.29 444.78
  Z"
/>
<path fill="#ffffff" d="
  M 204.65 464.75
  L 208.75 454.49
  A 2.65 2.65 0.0 0 1 213.68 454.49
  L 217.74 464.78
  A 2.65 2.65 0.0 0 1 215.27 468.40
  L 207.11 468.39
  A 2.65 2.65 0.0 0 1 204.65 464.75
  Z"
/>
</svg>
