<?xml version="1.0" encoding="UTF-8" standalone="no"?>
<!DOCTYPE svg PUBLIC "-//W3C//DTD SVG 1.1//EN" "http://www.w3.org/Graphics/SVG/1.1/DTD/svg11.dtd">
<svg xmlns="http://www.w3.org/2000/svg" version="1.1" viewBox="0.00 0.00 357.00 141.00">
<g stroke-width="2.00" fill="none" stroke-linecap="butt">
<path stroke="#9e9e9e" vector-effect="non-scaling-stroke" d="
  M 308.69 52.54
  L 308.63 39.44
  A 0.52 0.52 0.0 0 0 308.11 38.93
  L 302.13 38.93
  A 0.49 0.48 0.0 0 0 301.64 39.41
  L 301.64 52.94
  A 0.62 0.62 0.0 0 1 301.02 53.56
  L 289.41 53.56
  A 0.62 0.62 0.0 0 1 288.79 52.94
  L 288.79 39.36
  A 0.41 0.41 0.0 0 0 288.38 38.95
  L 282.23 38.95
  A 0.40 0.40 0.0 0 0 281.83 39.35
  L 281.83 74.21
  A 0.42 0.42 0.0 0 0 282.25 74.63
  L 288.42 74.63
  A 0.38 0.38 0.0 0 0 288.80 74.25
  L 288.80 60.66
  A 0.67 0.66 -0.0 0 1 289.47 60.00
  L 301.02 60.00
  A 0.64 0.64 0.0 0 1 301.66 60.64
  L 301.66 74.14
  A 0.48 0.48 0.0 0 0 302.14 74.62
  L 308.13 74.62
  A 0.51 0.51 0.0 0 0 308.64 74.11
  L 308.65 59.77"
/>
<path stroke="#d79093" vector-effect="non-scaling-stroke" d="
  M 308.65 59.77
  L 319.17 59.86
  A 0.29 0.29 0.0 0 1 319.42 60.30
  Q 303.77 86.79 287.88 113.12
  L 287.88 113.13
  Q 287.94 113.07 288.00 113.00
  Q 317.47 80.57 348.98 45.60
  A 0.41 0.41 0.0 0 0 348.68 44.92
  L 338.86 44.92
  A 0.27 0.27 0.0 0 1 338.61 44.55
  L 356.47 0.93
  A 0.15 0.15 0.0 0 0 356.23 0.77
  L 308.69 52.54"
/>
<path stroke="#762f32" vector-effect="non-scaling-stroke" d="
  M 308.65 59.77
  L 308.69 52.54"
/>
<path stroke="#9e9e9e" vector-effect="non-scaling-stroke" d="
  M 318.0745 35.9885
  A 3.92 3.78 5.1 0 0 314.5060 31.8750
  A 3.92 3.78 5.1 0 0 310.2655 35.2915
  A 3.92 3.78 5.1 0 0 313.8340 39.4050
  A 3.92 3.78 5.1 0 0 318.0745 35.9885"
/>
<path stroke="#919090" vector-effect="non-scaling-stroke" d="
  M 11.35 73.74
  A 0.59 0.58 -87.3 0 0 11.88 74.33
  C 20.48 75.11 32.56 77.95 32.20 64.31
  C 32.09 60.30 30.83 57.56 26.95 56.54
  Q 23.72 55.69 17.49 54.27
  C 13.27 53.31 12.73 50.06 12.99 46.25
  Q 13.34 40.88 19.07 40.29
  Q 23.88 39.78 30.63 40.81
  A 0.76 0.75 -81.8 0 0 31.49 40.16
  L 31.50 40.08
  A 0.88 0.88 0.0 0 0 30.76 39.10
  C 24.66 38.21 12.39 36.45 11.27 45.50
  C 9.06 63.30 30.67 51.26 30.55 64.73
  C 30.45 76.45 19.34 73.09 11.94 72.69
  A 0.56 0.56 0.0 0 0 11.35 73.25
  L 11.35 73.74"
/>
<path stroke="#919090" vector-effect="non-scaling-stroke" d="
  M 184.59 59.27
  L 184.59 71.97
  A 0.68 0.67 84.9 0 1 184.04 72.64
  C 176.97 73.98 167.98 75.15 165.62 67.32
  Q 163.28 59.53 164.77 49.54
  C 166.47 38.13 177.03 39.35 185.37 41.28
  A 0.72 0.72 0.0 0 0 186.25 40.66
  L 186.26 40.55
  A 0.83 0.83 0.0 0 0 185.57 39.64
  C 175.62 38.07 164.95 36.45 163.10 49.59
  Q 161.70 59.55 163.63 66.55
  Q 166.30 76.20 177.35 75.07
  Q 184.01 74.38 185.70 74.01
  A 0.69 0.69 0.0 0 0 186.24 73.34
  L 186.24 57.58
  A 0.52 0.52 0.0 0 0 185.72 57.06
  L 177.61 57.06
  A 0.57 0.56 -90.0 0 0 177.05 57.63
  L 177.05 57.98
  A 0.72 0.72 0.0 0 0 177.77 58.70
  L 184.03 58.70
  A 0.57 0.56 90.0 0 1 184.59 59.27"
/>
<path stroke="#9e9e9e" vector-effect="non-scaling-stroke" d="
  M 252.72 56.83
  C 252.72 64.81 253.22 74.60 263.74 75.15
  Q 269.81 75.47 275.54 74.06
  A 0.37 0.37 0.0 0 0 275.82 73.70
  L 275.82 68.53
  A 0.28 0.28 0.0 0 0 275.50 68.25
  Q 272.69 68.58 269.42 68.73
  C 265.25 68.92 261.74 69.26 260.69 65.03
  Q 259.93 62.02 259.93 56.83
  Q 259.93 51.65 260.69 48.63
  C 261.75 44.41 265.26 44.75 269.43 44.94
  Q 272.70 45.09 275.51 45.42
  A 0.28 0.28 0.0 0 0 275.83 45.14
  L 275.83 39.97
  A 0.37 0.37 0.0 0 0 275.55 39.61
  Q 269.82 38.20 263.74 38.51
  C 253.23 39.06 252.72 48.85 252.72 56.83"
/>
<path stroke="#919090" vector-effect="non-scaling-stroke" d="
  M 96.59 38.93
  A 0.32 0.32 0.0 0 0 96.27 39.25
  L 96.27 74.31
  A 0.32 0.32 0.0 0 0 96.59 74.63
  L 114.43 74.63
  A 0.32 0.32 0.0 0 0 114.75 74.31
  L 114.75 73.38
  A 0.32 0.32 0.0 0 0 114.43 73.06
  L 98.19 73.06
  A 0.32 0.32 0.0 0 1 97.87 72.74
  L 97.87 39.25
  A 0.32 0.32 0.0 0 0 97.55 38.93
  L 96.59 38.93"
/>
<path stroke="#919090" vector-effect="non-scaling-stroke" d="
  M 121.70 39.50
  A 0.62 0.62 0.0 0 0 121.08 38.88
  L 120.64 38.88
  A 0.62 0.62 0.0 0 0 120.02 39.50
  L 120.02 74.12
  A 0.62 0.62 0.0 0 0 120.64 74.74
  L 121.08 74.74
  A 0.62 0.62 0.0 0 0 121.70 74.12
  L 121.70 39.50"
/>
<path stroke="#919090" vector-effect="non-scaling-stroke" d="
  M 143.51 56.51
  Q 140.92 51.27 135.36 39.69
  A 1.32 1.32 0.0 0 0 134.17 38.94
  L 131.61 38.94
  A 0.66 0.66 0.0 0 0 130.95 39.60
  L 130.95 74.12
  A 0.64 0.64 0.0 0 0 131.59 74.76
  L 132.07 74.76
  A 0.62 0.61 -0.0 0 0 132.69 74.15
  L 132.69 41.39
  A 0.85 0.85 0.0 0 1 134.31 41.03
  Q 138.31 49.56 142.08 57.17
  Q 144.67 62.42 150.23 74.00
  A 1.32 1.32 0.0 0 0 151.42 74.75
  L 153.98 74.75
  A 0.66 0.66 0.0 0 0 154.64 74.09
  L 154.64 39.57
  A 0.64 0.64 0.0 0 0 154.00 38.93
  L 153.52 38.93
  A 0.62 0.61 0.0 0 0 152.90 39.54
  L 152.90 72.30
  A 0.85 0.85 0.0 0 1 151.28 72.65
  Q 147.28 64.12 143.51 56.51"
/>
<path stroke="#919090" vector-effect="non-scaling-stroke" d="
  M 41.27 57.54
  A 0.32 0.32 0.0 0 1 41.59 57.22
  L 56.37 57.22
  A 0.32 0.32 0.0 0 0 56.69 56.90
  L 56.69 55.91
  A 0.32 0.32 0.0 0 0 56.37 55.59
  L 41.61 55.59
  A 0.32 0.32 0.0 0 1 41.29 55.27
  L 41.29 40.79
  A 0.32 0.32 0.0 0 1 41.61 40.47
  L 59.37 40.47
  A 0.32 0.32 0.0 0 0 59.69 40.15
  L 59.69 39.24
  A 0.32 0.32 0.0 0 0 59.37 38.92
  L 39.98 38.92
  A 0.32 0.32 0.0 0 0 39.66 39.24
  L 39.66 74.30
  A 0.32 0.32 0.0 0 0 39.98 74.62
  L 59.42 74.62
  A 0.32 0.32 0.0 0 0 59.74 74.30
  L 59.74 73.40
  A 0.32 0.32 0.0 0 0 59.42 73.08
  L 41.59 73.08
  A 0.32 0.32 0.0 0 1 41.27 72.76
  L 41.27 57.54"
/>
<path stroke="#919090" vector-effect="non-scaling-stroke" d="
  M 76.96 63.70
  Q 80.60 63.70 84.74 63.63
  A 0.67 0.66 -8.2 0 1 85.39 64.11
  L 88.39 74.24
  A 0.74 0.74 0.0 0 0 89.31 74.74
  L 89.56 74.67
  A 0.53 0.52 73.5 0 0 89.91 74.01
  L 79.72 39.57
  A 0.87 0.87 0.0 0 0 78.90 38.94
  Q 77.99 38.93 76.94 38.93
  Q 75.89 38.93 74.98 38.94
  A 0.87 0.87 0.0 0 0 74.16 39.57
  L 64.02 74.03
  A 0.53 0.52 -73.5 0 0 64.37 74.69
  L 64.62 74.76
  A 0.74 0.74 0.0 0 0 65.54 74.26
  L 68.53 64.12
  A 0.67 0.66 8.1 0 1 69.18 63.65
  Q 73.32 63.70 76.96 63.70"
/>
<path stroke="#9e9e9e" vector-effect="non-scaling-stroke" d="
  M 206.34 74.57
  Q 209.23 74.57 209.26 74.56
  A 0.73 0.73 0.0 0 0 209.80 73.86
  L 209.82 45.82
  A 0.55 0.55 0.0 0 1 210.37 45.27
  L 218.52 45.27
  A 0.44 0.43 -0.0 0 0 218.96 44.84
  L 218.96 39.51
  A 0.48 0.48 0.0 0 0 218.48 39.03
  Q 212.44 39.05 206.36 39.04
  Q 200.28 39.04 194.24 39.01
  A 0.48 0.48 0.0 0 0 193.76 39.49
  L 193.75 44.82
  A 0.44 0.43 0.1 0 0 194.19 45.25
  L 202.34 45.26
  A 0.55 0.55 0.0 0 1 202.89 45.82
  L 202.87 73.86
  A 0.73 0.73 0.0 0 0 203.41 74.56
  Q 203.44 74.57 206.34 74.57"
/>
<path stroke="#9e9e9e" vector-effect="non-scaling-stroke" d="
  M 225.59 56.79
  Q 225.59 72.96 225.62 73.96
  A 0.65 0.64 -0.8 0 0 226.27 74.58
  L 247.40 74.58
  A 0.32 0.32 0.0 0 0 247.72 74.26
  L 247.72 68.68
  A 0.30 0.30 0.0 0 0 247.42 68.38
  L 233.10 68.38
  A 0.56 0.56 0.0 0 1 232.54 67.82
  L 232.54 60.47
  A 0.55 0.55 0.0 0 1 233.09 59.92
  L 244.00 59.92
  A 0.70 0.69 5.1 0 0 244.68 59.35
  Q 244.77 58.88 244.77 56.79
  Q 244.77 54.70 244.68 54.22
  A 0.70 0.69 -5.2 0 0 244.00 53.66
  L 233.09 53.66
  A 0.55 0.55 0.0 0 1 232.54 53.11
  L 232.54 45.76
  A 0.56 0.56 0.0 0 1 233.10 45.20
  L 247.42 45.20
  A 0.30 0.30 0.0 0 0 247.72 44.90
  L 247.71 39.32
  A 0.32 0.32 0.0 0 0 247.39 39.00
  L 226.26 39.00
  A 0.65 0.64 0.8 0 0 225.62 39.63
  Q 225.59 40.63 225.59 56.79"
/>
<path stroke="#919090" vector-effect="non-scaling-stroke" d="
  M 275.73 95.46
  A 0.54 0.54 0.0 0 0 275.19 94.92
  L 7.39 94.92
  A 0.54 0.54 0.0 0 0 6.85 95.46
  L 6.85 95.48
  A 0.54 0.54 0.0 0 0 7.39 96.02
  L 275.19 96.02
  A 0.54 0.54 0.0 0 0 275.73 95.48
  L 275.73 95.46"
/>
<path stroke="#9e9e9e" vector-effect="non-scaling-stroke" d="
  M 72.16 132.17
  L 84.67 132.34
  A 0.57 0.56 -89.5 0 0 85.24 131.77
  L 85.24 128.32
  A 0.92 0.92 0.0 0 1 86.16 127.40
  L 93.72 127.40
  A 1.08 1.07 0.0 0 1 94.80 128.47
  L 94.80 131.64
  A 0.62 0.62 0.0 0 0 95.42 132.26
  L 100.22 132.26
  A 0.57 0.57 0.0 0 0 100.79 131.69
  L 100.79 127.67
  A 2.18 2.18 0.0 0 0 99.71 125.79
  L 99.26 125.53
  A 0.55 0.54 40.6 0 1 99.19 124.63
  L 100.24 123.80
  A 0.96 0.94 -14.9 0 0 100.59 123.21
  C 101.52 117.85 101.11 114.08 94.50 113.97
  Q 85.24 113.82 79.63 113.89
  A 0.60 0.59 -1.0 0 0 79.04 114.49
  L 79.08 130.91
  A 0.42 0.41 3.7 0 1 78.61 131.32
  Q 78.45 131.30 78.29 131.01"
/>
<path stroke="#919090" vector-effect="non-scaling-stroke" d="
  M 78.29 131.01
  L 69.27 114.55
  A 1.18 1.16 -14.1 0 0 68.24 113.94
  L 62.53 113.94
  A 1.09 1.07 14.7 0 0 61.59 114.48
  L 51.81 131.42
  A 0.49 0.48 -74.8 0 0 52.22 132.15
  L 57.48 132.15
  A 1.25 1.23 -74.8 0 0 58.55 131.53
  L 59.67 129.60
  A 0.83 0.83 0.0 0 1 60.39 129.18
  L 69.15 129.18
  A 1.53 1.50 -17.9 0 1 70.37 129.79
  L 72.16 132.17"
/>
<path stroke="#302f2f" vector-effect="non-scaling-stroke" d="
  M 78.29 131.01
  Q 78.25 131.97 77.75 131.94
  Q 75.26 131.78 72.16 132.17"
/>
<path stroke="#9e9e9e" vector-effect="non-scaling-stroke" d="
  M 38.19 131.54
  L 38.19 128.14
  A 0.62 0.61 -89.5 0 1 38.81 127.52
  Q 42.26 127.56 48.38 127.51
  C 50.51 127.49 52.48 126.71 53.19 124.72
  C 54.12 122.09 54.20 116.56 51.37 114.89
  Q 50.00 114.08 46.53 114.05
  Q 38.02 113.98 32.52 113.94
  A 0.69 0.69 0.0 0 0 31.82 114.63
  L 31.82 131.26
  A 0.99 0.99 0.0 0 0 32.81 132.25
  L 37.47 132.25
  A 0.72 0.71 0.0 0 0 38.19 131.54"
/>
<path stroke="#9e9e9e" vector-effect="non-scaling-stroke" d="
  M 113.75 125.34
  Q 117.06 125.34 117.90 125.44
  A 1.06 1.05 -58.6 0 1 118.35 127.37
  Q 118.01 127.61 117.48 127.62
  Q 108.42 127.84 104.61 127.51
  A 1.06 1.06 0.0 0 0 103.58 129.06
  L 103.95 129.78
  A 4.14 4.11 78.1 0 0 107.32 132.00
  Q 115.61 132.57 120.20 131.96
  C 124.34 131.41 125.08 127.36 124.11 124.01
  C 122.98 120.15 118.05 120.89 113.93 120.90
  Q 110.62 120.90 109.79 120.80
  A 1.06 1.05 -58.6 0 1 109.33 118.87
  Q 109.67 118.63 110.20 118.62
  Q 119.26 118.40 123.07 118.73
  A 1.06 1.06 0.0 0 0 124.10 117.18
  L 123.73 116.46
  A 4.14 4.11 78.1 0 0 120.36 114.24
  Q 112.07 113.67 107.48 114.28
  C 103.34 114.83 102.60 118.88 103.58 122.23
  C 104.70 126.10 109.63 125.35 113.75 125.34"
/>
<path stroke="#9e9e9e" vector-effect="non-scaling-stroke" d="
  M 151.0336 119.4187
  A 5.43 5.43 0.0 0 0 145.5941 113.9981
  L 131.9941 114.0219
  A 5.43 5.43 0.0 0 0 126.5736 119.4614
  L 126.5864 126.7813
  A 5.43 5.43 0.0 0 0 132.0259 132.2019
  L 145.6259 132.1781
  A 5.43 5.43 0.0 0 0 151.0464 126.7386
  L 151.0336 119.4187"
/>
<path stroke="#9e9e9e" vector-effect="non-scaling-stroke" d="
  M 172.63 113.94
  A 0.32 0.32 0.0 0 0 172.31 114.26
  L 172.31 125.19
  A 0.32 0.32 0.0 0 1 171.74 125.39
  L 162.80 114.07
  A 0.32 0.32 0.0 0 0 162.55 113.95
  L 154.13 113.95
  A 0.32 0.32 0.0 0 0 153.81 114.27
  L 153.81 131.87
  A 0.32 0.32 0.0 0 0 154.13 132.19
  L 159.77 132.19
  A 0.32 0.32 0.0 0 0 160.09 131.87
  L 160.09 121.28
  A 0.32 0.32 0.0 0 1 160.66 121.08
  L 169.33 132.05
  A 0.32 0.32 0.0 0 0 169.58 132.17
  L 177.93 132.17
  A 0.32 0.32 0.0 0 0 178.25 131.85
  L 178.25 114.26
  A 0.32 0.32 0.0 0 0 177.93 113.94
  L 172.63 113.94"
/>
<path stroke="#9e9e9e" vector-effect="non-scaling-stroke" d="
  M 181.56 130.42
  A 4.40 4.39 71.5 0 0 184.90 132.09
  Q 194.98 132.30 197.10 132.08
  Q 201.11 131.64 201.67 128.03
  C 202.51 122.53 200.36 120.64 194.70 120.80
  Q 191.82 120.88 187.23 120.81
  A 0.81 0.80 -89.6 0 1 186.44 120.00
  L 186.44 119.65
  A 0.95 0.95 0.0 0 1 187.39 118.70
  L 200.38 118.70
  A 1.08 1.07 70.8 0 0 201.22 116.96
  L 200.51 116.07
  A 4.86 4.82 73.7 0 0 197.21 114.25
  Q 189.75 113.49 184.44 114.40
  C 181.06 114.99 180.60 117.66 180.65 120.78
  C 180.69 123.60 182.75 125.09 185.30 125.17
  Q 191.07 125.35 195.13 125.21
  A 1.09 1.09 0.0 0 1 196.25 126.30
  L 196.25 126.65
  A 1.12 1.11 0.0 0 1 195.13 127.76
  L 181.62 127.76
  A 1.05 1.05 0.0 0 0 180.80 129.46
  L 181.56 130.42"
/>
<path stroke="#919090" vector-effect="non-scaling-stroke" d="
  M 212.00 124.01
  C 212.01 129.54 215.76 134.39 221.78 131.67
  Q 223.59 130.85 224.53 127.78
  A 0.69 0.69 0.0 0 0 223.93 126.89
  L 223.76 126.88
  A 1.03 1.03 0.0 0 0 222.68 127.64
  C 221.67 131.39 217.42 132.08 215.23 128.75
  Q 214.12 127.06 214.11 124.00
  Q 214.11 120.95 215.21 119.26
  C 217.39 115.92 221.64 116.59 222.67 120.34
  A 1.03 1.03 0.0 0 0 223.75 121.09
  L 223.92 121.08
  A 0.69 0.69 0.0 0 0 224.52 120.19
  Q 223.57 117.12 221.75 116.31
  C 215.72 113.61 211.99 118.48 212.00 124.01"
/>
<path stroke="#9e9e9e" vector-effect="non-scaling-stroke" d="
  M 19.36 131.07
  L 19.57 131.77
  A 0.82 0.82 0.0 0 0 21.18 131.52
  Q 21.00 123.76 20.91 123.10
  C 20.34 118.61 14.36 119.30 11.90 121.34
  Q 10.93 122.14 11.33 122.90
  A 0.90 0.86 45.8 0 0 12.87 122.95
  Q 14.30 120.33 17.69 121.41
  Q 19.66 122.04 19.32 124.25
  A 0.63 0.62 -84.5 0 1 18.69 124.78
  Q 15.01 124.69 13.52 125.29
  C 7.99 127.52 11.27 134.20 16.99 132.19
  C 17.88 131.87 18.19 131.20 18.82 130.85
  A 0.38 0.37 -22.6 0 1 19.36 131.07"
/>
<path stroke="#919090" vector-effect="non-scaling-stroke" d="
  M 231.4154 132.5923
  A 6.44 5.47 92.8 0 0 237.1935 126.4272
  A 6.44 5.47 92.8 0 0 232.0446 119.7277
  A 6.44 5.47 92.8 0 0 226.2665 125.8928
  A 6.44 5.47 92.8 0 0 231.4154 132.5923"
/>
<path stroke="#919090" vector-effect="non-scaling-stroke" d="
  M 248.49 132.28
  A 0.62 0.61 -90.0 0 0 249.10 131.66
  L 249.12 124.64
  A 3.28 3.27 -5.6 0 1 251.77 121.43
  L 251.95 121.40
  A 2.26 2.25 83.8 0 1 254.68 123.60
  L 254.71 131.71
  A 0.52 0.52 0.0 0 0 255.23 132.23
  L 255.91 132.23
  A 0.53 0.52 89.5 0 0 256.43 131.69
  Q 256.39 128.97 256.43 125.34
  C 256.47 121.89 255.32 118.97 251.46 119.98
  A 1.06 1.06 0.0 0 0 250.95 120.29
  L 249.24 122.09
  A 0.44 0.44 0.0 0 1 248.52 121.98
  C 247.50 119.78 245.05 118.90 243.22 120.73
  Q 242.14 121.81 242.08 121.84
  A 0.39 0.38 74.6 0 1 241.54 121.53
  Q 241.53 121.47 241.67 121.13
  Q 241.85 120.69 241.64 120.34
  Q 241.41 119.99 240.68 120.03
  A 0.64 0.63 88.6 0 0 240.08 120.67
  L 240.08 131.81
  A 0.47 0.46 0.0 0 0 240.55 132.27
  L 241.42 132.27
  A 0.47 0.46 -0.0 0 0 241.89 131.81
  L 241.88 124.43
  A 3.07 3.07 0.0 0 1 244.50 121.39
  L 244.66 121.37
  A 2.35 2.35 0.0 0 1 247.36 123.68
  L 247.41 131.54
  A 0.74 0.74 0.0 0 0 248.15 132.28
  L 248.49 132.28"
/>
<path stroke="#919090" vector-effect="non-scaling-stroke" d="
  M 262.43 130.86
  C 262.97 131.27 263.02 131.87 263.91 132.14
  C 268.95 133.67 270.77 129.03 270.32 125.00
  C 269.82 120.59 265.44 117.51 262.19 121.92
  A 0.38 0.38 0.0 0 1 261.52 121.81
  Q 261.51 121.75 261.73 121.20
  Q 261.96 120.65 261.64 120.25
  Q 261.35 119.89 260.68 120.08
  A 0.68 0.67 -8.0 0 0 260.18 120.73
  L 260.18 135.67
  A 0.64 0.64 0.0 0 0 260.82 136.31
  L 261.19 136.31
  A 0.71 0.70 0.0 0 0 261.90 135.61
  L 261.90 131.12
  A 0.33 0.33 0.0 0 1 262.43 130.86"
/>
<path stroke="#919090" vector-effect="non-scaling-stroke" d="
  M 280.90 131.00
  L 281.11 131.69
  A 0.82 0.82 0.0 0 0 282.71 131.44
  Q 282.51 123.74 282.42 123.08
  C 281.84 118.63 275.91 119.32 273.47 121.35
  Q 272.51 122.15 272.91 122.90
  A 0.89 0.85 45.6 0 0 274.44 122.95
  Q 275.85 120.35 279.22 121.41
  Q 281.18 122.03 280.84 124.23
  A 0.62 0.62 0.0 0 1 280.22 124.75
  Q 276.57 124.67 275.09 125.27
  C 269.61 127.50 272.88 134.12 278.55 132.11
  C 279.43 131.79 279.74 131.13 280.36 130.78
  A 0.37 0.37 0.0 0 1 280.90 131.00"
/>
<path stroke="#919090" vector-effect="non-scaling-stroke" d="
  M 288.12 121.32
  Q 288.18 120.72 288.13 120.54
  A 0.79 0.79 0.0 0 0 286.57 120.74
  L 286.57 131.82
  A 0.51 0.50 -90.0 0 0 287.07 132.33
  L 287.70 132.33
  A 0.58 0.58 0.0 0 0 288.28 131.75
  L 288.28 124.99
  A 3.65 3.63 83.8 0 1 291.13 121.43
  L 291.51 121.35
  A 2.34 2.33 83.7 0 1 294.35 123.63
  L 294.35 131.63
  A 0.58 0.57 0.0 0 0 294.93 132.20
  L 295.49 132.20
  A 0.60 0.60 0.0 0 0 296.09 131.60
  Q 296.11 126.88 296.04 124.24
  Q 295.94 120.21 292.32 119.82
  C 290.51 119.62 289.84 120.71 288.70 121.62
  A 0.36 0.35 -17.2 0 1 288.12 121.32"
/>
<path stroke="#919090" vector-effect="non-scaling-stroke" d="
  M 297.84 135.52
  A 0.63 0.63 0.0 0 0 298.30 136.38
  Q 301.58 137.04 302.77 133.74
  Q 305.03 127.40 307.48 120.79
  A 0.43 0.43 0.0 0 0 307.24 120.24
  L 306.99 120.14
  A 0.48 0.47 22.5 0 0 306.37 120.39
  L 302.86 128.98
  A 0.13 0.12 -43.6 0 1 302.63 128.98
  L 299.72 120.73
  A 0.64 0.62 2.6 0 0 299.37 120.36
  L 298.43 119.98
  A 0.43 0.43 0.0 0 0 297.86 120.52
  Q 300.31 127.44 301.17 129.67
  Q 301.98 131.76 301.81 132.43
  C 301.45 133.86 300.35 135.71 298.51 135.00
  A 0.43 0.43 0.0 0 0 297.96 135.24
  L 297.84 135.52"
/>
<path stroke="#9e9e9e" vector-effect="non-scaling-stroke" d="
  M 314.32 35.98
  Q 314.81 34.38 315.11 34.18
  A 0.43 0.42 74.2 0 1 315.77 34.55
  Q 315.75 35.14 315.10 35.60
  A 0.60 0.60 0.0 0 0 314.98 36.46
  L 315.97 37.72
  A 0.68 0.68 0.0 0 0 317.16 37.44
  Q 318.09 33.05 314.39 32.48
  Q 313.14 32.29 311.98 33.39
  C 309.01 36.22 312.27 39.56 315.38 38.85
  A 0.42 0.42 0.0 0 0 315.62 38.18
  L 314.45 36.71
  A 0.79 0.79 0.0 0 1 314.32 35.98"
/>
<path stroke="#9e9e9e" vector-effect="non-scaling-stroke" d="
  M 312.72 36.85
  L 313.40 35.66
  A 0.85 0.84 -39.6 0 0 313.47 34.95
  Q 313.26 34.33 313.14 34.23
  A 0.35 0.35 0.0 0 0 312.55 34.47
  L 312.44 36.77
  A 0.15 0.15 0.0 0 0 312.72 36.85"
/>
<path stroke="#919090" vector-effect="non-scaling-stroke" d="
  M 84.29 61.94
  A 0.31 0.31 0.0 0 0 84.59 61.54
  L 78.46 40.82
  A 0.31 0.31 0.0 0 0 78.16 40.60
  L 75.73 40.60
  A 0.31 0.31 0.0 0 0 75.43 40.82
  L 69.30 61.54
  A 0.31 0.31 0.0 0 0 69.60 61.94
  L 84.29 61.94"
/>
<path stroke="#919090" vector-effect="non-scaling-stroke" d="
  M 64.97 125.42
  Q 66.25 125.42 67.42 125.43
  A 0.42 0.42 0.0 0 0 67.81 124.83
  Q 66.77 122.56 65.58 120.41
  Q 65.42 120.13 64.99 120.13
  Q 64.57 120.12 64.41 120.40
  Q 63.19 122.55 62.13 124.81
  A 0.42 0.42 0.0 0 0 62.52 125.41
  Q 63.69 125.41 64.97 125.42"
/>
<path stroke="#9e9e9e" vector-effect="non-scaling-stroke" d="
  M 94.9550 119.9955
  A 0.98 0.98 0.0 0 0 93.9801 119.0104
  L 86.2002 118.9697
  A 0.98 0.98 0.0 0 0 85.2151 119.9445
  L 85.2050 121.8645
  A 0.98 0.98 0.0 0 0 86.1799 122.8496
  L 93.9598 122.8903
  A 0.98 0.98 0.0 0 0 94.9449 121.9155
  L 94.9550 119.9955"
/>
<path stroke="#9e9e9e" vector-effect="non-scaling-stroke" d="
  M 47.4752 119.9546
  A 1.00 1.00 0.0 0 0 46.4804 118.9494
  L 39.0805 118.9107
  A 1.00 1.00 0.0 0 0 38.0753 119.9054
  L 38.0648 121.9054
  A 1.00 1.00 0.0 0 0 39.0596 122.9106
  L 46.4595 122.9493
  A 1.00 1.00 0.0 0 0 47.4647 121.9546
  L 47.4752 119.9546"
/>
<path stroke="#9e9e9e" vector-effect="non-scaling-stroke" d="
  M 144.71 120.79
  A 1.82 1.82 0.0 0 0 142.89 118.97
  L 134.83 118.97
  A 1.82 1.82 0.0 0 0 133.01 120.79
  L 133.01 125.51
  A 1.82 1.82 0.0 0 0 134.83 127.33
  L 142.89 127.33
  A 1.82 1.82 0.0 0 0 144.71 125.51
  L 144.71 120.79"
/>
<path stroke="#9e9e9e" vector-effect="non-scaling-stroke" d="
  M 18.71 126.10
  C 16.56 126.00 13.55 126.00 12.84 128.33
  A 2.13 1.85 -69.8 0 0 13.78 130.79
  C 16.54 132.05 19.50 129.71 19.29 126.67
  A 0.61 0.60 0.1 0 0 18.71 126.10"
/>
<path stroke="#919090" vector-effect="non-scaling-stroke" d="
  M 231.7125 131.1900
  A 5.00 3.59 90.2 0 0 235.3200 126.2025
  A 5.00 3.59 90.2 0 0 231.7475 121.1900
  A 5.00 3.59 90.2 0 0 228.1400 126.1775
  A 5.00 3.59 90.2 0 0 231.7125 131.1900"
/>
<path stroke="#919090" vector-effect="non-scaling-stroke" d="
  M 265.2219 131.1797
  A 4.96 3.41 89.4 0 0 268.5798 126.1843
  A 4.96 3.41 89.4 0 0 265.1181 121.2603
  A 4.96 3.41 89.4 0 0 261.7602 126.2557
  A 4.96 3.41 89.4 0 0 265.2219 131.1797"
/>
<path stroke="#919090" vector-effect="non-scaling-stroke" d="
  M 280.31 126.11
  C 278.11 125.99 275.04 125.96 274.30 128.34
  A 2.17 1.89 -69.4 0 0 275.24 130.86
  C 278.04 132.16 281.08 129.80 280.89 126.69
  A 0.63 0.61 0.6 0 0 280.31 126.11"
/>
</g>
<path fill="#ffffff" d="
  M 357.00 0.00
  L 357.00 141.00
  L 0.00 141.00
  L 0.00 0.00
  L 357.00 0.00
  Z
  M 308.69 52.54
  L 308.63 39.44
  A 0.52 0.52 0.0 0 0 308.11 38.93
  L 302.13 38.93
  A 0.49 0.48 0.0 0 0 301.64 39.41
  L 301.64 52.94
  A 0.62 0.62 0.0 0 1 301.02 53.56
  L 289.41 53.56
  A 0.62 0.62 0.0 0 1 288.79 52.94
  L 288.79 39.36
  A 0.41 0.41 0.0 0 0 288.38 38.95
  L 282.23 38.95
  A 0.40 0.40 0.0 0 0 281.83 39.35
  L 281.83 74.21
  A 0.42 0.42 0.0 0 0 282.25 74.63
  L 288.42 74.63
  A 0.38 0.38 0.0 0 0 288.80 74.25
  L 288.80 60.66
  A 0.67 0.66 -0.0 0 1 289.47 60.00
  L 301.02 60.00
  A 0.64 0.64 0.0 0 1 301.66 60.64
  L 301.66 74.14
  A 0.48 0.48 0.0 0 0 302.14 74.62
  L 308.13 74.62
  A 0.51 0.51 0.0 0 0 308.64 74.11
  L 308.65 59.77
  L 319.17 59.86
  A 0.29 0.29 0.0 0 1 319.42 60.30
  Q 303.77 86.79 287.88 113.12
  L 287.88 113.13
  Q 287.94 113.07 288.00 113.00
  Q 317.47 80.57 348.98 45.60
  A 0.41 0.41 0.0 0 0 348.68 44.92
  L 338.86 44.92
  A 0.27 0.27 0.0 0 1 338.61 44.55
  L 356.47 0.93
  A 0.15 0.15 0.0 0 0 356.23 0.77
  L 308.69 52.54
  Z
  M 318.0745 35.9885
  A 3.92 3.78 5.1 0 0 314.5060 31.8750
  A 3.92 3.78 5.1 0 0 310.2655 35.2915
  A 3.92 3.78 5.1 0 0 313.8340 39.4050
  A 3.92 3.78 5.1 0 0 318.0745 35.9885
  Z
  M 11.35 73.74
  A 0.59 0.58 -87.3 0 0 11.88 74.33
  C 20.48 75.11 32.56 77.95 32.20 64.31
  C 32.09 60.30 30.83 57.56 26.95 56.54
  Q 23.72 55.69 17.49 54.27
  C 13.27 53.31 12.73 50.06 12.99 46.25
  Q 13.34 40.88 19.07 40.29
  Q 23.88 39.78 30.63 40.81
  A 0.76 0.75 -81.8 0 0 31.49 40.16
  L 31.50 40.08
  A 0.88 0.88 0.0 0 0 30.76 39.10
  C 24.66 38.21 12.39 36.45 11.27 45.50
  C 9.06 63.30 30.67 51.26 30.55 64.73
  C 30.45 76.45 19.34 73.09 11.94 72.69
  A 0.56 0.56 0.0 0 0 11.35 73.25
  L 11.35 73.74
  Z
  M 184.59 59.27
  L 184.59 71.97
  A 0.68 0.67 84.9 0 1 184.04 72.64
  C 176.97 73.98 167.98 75.15 165.62 67.32
  Q 163.28 59.53 164.77 49.54
  C 166.47 38.13 177.03 39.35 185.37 41.28
  A 0.72 0.72 0.0 0 0 186.25 40.66
  L 186.26 40.55
  A 0.83 0.83 0.0 0 0 185.57 39.64
  C 175.62 38.07 164.95 36.45 163.10 49.59
  Q 161.70 59.55 163.63 66.55
  Q 166.30 76.20 177.35 75.07
  Q 184.01 74.38 185.70 74.01
  A 0.69 0.69 0.0 0 0 186.24 73.34
  L 186.24 57.58
  A 0.52 0.52 0.0 0 0 185.72 57.06
  L 177.61 57.06
  A 0.57 0.56 -90.0 0 0 177.05 57.63
  L 177.05 57.98
  A 0.72 0.72 0.0 0 0 177.77 58.70
  L 184.03 58.70
  A 0.57 0.56 90.0 0 1 184.59 59.27
  Z
  M 252.72 56.83
  C 252.72 64.81 253.22 74.60 263.74 75.15
  Q 269.81 75.47 275.54 74.06
  A 0.37 0.37 0.0 0 0 275.82 73.70
  L 275.82 68.53
  A 0.28 0.28 0.0 0 0 275.50 68.25
  Q 272.69 68.58 269.42 68.73
  C 265.25 68.92 261.74 69.26 260.69 65.03
  Q 259.93 62.02 259.93 56.83
  Q 259.93 51.65 260.69 48.63
  C 261.75 44.41 265.26 44.75 269.43 44.94
  Q 272.70 45.09 275.51 45.42
  A 0.28 0.28 0.0 0 0 275.83 45.14
  L 275.83 39.97
  A 0.37 0.37 0.0 0 0 275.55 39.61
  Q 269.82 38.20 263.74 38.51
  C 253.23 39.06 252.72 48.85 252.72 56.83
  Z
  M 96.59 38.93
  A 0.32 0.32 0.0 0 0 96.27 39.25
  L 96.27 74.31
  A 0.32 0.32 0.0 0 0 96.59 74.63
  L 114.43 74.63
  A 0.32 0.32 0.0 0 0 114.75 74.31
  L 114.75 73.38
  A 0.32 0.32 0.0 0 0 114.43 73.06
  L 98.19 73.06
  A 0.32 0.32 0.0 0 1 97.87 72.74
  L 97.87 39.25
  A 0.32 0.32 0.0 0 0 97.55 38.93
  L 96.59 38.93
  Z
  M 121.70 39.50
  A 0.62 0.62 0.0 0 0 121.08 38.88
  L 120.64 38.88
  A 0.62 0.62 0.0 0 0 120.02 39.50
  L 120.02 74.12
  A 0.62 0.62 0.0 0 0 120.64 74.74
  L 121.08 74.74
  A 0.62 0.62 0.0 0 0 121.70 74.12
  L 121.70 39.50
  Z
  M 143.51 56.51
  Q 140.92 51.27 135.36 39.69
  A 1.32 1.32 0.0 0 0 134.17 38.94
  L 131.61 38.94
  A 0.66 0.66 0.0 0 0 130.95 39.60
  L 130.95 74.12
  A 0.64 0.64 0.0 0 0 131.59 74.76
  L 132.07 74.76
  A 0.62 0.61 -0.0 0 0 132.69 74.15
  L 132.69 41.39
  A 0.85 0.85 0.0 0 1 134.31 41.03
  Q 138.31 49.56 142.08 57.17
  Q 144.67 62.42 150.23 74.00
  A 1.32 1.32 0.0 0 0 151.42 74.75
  L 153.98 74.75
  A 0.66 0.66 0.0 0 0 154.64 74.09
  L 154.64 39.57
  A 0.64 0.64 0.0 0 0 154.00 38.93
  L 153.52 38.93
  A 0.62 0.61 0.0 0 0 152.90 39.54
  L 152.90 72.30
  A 0.85 0.85 0.0 0 1 151.28 72.65
  Q 147.28 64.12 143.51 56.51
  Z
  M 41.27 57.54
  A 0.32 0.32 0.0 0 1 41.59 57.22
  L 56.37 57.22
  A 0.32 0.32 0.0 0 0 56.69 56.90
  L 56.69 55.91
  A 0.32 0.32 0.0 0 0 56.37 55.59
  L 41.61 55.59
  A 0.32 0.32 0.0 0 1 41.29 55.27
  L 41.29 40.79
  A 0.32 0.32 0.0 0 1 41.61 40.47
  L 59.37 40.47
  A 0.32 0.32 0.0 0 0 59.69 40.15
  L 59.69 39.24
  A 0.32 0.32 0.0 0 0 59.37 38.92
  L 39.98 38.92
  A 0.32 0.32 0.0 0 0 39.66 39.24
  L 39.66 74.30
  A 0.32 0.32 0.0 0 0 39.98 74.62
  L 59.42 74.62
  A 0.32 0.32 0.0 0 0 59.74 74.30
  L 59.74 73.40
  A 0.32 0.32 0.0 0 0 59.42 73.08
  L 41.59 73.08
  A 0.32 0.32 0.0 0 1 41.27 72.76
  L 41.27 57.54
  Z
  M 76.96 63.70
  Q 80.60 63.70 84.74 63.63
  A 0.67 0.66 -8.2 0 1 85.39 64.11
  L 88.39 74.24
  A 0.74 0.74 0.0 0 0 89.31 74.74
  L 89.56 74.67
  A 0.53 0.52 73.5 0 0 89.91 74.01
  L 79.72 39.57
  A 0.87 0.87 0.0 0 0 78.90 38.94
  Q 77.99 38.93 76.94 38.93
  Q 75.89 38.93 74.98 38.94
  A 0.87 0.87 0.0 0 0 74.16 39.57
  L 64.02 74.03
  A 0.53 0.52 -73.5 0 0 64.37 74.69
  L 64.62 74.76
  A 0.74 0.74 0.0 0 0 65.54 74.26
  L 68.53 64.12
  A 0.67 0.66 8.1 0 1 69.18 63.65
  Q 73.32 63.70 76.96 63.70
  Z
  M 206.34 74.57
  Q 209.23 74.57 209.26 74.56
  A 0.73 0.73 0.0 0 0 209.80 73.86
  L 209.82 45.82
  A 0.55 0.55 0.0 0 1 210.37 45.27
  L 218.52 45.27
  A 0.44 0.43 -0.0 0 0 218.96 44.84
  L 218.96 39.51
  A 0.48 0.48 0.0 0 0 218.48 39.03
  Q 212.44 39.05 206.36 39.04
  Q 200.28 39.04 194.24 39.01
  A 0.48 0.48 0.0 0 0 193.76 39.49
  L 193.75 44.82
  A 0.44 0.43 0.1 0 0 194.19 45.25
  L 202.34 45.26
  A 0.55 0.55 0.0 0 1 202.89 45.82
  L 202.87 73.86
  A 0.73 0.73 0.0 0 0 203.41 74.56
  Q 203.44 74.57 206.34 74.57
  Z
  M 225.59 56.79
  Q 225.59 72.96 225.62 73.96
  A 0.65 0.64 -0.8 0 0 226.27 74.58
  L 247.40 74.58
  A 0.32 0.32 0.0 0 0 247.72 74.26
  L 247.72 68.68
  A 0.30 0.30 0.0 0 0 247.42 68.38
  L 233.10 68.38
  A 0.56 0.56 0.0 0 1 232.54 67.82
  L 232.54 60.47
  A 0.55 0.55 0.0 0 1 233.09 59.92
  L 244.00 59.92
  A 0.70 0.69 5.1 0 0 244.68 59.35
  Q 244.77 58.88 244.77 56.79
  Q 244.77 54.70 244.68 54.22
  A 0.70 0.69 -5.2 0 0 244.00 53.66
  L 233.09 53.66
  A 0.55 0.55 0.0 0 1 232.54 53.11
  L 232.54 45.76
  A 0.56 0.56 0.0 0 1 233.10 45.20
  L 247.42 45.20
  A 0.30 0.30 0.0 0 0 247.72 44.90
  L 247.71 39.32
  A 0.32 0.32 0.0 0 0 247.39 39.00
  L 226.26 39.00
  A 0.65 0.64 0.8 0 0 225.62 39.63
  Q 225.59 40.63 225.59 56.79
  Z
  M 275.73 95.46
  A 0.54 0.54 0.0 0 0 275.19 94.92
  L 7.39 94.92
  A 0.54 0.54 0.0 0 0 6.85 95.46
  L 6.85 95.48
  A 0.54 0.54 0.0 0 0 7.39 96.02
  L 275.19 96.02
  A 0.54 0.54 0.0 0 0 275.73 95.48
  L 275.73 95.46
  Z
  M 72.16 132.17
  L 84.67 132.34
  A 0.57 0.56 -89.5 0 0 85.24 131.77
  L 85.24 128.32
  A 0.92 0.92 0.0 0 1 86.16 127.40
  L 93.72 127.40
  A 1.08 1.07 0.0 0 1 94.80 128.47
  L 94.80 131.64
  A 0.62 0.62 0.0 0 0 95.42 132.26
  L 100.22 132.26
  A 0.57 0.57 0.0 0 0 100.79 131.69
  L 100.79 127.67
  A 2.18 2.18 0.0 0 0 99.71 125.79
  L 99.26 125.53
  A 0.55 0.54 40.6 0 1 99.19 124.63
  L 100.24 123.80
  A 0.96 0.94 -14.9 0 0 100.59 123.21
  C 101.52 117.85 101.11 114.08 94.50 113.97
  Q 85.24 113.82 79.63 113.89
  A 0.60 0.59 -1.0 0 0 79.04 114.49
  L 79.08 130.91
  A 0.42 0.41 3.7 0 1 78.61 131.32
  Q 78.45 131.30 78.29 131.01
  L 69.27 114.55
  A 1.18 1.16 -14.1 0 0 68.24 113.94
  L 62.53 113.94
  A 1.09 1.07 14.7 0 0 61.59 114.48
  L 51.81 131.42
  A 0.49 0.48 -74.8 0 0 52.22 132.15
  L 57.48 132.15
  A 1.25 1.23 -74.8 0 0 58.55 131.53
  L 59.67 129.60
  A 0.83 0.83 0.0 0 1 60.39 129.18
  L 69.15 129.18
  A 1.53 1.50 -17.9 0 1 70.37 129.79
  L 72.16 132.17
  Z
  M 38.19 131.54
  L 38.19 128.14
  A 0.62 0.61 -89.5 0 1 38.81 127.52
  Q 42.26 127.56 48.38 127.51
  C 50.51 127.49 52.48 126.71 53.19 124.72
  C 54.12 122.09 54.20 116.56 51.37 114.89
  Q 50.00 114.08 46.53 114.05
  Q 38.02 113.98 32.52 113.94
  A 0.69 0.69 0.0 0 0 31.82 114.63
  L 31.82 131.26
  A 0.99 0.99 0.0 0 0 32.81 132.25
  L 37.47 132.25
  A 0.72 0.71 0.0 0 0 38.19 131.54
  Z
  M 113.75 125.34
  Q 117.06 125.34 117.90 125.44
  A 1.06 1.05 -58.6 0 1 118.35 127.37
  Q 118.01 127.61 117.48 127.62
  Q 108.42 127.84 104.61 127.51
  A 1.06 1.06 0.0 0 0 103.58 129.06
  L 103.95 129.78
  A 4.14 4.11 78.1 0 0 107.32 132.00
  Q 115.61 132.57 120.20 131.96
  C 124.34 131.41 125.08 127.36 124.11 124.01
  C 122.98 120.15 118.05 120.89 113.93 120.90
  Q 110.62 120.90 109.79 120.80
  A 1.06 1.05 -58.6 0 1 109.33 118.87
  Q 109.67 118.63 110.20 118.62
  Q 119.26 118.40 123.07 118.73
  A 1.06 1.06 0.0 0 0 124.10 117.18
  L 123.73 116.46
  A 4.14 4.11 78.1 0 0 120.36 114.24
  Q 112.07 113.67 107.48 114.28
  C 103.34 114.83 102.60 118.88 103.58 122.23
  C 104.70 126.10 109.63 125.35 113.75 125.34
  Z
  M 151.0336 119.4187
  A 5.43 5.43 0.0 0 0 145.5941 113.9981
  L 131.9941 114.0219
  A 5.43 5.43 0.0 0 0 126.5736 119.4614
  L 126.5864 126.7813
  A 5.43 5.43 0.0 0 0 132.0259 132.2019
  L 145.6259 132.1781
  A 5.43 5.43 0.0 0 0 151.0464 126.7386
  L 151.0336 119.4187
  Z
  M 172.63 113.94
  A 0.32 0.32 0.0 0 0 172.31 114.26
  L 172.31 125.19
  A 0.32 0.32 0.0 0 1 171.74 125.39
  L 162.80 114.07
  A 0.32 0.32 0.0 0 0 162.55 113.95
  L 154.13 113.95
  A 0.32 0.32 0.0 0 0 153.81 114.27
  L 153.81 131.87
  A 0.32 0.32 0.0 0 0 154.13 132.19
  L 159.77 132.19
  A 0.32 0.32 0.0 0 0 160.09 131.87
  L 160.09 121.28
  A 0.32 0.32 0.0 0 1 160.66 121.08
  L 169.33 132.05
  A 0.32 0.32 0.0 0 0 169.58 132.17
  L 177.93 132.17
  A 0.32 0.32 0.0 0 0 178.25 131.85
  L 178.25 114.26
  A 0.32 0.32 0.0 0 0 177.93 113.94
  L 172.63 113.94
  Z
  M 181.56 130.42
  A 4.40 4.39 71.5 0 0 184.90 132.09
  Q 194.98 132.30 197.10 132.08
  Q 201.11 131.64 201.67 128.03
  C 202.51 122.53 200.36 120.64 194.70 120.80
  Q 191.82 120.88 187.23 120.81
  A 0.81 0.80 -89.6 0 1 186.44 120.00
  L 186.44 119.65
  A 0.95 0.95 0.0 0 1 187.39 118.70
  L 200.38 118.70
  A 1.08 1.07 70.8 0 0 201.22 116.96
  L 200.51 116.07
  A 4.86 4.82 73.7 0 0 197.21 114.25
  Q 189.75 113.49 184.44 114.40
  C 181.06 114.99 180.60 117.66 180.65 120.78
  C 180.69 123.60 182.75 125.09 185.30 125.17
  Q 191.07 125.35 195.13 125.21
  A 1.09 1.09 0.0 0 1 196.25 126.30
  L 196.25 126.65
  A 1.12 1.11 0.0 0 1 195.13 127.76
  L 181.62 127.76
  A 1.05 1.05 0.0 0 0 180.80 129.46
  L 181.56 130.42
  Z
  M 212.00 124.01
  C 212.01 129.54 215.76 134.39 221.78 131.67
  Q 223.59 130.85 224.53 127.78
  A 0.69 0.69 0.0 0 0 223.93 126.89
  L 223.76 126.88
  A 1.03 1.03 0.0 0 0 222.68 127.64
  C 221.67 131.39 217.42 132.08 215.23 128.75
  Q 214.12 127.06 214.11 124.00
  Q 214.11 120.95 215.21 119.26
  C 217.39 115.92 221.64 116.59 222.67 120.34
  A 1.03 1.03 0.0 0 0 223.75 121.09
  L 223.92 121.08
  A 0.69 0.69 0.0 0 0 224.52 120.19
  Q 223.57 117.12 221.75 116.31
  C 215.72 113.61 211.99 118.48 212.00 124.01
  Z
  M 19.36 131.07
  L 19.57 131.77
  A 0.82 0.82 0.0 0 0 21.18 131.52
  Q 21.00 123.76 20.91 123.10
  C 20.34 118.61 14.36 119.30 11.90 121.34
  Q 10.93 122.14 11.33 122.90
  A 0.90 0.86 45.8 0 0 12.87 122.95
  Q 14.30 120.33 17.69 121.41
  Q 19.66 122.04 19.32 124.25
  A 0.63 0.62 -84.5 0 1 18.69 124.78
  Q 15.01 124.69 13.52 125.29
  C 7.99 127.52 11.27 134.20 16.99 132.19
  C 17.88 131.87 18.19 131.20 18.82 130.85
  A 0.38 0.37 -22.6 0 1 19.36 131.07
  Z
  M 231.4154 132.5923
  A 6.44 5.47 92.8 0 0 237.1935 126.4272
  A 6.44 5.47 92.8 0 0 232.0446 119.7277
  A 6.44 5.47 92.8 0 0 226.2665 125.8928
  A 6.44 5.47 92.8 0 0 231.4154 132.5923
  Z
  M 248.49 132.28
  A 0.62 0.61 -90.0 0 0 249.10 131.66
  L 249.12 124.64
  A 3.28 3.27 -5.6 0 1 251.77 121.43
  L 251.95 121.40
  A 2.26 2.25 83.8 0 1 254.68 123.60
  L 254.71 131.71
  A 0.52 0.52 0.0 0 0 255.23 132.23
  L 255.91 132.23
  A 0.53 0.52 89.5 0 0 256.43 131.69
  Q 256.39 128.97 256.43 125.34
  C 256.47 121.89 255.32 118.97 251.46 119.98
  A 1.06 1.06 0.0 0 0 250.95 120.29
  L 249.24 122.09
  A 0.44 0.44 0.0 0 1 248.52 121.98
  C 247.50 119.78 245.05 118.90 243.22 120.73
  Q 242.14 121.81 242.08 121.84
  A 0.39 0.38 74.6 0 1 241.54 121.53
  Q 241.53 121.47 241.67 121.13
  Q 241.85 120.69 241.64 120.34
  Q 241.41 119.99 240.68 120.03
  A 0.64 0.63 88.6 0 0 240.08 120.67
  L 240.08 131.81
  A 0.47 0.46 0.0 0 0 240.55 132.27
  L 241.42 132.27
  A 0.47 0.46 -0.0 0 0 241.89 131.81
  L 241.88 124.43
  A 3.07 3.07 0.0 0 1 244.50 121.39
  L 244.66 121.37
  A 2.35 2.35 0.0 0 1 247.36 123.68
  L 247.41 131.54
  A 0.74 0.74 0.0 0 0 248.15 132.28
  L 248.49 132.28
  Z
  M 262.43 130.86
  C 262.97 131.27 263.02 131.87 263.91 132.14
  C 268.95 133.67 270.77 129.03 270.32 125.00
  C 269.82 120.59 265.44 117.51 262.19 121.92
  A 0.38 0.38 0.0 0 1 261.52 121.81
  Q 261.51 121.75 261.73 121.20
  Q 261.96 120.65 261.64 120.25
  Q 261.35 119.89 260.68 120.08
  A 0.68 0.67 -8.0 0 0 260.18 120.73
  L 260.18 135.67
  A 0.64 0.64 0.0 0 0 260.82 136.31
  L 261.19 136.31
  A 0.71 0.70 0.0 0 0 261.90 135.61
  L 261.90 131.12
  A 0.33 0.33 0.0 0 1 262.43 130.86
  Z
  M 280.90 131.00
  L 281.11 131.69
  A 0.82 0.82 0.0 0 0 282.71 131.44
  Q 282.51 123.74 282.42 123.08
  C 281.84 118.63 275.91 119.32 273.47 121.35
  Q 272.51 122.15 272.91 122.90
  A 0.89 0.85 45.6 0 0 274.44 122.95
  Q 275.85 120.35 279.22 121.41
  Q 281.18 122.03 280.84 124.23
  A 0.62 0.62 0.0 0 1 280.22 124.75
  Q 276.57 124.67 275.09 125.27
  C 269.61 127.50 272.88 134.12 278.55 132.11
  C 279.43 131.79 279.74 131.13 280.36 130.78
  A 0.37 0.37 0.0 0 1 280.90 131.00
  Z
  M 288.12 121.32
  Q 288.18 120.72 288.13 120.54
  A 0.79 0.79 0.0 0 0 286.57 120.74
  L 286.57 131.82
  A 0.51 0.50 -90.0 0 0 287.07 132.33
  L 287.70 132.33
  A 0.58 0.58 0.0 0 0 288.28 131.75
  L 288.28 124.99
  A 3.65 3.63 83.8 0 1 291.13 121.43
  L 291.51 121.35
  A 2.34 2.33 83.7 0 1 294.35 123.63
  L 294.35 131.63
  A 0.58 0.57 0.0 0 0 294.93 132.20
  L 295.49 132.20
  A 0.60 0.60 0.0 0 0 296.09 131.60
  Q 296.11 126.88 296.04 124.24
  Q 295.94 120.21 292.32 119.82
  C 290.51 119.62 289.84 120.71 288.70 121.62
  A 0.36 0.35 -17.2 0 1 288.12 121.32
  Z
  M 297.84 135.52
  A 0.63 0.63 0.0 0 0 298.30 136.38
  Q 301.58 137.04 302.77 133.74
  Q 305.03 127.40 307.48 120.79
  A 0.43 0.43 0.0 0 0 307.24 120.24
  L 306.99 120.14
  A 0.48 0.47 22.5 0 0 306.37 120.39
  L 302.86 128.98
  A 0.13 0.12 -43.6 0 1 302.63 128.98
  L 299.72 120.73
  A 0.64 0.62 2.6 0 0 299.37 120.36
  L 298.43 119.98
  A 0.43 0.43 0.0 0 0 297.86 120.52
  Q 300.31 127.44 301.17 129.67
  Q 301.98 131.76 301.81 132.43
  C 301.45 133.86 300.35 135.71 298.51 135.00
  A 0.43 0.43 0.0 0 0 297.96 135.24
  L 297.84 135.52
  Z"
/>
<path fill="#af2026" d="
  M 308.65 59.77
  L 308.69 52.54
  L 356.23 0.77
  A 0.15 0.15 0.0 0 1 356.47 0.93
  L 338.61 44.55
  A 0.27 0.27 0.0 0 0 338.86 44.92
  L 348.68 44.92
  A 0.41 0.41 0.0 0 1 348.98 45.60
  Q 317.47 80.57 288.00 113.00
  Q 287.94 113.07 287.88 113.13
  L 287.88 113.12
  Q 303.77 86.79 319.42 60.30
  A 0.29 0.29 0.0 0 0 319.17 59.86
  L 308.65 59.77
  Z"
/>
<path fill="#3d3d3d" d="
  M 318.0745 35.9885
  A 3.92 3.78 5.1 0 1 313.8340 39.4050
  A 3.92 3.78 5.1 0 1 310.2655 35.2915
  A 3.92 3.78 5.1 0 1 314.5060 31.8750
  A 3.92 3.78 5.1 0 1 318.0745 35.9885
  Z
  M 314.32 35.98
  Q 314.81 34.38 315.11 34.18
  A 0.43 0.42 74.2 0 1 315.77 34.55
  Q 315.75 35.14 315.10 35.60
  A 0.60 0.60 0.0 0 0 314.98 36.46
  L 315.97 37.72
  A 0.68 0.68 0.0 0 0 317.16 37.44
  Q 318.09 33.05 314.39 32.48
  Q 313.14 32.29 311.98 33.39
  C 309.01 36.22 312.27 39.56 315.38 38.85
  A 0.42 0.42 0.0 0 0 315.62 38.18
  L 314.45 36.71
  A 0.79 0.79 0.0 0 1 314.32 35.98
  Z"
/>
<path fill="#ffffff" d="
  M 314.45 36.71
  L 315.62 38.18
  A 0.42 0.42 0.0 0 1 315.38 38.85
  C 312.27 39.56 309.01 36.22 311.98 33.39
  Q 313.14 32.29 314.39 32.48
  Q 318.09 33.05 317.16 37.44
  A 0.68 0.68 0.0 0 1 315.97 37.72
  L 314.98 36.46
  A 0.60 0.60 0.0 0 1 315.10 35.60
  Q 315.75 35.14 315.77 34.55
  A 0.43 0.42 74.2 0 0 315.11 34.18
  Q 314.81 34.38 314.32 35.98
  A 0.79 0.79 0.0 0 0 314.45 36.71
  Z
  M 312.72 36.85
  L 313.40 35.66
  A 0.85 0.84 -39.6 0 0 313.47 34.95
  Q 313.26 34.33 313.14 34.23
  A 0.35 0.35 0.0 0 0 312.55 34.47
  L 312.44 36.77
  A 0.15 0.15 0.0 0 0 312.72 36.85
  Z"
/>
<path fill="#3d3d3d" d="
  M 312.44 36.77
  L 312.55 34.47
  A 0.35 0.35 0.0 0 1 313.14 34.23
  Q 313.26 34.33 313.47 34.95
  A 0.85 0.84 -39.6 0 1 313.40 35.66
  L 312.72 36.85
  A 0.15 0.15 0.0 0 1 312.44 36.77
  Z"
/>
<path fill="#222121" d="
  M 11.94 72.69
  C 19.34 73.09 30.45 76.45 30.55 64.73
  C 30.67 51.26 9.06 63.30 11.27 45.50
  C 12.39 36.45 24.66 38.21 30.76 39.10
  A 0.88 0.88 0.0 0 1 31.50 40.08
  L 31.49 40.16
  A 0.76 0.75 -81.8 0 1 30.63 40.81
  Q 23.88 39.78 19.07 40.29
  Q 13.34 40.88 12.99 46.25
  C 12.73 50.06 13.27 53.31 17.49 54.27
  Q 23.72 55.69 26.95 56.54
  C 30.83 57.56 32.09 60.30 32.20 64.31
  C 32.56 77.95 20.48 75.11 11.88 74.33
  A 0.59 0.58 -87.3 0 1 11.35 73.74
  L 11.35 73.25
  A 0.56 0.56 0.0 0 1 11.94 72.69
  Z"
/>
<path fill="#222121" d="
  M 184.03 58.70
  L 177.77 58.70
  A 0.72 0.72 0.0 0 1 177.05 57.98
  L 177.05 57.63
  A 0.57 0.56 90.0 0 1 177.61 57.06
  L 185.72 57.06
  A 0.52 0.52 0.0 0 1 186.24 57.58
  L 186.24 73.34
  A 0.69 0.69 0.0 0 1 185.70 74.01
  Q 184.01 74.38 177.35 75.07
  Q 166.30 76.20 163.63 66.55
  Q 161.70 59.55 163.10 49.59
  C 164.95 36.45 175.62 38.07 185.57 39.64
  A 0.83 0.83 0.0 0 1 186.26 40.55
  L 186.25 40.66
  A 0.72 0.72 0.0 0 1 185.37 41.28
  C 177.03 39.35 166.47 38.13 164.77 49.54
  Q 163.28 59.53 165.62 67.32
  C 167.98 75.15 176.97 73.98 184.04 72.64
  A 0.68 0.67 84.9 0 0 184.59 71.97
  L 184.59 59.27
  A 0.57 0.56 90.0 0 0 184.03 58.70
  Z"
/>
<path fill="#3d3d3d" d="
  M 259.93 56.83
  Q 259.93 62.02 260.69 65.03
  C 261.74 69.26 265.25 68.92 269.42 68.73
  Q 272.69 68.58 275.50 68.25
  A 0.28 0.28 0.0 0 1 275.82 68.53
  L 275.82 73.70
  A 0.37 0.37 0.0 0 1 275.54 74.06
  Q 269.81 75.47 263.74 75.15
  C 253.22 74.60 252.72 64.81 252.72 56.83
  C 252.72 48.85 253.23 39.06 263.74 38.51
  Q 269.82 38.20 275.55 39.61
  A 0.37 0.37 0.0 0 1 275.83 39.97
  L 275.83 45.14
  A 0.28 0.28 0.0 0 1 275.51 45.42
  Q 272.70 45.09 269.43 44.94
  C 265.26 44.75 261.75 44.41 260.69 48.63
  Q 259.93 51.65 259.93 56.83
  Z"
/>
<path fill="#222121" d="
  M 96.59 38.93
  L 97.55 38.93
  A 0.32 0.32 0.0 0 1 97.87 39.25
  L 97.87 72.74
  A 0.32 0.32 0.0 0 0 98.19 73.06
  L 114.43 73.06
  A 0.32 0.32 0.0 0 1 114.75 73.38
  L 114.75 74.31
  A 0.32 0.32 0.0 0 1 114.43 74.63
  L 96.59 74.63
  A 0.32 0.32 0.0 0 1 96.27 74.31
  L 96.27 39.25
  A 0.32 0.32 0.0 0 1 96.59 38.93
  Z"
/>
<rect fill="#222121" x="120.02" y="38.88" width="1.68" height="35.86" rx="0.62"/>
<path fill="#222121" d="
  M 142.08 57.17
  Q 138.31 49.56 134.31 41.03
  A 0.85 0.85 0.0 0 0 132.69 41.39
  L 132.69 74.15
  A 0.62 0.61 0.0 0 1 132.07 74.76
  L 131.59 74.76
  A 0.64 0.64 0.0 0 1 130.95 74.12
  L 130.95 39.60
  A 0.66 0.66 0.0 0 1 131.61 38.94
  L 134.17 38.94
  A 1.32 1.32 0.0 0 1 135.36 39.69
  Q 140.92 51.27 143.51 56.51
  Q 147.28 64.12 151.28 72.65
  A 0.85 0.85 0.0 0 0 152.90 72.30
  L 152.90 39.54
  A 0.62 0.61 -0.0 0 1 153.52 38.93
  L 154.00 38.93
  A 0.64 0.64 0.0 0 1 154.64 39.57
  L 154.64 74.09
  A 0.66 0.66 0.0 0 1 153.98 74.75
  L 151.42 74.75
  A 1.32 1.32 0.0 0 1 150.23 74.00
  Q 144.67 62.42 142.08 57.17
  Z"
/>
<path fill="#3d3d3d" d="
  M 308.69 52.54
  L 308.65 59.77
  L 308.64 74.11
  A 0.51 0.51 0.0 0 1 308.13 74.62
  L 302.14 74.62
  A 0.48 0.48 0.0 0 1 301.66 74.14
  L 301.66 60.64
  A 0.64 0.64 0.0 0 0 301.02 60.00
  L 289.47 60.00
  A 0.67 0.66 -0.0 0 0 288.80 60.66
  L 288.80 74.25
  A 0.38 0.38 0.0 0 1 288.42 74.63
  L 282.25 74.63
  A 0.42 0.42 0.0 0 1 281.83 74.21
  L 281.83 39.35
  A 0.40 0.40 0.0 0 1 282.23 38.95
  L 288.38 38.95
  A 0.41 0.41 0.0 0 1 288.79 39.36
  L 288.79 52.94
  A 0.62 0.62 0.0 0 0 289.41 53.56
  L 301.02 53.56
  A 0.62 0.62 0.0 0 0 301.64 52.94
  L 301.64 39.41
  A 0.49 0.48 -0.0 0 1 302.13 38.93
  L 308.11 38.93
  A 0.52 0.52 0.0 0 1 308.63 39.44
  L 308.69 52.54
  Z"
/>
<path fill="#222121" d="
  M 41.27 57.54
  L 41.27 72.76
  A 0.32 0.32 0.0 0 0 41.59 73.08
  L 59.42 73.08
  A 0.32 0.32 0.0 0 1 59.74 73.40
  L 59.74 74.30
  A 0.32 0.32 0.0 0 1 59.42 74.62
  L 39.98 74.62
  A 0.32 0.32 0.0 0 1 39.66 74.30
  L 39.66 39.24
  A 0.32 0.32 0.0 0 1 39.98 38.92
  L 59.37 38.92
  A 0.32 0.32 0.0 0 1 59.69 39.24
  L 59.69 40.15
  A 0.32 0.32 0.0 0 1 59.37 40.47
  L 41.61 40.47
  A 0.32 0.32 0.0 0 0 41.29 40.79
  L 41.29 55.27
  A 0.32 0.32 0.0 0 0 41.61 55.59
  L 56.37 55.59
  A 0.32 0.32 0.0 0 1 56.69 55.91
  L 56.69 56.90
  A 0.32 0.32 0.0 0 1 56.37 57.22
  L 41.59 57.22
  A 0.32 0.32 0.0 0 0 41.27 57.54
  Z"
/>
<path fill="#222121" d="
  M 76.94 38.93
  Q 77.99 38.93 78.90 38.94
  A 0.87 0.87 0.0 0 1 79.72 39.57
  L 89.91 74.01
  A 0.53 0.52 73.5 0 1 89.56 74.67
  L 89.31 74.74
  A 0.74 0.74 0.0 0 1 88.39 74.24
  L 85.39 64.11
  A 0.67 0.66 -8.2 0 0 84.74 63.63
  Q 80.60 63.70 76.96 63.70
  Q 73.32 63.70 69.18 63.65
  A 0.67 0.66 8.1 0 0 68.53 64.12
  L 65.54 74.26
  A 0.74 0.74 0.0 0 1 64.62 74.76
  L 64.37 74.69
  A 0.53 0.52 -73.5 0 1 64.02 74.03
  L 74.16 39.57
  A 0.87 0.87 0.0 0 1 74.98 38.94
  Q 75.89 38.93 76.94 38.93
  Z
  M 84.29 61.94
  A 0.31 0.31 0.0 0 0 84.59 61.54
  L 78.46 40.82
  A 0.31 0.31 0.0 0 0 78.16 40.60
  L 75.73 40.60
  A 0.31 0.31 0.0 0 0 75.43 40.82
  L 69.30 61.54
  A 0.31 0.31 0.0 0 0 69.60 61.94
  L 84.29 61.94
  Z"
/>
<path fill="#3d3d3d" d="
  M 206.36 39.04
  Q 212.44 39.05 218.48 39.03
  A 0.48 0.48 0.0 0 1 218.96 39.51
  L 218.96 44.84
  A 0.44 0.43 0.0 0 1 218.52 45.27
  L 210.37 45.27
  A 0.55 0.55 0.0 0 0 209.82 45.82
  L 209.80 73.86
  A 0.73 0.73 0.0 0 1 209.26 74.56
  Q 209.23 74.57 206.34 74.57
  Q 203.44 74.57 203.41 74.56
  A 0.73 0.73 0.0 0 1 202.87 73.86
  L 202.89 45.82
  A 0.55 0.55 0.0 0 0 202.34 45.26
  L 194.19 45.25
  A 0.44 0.43 0.1 0 1 193.75 44.82
  L 193.76 39.49
  A 0.48 0.48 0.0 0 1 194.24 39.01
  Q 200.28 39.04 206.36 39.04
  Z"
/>
<path fill="#3d3d3d" d="
  M 244.77 56.79
  Q 244.77 58.88 244.68 59.35
  A 0.70 0.69 5.1 0 1 244.00 59.92
  L 233.09 59.92
  A 0.55 0.55 0.0 0 0 232.54 60.47
  L 232.54 67.82
  A 0.56 0.56 0.0 0 0 233.10 68.38
  L 247.42 68.38
  A 0.30 0.30 0.0 0 1 247.72 68.68
  L 247.72 74.26
  A 0.32 0.32 0.0 0 1 247.40 74.58
  L 226.27 74.58
  A 0.65 0.64 -0.8 0 1 225.62 73.96
  Q 225.59 72.96 225.59 56.79
  Q 225.59 40.63 225.62 39.63
  A 0.65 0.64 0.8 0 1 226.26 39.00
  L 247.39 39.00
  A 0.32 0.32 0.0 0 1 247.71 39.32
  L 247.72 44.90
  A 0.30 0.30 0.0 0 1 247.42 45.20
  L 233.10 45.20
  A 0.56 0.56 0.0 0 0 232.54 45.76
  L 232.54 53.11
  A 0.55 0.55 0.0 0 0 233.09 53.66
  L 244.00 53.66
  A 0.70 0.69 -5.2 0 1 244.68 54.22
  Q 244.77 54.70 244.77 56.79
  Z"
/>
<path fill="#ffffff" d="
  M 84.29 61.94
  L 69.60 61.94
  A 0.31 0.31 0.0 0 1 69.30 61.54
  L 75.43 40.82
  A 0.31 0.31 0.0 0 1 75.73 40.60
  L 78.16 40.60
  A 0.31 0.31 0.0 0 1 78.46 40.82
  L 84.59 61.54
  A 0.31 0.31 0.0 0 1 84.29 61.94
  Z"
/>
<rect fill="#222121" x="6.85" y="94.92" width="268.88" height="1.10" rx="0.54"/>
<path fill="#222121" d="
  M 78.29 131.01
  Q 78.25 131.97 77.75 131.94
  Q 75.26 131.78 72.16 132.17
  L 70.37 129.79
  A 1.53 1.50 -17.9 0 0 69.15 129.18
  L 60.39 129.18
  A 0.83 0.83 0.0 0 0 59.67 129.60
  L 58.55 131.53
  A 1.25 1.23 -74.8 0 1 57.48 132.15
  L 52.22 132.15
  A 0.49 0.48 -74.8 0 1 51.81 131.42
  L 61.59 114.48
  A 1.09 1.07 14.7 0 1 62.53 113.94
  L 68.24 113.94
  A 1.18 1.16 -14.1 0 1 69.27 114.55
  L 78.29 131.01
  Z
  M 64.97 125.42
  Q 66.25 125.42 67.42 125.43
  A 0.42 0.42 0.0 0 0 67.81 124.83
  Q 66.77 122.56 65.58 120.41
  Q 65.42 120.13 64.99 120.13
  Q 64.57 120.12 64.41 120.40
  Q 63.19 122.55 62.13 124.81
  A 0.42 0.42 0.0 0 0 62.52 125.41
  Q 63.69 125.41 64.97 125.42
  Z"
/>
<path fill="#3d3d3d" d="
  M 72.16 132.17
  Q 75.26 131.78 77.75 131.94
  Q 78.25 131.97 78.29 131.01
  Q 78.45 131.30 78.61 131.32
  A 0.42 0.41 3.7 0 0 79.08 130.91
  L 79.04 114.49
  A 0.60 0.59 -1.0 0 1 79.63 113.89
  Q 85.24 113.82 94.50 113.97
  C 101.11 114.08 101.52 117.85 100.59 123.21
  A 0.96 0.94 -14.9 0 1 100.24 123.80
  L 99.19 124.63
  A 0.55 0.54 40.6 0 0 99.26 125.53
  L 99.71 125.79
  A 2.18 2.18 0.0 0 1 100.79 127.67
  L 100.79 131.69
  A 0.57 0.57 0.0 0 1 100.22 132.26
  L 95.42 132.26
  A 0.62 0.62 0.0 0 1 94.80 131.64
  L 94.80 128.47
  A 1.08 1.07 -0.0 0 0 93.72 127.40
  L 86.16 127.40
  A 0.92 0.92 0.0 0 0 85.24 128.32
  L 85.24 131.77
  A 0.57 0.56 -89.5 0 1 84.67 132.34
  L 72.16 132.17
  Z
  M 94.9550 119.9955
  A 0.98 0.98 0.0 0 0 93.9801 119.0104
  L 86.2002 118.9697
  A 0.98 0.98 0.0 0 0 85.2151 119.9445
  L 85.2050 121.8645
  A 0.98 0.98 0.0 0 0 86.1799 122.8496
  L 93.9598 122.8903
  A 0.98 0.98 0.0 0 0 94.9449 121.9155
  L 94.9550 119.9955
  Z"
/>
<path fill="#3d3d3d" d="
  M 38.19 131.54
  A 0.72 0.71 -0.0 0 1 37.47 132.25
  L 32.81 132.25
  A 0.99 0.99 0.0 0 1 31.82 131.26
  L 31.82 114.63
  A 0.69 0.69 0.0 0 1 32.52 113.94
  Q 38.02 113.98 46.53 114.05
  Q 50.00 114.08 51.37 114.89
  C 54.20 116.56 54.12 122.09 53.19 124.72
  C 52.48 126.71 50.51 127.49 48.38 127.51
  Q 42.26 127.56 38.81 127.52
  A 0.62 0.61 -89.5 0 0 38.19 128.14
  L 38.19 131.54
  Z
  M 47.4752 119.9546
  A 1.00 1.00 0.0 0 0 46.4804 118.9494
  L 39.0805 118.9107
  A 1.00 1.00 0.0 0 0 38.0753 119.9054
  L 38.0648 121.9054
  A 1.00 1.00 0.0 0 0 39.0596 122.9106
  L 46.4595 122.9493
  A 1.00 1.00 0.0 0 0 47.4647 121.9546
  L 47.4752 119.9546
  Z"
/>
<path fill="#3d3d3d" d="
  M 113.75 125.34
  C 109.63 125.35 104.70 126.10 103.58 122.23
  C 102.60 118.88 103.34 114.83 107.48 114.28
  Q 112.07 113.67 120.36 114.24
  A 4.14 4.11 78.1 0 1 123.73 116.46
  L 124.10 117.18
  A 1.06 1.06 0.0 0 1 123.07 118.73
  Q 119.26 118.40 110.20 118.62
  Q 109.67 118.63 109.33 118.87
  A 1.06 1.05 -58.6 0 0 109.79 120.80
  Q 110.62 120.90 113.93 120.90
  C 118.05 120.89 122.98 120.15 124.11 124.01
  C 125.08 127.36 124.34 131.41 120.20 131.96
  Q 115.61 132.57 107.32 132.00
  A 4.14 4.11 78.1 0 1 103.95 129.78
  L 103.58 129.06
  A 1.06 1.06 0.0 0 1 104.61 127.51
  Q 108.42 127.84 117.48 127.62
  Q 118.01 127.61 118.35 127.37
  A 1.06 1.05 -58.6 0 0 117.90 125.44
  Q 117.06 125.34 113.75 125.34
  Z"
/>
<path fill="#3d3d3d" d="
  M 151.0464 126.7386
  A 5.43 5.43 0.0 0 1 145.6259 132.1781
  L 132.0259 132.2019
  A 5.43 5.43 0.0 0 1 126.5864 126.7813
  L 126.5736 119.4614
  A 5.43 5.43 0.0 0 1 131.9941 114.0219
  L 145.5941 113.9981
  A 5.43 5.43 0.0 0 1 151.0336 119.4187
  L 151.0464 126.7386
  Z
  M 144.71 120.79
  A 1.82 1.82 0.0 0 0 142.89 118.97
  L 134.83 118.97
  A 1.82 1.82 0.0 0 0 133.01 120.79
  L 133.01 125.51
  A 1.82 1.82 0.0 0 0 134.83 127.33
  L 142.89 127.33
  A 1.82 1.82 0.0 0 0 144.71 125.51
  L 144.71 120.79
  Z"
/>
<path fill="#3d3d3d" d="
  M 172.63 113.94
  L 177.93 113.94
  A 0.32 0.32 0.0 0 1 178.25 114.26
  L 178.25 131.85
  A 0.32 0.32 0.0 0 1 177.93 132.17
  L 169.58 132.17
  A 0.32 0.32 0.0 0 1 169.33 132.05
  L 160.66 121.08
  A 0.32 0.32 0.0 0 0 160.09 121.28
  L 160.09 131.87
  A 0.32 0.32 0.0 0 1 159.77 132.19
  L 154.13 132.19
  A 0.32 0.32 0.0 0 1 153.81 131.87
  L 153.81 114.27
  A 0.32 0.32 0.0 0 1 154.13 113.95
  L 162.55 113.95
  A 0.32 0.32 0.0 0 1 162.80 114.07
  L 171.74 125.39
  A 0.32 0.32 0.0 0 0 172.31 125.19
  L 172.31 114.26
  A 0.32 0.32 0.0 0 1 172.63 113.94
  Z"
/>
<path fill="#3d3d3d" d="
  M 181.56 130.42
  L 180.80 129.46
  A 1.05 1.05 0.0 0 1 181.62 127.76
  L 195.13 127.76
  A 1.12 1.11 -0.0 0 0 196.25 126.65
  L 196.25 126.30
  A 1.09 1.09 0.0 0 0 195.13 125.21
  Q 191.07 125.35 185.30 125.17
  C 182.75 125.09 180.69 123.60 180.65 120.78
  C 180.60 117.66 181.06 114.99 184.44 114.40
  Q 189.75 113.49 197.21 114.25
  A 4.86 4.82 73.7 0 1 200.51 116.07
  L 201.22 116.96
  A 1.08 1.07 70.8 0 1 200.38 118.70
  L 187.39 118.70
  A 0.95 0.95 0.0 0 0 186.44 119.65
  L 186.44 120.00
  A 0.81 0.80 -89.6 0 0 187.23 120.81
  Q 191.82 120.88 194.70 120.80
  C 200.36 120.64 202.51 122.53 201.67 128.03
  Q 201.11 131.64 197.10 132.08
  Q 194.98 132.30 184.90 132.09
  A 4.40 4.39 71.5 0 1 181.56 130.42
  Z"
/>
<path fill="#222121" d="
  M 214.11 124.00
  Q 214.12 127.06 215.23 128.75
  C 217.42 132.08 221.67 131.39 222.68 127.64
  A 1.03 1.03 0.0 0 1 223.76 126.88
  L 223.93 126.89
  A 0.69 0.69 0.0 0 1 224.53 127.78
  Q 223.59 130.85 221.78 131.67
  C 215.76 134.39 212.01 129.54 212.00 124.01
  C 211.99 118.48 215.72 113.61 221.75 116.31
  Q 223.57 117.12 224.52 120.19
  A 0.69 0.69 0.0 0 1 223.92 121.08
  L 223.75 121.09
  A 1.03 1.03 0.0 0 1 222.67 120.34
  C 221.64 116.59 217.39 115.92 215.21 119.26
  Q 214.11 120.95 214.11 124.00
  Z"
/>
<rect fill="#ffffff" x="-4.70" y="-2.00" transform="translate(42.77,120.93) rotate(0.3)" width="9.40" height="4.00" rx="1.00"/>
<rect fill="#ffffff" x="-4.87" y="-1.94" transform="translate(90.08,120.93) rotate(0.3)" width="9.74" height="3.88" rx="0.98"/>
<rect fill="#ffffff" x="133.01" y="118.97" width="11.70" height="8.36" rx="1.82"/>
<path fill="#3d3d3d" d="
  M 19.36 131.07
  A 0.38 0.37 -22.6 0 0 18.82 130.85
  C 18.19 131.20 17.88 131.87 16.99 132.19
  C 11.27 134.20 7.99 127.52 13.52 125.29
  Q 15.01 124.69 18.69 124.78
  A 0.63 0.62 -84.5 0 0 19.32 124.25
  Q 19.66 122.04 17.69 121.41
  Q 14.30 120.33 12.87 122.95
  A 0.90 0.86 45.8 0 1 11.33 122.90
  Q 10.93 122.14 11.90 121.34
  C 14.36 119.30 20.34 118.61 20.91 123.10
  Q 21.00 123.76 21.18 131.52
  A 0.82 0.82 0.0 0 1 19.57 131.77
  L 19.36 131.07
  Z
  M 18.71 126.10
  C 16.56 126.00 13.55 126.00 12.84 128.33
  A 2.13 1.85 -69.8 0 0 13.78 130.79
  C 16.54 132.05 19.50 129.71 19.29 126.67
  A 0.61 0.60 0.1 0 0 18.71 126.10
  Z"
/>
<path fill="#222121" d="
  M 231.4154 132.5923
  A 6.44 5.47 92.8 0 1 226.2665 125.8928
  A 6.44 5.47 92.8 0 1 232.0446 119.7277
  A 6.44 5.47 92.8 0 1 237.1935 126.4272
  A 6.44 5.47 92.8 0 1 231.4154 132.5923
  Z
  M 231.7125 131.1900
  A 5.00 3.59 90.2 0 0 235.3200 126.2025
  A 5.00 3.59 90.2 0 0 231.7475 121.1900
  A 5.00 3.59 90.2 0 0 228.1400 126.1775
  A 5.00 3.59 90.2 0 0 231.7125 131.1900
  Z"
/>
<path fill="#222121" d="
  M 247.41 131.54
  L 247.36 123.68
  A 2.35 2.35 0.0 0 0 244.66 121.37
  L 244.50 121.39
  A 3.07 3.07 0.0 0 0 241.88 124.43
  L 241.89 131.81
  A 0.47 0.46 0.0 0 1 241.42 132.27
  L 240.55 132.27
  A 0.47 0.46 0.0 0 1 240.08 131.81
  L 240.08 120.67
  A 0.64 0.63 88.6 0 1 240.68 120.03
  Q 241.41 119.99 241.64 120.34
  Q 241.85 120.69 241.67 121.13
  Q 241.53 121.47 241.54 121.53
  A 0.39 0.38 74.6 0 0 242.08 121.84
  Q 242.14 121.81 243.22 120.73
  C 245.05 118.90 247.50 119.78 248.52 121.98
  A 0.44 0.44 0.0 0 0 249.24 122.09
  L 250.95 120.29
  A 1.06 1.06 0.0 0 1 251.46 119.98
  C 255.32 118.97 256.47 121.89 256.43 125.34
  Q 256.39 128.97 256.43 131.69
  A 0.53 0.52 89.5 0 1 255.91 132.23
  L 255.23 132.23
  A 0.52 0.52 0.0 0 1 254.71 131.71
  L 254.68 123.60
  A 2.26 2.25 83.8 0 0 251.95 121.40
  L 251.77 121.43
  A 3.28 3.27 -5.6 0 0 249.12 124.64
  L 249.10 131.66
  A 0.62 0.61 -90.0 0 1 248.49 132.28
  L 248.15 132.28
  A 0.74 0.74 0.0 0 1 247.41 131.54
  Z"
/>
<path fill="#222121" d="
  M 261.90 131.12
  L 261.90 135.61
  A 0.71 0.70 0.0 0 1 261.19 136.31
  L 260.82 136.31
  A 0.64 0.64 0.0 0 1 260.18 135.67
  L 260.18 120.73
  A 0.68 0.67 -8.0 0 1 260.68 120.08
  Q 261.35 119.89 261.64 120.25
  Q 261.96 120.65 261.73 121.20
  Q 261.51 121.75 261.52 121.81
  A 0.38 0.38 0.0 0 0 262.19 121.92
  C 265.44 117.51 269.82 120.59 270.32 125.00
  C 270.77 129.03 268.95 133.67 263.91 132.14
  C 263.02 131.87 262.97 131.27 262.43 130.86
  A 0.33 0.33 0.0 0 0 261.90 131.12
  Z
  M 265.2219 131.1797
  A 4.96 3.41 89.4 0 0 268.5798 126.1843
  A 4.96 3.41 89.4 0 0 265.1181 121.2603
  A 4.96 3.41 89.4 0 0 261.7602 126.2557
  A 4.96 3.41 89.4 0 0 265.2219 131.1797
  Z"
/>
<path fill="#222121" d="
  M 280.36 130.78
  C 279.74 131.13 279.43 131.79 278.55 132.11
  C 272.88 134.12 269.61 127.50 275.09 125.27
  Q 276.57 124.67 280.22 124.75
  A 0.62 0.62 0.0 0 0 280.84 124.23
  Q 281.18 122.03 279.22 121.41
  Q 275.85 120.35 274.44 122.95
  A 0.89 0.85 45.6 0 1 272.91 122.90
  Q 272.51 122.15 273.47 121.35
  C 275.91 119.32 281.84 118.63 282.42 123.08
  Q 282.51 123.74 282.71 131.44
  A 0.82 0.82 0.0 0 1 281.11 131.69
  L 280.90 131.00
  A 0.37 0.37 0.0 0 0 280.36 130.78
  Z
  M 280.31 126.11
  C 278.11 125.99 275.04 125.96 274.30 128.34
  A 2.17 1.89 -69.4 0 0 275.24 130.86
  C 278.04 132.16 281.08 129.80 280.89 126.69
  A 0.63 0.61 0.6 0 0 280.31 126.11
  Z"
/>
<path fill="#222121" d="
  M 288.70 121.62
  C 289.84 120.71 290.51 119.62 292.32 119.82
  Q 295.94 120.21 296.04 124.24
  Q 296.11 126.88 296.09 131.60
  A 0.60 0.60 0.0 0 1 295.49 132.20
  L 294.93 132.20
  A 0.58 0.57 -0.0 0 1 294.35 131.63
  L 294.35 123.63
  A 2.34 2.33 83.7 0 0 291.51 121.35
  L 291.13 121.43
  A 3.65 3.63 83.8 0 0 288.28 124.99
  L 288.28 131.75
  A 0.58 0.58 0.0 0 1 287.70 132.33
  L 287.07 132.33
  A 0.51 0.50 -90.0 0 1 286.57 131.82
  L 286.57 120.74
  A 0.79 0.79 0.0 0 1 288.13 120.54
  Q 288.18 120.72 288.12 121.32
  A 0.36 0.35 -17.2 0 0 288.70 121.62
  Z"
/>
<path fill="#ffffff" d="
  M 64.99 120.13
  Q 65.42 120.13 65.58 120.41
  Q 66.77 122.56 67.81 124.83
  A 0.42 0.42 0.0 0 1 67.42 125.43
  Q 66.25 125.42 64.97 125.42
  Q 63.69 125.41 62.52 125.41
  A 0.42 0.42 0.0 0 1 62.13 124.81
  Q 63.19 122.55 64.41 120.40
  Q 64.57 120.12 64.99 120.13
  Z"
/>
<path fill="#222121" d="
  M 298.51 135.00
  C 300.35 135.71 301.45 133.86 301.81 132.43
  Q 301.98 131.76 301.17 129.67
  Q 300.31 127.44 297.86 120.52
  A 0.43 0.43 0.0 0 1 298.43 119.98
  L 299.37 120.36
  A 0.64 0.62 2.6 0 1 299.72 120.73
  L 302.63 128.98
  A 0.13 0.12 -43.6 0 0 302.86 128.98
  L 306.37 120.39
  A 0.48 0.47 22.5 0 1 306.99 120.14
  L 307.24 120.24
  A 0.43 0.43 0.0 0 1 307.48 120.79
  Q 305.03 127.40 302.77 133.74
  Q 301.58 137.04 298.30 136.38
  A 0.63 0.63 0.0 0 1 297.84 135.52
  L 297.96 135.24
  A 0.43 0.43 0.0 0 1 298.51 135.00
  Z"
/>
<ellipse fill="#ffffff" cx="0.00" cy="0.00" transform="translate(231.73,126.19) rotate(90.2)" rx="5.00" ry="3.59"/>
<ellipse fill="#ffffff" cx="0.00" cy="0.00" transform="translate(265.17,126.22) rotate(89.4)" rx="4.96" ry="3.41"/>
<path fill="#ffffff" d="
  M 18.71 126.10
  A 0.61 0.60 0.1 0 1 19.29 126.67
  C 19.50 129.71 16.54 132.05 13.78 130.79
  A 2.13 1.85 -69.8 0 1 12.84 128.33
  C 13.55 126.00 16.56 126.00 18.71 126.10
  Z"
/>
<path fill="#ffffff" d="
  M 280.89 126.69
  C 281.08 129.80 278.04 132.16 275.24 130.86
  A 2.17 1.89 -69.4 0 1 274.30 128.34
  C 275.04 125.96 278.11 125.99 280.31 126.11
  A 0.63 0.61 0.6 0 1 280.89 126.69
  Z"
/>
</svg>
