<?xml version="1.0" encoding="UTF-8" standalone="no"?>
<!DOCTYPE svg PUBLIC "-//W3C//DTD SVG 1.1//EN" "http://www.w3.org/Graphics/SVG/1.1/DTD/svg11.dtd">
<svg xmlns="http://www.w3.org/2000/svg" version="1.1" viewBox="0.00 0.00 619.00 422.00">
<path fill="#003c5f" d="
  M 387.99 11.83
  Q 388.03 62.31 387.98 141.72
  Q 387.98 142.98 386.83 145.27
  Q 386.11 146.72 384.82 148.45
  C 366.70 172.90 340.24 190.35 311.45 199.54
  A 6.04 6.04 0.0 0 1 308.03 199.61
  C 278.87 191.59 246.76 174.71 232.67 146.59
  C 231.45 144.17 231.25 139.32 231.25 136.08
  Q 231.25 45.22 231.25 12.16
  A 1.24 1.22 81.8 0 1 232.12 10.98
  Q 254.45 4.17 278.00 2.04
  Q 331.84 -2.84 383.80 9.91
  Q 385.44 10.31 387.45 11.06
  A 0.83 0.82 10.3 0 1 387.99 11.83
  Z
  M 233.74 13.89
  Q 233.77 64.42 233.75 134.48
  Q 233.75 141.21 234.42 143.51
  Q 235.57 147.43 238.35 151.68
  Q 246.58 164.28 258.77 173.26
  Q 281.12 189.72 308.32 197.09
  A 4.73 4.72 43.6 0 0 310.98 197.03
  C 336.64 188.74 360.52 173.81 377.78 153.24
  C 381.48 148.84 385.49 144.59 385.50 140.00
  Q 385.51 63.85 385.49 13.78
  A 1.12 1.12 0.0 0 0 384.64 12.69
  Q 340.24 1.64 294.48 3.39
  Q 266.98 4.44 240.23 11.17
  Q 237.63 11.82 234.31 13.06
  A 0.89 0.89 0.0 0 0 233.74 13.89
  Z"
/>
<path fill="#28724f" d="
  M 382.01 139.62
  A 0.51 0.51 0.0 0 1 381.08 139.90
  C 356.63 104.23 322.00 77.49 280.53 64.75
  Q 259.69 58.34 238.09 57.41
  A 0.62 0.62 0.0 0 1 237.50 56.79
  L 237.50 17.56
  A 0.76 0.75 80.1 0 1 237.99 16.85
  Q 240.44 15.94 241.26 15.71
  Q 261.40 10.06 282.75 8.27
  Q 332.51 4.09 381.21 16.49
  A 1.06 1.05 7.1 0 1 382.01 17.51
  L 382.01 139.62
  Z
  M 286.18 56.51
  A 0.18 0.17 -12.7 0 0 286.38 56.63
  Q 300.42 53.59 305.92 51.36
  Q 316.83 46.94 322.01 45.51
  Q 326.05 44.40 339.27 41.41
  Q 347.47 39.55 354.73 43.98
  C 360.52 47.51 368.29 46.21 372.97 48.71
  A 0.37 0.36 13.9 0 0 373.51 48.39
  L 373.51 25.08
  A 0.66 0.64 8.5 0 0 373.04 24.46
  Q 333.03 12.74 291.48 15.66
  Q 267.04 17.37 246.52 24.61
  A 0.79 0.79 0.0 0 0 246.00 25.35
  L 246.00 46.96
  A 0.36 0.36 0.0 0 0 246.54 47.28
  Q 251.30 44.60 253.03 44.28
  Q 259.08 43.14 263.65 41.81
  A 6.75 6.69 20.5 0 0 265.43 41.01
  C 271.79 36.98 282.61 34.13 289.81 37.87
  A 4.24 4.17 63.1 0 0 291.03 38.28
  Q 303.83 40.52 316.02 44.33
  A 0.31 0.30 41.3 0 1 316.06 44.90
  Q 302.07 51.39 286.33 56.22
  A 0.23 0.23 0.0 0 0 286.18 56.50
  L 286.18 56.51
  Z"
/>
<path fill="#003c5f" d="
  M 251.41 160.24
  Q 251.56 160.17 252.14 160.18
  Q 252.87 160.19 252.93 160.17
  Q 258.91 158.21 260.79 157.76
  Q 272.69 154.90 281.67 162.94
  A 0.77 0.77 0.0 0 0 282.70 162.93
  C 290.19 156.18 298.58 155.68 307.97 159.00
  Q 314.70 161.38 320.70 159.89
  Q 321.89 159.60 322.40 159.27
  A 0.62 0.62 0.0 0 0 322.09 158.13
  C 318.81 158.00 315.82 158.06 312.82 157.07
  Q 305.20 154.55 304.46 154.32
  Q 292.11 150.56 282.76 159.56
  A 0.76 0.76 0.0 0 1 281.70 159.56
  Q 273.58 151.79 263.08 153.56
  C 258.74 154.29 253.11 157.00 248.80 157.90
  A 0.88 0.86 -25.9 0 1 247.97 157.62
  L 244.22 153.34
  A 0.44 0.44 0.0 0 1 244.64 152.62
  C 250.78 153.86 255.35 151.69 260.53 150.31
  Q 272.21 147.20 281.62 155.28
  A 0.95 0.95 0.0 0 0 282.87 155.27
  Q 292.08 147.00 304.40 150.40
  Q 308.02 151.41 310.15 152.07
  Q 315.56 153.75 321.20 152.23
  Q 322.26 151.94 322.51 151.54
  A 0.69 0.69 0.0 0 0 321.87 150.48
  Q 317.57 150.83 312.94 149.56
  C 309.12 148.51 304.71 146.45 300.22 145.88
  Q 290.52 144.65 282.90 151.88
  A 0.98 0.98 0.0 0 1 281.54 151.88
  Q 273.42 144.13 262.75 146.11
  C 258.58 146.89 254.24 149.04 250.46 149.92
  Q 246.76 150.78 243.12 150.79
  A 1.15 1.14 -16.2 0 1 242.13 150.25
  C 238.64 144.76 237.03 141.88 237.02 136.00
  Q 236.97 110.21 237.01 83.66
  A 0.37 0.37 0.0 0 1 237.35 83.29
  Q 245.87 82.55 257.19 83.16
  C 304.49 85.71 346.02 112.57 374.94 148.81
  A 1.06 1.06 0.0 0 1 374.93 150.16
  C 358.17 170.07 335.41 184.64 310.92 192.71
  A 5.36 5.35 -46.2 0 1 307.80 192.78
  C 287.18 186.92 266.40 176.31 251.26 161.09
  A 0.54 0.53 -35.5 0 1 251.41 160.24
  Z
  M 265.13 122.30
  Q 264.02 122.91 263.15 123.40
  C 259.34 125.61 257.97 130.43 260.90 133.94
  C 265.95 139.99 278.49 136.74 276.69 127.79
  C 276.13 125.02 272.76 122.80 270.21 121.76
  A 0.41 0.41 0.0 0 1 270.20 121.01
  C 274.11 119.21 277.95 115.20 273.43 111.30
  C 269.17 107.63 261.68 109.07 260.82 115.23
  A 2.62 2.57 -49.3 0 0 260.89 116.31
  C 261.65 119.06 263.06 120.02 265.17 121.42
  A 0.51 0.51 0.0 0 1 265.13 122.30
  Z
  M 304.96 122.32
  Q 303.85 122.93 302.98 123.42
  C 299.18 125.63 297.81 130.45 300.75 133.96
  C 305.81 140.00 318.34 136.73 316.52 127.79
  C 315.96 125.02 312.59 122.80 310.04 121.77
  A 0.41 0.41 0.0 0 1 310.03 121.02
  C 313.93 119.21 317.76 115.20 313.24 111.31
  C 308.98 107.64 301.49 109.10 300.64 115.25
  A 2.62 2.56 -49.4 0 0 300.71 116.33
  C 301.48 119.08 302.89 120.04 305.00 121.44
  A 0.51 0.51 0.0 0 1 304.96 122.32
  Z
  M 282.20 113.75
  L 280.49 123.89
  A 0.23 0.23 0.0 0 0 280.90 124.06
  C 282.25 122.10 281.67 119.99 285.00 119.99
  Q 291.11 119.99 293.37 120.02
  A 0.40 0.40 0.0 0 1 293.72 120.59
  L 283.09 142.71
  A 1.14 1.13 20.7 0 0 283.81 144.29
  L 284.00 144.34
  A 1.44 1.44 0.0 0 0 285.80 143.51
  L 296.07 117.77
  A 0.55 0.55 0.0 0 0 295.57 117.02
  Q 287.28 116.95 286.26 116.99
  Q 282.75 117.10 282.87 113.62
  A 0.05 0.04 9.2 0 0 282.83 113.58
  L 282.52 113.53
  A 0.27 0.27 0.0 0 0 282.20 113.75
  Z
  M 248.23 126.84
  Q 248.23 131.22 248.15 133.06
  A 2.58 2.58 0.0 0 1 246.12 135.49
  L 244.62 135.82
  A 0.20 0.20 0.0 0 0 244.65 136.21
  Q 244.95 136.23 249.73 136.23
  Q 254.51 136.23 254.81 136.21
  A 0.20 0.20 0.0 0 0 254.84 135.82
  L 253.34 135.49
  A 2.58 2.58 0.0 0 1 251.31 133.06
  Q 251.23 131.22 251.24 126.84
  Q 251.24 122.47 251.31 120.62
  A 2.58 2.58 0.0 0 1 253.35 118.20
  L 254.85 117.87
  A 0.20 0.20 0.0 0 0 254.82 117.48
  Q 254.52 117.46 249.74 117.46
  Q 244.95 117.46 244.65 117.48
  A 0.20 0.20 0.0 0 0 244.63 117.86
  L 246.13 118.19
  A 2.58 2.58 0.0 0 1 248.16 120.62
  Q 248.23 122.47 248.23 126.84
  Z"
/>
<path fill="#003c5f" d="
  M 268.48 120.68
  Q 268.28 120.69 268.18 120.65
  Q 263.99 118.78 264.13 114.27
  C 264.20 112.23 265.85 110.84 267.82 110.71
  C 269.77 110.58 271.59 111.74 271.93 113.76
  Q 272.66 118.21 268.75 120.61
  Q 268.65 120.67 268.48 120.68
  Z"
/>
<path fill="#003c5f" d="
  M 307.57 110.73
  C 309.53 110.57 311.37 111.70 311.74 113.71
  Q 312.56 118.16 308.68 120.63
  Q 308.59 120.69 308.42 120.70
  Q 308.22 120.72 308.12 120.68
  Q 303.88 118.89 303.95 114.37
  C 303.98 112.32 305.61 110.90 307.57 110.73
  Z"
/>
<path fill="#003c5f" d="
  M 269.28 135.54
  C 264.89 136.51 262.11 132.78 262.70 128.72
  C 262.90 127.36 264.69 123.30 266.48 122.91
  C 268.28 122.51 271.61 125.44 272.36 126.59
  C 274.61 130.02 273.66 134.57 269.28 135.54
  Z"
/>
<path fill="#003c5f" d="
  M 306.21 122.91
  C 308.01 122.49 311.36 125.39 312.12 126.53
  C 314.40 129.93 313.50 134.50 309.13 135.51
  C 304.75 136.52 301.94 132.81 302.49 128.76
  C 302.68 127.40 304.42 123.32 306.21 122.91
  Z"
/>
<path fill="#003c5f" d="
  M 0.00 306.24
  L 0.00 297.01
  Q 3.42 275.28 24.33 268.12
  C 36.85 263.83 49.14 264.89 61.95 268.05
  A 0.72 0.70 4.6 0 1 62.50 268.68
  L 63.81 284.41
  A 0.49 0.49 0.0 0 1 63.49 284.91
  Q 61.85 285.52 60.99 285.03
  A 1.45 1.39 -84.8 0 1 60.35 284.23
  Q 55.10 268.12 37.65 269.86
  C 18.10 271.81 11.89 291.39 14.93 308.29
  C 17.01 319.85 24.50 329.81 36.23 332.12
  C 48.65 334.57 57.06 328.85 62.27 318.16
  Q 62.81 317.04 63.26 316.85
  Q 63.86 316.58 64.99 316.86
  A 1.32 1.32 0.0 0 1 65.99 318.32
  Q 64.80 326.71 61.53 332.92
  A 1.30 1.30 0.0 0 1 60.79 333.56
  C 37.17 341.74 3.99 336.36 0.00 306.24
  Z"
/>
<path fill="#003c5f" d="
  M 219.49 333.63
  L 219.49 334.67
  A 0.89 0.88 -0.0 0 1 218.60 335.55
  L 192.94 335.55
  A 1.01 1.01 0.0 0 1 191.93 334.50
  L 191.97 333.34
  A 0.97 0.97 0.0 0 1 192.97 332.36
  Q 193.35 332.36 196.19 331.87
  Q 198.79 331.42 197.86 328.64
  Q 195.22 320.81 192.07 311.82
  A 2.72 2.70 80.2 0 0 189.52 310.01
  L 173.33 310.01
  A 1.67 1.66 9.2 0 0 171.75 311.14
  L 165.64 329.26
  A 1.76 1.75 -75.9 0 0 167.01 331.56
  L 171.73 332.36
  A 0.92 0.91 4.9 0 1 172.50 333.26
  L 172.50 334.74
  A 0.81 0.81 0.0 0 1 171.69 335.55
  L 150.84 335.55
  A 1.00 1.00 0.0 0 1 149.84 334.55
  L 149.84 333.64
  A 1.24 1.22 84.3 0 1 150.82 332.43
  L 155.86 331.39
  A 1.24 1.21 -72.3 0 0 156.50 331.05
  Q 158.54 329.05 159.61 326.32
  Q 171.83 295.04 179.71 274.20
  Q 180.23 272.83 180.38 270.90
  A 0.89 0.88 -10.5 0 1 180.89 270.17
  Q 184.58 268.45 187.35 265.57
  A 1.31 1.31 0.0 0 1 189.55 266.07
  Q 197.11 288.95 209.30 323.98
  Q 210.35 327.01 210.87 328.12
  C 212.44 331.46 214.81 331.63 218.46 332.38
  A 1.29 1.27 5.8 0 1 219.49 333.63
  Z
  M 181.95 305.25
  Q 188.04 305.29 188.95 305.17
  A 0.84 0.84 0.0 0 0 189.63 304.06
  L 182.37 282.68
  A 0.30 0.14 12.6 0 0 182.20 282.55
  Q 182.14 282.53 182.09 282.53
  Q 182.04 282.53 181.99 282.54
  A 0.30 0.14 -11.8 0 0 181.82 282.68
  L 174.29 303.96
  A 0.84 0.84 0.0 0 0 174.96 305.08
  Q 175.87 305.22 181.95 305.25
  Z"
/>
<path fill="#003c5f" d="
  M 501.03 333.64
  L 501.03 334.68
  A 0.89 0.88 -0.0 0 1 500.14 335.56
  L 474.46 335.56
  A 1.01 1.01 0.0 0 1 473.45 334.51
  L 473.49 333.35
  A 0.97 0.97 0.0 0 1 474.49 332.37
  Q 474.87 332.37 477.72 331.88
  Q 480.32 331.43 479.39 328.65
  Q 476.75 320.81 473.59 311.81
  A 2.72 2.70 80.2 0 0 471.04 310.00
  L 454.84 310.00
  A 1.67 1.66 9.2 0 0 453.26 311.13
  L 447.14 329.27
  A 1.76 1.76 0.0 0 0 448.51 331.57
  L 453.24 332.37
  A 0.92 0.91 4.9 0 1 454.01 333.27
  L 454.01 334.75
  A 0.81 0.81 0.0 0 1 453.20 335.56
  L 432.33 335.56
  A 1.00 1.00 0.0 0 1 431.33 334.56
  L 431.33 333.65
  A 1.24 1.23 84.3 0 1 432.31 332.44
  L 437.36 331.40
  A 1.25 1.21 -72.3 0 0 438.00 331.06
  Q 440.04 329.06 441.11 326.32
  Q 453.34 295.02 461.22 274.16
  Q 461.74 272.79 461.89 270.86
  A 0.89 0.88 -10.5 0 1 462.40 270.13
  Q 466.10 268.41 468.87 265.53
  A 1.32 1.31 -32.2 0 1 471.07 266.03
  Q 478.64 288.93 490.84 323.98
  Q 491.89 327.01 492.41 328.12
  C 493.98 331.47 496.35 331.64 500.00 332.39
  A 1.29 1.27 5.8 0 1 501.03 333.64
  Z
  M 463.47 305.25
  Q 469.55 305.28 470.47 305.16
  A 0.84 0.84 0.0 0 0 471.15 304.05
  L 463.87 282.68
  A 0.30 0.14 12.5 0 0 463.69 282.54
  Q 463.64 282.52 463.59 282.52
  Q 463.54 282.52 463.49 282.54
  A 0.30 0.14 -11.9 0 0 463.31 282.67
  L 455.80 303.97
  A 0.84 0.84 0.0 0 0 456.47 305.08
  Q 457.38 305.22 463.47 305.25
  Z"
/>
<path fill="#003c5f" d="
  M 238.57 282.86
  Q 237.36 303.25 237.54 327.41
  C 237.57 331.44 241.54 331.82 244.79 332.35
  A 1.52 1.51 4.7 0 1 246.06 333.84
  L 246.06 334.56
  A 1.00 1.00 0.0 0 1 245.06 335.56
  L 223.49 335.56
  A 1.02 1.02 0.0 0 1 222.47 334.54
  L 222.47 333.37
  A 1.03 1.03 0.0 0 1 223.46 332.34
  C 227.04 332.21 230.08 331.25 230.61 327.05
  Q 231.46 320.44 231.65 316.90
  Q 232.56 300.54 233.49 284.00
  Q 233.59 282.13 233.48 277.33
  C 233.33 271.24 230.27 270.77 225.01 269.91
  A 1.15 1.15 0.0 0 1 224.06 268.58
  L 224.25 267.46
  A 1.07 1.07 0.0 0 1 225.39 266.57
  Q 234.66 267.29 245.33 266.61
  A 0.58 0.57 82.9 0 1 245.94 267.09
  Q 247.01 273.81 248.74 277.52
  Q 254.89 290.70 263.15 307.87
  Q 264.82 311.34 267.38 316.05
  A 0.37 0.37 0.0 0 0 267.99 316.11
  Q 268.40 315.64 269.71 312.96
  Q 283.81 284.12 285.82 280.09
  Q 288.94 273.82 291.06 267.01
  A 0.32 0.32 0.0 0 1 291.37 266.78
  L 310.33 266.78
  A 1.38 1.38 0.0 0 1 311.71 268.16
  L 311.71 268.61
  A 1.31 1.30 85.6 0 1 310.61 269.90
  C 306.30 270.56 302.09 270.65 302.05 276.27
  Q 301.83 301.78 303.04 325.51
  Q 303.18 328.26 304.05 330.01
  A 3.09 3.08 81.6 0 0 306.31 331.69
  L 310.43 332.39
  A 1.19 1.19 0.0 0 1 311.42 333.56
  L 311.42 334.49
  A 0.99 0.99 0.0 0 1 310.43 335.48
  L 284.59 335.58
  A 1.63 1.62 87.3 0 1 282.96 334.09
  L 282.95 334.02
  A 1.64 1.64 0.0 0 1 284.50 332.27
  Q 290.73 331.92 290.73 327.94
  Q 290.76 285.26 290.75 282.51
  A 0.19 0.19 0.0 0 0 290.38 282.43
  C 281.57 300.86 272.98 317.55 265.37 335.56
  A 1.76 1.76 0.0 0 1 262.10 335.47
  C 260.48 331.01 257.81 324.21 255.61 319.46
  Q 243.75 293.94 238.91 282.80
  A 0.18 0.18 0.0 0 0 238.57 282.86
  Z"
/>
<path fill="#003c5f" d="
  M 97.51 266.79
  A 1.25 1.25 0.0 0 1 98.76 268.04
  L 98.76 268.25
  A 1.65 1.65 0.0 0 1 97.34 270.01
  Q 94.98 270.35 94.10 270.59
  Q 91.24 271.40 91.00 274.56
  Q 90.13 285.84 90.68 295.63
  A 1.75 1.74 6.3 0 0 91.95 297.21
  Q 92.34 297.32 94.42 297.39
  Q 101.91 297.66 121.73 297.44
  Q 122.02 297.44 124.40 297.13
  A 1.45 1.44 -3.0 0 0 125.66 295.74
  Q 125.99 283.56 125.45 274.40
  Q 125.39 273.41 123.90 271.18
  A 1.03 1.03 0.0 0 0 123.21 270.74
  L 118.04 269.86
  A 0.91 0.91 0.0 0 1 117.28 268.96
  L 117.28 267.64
  A 0.87 0.87 0.0 0 1 118.15 266.77
  L 145.26 266.77
  A 0.84 0.84 0.0 0 1 146.10 267.61
  L 146.10 268.90
  A 1.05 1.04 86.6 0 1 145.18 269.94
  Q 139.76 270.61 139.09 272.13
  Q 138.08 274.46 138.06 277.27
  Q 137.90 298.25 138.04 324.26
  Q 138.05 327.75 139.02 329.95
  A 3.00 2.99 82.9 0 0 141.26 331.70
  L 145.61 332.43
  A 1.09 1.09 0.0 0 1 146.51 333.50
  L 146.51 334.64
  A 0.92 0.91 0.0 0 1 145.59 335.55
  L 118.26 335.55
  A 1.06 1.06 0.0 0 1 117.20 334.49
  L 117.20 333.58
  A 1.25 1.24 -2.5 0 1 118.34 332.34
  C 121.22 332.08 124.46 331.98 125.14 328.88
  C 126.21 323.98 125.74 317.35 125.79 305.46
  Q 125.80 302.31 122.96 302.29
  Q 106.60 302.18 93.32 302.32
  Q 91.07 302.35 90.72 303.72
  Q 90.63 304.06 90.56 306.88
  Q 90.31 317.16 90.87 327.12
  C 91.16 332.34 95.29 331.85 99.06 332.45
  A 1.19 1.18 4.6 0 1 100.06 333.62
  L 100.06 334.59
  A 0.97 0.96 -0.0 0 1 99.09 335.55
  L 71.54 335.55
  A 0.82 0.81 0.7 0 1 70.72 334.72
  L 70.77 333.13
  A 0.75 0.75 0.0 0 1 71.50 332.40
  C 75.59 332.32 78.18 330.87 78.21 326.46
  Q 78.32 309.31 78.24 277.00
  Q 78.23 274.60 77.49 272.61
  A 3.20 3.18 84.6 0 0 75.04 270.57
  L 71.00 269.89
  A 1.48 1.48 0.0 0 1 69.77 268.43
  L 69.77 267.94
  A 1.15 1.15 0.0 0 1 70.92 266.79
  L 97.51 266.79
  Z"
/>
<path fill="#003c5f" d="
  M 319.81 270.64
  A 1.28 1.28 0.0 0 1 318.74 269.38
  L 318.74 268.83
  A 1.42 1.42 0.0 0 1 320.02 267.42
  Q 328.97 266.55 341.24 266.50
  Q 350.24 266.46 357.37 268.09
  C 367.62 270.43 374.00 278.27 372.86 288.80
  C 371.46 301.67 359.26 306.88 347.76 306.53
  A 1.58 1.58 0.0 0 1 347.46 303.41
  C 353.73 301.98 357.68 297.90 358.96 291.65
  C 361.44 279.52 354.29 269.10 341.17 271.25
  A 1.68 1.68 0.0 0 0 339.77 272.91
  Q 339.72 306.12 339.77 325.25
  Q 339.78 327.77 340.74 330.12
  A 1.73 1.70 -83.8 0 0 341.34 330.88
  C 343.19 332.19 346.21 332.15 348.74 332.41
  A 1.08 1.08 0.0 0 1 349.71 333.48
  L 349.71 334.64
  A 0.92 0.92 0.0 0 1 348.79 335.56
  L 320.54 335.56
  A 1.08 1.07 -90.0 0 1 319.47 334.48
  L 319.47 333.57
  A 1.21 1.21 0.0 0 1 320.58 332.36
  C 323.27 332.15 326.04 332.01 326.87 328.86
  Q 327.41 326.84 327.43 322.50
  Q 327.63 286.92 327.39 278.65
  Q 327.31 276.08 327.14 274.15
  A 3.01 3.01 0.0 0 0 324.65 271.46
  L 319.81 270.64
  Z"
/>
<path fill="#003c5f" d="
  M 426.03 335.48
  L 376.08 335.48
  A 1.04 1.04 0.0 0 1 375.04 334.44
  L 375.04 333.61
  A 1.19 1.19 0.0 0 1 376.01 332.44
  L 381.00 331.52
  A 3.59 3.58 -87.9 0 0 383.83 328.88
  Q 384.49 326.26 384.50 321.52
  Q 384.53 298.70 384.42 277.31
  Q 384.40 273.26 382.57 271.31
  A 1.82 1.78 72.8 0 0 381.55 270.76
  L 376.32 269.88
  A 1.33 1.32 4.9 0 1 375.22 268.58
  L 375.22 267.99
  A 1.22 1.21 90.0 0 1 376.43 266.77
  L 404.36 266.77
  A 0.99 0.98 -90.0 0 1 405.34 267.76
  L 405.34 268.76
  A 1.12 1.11 84.7 0 1 404.43 269.86
  L 400.31 270.66
  A 3.74 3.71 5.9 0 0 397.59 272.86
  Q 396.87 274.55 396.79 278.01
  Q 396.72 280.82 396.77 320.26
  C 396.77 326.97 397.42 330.59 405.01 330.86
  Q 413.58 331.16 416.77 330.76
  C 422.93 329.99 425.02 325.08 427.19 320.21
  A 1.07 1.04 -79.7 0 1 428.06 319.59
  Q 429.09 319.51 430.03 319.84
  A 0.99 0.99 0.0 0 1 430.67 320.97
  Q 429.00 329.61 426.60 335.11
  A 0.64 0.62 -77.4 0 1 426.03 335.48
  Z"
/>
<path fill="#003c5f" d="
  M 520.14 266.92
  Q 527.04 266.85 533.60 266.62
  A 1.16 1.15 -0.9 0 1 534.80 267.77
  L 534.80 268.75
  A 1.22 1.22 0.0 0 1 533.68 269.97
  C 531.08 270.19 527.84 270.26 527.00 273.05
  Q 526.25 275.50 526.27 279.58
  Q 526.27 280.04 526.27 301.17
  Q 526.27 322.30 526.27 322.75
  Q 526.25 326.83 527.00 329.28
  C 527.84 332.07 531.08 332.14 533.68 332.36
  A 1.22 1.22 0.0 0 1 534.80 333.58
  L 534.80 334.56
  A 1.16 1.15 0.9 0 1 533.61 335.71
  Q 527.04 335.48 520.15 335.42
  Q 513.25 335.48 506.69 335.71
  A 1.16 1.15 -0.9 0 1 505.49 334.56
  L 505.49 333.58
  A 1.22 1.22 0.0 0 1 506.61 332.36
  C 509.21 332.14 512.45 332.07 513.29 329.28
  Q 514.04 326.83 514.02 322.75
  Q 514.02 322.30 514.02 301.17
  Q 514.02 280.04 514.02 279.59
  Q 514.04 275.51 513.29 273.06
  C 512.45 270.27 509.21 270.20 506.61 269.98
  A 1.22 1.22 0.0 0 1 505.49 268.76
  L 505.49 267.78
  A 1.16 1.15 0.9 0 1 506.68 266.62
  Q 513.25 266.85 520.14 266.92
  Z"
/>
<path fill="#003c5f" d="
  M 619.00 266.51
  L 619.00 269.76
  C 615.59 270.68 612.19 270.29 611.55 274.79
  Q 610.78 280.24 610.78 282.28
  Q 610.71 325.54 610.78 331.75
  Q 610.79 332.69 611.04 335.33
  A 1.19 1.17 63.2 0 1 610.76 336.22
  Q 609.59 337.58 608.15 337.53
  A 1.33 1.33 0.0 0 1 607.19 337.07
  L 559.86 283.00
  A 0.31 0.31 0.0 0 0 559.32 283.17
  Q 559.31 283.26 559.19 285.76
  Q 558.74 295.85 559.22 318.05
  Q 559.32 322.38 559.91 326.56
  Q 560.36 329.70 562.64 331.11
  Q 564.22 332.08 567.73 332.35
  A 1.58 1.58 0.0 0 1 569.19 333.80
  L 569.23 334.28
  A 1.18 1.17 87.7 0 1 568.06 335.55
  L 545.92 335.55
  A 1.17 1.17 0.0 0 1 544.75 334.37
  L 544.75 333.93
  A 1.52 1.51 -8.9 0 1 545.91 332.34
  L 549.86 331.40
  A 3.27 3.26 5.4 0 0 552.10 329.55
  C 553.47 326.52 553.29 320.87 553.41 318.00
  Q 553.61 313.05 553.44 279.50
  C 553.41 273.05 549.24 271.15 543.74 269.97
  A 1.50 1.48 6.0 0 1 542.55 268.52
  L 542.55 267.82
  A 1.27 1.26 -87.1 0 1 543.94 266.56
  Q 552.74 267.39 562.29 266.60
  A 0.82 0.81 70.1 0 1 563.03 266.95
  Q 569.71 276.94 575.73 283.53
  Q 594.68 304.30 604.54 315.23
  A 0.23 0.23 0.0 0 0 604.94 315.08
  Q 605.13 302.23 604.90 282.33
  Q 604.86 278.98 603.94 274.83
  C 603.02 270.72 599.93 270.28 596.34 269.96
  A 1.48 1.47 -87.7 0 1 594.99 268.49
  L 594.99 267.86
  A 1.32 1.31 1.6 0 1 596.39 266.55
  Q 608.14 267.30 619.00 266.51
  Z"
/>
<path fill="#003c5f" d="
  M 134.78 422.00
  L 110.64 422.00
  C 97.09 419.00 85.95 410.05 83.01 396.23
  C 77.92 372.36 93.31 354.59 116.53 351.77
  Q 129.60 350.18 144.11 354.19
  A 0.78 0.77 -85.2 0 1 144.68 354.87
  L 145.95 370.09
  A 1.05 1.05 0.0 0 1 144.99 371.22
  L 143.89 371.31
  A 1.45 1.44 -9.8 0 1 142.37 370.25
  C 140.02 361.55 133.71 356.40 124.59 355.80
  C 108.99 354.76 98.48 365.62 96.70 380.77
  C 94.74 397.44 102.10 416.88 121.23 418.60
  Q 135.66 419.89 143.27 406.58
  Q 144.54 404.34 144.78 403.58
  A 1.16 1.15 -88.9 0 1 145.55 402.83
  Q 146.64 402.51 147.68 403.22
  A 1.15 1.14 21.6 0 1 148.15 404.30
  Q 147.15 412.12 143.83 418.84
  A 1.86 1.85 -84.4 0 1 142.65 419.82
  L 134.78 422.00
  Z"
/>
<path fill="#003c5f" d="
  M 199.30 422.00
  L 178.38 422.00
  Q 155.50 415.40 152.23 391.74
  Q 151.55 386.75 153.15 379.31
  C 157.74 358.09 177.63 348.37 197.91 352.10
  C 208.30 354.00 217.20 360.41 221.76 370.14
  Q 227.09 381.52 225.37 392.78
  Q 221.94 415.16 199.30 422.00
  Z
  M 166.67 389.12
  C 167.79 402.61 174.71 420.15 191.57 418.74
  C 208.42 417.34 212.34 398.89 211.21 385.41
  C 210.09 371.92 203.16 354.38 186.31 355.79
  C 169.46 357.19 165.54 375.64 166.67 389.12
  Z"
/>
<path fill="#003c5f" d="
  M 459.59 422.00
  L 434.12 422.00
  Q 431.28 421.14 428.51 420.16
  Q 408.97 413.24 406.19 393.15
  Q 404.07 377.78 413.15 365.98
  C 423.33 352.73 442.56 349.45 457.93 352.13
  Q 468.13 353.90 468.48 353.80
  A 0.41 0.41 0.0 0 1 468.92 354.17
  L 470.25 370.15
  A 0.99 0.99 0.0 0 1 469.26 371.22
  L 467.76 371.22
  A 1.25 1.23 -6.8 0 1 466.55 370.28
  C 463.59 358.08 453.14 354.26 441.50 356.21
  Q 424.69 359.02 420.90 377.91
  C 418.26 391.09 421.42 408.30 434.08 415.29
  Q 442.20 419.77 451.95 418.44
  Q 457.38 417.69 457.31 412.83
  Q 457.23 406.86 457.22 401.47
  Q 457.22 397.61 447.58 396.90
  A 1.71 1.70 -85.8 0 1 446.01 395.07
  L 446.04 394.77
  A 1.24 1.23 2.8 0 1 447.27 393.66
  L 475.43 393.66
  A 1.11 1.11 0.0 0 1 476.54 394.77
  L 476.54 395.51
  A 1.31 1.30 89.6 0 1 475.26 396.82
  C 473.59 396.86 470.70 397.34 470.06 399.38
  Q 469.91 399.89 469.71 402.17
  C 469.37 406.04 468.62 415.22 471.96 417.75
  A 0.97 0.97 0.0 0 1 471.58 419.47
  L 459.59 422.00
  Z"
/>
<path fill="#003c5f" d="
  M 280.00 421.18
  A 0.64 0.62 -77.4 0 1 279.43 421.55
  L 229.52 421.51
  A 1.04 1.04 0.0 0 1 228.49 420.47
  L 228.49 419.64
  A 1.19 1.19 0.0 0 1 229.46 418.47
  L 234.44 417.56
  A 3.58 3.58 0.0 0 0 237.27 414.92
  Q 237.93 412.30 237.95 407.57
  Q 237.99 384.77 237.90 363.39
  Q 237.88 359.35 236.05 357.40
  A 1.82 1.78 72.8 0 0 235.04 356.85
  L 229.81 355.96
  A 1.32 1.32 0.0 0 1 228.71 354.66
  L 228.71 354.07
  A 1.22 1.21 -90.0 0 1 229.92 352.86
  L 257.83 352.88
  A 0.99 0.98 -90.0 0 1 258.81 353.87
  L 258.81 354.87
  A 1.12 1.11 84.8 0 1 257.90 355.96
  L 253.78 356.76
  A 3.73 3.71 5.9 0 0 251.06 358.96
  Q 250.34 360.64 250.26 364.10
  Q 250.19 366.91 250.21 406.32
  C 250.20 413.02 250.85 416.64 258.43 416.91
  Q 267.00 417.22 270.18 416.82
  C 276.34 416.06 278.43 411.15 280.60 406.29
  A 1.07 1.04 -79.7 0 1 281.47 405.67
  Q 282.50 405.59 283.44 405.92
  A 0.99 0.99 0.0 0 1 284.08 407.05
  Q 282.41 415.68 280.00 421.18
  Z"
/>
<path fill="#003c5f" d="
  M 337.86 421.19
  A 0.64 0.62 -77.4 0 1 337.29 421.55
  L 287.37 421.53
  A 1.04 1.04 0.0 0 1 286.33 420.49
  L 286.33 419.66
  A 1.19 1.19 0.0 0 1 287.30 418.50
  L 292.29 417.58
  A 3.59 3.58 -87.9 0 0 295.12 414.94
  Q 295.78 412.32 295.79 407.58
  Q 295.83 384.77 295.73 363.40
  Q 295.71 359.35 293.88 357.40
  A 1.82 1.78 72.8 0 0 292.86 356.85
  L 287.63 355.97
  A 1.33 1.32 5.0 0 1 286.53 354.67
  L 286.54 354.08
  A 1.22 1.21 -90.0 0 1 287.75 352.86
  L 315.66 352.87
  A 0.99 0.98 -90.0 0 1 316.64 353.86
  L 316.64 354.86
  A 1.12 1.11 84.8 0 1 315.73 355.96
  L 311.61 356.76
  A 3.73 3.71 5.9 0 0 308.89 358.95
  Q 308.17 360.64 308.09 364.10
  Q 308.02 366.91 308.05 406.33
  C 308.05 413.04 308.70 416.66 316.28 416.93
  Q 324.85 417.23 328.04 416.83
  C 334.20 416.07 336.29 411.16 338.46 406.29
  A 1.07 1.04 -79.7 0 1 339.33 405.67
  Q 340.36 405.59 341.30 405.92
  A 0.99 0.99 0.0 0 1 341.94 407.05
  Q 340.26 415.69 337.86 421.19
  Z"
/>
<path fill="#003c5f" d="
  M 394.17 353.73
  L 395.28 367.10
  A 0.81 0.81 0.0 0 1 394.47 367.98
  L 392.67 367.98
  A 0.86 0.86 0.0 0 1 391.85 367.38
  C 390.23 362.33 389.15 358.49 383.05 357.76
  Q 377.26 357.08 369.19 357.29
  Q 365.77 357.38 365.98 360.74
  Q 365.99 360.98 365.97 382.09
  A 1.36 1.36 0.0 0 0 367.29 383.45
  Q 372.84 383.58 377.01 383.45
  C 383.37 383.24 384.26 382.38 385.25 376.07
  A 1.34 1.33 1.9 0 1 386.46 374.95
  L 387.71 374.85
  A 1.01 1.00 -2.6 0 1 388.81 375.85
  L 388.81 396.43
  A 1.11 1.11 0.0 0 1 387.70 397.54
  L 386.56 397.54
  A 1.33 1.33 0.0 0 1 385.24 396.38
  C 384.83 393.09 384.77 388.88 380.33 388.65
  Q 372.67 388.25 371.50 388.22
  Q 368.55 388.15 366.58 388.71
  A 0.76 0.74 -6.8 0 0 366.04 389.38
  Q 365.93 391.43 365.99 406.24
  C 366.01 413.60 366.95 416.73 375.00 416.93
  C 381.54 417.10 389.20 417.89 394.21 413.04
  Q 395.79 411.50 398.00 406.36
  A 1.35 1.35 0.0 0 1 398.77 405.63
  Q 400.06 405.15 401.40 406.14
  A 0.91 0.91 0.0 0 1 401.76 407.02
  Q 400.49 414.25 397.79 421.07
  A 0.76 0.75 -79.1 0 1 397.09 421.55
  L 344.48 421.55
  A 0.76 0.75 90.0 0 1 343.73 420.79
  L 343.73 419.30
  A 0.80 0.79 -3.2 0 1 344.44 418.51
  Q 348.01 418.13 350.06 417.83
  C 353.55 417.32 353.72 413.03 353.72 410.00
  Q 353.74 378.32 353.72 364.27
  C 353.72 362.67 353.44 360.57 352.99 359.03
  C 352.22 356.36 349.10 356.14 346.72 355.99
  A 0.83 0.83 0.0 0 1 345.95 355.23
  L 345.82 353.69
  A 0.70 0.69 -2.3 0 1 346.52 352.94
  L 393.31 352.94
  A 0.86 0.85 -2.2 0 1 394.17 353.73
  Z"
/>
<path fill="#003c5f" d="
  M 528.88 352.93
  A 0.86 0.85 -2.1 0 1 529.74 353.72
  L 530.84 367.10
  A 0.81 0.81 0.0 0 1 530.03 367.98
  L 528.23 367.98
  A 0.86 0.86 0.0 0 1 527.41 367.38
  C 525.79 362.32 524.71 358.48 518.61 357.75
  Q 512.82 357.07 504.75 357.28
  Q 501.33 357.37 501.54 360.73
  Q 501.55 360.97 501.52 382.08
  A 1.36 1.36 0.0 0 0 502.84 383.44
  Q 508.39 383.57 512.56 383.45
  C 518.93 383.24 519.82 382.38 520.81 376.07
  A 1.34 1.33 1.9 0 1 522.02 374.95
  L 523.27 374.85
  A 1.01 1.00 -2.6 0 1 524.37 375.85
  L 524.36 396.43
  A 1.11 1.11 0.0 0 1 523.25 397.54
  L 522.11 397.54
  A 1.33 1.33 0.0 0 1 520.79 396.38
  C 520.38 393.09 520.33 388.88 515.88 388.65
  Q 508.22 388.25 507.05 388.22
  Q 504.10 388.14 502.13 388.70
  A 0.76 0.74 -6.7 0 0 501.59 389.37
  Q 501.48 391.42 501.54 406.24
  C 501.56 413.60 502.49 416.73 510.55 416.93
  C 517.09 417.10 524.75 417.90 529.76 413.05
  Q 531.34 411.51 533.55 406.37
  A 1.36 1.35 -88.3 0 1 534.32 405.64
  Q 535.61 405.16 536.96 406.15
  A 0.91 0.91 0.0 0 1 537.31 407.03
  Q 536.04 414.26 533.34 421.08
  A 0.76 0.75 -79.1 0 1 532.64 421.56
  L 480.02 421.55
  A 0.76 0.75 -90.0 0 1 479.27 420.79
  L 479.27 419.30
  A 0.80 0.79 -3.2 0 1 479.98 418.51
  Q 483.55 418.13 485.60 417.83
  C 489.09 417.32 489.26 413.03 489.26 410.00
  Q 489.29 378.31 489.27 364.26
  C 489.27 362.66 489.00 360.55 488.55 359.01
  C 487.78 356.34 484.66 356.12 482.27 355.97
  A 0.83 0.83 0.0 0 1 481.50 355.21
  L 481.38 353.67
  A 0.70 0.69 -2.3 0 1 482.08 352.92
  L 528.88 352.93
  Z"
/>
</svg>
