<?xml version="1.0" encoding="UTF-8" standalone="no"?>
<!DOCTYPE svg PUBLIC "-//W3C//DTD SVG 1.1//EN" "http://www.w3.org/Graphics/SVG/1.1/DTD/svg11.dtd">
<svg xmlns="http://www.w3.org/2000/svg" version="1.1" viewBox="0.00 0.00 240.00 211.00">
<g stroke-width="2.00" fill="none" stroke-linecap="butt">
<path stroke="#a4a6a9" vector-effect="non-scaling-stroke" d="
  M 84.73 43.92
  C 84.73 49.08 84.09 53.57 85.70 56.35
  C 88.39 61.01 94.89 61.47 98.83 58.46
  Q 101.80 56.19 101.71 51.21
  A 0.84 0.83 -0.3 0 0 100.87 50.39
  L 97.06 50.39
  A 0.75 0.74 0.0 0 0 96.31 51.13
  L 96.31 53.19
  A 0.88 0.86 61.4 0 1 96.18 53.65
  Q 93.92 57.15 91.02 54.82
  A 2.64 2.62 -72.1 0 1 90.04 52.89
  Q 90.04 52.80 90.04 43.92
  Q 90.05 35.04 90.05 34.94
  A 2.64 2.62 72.2 0 1 91.03 33.02
  Q 93.94 30.69 96.19 34.20
  A 0.88 0.86 -61.4 0 1 96.32 34.66
  L 96.32 36.72
  A 0.75 0.74 0.1 0 0 97.07 37.46
  L 100.88 37.46
  A 0.84 0.83 0.4 0 0 101.72 36.64
  Q 101.82 31.66 98.85 29.39
  C 94.91 26.37 88.41 26.83 85.72 31.48
  C 84.11 34.26 84.73 38.75 84.73 43.92"
/>
<path stroke="#a4a6a9" vector-effect="non-scaling-stroke" d="
  M 173.62 38.32
  A 0.87 0.86 -89.0 0 0 174.48 37.48
  Q 174.78 29.25 168.22 27.79
  C 162.53 26.52 157.40 29.53 157.35 35.76
  Q 157.33 37.22 157.32 49.84
  Q 157.32 54.23 158.17 56.07
  C 161.53 63.28 174.24 61.18 174.35 52.50
  Q 174.43 46.48 174.45 44.00
  A 1.16 1.16 0.0 0 0 173.29 42.84
  L 166.69 42.84
  A 1.12 1.12 0.0 0 0 165.57 43.98
  L 165.63 46.82
  A 0.84 0.84 0.0 0 0 166.76 47.59
  Q 167.02 47.50 168.41 47.50
  A 0.67 0.67 0.0 0 1 169.09 48.17
  L 169.09 52.52
  A 3.11 3.10 1.2 0 1 165.85 55.62
  L 165.60 55.60
  A 3.12 3.12 0.0 0 1 162.64 52.48
  Q 162.64 43.15 162.69 34.76
  Q 162.70 33.89 164.59 32.41
  A 1.38 1.38 0.0 0 1 165.52 32.12
  C 169.01 32.32 168.94 34.77 168.98 37.48
  A 0.85 0.85 0.0 0 0 169.83 38.32
  L 173.62 38.32"
/>
<path stroke="#a4a6a9" vector-effect="non-scaling-stroke" d="
  M 32.04 45.27
  Q 32.58 45.27 33.13 44.11
  Q 35.02 40.06 36.08 38.37
  A 0.26 0.26 0.0 0 1 36.56 38.51
  L 36.56 59.13
  A 0.98 0.97 90.0 0 0 37.53 60.11
  L 40.86 60.11
  A 0.96 0.96 0.0 0 0 41.82 59.15
  L 41.82 28.47
  A 0.65 0.64 90.0 0 0 41.18 27.82
  L 37.47 27.82
  A 1.45 1.42 -74.4 0 0 36.24 28.53
  Q 34.75 31.07 32.48 35.53
  Q 32.34 35.79 32.05 35.79
  Q 31.76 35.79 31.62 35.53
  Q 29.36 31.07 27.87 28.53
  A 1.45 1.42 74.5 0 0 26.64 27.81
  L 22.93 27.81
  A 0.65 0.64 -89.9 0 0 22.29 28.46
  L 22.25 59.14
  A 0.96 0.96 0.0 0 0 23.21 60.10
  L 26.54 60.10
  A 0.98 0.97 -89.9 0 0 27.51 59.12
  L 27.54 38.50
  A 0.26 0.26 0.0 0 1 28.02 38.37
  Q 29.08 40.06 30.97 44.11
  Q 31.51 45.27 32.04 45.27"
/>
<path stroke="#a4a6a9" vector-effect="non-scaling-stroke" d="
  M 54.84 54.47
  Q 56.99 54.47 57.59 54.50
  A 0.82 0.82 0.0 0 1 58.35 55.15
  L 59.16 58.91
  A 1.49 1.48 84.0 0 0 60.61 60.09
  L 63.32 60.09
  A 1.05 1.05 0.0 0 0 64.35 58.82
  L 57.93 28.76
  A 1.12 1.11 85.9 0 0 56.93 27.89
  Q 56.08 27.82 54.85 27.82
  Q 53.61 27.82 52.77 27.89
  A 1.12 1.11 -85.9 0 0 51.77 28.76
  L 45.34 58.82
  A 1.05 1.05 0.0 0 0 46.36 60.09
  L 49.07 60.09
  A 1.49 1.48 -84.0 0 0 50.53 58.91
  L 51.34 55.15
  A 0.82 0.82 0.0 0 1 52.10 54.50
  Q 52.70 54.47 54.84 54.47"
/>
<path stroke="#a4a6a9" vector-effect="non-scaling-stroke" d="
  M 72.90 59.99
  Q 74.60 60.00 74.83 59.99
  A 0.71 0.71 0.0 0 0 75.53 59.28
  L 75.65 33.33
  A 0.69 0.69 0.0 0 1 76.34 32.64
  L 80.99 32.64
  A 0.99 0.99 0.0 0 0 81.97 31.66
  L 81.98 28.92
  A 1.05 1.05 0.0 0 0 80.93 27.86
  Q 77.38 27.85 73.00 27.83
  Q 68.62 27.82 65.07 27.81
  A 1.05 1.05 0.0 0 0 64.02 28.86
  L 64.01 31.60
  A 0.99 0.99 0.0 0 0 64.99 32.59
  L 69.64 32.62
  A 0.69 0.69 0.0 0 1 70.32 33.31
  L 70.28 59.26
  A 0.71 0.71 0.0 0 0 70.97 59.98
  Q 71.21 59.99 72.90 59.99"
/>
<path stroke="#a4a6a9" vector-effect="non-scaling-stroke" d="
  M 106.20 43.95
  Q 106.20 47.96 106.19 59.28
  A 0.81 0.80 90.0 0 0 106.99 60.09
  L 110.78 60.09
  A 0.73 0.73 0.0 0 0 111.51 59.36
  L 111.51 46.86
  A 0.56 0.55 -89.3 0 1 112.08 46.30
  Q 113.42 46.34 114.50 46.34
  Q 115.57 46.34 116.92 46.30
  A 0.56 0.55 89.2 0 1 117.48 46.86
  L 117.49 59.36
  A 0.73 0.73 0.0 0 0 118.22 60.09
  L 122.01 60.09
  A 0.81 0.80 90.0 0 0 122.81 59.27
  Q 122.80 47.95 122.80 43.95
  Q 122.79 39.95 122.80 28.62
  A 0.81 0.80 90.0 0 0 122.00 27.81
  L 118.21 27.81
  A 0.73 0.73 0.0 0 0 117.48 28.54
  L 117.48 41.04
  A 0.56 0.55 -89.3 0 1 116.91 41.60
  Q 115.57 41.57 114.50 41.57
  Q 113.42 41.57 112.08 41.60
  A 0.56 0.55 89.2 0 1 111.51 41.05
  L 111.50 28.55
  A 0.73 0.73 0.0 0 0 110.77 27.82
  L 106.98 27.82
  A 0.81 0.80 90.0 0 0 106.18 28.63
  Q 106.19 39.95 106.20 43.95"
/>
<path stroke="#a4a6a9" vector-effect="non-scaling-stroke" d="
  M 143.11 60.09
  A 0.78 0.78 0.0 0 0 143.89 59.31
  L 143.89 56.04
  A 0.78 0.78 0.0 0 0 143.11 55.26
  L 134.31 55.26
  A 0.78 0.78 0.0 0 1 133.53 54.48
  L 133.53 28.61
  A 0.78 0.78 0.0 0 0 132.75 27.83
  L 128.87 27.83
  A 0.78 0.78 0.0 0 0 128.09 28.61
  L 128.09 59.31
  A 0.78 0.78 0.0 0 0 128.87 60.09
  L 143.11 60.09"
/>
<path stroke="#a4a6a9" vector-effect="non-scaling-stroke" d="
  M 152.58 28.59
  A 0.79 0.79 0.0 0 0 151.79 27.80
  L 147.99 27.80
  A 0.79 0.79 0.0 0 0 147.20 28.59
  L 147.20 59.29
  A 0.79 0.79 0.0 0 0 147.99 60.08
  L 151.79 60.08
  A 0.79 0.79 0.0 0 0 152.58 59.29
  L 152.58 28.59"
/>
<path stroke="#a4a6a9" vector-effect="non-scaling-stroke" d="
  M 179.16 43.93
  Q 179.16 47.94 179.15 59.27
  A 0.81 0.80 -90.0 0 0 179.95 60.08
  L 183.74 60.08
  A 0.73 0.73 0.0 0 0 184.47 59.35
  L 184.48 46.84
  A 0.56 0.55 -89.2 0 1 185.05 46.29
  Q 186.39 46.32 187.47 46.32
  Q 188.54 46.32 189.89 46.29
  A 0.56 0.55 89.3 0 1 190.46 46.85
  L 190.45 59.35
  A 0.73 0.73 0.0 0 0 191.19 60.08
  L 194.98 60.08
  A 0.81 0.80 -90.0 0 0 195.78 59.27
  Q 195.77 47.94 195.77 43.94
  Q 195.78 39.93 195.79 28.60
  A 0.81 0.80 -90.0 0 0 194.99 27.79
  L 191.20 27.79
  A 0.73 0.73 0.0 0 0 190.47 28.52
  L 190.46 41.03
  A 0.56 0.55 -89.2 0 1 189.89 41.58
  Q 188.54 41.55 187.47 41.55
  Q 186.40 41.55 185.05 41.58
  A 0.56 0.55 89.3 0 1 184.48 41.03
  L 184.48 28.52
  A 0.73 0.73 0.0 0 0 183.75 27.79
  L 179.96 27.79
  A 0.81 0.80 -90.0 0 0 179.16 28.60
  Q 179.17 39.93 179.16 43.93"
/>
<path stroke="#a4a6a9" vector-effect="non-scaling-stroke" d="
  M 208.70 60.04
  Q 210.40 60.04 210.64 60.03
  A 0.71 0.71 0.0 0 0 211.33 59.32
  L 211.44 33.32
  A 0.69 0.69 0.0 0 1 212.13 32.63
  L 216.79 32.63
  A 0.99 0.99 0.0 0 0 217.78 31.64
  L 217.78 28.90
  A 1.05 1.05 0.0 0 0 216.73 27.84
  Q 213.18 27.83 208.79 27.81
  Q 204.40 27.80 200.84 27.80
  A 1.05 1.05 0.0 0 0 199.79 28.85
  L 199.78 31.59
  A 0.99 0.99 0.0 0 0 200.76 32.59
  L 205.42 32.61
  A 0.69 0.69 0.0 0 1 206.11 33.31
  L 206.07 59.31
  A 0.71 0.71 0.0 0 0 206.76 60.02
  Q 207.00 60.03 208.70 60.04"
/>
<path stroke="#80c9e4" vector-effect="non-scaling-stroke" d="
  M 41.80 68.44
  A 0.63 0.63 0.0 0 0 41.17 67.81
  L 22.95 67.81
  A 0.63 0.63 0.0 0 0 22.32 68.44
  L 22.32 72.50
  A 0.63 0.63 0.0 0 0 22.95 73.13
  L 41.17 73.13
  A 0.63 0.63 0.0 0 0 41.80 72.50
  L 41.80 68.44"
/>
<path stroke="#a4a6a9" vector-effect="non-scaling-stroke" d="
  M 22.74 114.94
  L 22.71 121.46
  A 0.59 0.59 0.0 0 0 23.30 122.05
  L 23.55 122.05
  A 0.44 0.44 0.0 0 0 23.99 121.61
  L 23.99 115.12
  A 0.55 0.55 0.0 0 1 24.55 114.57
  Q 25.59 114.59 25.76 114.48
  Q 26.59 113.93 25.86 113.51
  Q 25.41 113.25 24.64 113.39
  A 0.50 0.50 0.0 0 1 24.05 112.92
  Q 23.98 111.40 25.08 110.98
  Q 25.33 110.89 25.90 110.91
  Q 26.62 110.94 26.76 110.86
  A 0.53 0.52 -53.3 0 0 26.62 109.89
  Q 24.58 109.42 23.35 110.58
  A 1.32 1.31 69.6 0 0 22.92 111.53
  Q 22.88 113.51 21.65 113.68
  A 0.45 0.45 0.0 0 0 21.49 114.53
  Q 21.86 114.73 22.10 114.58
  A 0.42 0.42 0.0 0 1 22.74 114.94"
/>
<path stroke="#b7b7b9" vector-effect="non-scaling-stroke" d="
  M 31.2100 122.2900
  A 4.59 4.06 90.0 0 0 35.2700 117.7000
  A 4.59 4.06 90.0 0 0 31.2100 113.1100
  A 4.59 4.06 90.0 0 0 27.1500 117.7000
  A 4.59 4.06 90.0 0 0 31.2100 122.2900"
/>
<path stroke="#b7b7b9" vector-effect="non-scaling-stroke" d="
  M 38.74 121.41
  C 38.66 118.48 37.97 114.32 41.82 114.58
  A 0.43 0.42 -87.6 0 0 42.28 114.15
  L 42.28 113.86
  A 0.70 0.69 -89.6 0 0 41.60 113.16
  Q 40.52 113.15 39.38 114.00
  A 0.62 0.62 0.0 0 1 38.46 113.78
  Q 38.02 112.90 37.40 113.58
  A 0.49 0.48 -23.7 0 0 37.27 113.91
  L 37.27 121.45
  A 0.58 0.57 0.0 0 0 37.85 122.02
  L 38.15 122.02
  A 0.59 0.59 0.0 0 0 38.74 121.41"
/>
<path stroke="#b7b7b9" vector-effect="non-scaling-stroke" d="
  M 201.88 151.70
  C 205.52 154.74 213.48 155.90 216.13 150.60
  C 217.64 147.59 215.65 144.57 212.90 143.60
  Q 211.62 143.14 207.18 141.96
  A 1.19 1.19 0.0 0 1 206.67 139.94
  C 208.33 138.39 212.15 139.78 213.51 140.90
  A 0.52 0.52 0.0 0 0 214.26 140.80
  L 215.74 138.66
  A 0.64 0.64 0.0 0 0 215.59 137.78
  Q 211.99 135.11 207.58 135.72
  C 203.06 136.35 199.81 141.84 203.93 144.85
  C 206.64 146.83 209.22 146.35 211.58 147.76
  A 1.42 1.42 0.0 0 1 211.13 150.37
  Q 206.76 151.23 203.98 148.28
  A 0.36 0.36 0.0 0 0 203.39 148.39
  Q 202.81 149.81 201.82 150.93
  A 0.54 0.53 41.0 0 0 201.88 151.70"
/>
<path stroke="#b7b7b9" vector-effect="non-scaling-stroke" d="
  M 30.88 153.91
  Q 31.78 153.91 32.14 153.90
  A 0.67 0.66 -1.2 0 0 32.78 153.24
  L 32.78 140.04
  A 0.46 0.46 0.0 0 1 33.24 139.58
  L 37.42 139.58
  A 0.60 0.60 0.0 0 0 38.02 138.98
  L 38.02 136.71
  A 0.68 0.68 0.0 0 0 37.33 136.03
  Q 34.32 136.07 30.85 136.06
  Q 27.37 136.08 24.36 136.06
  A 0.68 0.68 0.0 0 0 23.67 136.74
  L 23.68 139.01
  A 0.60 0.60 0.0 0 0 24.28 139.60
  L 28.46 139.59
  A 0.46 0.46 0.0 0 1 28.93 140.05
  L 28.97 153.25
  A 0.67 0.66 1.0 0 0 29.62 153.90
  Q 29.98 153.91 30.88 153.91"
/>
<path stroke="#b7b7b9" vector-effect="non-scaling-stroke" d="
  M 40.88 144.96
  Q 40.88 146.50 40.92 153.34
  A 0.59 0.59 0.0 0 0 41.51 153.92
  L 53.28 153.92
  A 0.45 0.45 0.0 0 0 53.73 153.47
  L 53.73 150.80
  A 0.49 0.49 0.0 0 0 53.24 150.31
  L 45.29 150.31
  A 0.49 0.49 0.0 0 1 44.80 149.82
  L 44.80 147.29
  A 0.48 0.48 0.0 0 1 45.28 146.81
  L 53.01 146.81
  A 0.68 0.68 0.0 0 0 53.69 146.18
  Q 53.71 145.90 53.71 144.96
  Q 53.71 144.03 53.69 143.75
  A 0.68 0.68 0.0 0 0 53.01 143.12
  L 45.28 143.11
  A 0.48 0.48 0.0 0 1 44.80 142.63
  L 44.80 140.10
  A 0.49 0.49 0.0 0 1 45.30 139.61
  L 53.25 139.62
  A 0.49 0.49 0.0 0 0 53.74 139.13
  L 53.74 136.46
  A 0.45 0.45 0.0 0 0 53.29 136.01
  L 41.52 135.99
  A 0.59 0.59 0.0 0 0 40.93 136.57
  Q 40.88 143.41 40.88 144.96"
/>
<path stroke="#b7b7b9" vector-effect="non-scaling-stroke" d="
  M 71.67 153.89
  L 68.05 147.63
  A 0.50 0.50 0.0 0 1 68.25 146.94
  Q 71.38 145.25 71.63 142.23
  C 71.89 139.11 69.36 135.93 66.24 136.01
  Q 60.25 136.16 57.58 135.93
  A 0.46 0.46 0.0 0 0 57.08 136.39
  L 57.08 153.41
  A 0.53 0.52 90.0 0 0 57.60 153.94
  L 60.47 153.94
  A 0.50 0.49 -90.0 0 0 60.96 153.44
  L 60.96 148.25
  A 0.47 0.47 0.0 0 1 61.43 147.78
  L 63.21 147.78
  A 0.80 0.78 74.6 0 1 63.89 148.18
  L 67.03 153.61
  A 0.66 0.64 74.6 0 0 67.59 153.94
  L 71.64 153.94
  A 0.04 0.03 78.3 0 0 71.67 153.89"
/>
<path stroke="#b7b7b9" vector-effect="non-scaling-stroke" d="
  M 75.34 153.80
  Q 76.96 154.04 82.44 153.89
  C 85.23 153.82 87.43 154.24 89.16 151.60
  C 90.86 149.00 89.86 146.64 87.68 145.06
  A 0.62 0.62 0.0 0 1 87.67 144.06
  C 90.09 142.24 90.21 139.79 88.36 137.51
  Q 87.10 135.95 84.05 135.98
  Q 76.35 136.06 75.44 136.03
  A 0.63 0.62 -88.7 0 0 74.79 136.66
  L 74.79 153.16
  A 0.66 0.65 4.7 0 0 75.34 153.80"
/>
<path stroke="#b7b7b9" vector-effect="non-scaling-stroke" d="
  M 97.0754 136.5966
  A 0.57 0.57 0.0 0 0 96.5044 136.0276
  L 93.6844 136.0325
  A 0.57 0.57 0.0 0 0 93.1154 136.6035
  L 93.1446 153.3834
  A 0.57 0.57 0.0 0 0 93.7156 153.9524
  L 96.5356 153.9475
  A 0.57 0.57 0.0 0 0 97.1046 153.3765
  L 97.0754 136.5966"
/>
<path stroke="#b7b7b9" vector-effect="non-scaling-stroke" d="
  M 109.15 154.18
  C 113.21 154.21 116.96 152.35 117.19 147.93
  Q 117.48 142.11 117.35 136.49
  A 0.44 0.44 0.0 0 0 116.91 136.06
  L 113.83 136.06
  A 0.54 0.54 0.0 0 0 113.29 136.59
  Q 113.20 141.88 113.23 146.50
  C 113.25 149.10 111.79 150.66 109.17 150.65
  C 106.54 150.63 105.10 149.05 105.15 146.45
  Q 105.24 141.83 105.21 136.54
  A 0.54 0.54 0.0 0 0 104.67 136.01
  L 101.59 135.97
  A 0.44 0.44 0.0 0 0 101.15 136.40
  Q 100.95 142.01 101.18 147.84
  C 101.35 152.26 105.09 154.16 109.15 154.18"
/>
<path stroke="#b7b7b9" vector-effect="non-scaling-stroke" d="
  M 130.97 153.93
  Q 131.92 153.93 132.39 152.70
  Q 134.61 146.83 136.29 142.64
  A 0.22 0.22 0.0 0 1 136.72 142.72
  L 136.72 153.51
  A 0.40 0.40 0.0 0 0 137.12 153.91
  L 140.42 153.91
  A 0.33 0.33 0.0 0 0 140.75 153.58
  L 140.75 136.55
  A 0.56 0.56 0.0 0 0 140.19 135.99
  L 136.08 135.99
  A 1.44 1.42 -79.6 0 0 134.74 136.93
  Q 133.22 141.05 131.25 146.04
  Q 131.19 146.17 130.96 146.17
  Q 130.72 146.17 130.67 146.04
  Q 128.68 141.06 127.15 136.94
  A 1.44 1.42 79.5 0 0 125.81 136.01
  L 121.70 136.02
  A 0.56 0.56 0.0 0 0 121.14 136.58
  L 121.19 153.61
  A 0.33 0.33 0.0 0 0 121.52 153.94
  L 124.82 153.93
  A 0.40 0.40 0.0 0 0 125.22 153.53
  L 125.19 142.74
  A 0.22 0.22 0.0 0 1 125.62 142.66
  Q 127.31 146.84 129.55 152.70
  Q 130.02 153.93 130.97 153.93"
/>
<path stroke="#b7b7b9" vector-effect="non-scaling-stroke" d="
  M 161.37 153.93
  A 0.62 0.62 0.0 0 0 161.95 153.53
  L 162.86 151.19
  A 0.62 0.62 0.0 0 0 162.28 150.35
  L 156.57 150.35
  A 0.62 0.62 0.0 0 1 155.95 149.73
  L 155.95 136.57
  A 0.62 0.62 0.0 0 0 155.33 135.95
  L 152.69 135.95
  A 0.62 0.62 0.0 0 0 152.07 136.57
  L 152.07 153.31
  A 0.62 0.62 0.0 0 0 152.69 153.93
  L 161.37 153.93"
/>
<path stroke="#b7b7b9" vector-effect="non-scaling-stroke" d="
  M 182.45 153.74
  L 175.85 136.71
  A 1.19 1.18 79.6 0 0 174.74 135.94
  L 171.35 135.94
  A 1.07 1.07 0.0 0 0 170.35 136.63
  L 164.00 153.17
  A 0.54 0.54 0.0 0 0 164.50 153.90
  L 168.11 153.90
  A 0.59 0.59 0.0 0 0 168.70 153.30
  Q 168.68 152.00 169.02 151.48
  A 1.39 1.38 -73.4 0 1 170.18 150.85
  L 176.26 150.86
  A 0.77 0.76 -10.7 0 1 176.97 151.34
  L 177.74 153.33
  A 0.93 0.92 79.3 0 0 178.60 153.92
  L 182.33 153.92
  A 0.13 0.13 0.0 0 0 182.45 153.74"
/>
<path stroke="#b7b7b9" vector-effect="non-scaling-stroke" d="
  M 184.95 153.87
  Q 186.57 154.10 192.07 153.93
  C 194.87 153.84 197.08 154.26 198.80 151.60
  C 200.50 148.98 199.48 146.62 197.29 145.04
  A 0.62 0.62 0.0 0 1 197.27 144.04
  C 199.69 142.20 199.80 139.75 197.94 137.47
  Q 196.67 135.91 193.61 135.95
  Q 185.88 136.07 184.97 136.04
  A 0.63 0.62 -89.0 0 0 184.32 136.67
  L 184.39 153.23
  A 0.66 0.65 4.5 0 0 184.95 153.87"
/>
<path stroke="#f9b19c" vector-effect="non-scaling-stroke" d="
  M 215.95 165.29
  A 0.37 0.37 0.0 0 0 215.58 164.92
  L 24.44 164.92
  A 0.37 0.37 0.0 0 0 24.07 165.29
  L 24.07 168.47
  A 0.37 0.37 0.0 0 0 24.44 168.84
  L 215.58 168.84
  A 0.37 0.37 0.0 0 0 215.95 168.47
  L 215.95 165.29"
/>
<path stroke="#c0c1c2" vector-effect="non-scaling-stroke" d="
  M 76.04 184.78
  Q 76.31 184.78 77.40 189.98
  A 0.91 0.91 0.0 0 0 78.96 190.41
  C 79.91 189.37 80.47 186.58 81.27 183.63
  C 81.53 182.65 81.99 182.26 82.80 181.59
  A 0.38 0.38 0.0 0 0 82.56 180.92
  L 79.56 180.92
  A 0.47 0.47 0.0 0 0 79.39 181.82
  L 79.83 181.99
  A 0.70 0.69 -60.8 0 1 80.13 183.07
  Q 78.91 184.65 79.09 187.52
  A 0.28 0.27 89.0 0 1 78.82 187.81
  L 78.52 187.81
  A 0.44 0.44 0.0 0 1 78.08 187.43
  Q 77.66 184.58 76.90 181.78
  Q 76.64 180.86 76.04 180.86
  Q 75.44 180.86 75.19 181.78
  Q 74.43 184.58 74.00 187.43
  A 0.44 0.44 0.0 0 1 73.56 187.81
  L 73.26 187.81
  A 0.28 0.27 -88.9 0 1 72.99 187.52
  Q 73.18 184.65 71.96 183.07
  A 0.70 0.69 60.8 0 1 72.26 181.99
  L 72.70 181.82
  A 0.47 0.47 0.0 0 0 72.53 180.92
  L 69.53 180.91
  A 0.38 0.38 0.0 0 0 69.29 181.58
  C 70.10 182.25 70.56 182.65 70.82 183.63
  C 71.61 186.58 72.17 189.37 73.12 190.41
  A 0.91 0.91 0.0 0 0 74.68 189.98
  Q 75.78 184.78 76.04 184.78"
/>
<path stroke="#c0c1c2" vector-effect="non-scaling-stroke" d="
  M 90.50 190.69
  Q 90.72 190.53 90.78 190.27
  A 0.38 0.37 17.2 0 1 91.28 190.01
  L 92.87 190.62
  A 0.76 0.76 0.0 0 0 93.45 190.62
  Q 96.87 189.30 95.96 185.75
  A 1.80 1.68 16.5 0 0 95.46 184.90
  C 94.56 184.06 93.26 183.25 92.19 183.87
  Q 91.69 184.16 91.57 184.16
  A 0.60 0.60 0.0 0 1 90.97 183.47
  Q 91.04 182.98 91.13 182.36
  Q 91.24 181.52 90.94 181.23
  Q 90.31 180.64 89.49 180.91
  A 0.43 0.43 0.0 0 0 89.30 181.60
  Q 89.44 181.75 89.45 181.76
  A 2.00 1.98 -60.6 0 1 89.73 182.78
  L 89.78 190.33
  A 0.45 0.45 0.0 0 0 90.50 190.69"
/>
<path stroke="#c0c1c2" vector-effect="non-scaling-stroke" d="
  M 132.01 181.48
  Q 133.04 181.86 133.10 182.97
  Q 133.11 183.14 133.23 188.60
  A 0.79 0.78 80.5 0 1 132.69 189.36
  L 131.97 189.60
  A 0.29 0.29 0.0 0 0 131.78 189.80
  Q 131.66 190.17 132.13 190.49
  A 0.77 0.76 -31.6 0 0 132.66 190.61
  Q 136.12 190.10 138.53 190.62
  A 0.76 0.75 16.4 0 0 139.39 190.16
  Q 139.57 189.71 139.01 189.28
  A 0.99 0.97 -71.0 0 1 138.63 188.48
  L 138.69 186.10
  A 1.47 1.46 84.8 0 1 139.85 184.70
  L 139.88 184.70
  A 1.05 1.05 0.0 0 1 141.20 185.71
  L 141.20 189.72
  A 0.82 0.81 10.5 0 0 141.73 190.48
  Q 142.42 190.74 143.48 190.43
  A 0.48 0.48 0.0 0 0 143.75 189.71
  Q 142.82 188.30 142.94 186.71
  A 2.68 2.44 80.6 0 0 139.45 183.96
  Q 138.73 184.31 137.02 183.78
  A 0.62 0.54 -2.5 0 0 136.24 184.52
  Q 136.40 184.83 136.78 184.90
  A 0.61 0.61 0.0 0 1 137.28 185.50
  L 137.28 188.43
  A 1.14 1.14 0.0 0 1 136.14 189.57
  L 135.27 189.57
  A 0.93 0.93 0.0 0 1 134.34 188.64
  L 134.34 182.44
  A 0.55 0.54 87.8 0 1 134.84 181.89
  Q 135.26 181.86 135.52 181.65
  A 0.34 0.33 -58.6 0 0 135.38 181.06
  Q 133.58 180.70 132.04 181.06
  A 0.22 0.22 0.0 0 0 132.01 181.48"
/>
<path stroke="#c0c1c2" vector-effect="non-scaling-stroke" d="
  M 155.76 181.63
  Q 155.96 181.74 156.32 181.79
  Q 156.56 181.82 156.51 182.67
  Q 156.30 185.73 156.54 188.18
  A 1.52 1.49 -27.4 0 1 156.17 189.31
  L 155.85 189.67
  A 0.57 0.57 0.0 0 0 156.36 190.61
  Q 159.06 190.20 161.36 190.63
  A 0.70 0.70 0.0 0 0 162.09 190.30
  Q 162.32 189.91 161.78 189.14
  A 0.69 0.68 27.4 0 1 161.65 188.74
  L 161.65 181.55
  A 0.63 0.63 0.0 0 0 161.02 180.92
  L 159.41 180.92
  A 0.40 0.40 0.0 0 0 159.27 181.69
  L 159.58 181.81
  A 0.93 0.93 0.0 0 1 160.18 182.68
  L 160.18 188.73
  A 0.64 0.64 0.0 0 1 159.54 189.37
  L 158.43 189.37
  A 0.58 0.57 -90.0 0 1 157.86 188.79
  L 157.93 181.74
  A 0.72 0.44 49.7 0 0 157.90 181.55
  Q 157.60 180.47 155.81 181.03
  A 0.33 0.32 50.2 0 0 155.76 181.63"
/>
<path stroke="#c0c1c2" vector-effect="non-scaling-stroke" d="
  M 37.78 181.68
  Q 38.28 181.65 38.63 181.86
  Q 38.86 182.00 38.85 182.72
  Q 38.79 187.40 38.97 188.62
  A 0.59 0.58 -8.9 0 1 38.48 189.28
  Q 37.58 189.41 37.49 189.66
  A 0.62 0.62 0.0 0 0 38.01 190.50
  C 42.13 190.86 47.02 190.69 46.16 184.78
  C 45.52 180.42 41.49 180.66 37.73 181.01
  A 0.31 0.31 0.0 0 0 37.45 181.37
  L 37.45 181.42
  A 0.32 0.31 82.9 0 0 37.78 181.68"
/>
<path stroke="#c0c1c2" vector-effect="non-scaling-stroke" d="
  M 61.99 185.74
  L 61.99 181.70
  A 0.79 0.79 0.0 0 0 61.30 180.92
  Q 60.75 180.85 59.60 180.97
  Q 58.98 181.04 59.16 181.45
  Q 59.34 181.84 59.76 181.89
  A 0.57 0.57 0.0 0 1 60.26 182.46
  L 60.26 188.41
  A 0.90 0.89 -11.3 0 1 59.70 189.24
  Q 59.28 189.42 59.20 189.71
  A 0.54 0.54 0.0 0 0 59.52 190.35
  Q 60.82 190.87 62.53 190.33
  A 0.39 0.39 0.0 0 0 62.67 189.67
  Q 61.69 188.77 61.99 187.80
  A 0.48 0.48 0.0 0 1 62.75 187.57
  Q 64.03 188.62 64.86 189.86
  Q 65.73 191.17 66.73 190.33
  A 0.59 0.59 0.0 0 0 66.55 189.33
  Q 65.27 188.86 64.12 186.82
  A 0.70 0.70 0.0 0 1 64.24 185.96
  Q 65.63 184.60 66.21 184.44
  A 0.31 0.31 0.0 0 0 66.13 183.83
  L 63.81 183.83
  A 0.65 0.64 -88.1 0 0 63.17 184.44
  Q 63.08 185.95 62.26 185.99
  A 0.25 0.25 0.0 0 1 61.99 185.74"
/>
<path stroke="#c0c1c2" vector-effect="non-scaling-stroke" d="
  M 101.29 185.68
  Q 101.28 188.43 101.27 188.52
  A 1.04 1.04 0.0 0 1 100.70 189.36
  Q 100.30 189.57 100.27 189.67
  A 0.62 0.62 0.0 0 0 100.84 190.48
  C 104.78 190.63 108.84 190.38 108.86 185.71
  C 108.88 181.04 104.82 180.76 100.88 180.87
  A 0.62 0.62 0.0 0 0 100.31 181.67
  Q 100.34 181.77 100.74 181.98
  A 1.04 1.04 0.0 0 1 101.30 182.83
  Q 101.31 182.92 101.29 185.68"
/>
<path stroke="#c0c1c2" vector-effect="non-scaling-stroke" d="
  M 165.30 181.57
  Q 164.87 180.96 164.43 181.07
  A 0.96 0.95 -48.9 0 0 164.55 182.95
  Q 164.76 182.98 165.05 182.80
  A 0.87 0.86 -33.9 0 0 165.30 181.57"
/>
<path stroke="#c0c1c2" vector-effect="non-scaling-stroke" d="
  M 122.54 185.46
  Q 124.49 183.83 125.91 185.58
  A 0.37 0.37 0.0 0 1 125.56 186.18
  Q 123.06 185.77 120.63 188.90
  A 0.96 0.96 0.0 0 1 118.92 188.31
  L 118.92 185.32
  A 0.51 0.51 0.0 0 1 119.43 184.81
  L 120.67 184.81
  A 0.24 0.24 0.0 0 0 120.91 184.57
  L 120.91 184.26
  A 0.29 0.29 0.0 0 0 120.62 183.97
  L 119.79 183.97
  A 0.88 0.87 -1.0 0 1 118.91 183.13
  Q 118.90 182.99 118.90 182.80
  Q 118.89 182.32 118.66 182.18
  Q 118.29 181.95 117.74 182.14
  A 0.48 0.47 83.2 0 0 117.43 182.54
  Q 117.36 183.39 116.73 184.05
  A 0.54 0.54 0.0 0 0 116.86 184.90
  Q 116.91 184.92 116.95 184.96
  A 1.15 1.14 27.1 0 1 117.28 185.97
  Q 116.96 188.06 117.36 188.83
  Q 118.53 191.04 120.22 190.53
  A 1.16 1.13 -0.7 0 0 121.00 189.75
  L 121.05 189.56
  A 0.41 0.40 37.1 0 1 121.78 189.46
  Q 123.10 191.57 125.02 190.14
  A 0.80 0.79 -55.6 0 1 125.70 190.01
  Q 125.99 190.08 126.45 190.48
  A 0.95 0.88 16.1 0 0 128.01 189.70
  Q 127.92 189.29 127.37 188.87
  A 0.79 0.78 33.7 0 1 127.16 187.86
  Q 127.50 187.25 127.13 185.63
  C 126.57 183.15 123.58 183.27 121.91 184.71
  A 0.34 0.33 -35.8 0 0 121.84 185.12
  L 121.99 185.37
  A 0.36 0.36 0.0 0 0 122.54 185.46"
/>
<path stroke="#c0c1c2" vector-effect="non-scaling-stroke" d="
  M 144.35 184.69
  Q 145.22 185.41 144.79 187.78
  A 2.46 2.46 0.0 0 0 146.61 190.60
  Q 147.54 190.83 148.35 190.14
  A 0.58 0.58 0.0 0 0 147.97 189.12
  L 146.48 189.12
  A 0.60 0.59 6.5 0 1 145.89 188.39
  Q 146.24 186.87 146.01 185.64
  A 0.60 0.60 0.0 0 1 146.48 184.93
  L 147.73 184.66
  A 0.27 0.25 -7.2 0 0 147.94 184.41
  L 147.94 184.01
  A 0.25 0.25 0.0 0 0 147.64 183.77
  L 146.67 183.98
  A 0.60 0.60 0.0 0 1 145.95 183.34
  Q 146.04 182.29 145.57 182.07
  A 0.46 0.45 -72.8 0 0 144.93 182.41
  Q 144.72 183.63 144.34 183.97
  A 0.47 0.47 0.0 0 0 144.35 184.69"
/>
<path stroke="#c0c1c2" vector-effect="non-scaling-stroke" d="
  M 56.10 184.49
  L 55.85 184.05
  A 0.56 0.55 -15.0 0 0 55.37 183.78
  L 54.55 183.78
  A 0.38 0.38 0.0 0 0 54.26 184.41
  Q 55.61 185.95 55.07 188.56
  A 1.06 1.06 0.0 0 1 52.97 188.34
  L 52.97 185.80
  A 1.47 1.44 22.9 0 0 52.54 184.77
  Q 50.46 182.72 47.42 184.45
  A 0.10 0.10 0.0 0 0 47.38 184.53
  L 47.38 185.11
  A 0.51 0.51 0.0 0 0 48.16 185.55
  Q 50.46 184.20 51.26 185.55
  A 0.38 0.38 0.0 0 1 50.87 186.12
  C 49.62 185.91 47.05 187.01 47.00 188.60
  C 46.93 190.48 49.33 191.24 50.96 190.16
  Q 51.31 189.93 51.59 190.05
  Q 51.96 190.20 52.04 190.32
  A 0.82 0.82 0.0 0 0 53.01 190.66
  Q 54.05 190.28 56.56 190.66
  A 0.76 0.76 0.0 0 0 57.02 189.23
  L 56.82 189.13
  A 0.86 0.86 0.0 0 1 56.35 188.29
  Q 56.60 185.47 59.12 184.64
  A 0.41 0.41 0.0 0 0 59.02 183.84
  Q 57.65 183.75 57.02 184.56
  A 0.56 0.55 48.8 0 1 56.10 184.49"
/>
<path stroke="#c0c1c2" vector-effect="non-scaling-stroke" d="
  M 88.30 187.41
  Q 88.94 186.24 87.51 184.65
  C 84.81 181.64 80.48 186.05 82.69 188.94
  Q 85.08 192.05 88.03 189.52
  Q 88.43 189.17 88.41 188.92
  Q 88.38 188.59 88.23 188.15
  A 0.92 0.90 51.2 0 1 88.30 187.41"
/>
<path stroke="#c0c1c2" vector-effect="non-scaling-stroke" d="
  M 167.20 192.62
  Q 170.52 194.96 172.78 191.96
  A 0.94 0.87 -28.1 0 0 172.97 191.41
  L 172.97 185.52
  A 0.70 0.63 -29.3 0 1 173.10 185.13
  L 173.62 184.44
  A 0.53 0.53 0.0 0 0 172.93 183.66
  L 172.15 184.11
  A 0.98 0.97 -43.5 0 1 171.15 184.09
  Q 169.96 183.34 169.01 183.78
  Q 165.83 185.26 167.09 188.82
  A 2.11 2.07 -78.8 0 0 167.62 189.63
  Q 169.50 191.41 171.40 190.14
  A 0.50 0.49 -88.5 0 1 172.07 190.85
  Q 170.54 192.90 167.86 191.70
  A 0.61 0.61 0.0 0 0 167.09 191.94
  L 167.06 191.99
  A 0.48 0.48 0.0 0 0 167.20 192.62"
/>
<path stroke="#c0c1c2" vector-effect="non-scaling-stroke" d="
  M 183.67 188.23
  Q 183.76 187.40 183.86 186.20
  A 1.49 1.40 -80.0 0 1 185.64 184.87
  Q 186.26 185.05 186.55 186.31
  Q 186.65 186.75 186.58 189.95
  A 0.65 0.64 0.4 0 0 187.23 190.60
  L 188.28 190.60
  A 0.55 0.54 75.4 0 0 188.75 189.79
  Q 187.61 187.76 187.91 186.27
  A 2.16 2.15 -1.8 0 0 185.24 183.78
  Q 184.16 184.06 181.70 183.87
  A 0.45 0.45 0.0 0 0 181.56 184.75
  L 181.95 184.85
  A 0.54 0.53 -83.1 0 1 182.35 185.37
  L 182.35 188.80
  A 0.75 0.75 0.0 0 1 181.80 189.52
  Q 181.49 189.60 181.48 189.60
  A 0.45 0.45 0.0 0 0 181.63 190.42
  Q 183.23 190.74 184.59 190.35
  A 0.40 0.39 -37.3 0 0 184.69 189.63
  L 184.24 189.37
  A 1.21 1.20 -71.7 0 1 183.67 188.23"
/>
<path stroke="#c0c1c2" vector-effect="non-scaling-stroke" d="
  M 113.49 186.28
  Q 111.34 185.92 109.49 188.08
  A 0.83 0.82 47.5 0 0 109.45 189.12
  C 110.24 190.18 111.58 191.40 112.94 190.32
  Q 113.68 189.73 114.42 190.32
  Q 114.92 190.71 115.43 190.66
  Q 116.42 190.56 116.48 189.91
  A 0.39 0.37 -70.1 0 0 116.34 189.59
  L 115.79 189.15
  A 1.05 1.04 -64.9 0 1 115.42 188.12
  C 116.19 184.45 113.25 182.29 110.16 184.44
  A 0.53 0.52 -32.6 0 0 110.00 185.14
  L 110.16 185.43
  A 0.35 0.34 52.6 0 0 110.70 185.51
  Q 112.17 184.08 113.90 185.25
  A 0.57 0.57 0.0 0 1 113.49 186.28"
/>
<path stroke="#c0c1c2" vector-effect="non-scaling-stroke" d="
  M 150.61 187.70
  L 153.72 187.71
  A 1.35 1.34 73.6 0 0 154.85 185.63
  C 151.58 180.60 146.35 186.64 150.09 189.86
  C 151.74 191.28 153.45 190.60 154.87 189.30
  C 155.08 189.10 155.06 188.53 154.88 188.34
  A 0.34 0.33 -43.7 0 0 154.38 188.33
  Q 152.89 189.97 150.38 188.61
  A 0.49 0.49 0.0 0 1 150.61 187.70"
/>
<path stroke="#c0c1c2" vector-effect="non-scaling-stroke" d="
  M 163.38 184.57
  Q 164.30 185.53 163.94 188.51
  A 0.76 0.76 0.0 0 1 163.52 189.10
  Q 162.98 189.37 162.76 189.77
  A 0.47 0.47 0.0 0 0 163.14 190.47
  L 165.48 190.62
  A 0.44 0.40 -48.2 0 0 165.66 190.60
  Q 166.66 190.22 165.41 188.85
  A 0.41 0.41 0.0 0 1 165.29 188.56
  L 165.29 184.83
  A 0.72 0.71 -79.0 0 0 164.85 184.17
  Q 163.93 183.77 163.57 183.88
  A 0.42 0.42 0.0 0 0 163.38 184.57"
/>
<path stroke="#c0c1c2" vector-effect="non-scaling-stroke" d="
  M 176.37 187.70
  L 179.50 187.70
  A 1.36 1.35 73.3 0 0 180.63 185.60
  C 177.31 180.55 172.08 186.66 175.86 189.88
  C 177.52 191.30 179.24 190.61 180.67 189.29
  C 180.88 189.09 180.85 188.52 180.67 188.32
  A 0.34 0.33 -44.0 0 0 180.17 188.32
  Q 178.68 189.98 176.14 188.62
  A 0.49 0.49 0.0 0 1 176.37 187.70"
/>
<path stroke="#c0c1c2" vector-effect="non-scaling-stroke" d="
  M 194.95 188.31
  Q 193.69 189.27 191.97 189.15
  A 0.94 0.92 -10.4 0 1 191.20 188.63
  Q 190.07 186.29 192.24 184.93
  A 1.19 1.10 -20.5 0 1 194.02 185.66
  Q 194.12 186.42 195.05 186.70
  A 0.66 0.65 8.6 0 0 195.90 186.08
  L 195.90 184.12
  A 0.30 0.30 0.0 0 0 195.43 183.88
  Q 194.82 184.33 193.61 183.83
  C 190.10 182.38 186.97 188.71 191.96 190.51
  C 193.39 191.03 195.03 189.98 195.67 188.97
  A 0.50 0.50 0.0 0 0 194.95 188.31"
/>
<path stroke="#c0c1c2" vector-effect="non-scaling-stroke" d="
  M 198.39 187.65
  L 201.51 187.77
  A 1.35 1.35 0.0 0 0 202.72 185.71
  C 199.59 180.55 194.15 186.46 197.80 189.81
  C 199.41 191.28 201.15 190.66 202.62 189.39
  C 202.84 189.20 202.83 188.63 202.66 188.43
  A 0.34 0.33 -41.9 0 0 202.16 188.41
  Q 200.61 190.01 198.13 188.56
  A 0.49 0.49 0.0 0 1 198.39 187.65"
/>
<path stroke="#a4a6a9" vector-effect="non-scaling-stroke" d="
  M 52.15 49.85
  A 0.32 0.32 0.0 0 0 52.47 50.22
  L 57.09 50.22
  A 0.32 0.32 0.0 0 0 57.41 49.85
  L 55.10 36.50
  A 0.32 0.32 0.0 0 0 54.46 36.50
  L 52.15 49.85"
/>
<path stroke="#b7b7b9" vector-effect="non-scaling-stroke" d="
  M 31.1522 121.1597
  A 3.42 2.59 90.8 0 0 33.7897 117.7762
  A 3.42 2.59 90.8 0 0 31.2478 114.3203
  A 3.42 2.59 90.8 0 0 28.6103 117.7038
  A 3.42 2.59 90.8 0 0 31.1522 121.1597"
/>
<path stroke="#b7b7b9" vector-effect="non-scaling-stroke" d="
  M 60.94 139.98
  L 60.90 143.68
  A 0.42 0.42 0.0 0 0 61.32 144.11
  L 65.04 144.14
  A 2.28 2.10 0.5 0 0 67.34 142.06
  L 67.34 141.72
  A 2.28 2.10 0.5 0 0 65.08 139.60
  L 61.36 139.57
  A 0.42 0.42 0.0 0 0 60.94 139.98"
/>
<path stroke="#b7b7b9" vector-effect="non-scaling-stroke" d="
  M 78.82 140.15
  L 78.86 142.65
  A 0.49 0.49 0.0 0 0 79.36 143.13
  L 83.62 143.05
  A 1.71 1.56 -1.0 0 0 85.30 141.46
  L 85.30 141.10
  A 1.71 1.56 -1.0 0 0 83.56 139.57
  L 79.30 139.65
  A 0.49 0.49 0.0 0 0 78.82 140.15"
/>
<path stroke="#b7b7b9" vector-effect="non-scaling-stroke" d="
  M 78.83 147.09
  L 78.87 150.03
  A 0.35 0.35 0.0 0 0 79.23 150.37
  L 83.76 150.31
  A 2.06 1.75 -0.8 0 0 85.79 148.53
  L 85.79 148.39
  A 2.06 1.75 -0.8 0 0 83.70 146.67
  L 79.17 146.73
  A 0.35 0.35 0.0 0 0 78.83 147.09"
/>
<path stroke="#b7b7b9" vector-effect="non-scaling-stroke" d="
  M 170.74 146.60
  A 0.45 0.45 0.0 0 0 171.15 147.21
  L 175.04 147.30
  A 0.45 0.45 0.0 0 0 175.47 146.71
  L 173.66 141.21
  A 0.45 0.45 0.0 0 0 172.81 141.19
  L 170.74 146.60"
/>
<path stroke="#b7b7b9" vector-effect="non-scaling-stroke" d="
  M 188.58 140.00
  L 188.64 142.80
  A 0.34 0.34 0.0 0 0 188.99 143.13
  L 193.15 143.04
  A 2.06 1.70 -1.2 0 0 195.17 141.30
  L 195.17 141.22
  A 2.06 1.70 -1.2 0 0 193.07 139.56
  L 188.91 139.65
  A 0.34 0.34 0.0 0 0 188.58 140.00"
/>
<path stroke="#b7b7b9" vector-effect="non-scaling-stroke" d="
  M 188.61 147.08
  L 188.63 150.02
  A 0.35 0.35 0.0 0 0 188.99 150.37
  L 193.79 150.32
  A 1.72 1.59 89.5 0 0 195.36 148.59
  L 195.36 148.39
  A 1.72 1.59 89.5 0 0 193.75 146.68
  L 188.95 146.73
  A 0.35 0.35 0.0 0 0 188.61 147.08"
/>
<path stroke="#c0c1c2" vector-effect="non-scaling-stroke" d="
  M 92.7002 189.1797
  A 2.15 1.88 95.6 0 0 94.7810 187.2235
  A 2.15 1.88 95.6 0 0 93.1198 184.9003
  A 2.15 1.88 95.6 0 0 91.0390 186.8565
  A 2.15 1.88 95.6 0 0 92.7002 189.1797"
/>
<path stroke="#c0c1c2" vector-effect="non-scaling-stroke" d="
  M 40.19 182.45
  L 40.13 188.89
  A 0.41 0.41 0.0 0 0 40.54 189.30
  L 41.37 189.31
  A 3.46 3.44 0.5 0 0 44.86 185.90
  L 44.86 185.52
  A 3.46 3.44 0.5 0 0 41.43 182.05
  L 40.60 182.04
  A 0.41 0.41 0.0 0 0 40.19 182.45"
/>
<path stroke="#c0c1c2" vector-effect="non-scaling-stroke" d="
  M 102.91 182.39
  L 102.85 188.97
  A 0.40 0.40 0.0 0 0 103.24 189.37
  L 103.98 189.38
  A 3.18 3.00 0.6 0 0 107.19 186.41
  L 107.21 185.03
  A 3.18 3.00 0.6 0 0 104.06 182.00
  L 103.32 181.99
  A 0.40 0.40 0.0 0 0 102.91 182.39"
/>
<path stroke="#c0c1c2" vector-effect="non-scaling-stroke" d="
  M 125.7410 188.2437
  A 1.54 0.71 -6.2 0 0 124.1333 187.7042
  A 1.54 0.71 -6.2 0 0 122.6790 188.5763
  A 1.54 0.71 -6.2 0 0 124.2867 189.1158
  A 1.54 0.71 -6.2 0 0 125.7410 188.2437"
/>
<path stroke="#c0c1c2" vector-effect="non-scaling-stroke" d="
  M 51.3525 188.6500
  A 1.51 0.68 5.7 0 0 49.9175 187.8234
  A 1.51 0.68 5.7 0 0 48.3475 188.3500
  A 1.51 0.68 5.7 0 0 49.7825 189.1766
  A 1.51 0.68 5.7 0 0 51.3525 188.6500"
/>
<path stroke="#c0c1c2" vector-effect="non-scaling-stroke" d="
  M 85.42 186.31
  Q 86.56 186.41 86.64 186.40
  A 0.50 0.50 0.0 0 0 86.98 185.58
  Q 86.33 184.82 85.56 184.75
  Q 84.78 184.68 84.01 185.31
  A 0.50 0.50 0.0 0 0 84.19 186.18
  Q 84.28 186.20 85.42 186.31"
/>
<path stroke="#c0c1c2" vector-effect="non-scaling-stroke" d="
  M 87.76 187.59
  L 83.82 187.81
  A 0.13 0.13 0.0 0 0 83.70 187.95
  L 83.70 188.00
  A 1.63 1.22 -3.3 0 0 85.40 189.13
  L 86.34 189.07
  A 1.63 1.22 -3.3 0 0 87.90 187.76
  L 87.89 187.71
  A 0.13 0.13 0.0 0 0 87.76 187.59"
/>
<path stroke="#c0c1c2" vector-effect="non-scaling-stroke" d="
  M 169.8179 189.2581
  A 2.20 1.88 92.4 0 0 171.7884 187.1387
  A 2.20 1.88 92.4 0 0 170.0021 184.8619
  A 2.20 1.88 92.4 0 0 168.0316 186.9813
  A 2.20 1.88 92.4 0 0 169.8179 189.2581"
/>
<path stroke="#c0c1c2" vector-effect="non-scaling-stroke" d="
  M 113.9868 188.3195
  A 1.60 0.71 -3.6 0 0 112.3454 187.7114
  A 1.60 0.71 -3.6 0 0 110.7932 188.5205
  A 1.60 0.71 -3.6 0 0 112.4346 189.1286
  A 1.60 0.71 -3.6 0 0 113.9868 188.3195"
/>
<path stroke="#c0c1c2" vector-effect="non-scaling-stroke" d="
  M 151.91 186.30
  Q 152.41 186.26 152.91 186.18
  A 0.40 0.40 0.0 0 0 153.21 185.61
  Q 152.75 184.61 151.78 184.69
  Q 150.81 184.77 150.51 185.83
  A 0.40 0.40 0.0 0 0 150.90 186.34
  Q 151.40 186.34 151.91 186.30"
/>
<path stroke="#c0c1c2" vector-effect="non-scaling-stroke" d="
  M 177.71 186.32
  Q 178.65 186.31 178.76 186.29
  A 0.57 0.57 0.0 0 0 179.19 185.58
  Q 178.97 184.72 177.71 184.72
  Q 176.45 184.73 176.23 185.60
  A 0.57 0.57 0.0 0 0 176.67 186.30
  Q 176.78 186.32 177.71 186.32"
/>
<path stroke="#c0c1c2" vector-effect="non-scaling-stroke" d="
  M 199.73 186.28
  Q 200.26 186.28 200.63 186.27
  A 0.55 0.55 0.0 0 0 201.03 185.37
  Q 200.54 184.78 199.71 184.79
  Q 198.89 184.80 198.41 185.39
  A 0.55 0.55 0.0 0 0 198.83 186.29
  Q 199.20 186.29 199.73 186.28"
/>
</g>
<path fill="#ffffff" d="
  M 240.00 0.00
  L 240.00 211.00
  L 0.00 211.00
  L 0.00 0.00
  L 240.00 0.00
  Z
  M 84.73 43.92
  C 84.73 49.08 84.09 53.57 85.70 56.35
  C 88.39 61.01 94.89 61.47 98.83 58.46
  Q 101.80 56.19 101.71 51.21
  A 0.84 0.83 -0.3 0 0 100.87 50.39
  L 97.06 50.39
  A 0.75 0.74 0.0 0 0 96.31 51.13
  L 96.31 53.19
  A 0.88 0.86 61.4 0 1 96.18 53.65
  Q 93.92 57.15 91.02 54.82
  A 2.64 2.62 -72.1 0 1 90.04 52.89
  Q 90.04 52.80 90.04 43.92
  Q 90.05 35.04 90.05 34.94
  A 2.64 2.62 72.2 0 1 91.03 33.02
  Q 93.94 30.69 96.19 34.20
  A 0.88 0.86 -61.4 0 1 96.32 34.66
  L 96.32 36.72
  A 0.75 0.74 0.1 0 0 97.07 37.46
  L 100.88 37.46
  A 0.84 0.83 0.4 0 0 101.72 36.64
  Q 101.82 31.66 98.85 29.39
  C 94.91 26.37 88.41 26.83 85.72 31.48
  C 84.11 34.26 84.73 38.75 84.73 43.92
  Z
  M 173.62 38.32
  A 0.87 0.86 -89.0 0 0 174.48 37.48
  Q 174.78 29.25 168.22 27.79
  C 162.53 26.52 157.40 29.53 157.35 35.76
  Q 157.33 37.22 157.32 49.84
  Q 157.32 54.23 158.17 56.07
  C 161.53 63.28 174.24 61.18 174.35 52.50
  Q 174.43 46.48 174.45 44.00
  A 1.16 1.16 0.0 0 0 173.29 42.84
  L 166.69 42.84
  A 1.12 1.12 0.0 0 0 165.57 43.98
  L 165.63 46.82
  A 0.84 0.84 0.0 0 0 166.76 47.59
  Q 167.02 47.50 168.41 47.50
  A 0.67 0.67 0.0 0 1 169.09 48.17
  L 169.09 52.52
  A 3.11 3.10 1.2 0 1 165.85 55.62
  L 165.60 55.60
  A 3.12 3.12 0.0 0 1 162.64 52.48
  Q 162.64 43.15 162.69 34.76
  Q 162.70 33.89 164.59 32.41
  A 1.38 1.38 0.0 0 1 165.52 32.12
  C 169.01 32.32 168.94 34.77 168.98 37.48
  A 0.85 0.85 0.0 0 0 169.83 38.32
  L 173.62 38.32
  Z
  M 32.04 45.27
  Q 32.58 45.27 33.13 44.11
  Q 35.02 40.06 36.08 38.37
  A 0.26 0.26 0.0 0 1 36.56 38.51
  L 36.56 59.13
  A 0.98 0.97 90.0 0 0 37.53 60.11
  L 40.86 60.11
  A 0.96 0.96 0.0 0 0 41.82 59.15
  L 41.82 28.47
  A 0.65 0.64 90.0 0 0 41.18 27.82
  L 37.47 27.82
  A 1.45 1.42 -74.4 0 0 36.24 28.53
  Q 34.75 31.07 32.48 35.53
  Q 32.34 35.79 32.05 35.79
  Q 31.76 35.79 31.62 35.53
  Q 29.36 31.07 27.87 28.53
  A 1.45 1.42 74.5 0 0 26.64 27.81
  L 22.93 27.81
  A 0.65 0.64 -89.9 0 0 22.29 28.46
  L 22.25 59.14
  A 0.96 0.96 0.0 0 0 23.21 60.10
  L 26.54 60.10
  A 0.98 0.97 -89.9 0 0 27.51 59.12
  L 27.54 38.50
  A 0.26 0.26 0.0 0 1 28.02 38.37
  Q 29.08 40.06 30.97 44.11
  Q 31.51 45.27 32.04 45.27
  Z
  M 54.84 54.47
  Q 56.99 54.47 57.59 54.50
  A 0.82 0.82 0.0 0 1 58.35 55.15
  L 59.16 58.91
  A 1.49 1.48 84.0 0 0 60.61 60.09
  L 63.32 60.09
  A 1.05 1.05 0.0 0 0 64.35 58.82
  L 57.93 28.76
  A 1.12 1.11 85.9 0 0 56.93 27.89
  Q 56.08 27.82 54.85 27.82
  Q 53.61 27.82 52.77 27.89
  A 1.12 1.11 -85.9 0 0 51.77 28.76
  L 45.34 58.82
  A 1.05 1.05 0.0 0 0 46.36 60.09
  L 49.07 60.09
  A 1.49 1.48 -84.0 0 0 50.53 58.91
  L 51.34 55.15
  A 0.82 0.82 0.0 0 1 52.10 54.50
  Q 52.70 54.47 54.84 54.47
  Z
  M 72.90 59.99
  Q 74.60 60.00 74.83 59.99
  A 0.71 0.71 0.0 0 0 75.53 59.28
  L 75.65 33.33
  A 0.69 0.69 0.0 0 1 76.34 32.64
  L 80.99 32.64
  A 0.99 0.99 0.0 0 0 81.97 31.66
  L 81.98 28.92
  A 1.05 1.05 0.0 0 0 80.93 27.86
  Q 77.38 27.85 73.00 27.83
  Q 68.62 27.82 65.07 27.81
  A 1.05 1.05 0.0 0 0 64.02 28.86
  L 64.01 31.60
  A 0.99 0.99 0.0 0 0 64.99 32.59
  L 69.64 32.62
  A 0.69 0.69 0.0 0 1 70.32 33.31
  L 70.28 59.26
  A 0.71 0.71 0.0 0 0 70.97 59.98
  Q 71.21 59.99 72.90 59.99
  Z
  M 106.20 43.95
  Q 106.20 47.96 106.19 59.28
  A 0.81 0.80 90.0 0 0 106.99 60.09
  L 110.78 60.09
  A 0.73 0.73 0.0 0 0 111.51 59.36
  L 111.51 46.86
  A 0.56 0.55 -89.3 0 1 112.08 46.30
  Q 113.42 46.34 114.50 46.34
  Q 115.57 46.34 116.92 46.30
  A 0.56 0.55 89.2 0 1 117.48 46.86
  L 117.49 59.36
  A 0.73 0.73 0.0 0 0 118.22 60.09
  L 122.01 60.09
  A 0.81 0.80 90.0 0 0 122.81 59.27
  Q 122.80 47.95 122.80 43.95
  Q 122.79 39.95 122.80 28.62
  A 0.81 0.80 90.0 0 0 122.00 27.81
  L 118.21 27.81
  A 0.73 0.73 0.0 0 0 117.48 28.54
  L 117.48 41.04
  A 0.56 0.55 -89.3 0 1 116.91 41.60
  Q 115.57 41.57 114.50 41.57
  Q 113.42 41.57 112.08 41.60
  A 0.56 0.55 89.2 0 1 111.51 41.05
  L 111.50 28.55
  A 0.73 0.73 0.0 0 0 110.77 27.82
  L 106.98 27.82
  A 0.81 0.80 90.0 0 0 106.18 28.63
  Q 106.19 39.95 106.20 43.95
  Z
  M 143.11 60.09
  A 0.78 0.78 0.0 0 0 143.89 59.31
  L 143.89 56.04
  A 0.78 0.78 0.0 0 0 143.11 55.26
  L 134.31 55.26
  A 0.78 0.78 0.0 0 1 133.53 54.48
  L 133.53 28.61
  A 0.78 0.78 0.0 0 0 132.75 27.83
  L 128.87 27.83
  A 0.78 0.78 0.0 0 0 128.09 28.61
  L 128.09 59.31
  A 0.78 0.78 0.0 0 0 128.87 60.09
  L 143.11 60.09
  Z
  M 152.58 28.59
  A 0.79 0.79 0.0 0 0 151.79 27.80
  L 147.99 27.80
  A 0.79 0.79 0.0 0 0 147.20 28.59
  L 147.20 59.29
  A 0.79 0.79 0.0 0 0 147.99 60.08
  L 151.79 60.08
  A 0.79 0.79 0.0 0 0 152.58 59.29
  L 152.58 28.59
  Z
  M 179.16 43.93
  Q 179.16 47.94 179.15 59.27
  A 0.81 0.80 -90.0 0 0 179.95 60.08
  L 183.74 60.08
  A 0.73 0.73 0.0 0 0 184.47 59.35
  L 184.48 46.84
  A 0.56 0.55 -89.2 0 1 185.05 46.29
  Q 186.39 46.32 187.47 46.32
  Q 188.54 46.32 189.89 46.29
  A 0.56 0.55 89.3 0 1 190.46 46.85
  L 190.45 59.35
  A 0.73 0.73 0.0 0 0 191.19 60.08
  L 194.98 60.08
  A 0.81 0.80 -90.0 0 0 195.78 59.27
  Q 195.77 47.94 195.77 43.94
  Q 195.78 39.93 195.79 28.60
  A 0.81 0.80 -90.0 0 0 194.99 27.79
  L 191.20 27.79
  A 0.73 0.73 0.0 0 0 190.47 28.52
  L 190.46 41.03
  A 0.56 0.55 -89.2 0 1 189.89 41.58
  Q 188.54 41.55 187.47 41.55
  Q 186.40 41.55 185.05 41.58
  A 0.56 0.55 89.3 0 1 184.48 41.03
  L 184.48 28.52
  A 0.73 0.73 0.0 0 0 183.75 27.79
  L 179.96 27.79
  A 0.81 0.80 -90.0 0 0 179.16 28.60
  Q 179.17 39.93 179.16 43.93
  Z
  M 208.70 60.04
  Q 210.40 60.04 210.64 60.03
  A 0.71 0.71 0.0 0 0 211.33 59.32
  L 211.44 33.32
  A 0.69 0.69 0.0 0 1 212.13 32.63
  L 216.79 32.63
  A 0.99 0.99 0.0 0 0 217.78 31.64
  L 217.78 28.90
  A 1.05 1.05 0.0 0 0 216.73 27.84
  Q 213.18 27.83 208.79 27.81
  Q 204.40 27.80 200.84 27.80
  A 1.05 1.05 0.0 0 0 199.79 28.85
  L 199.78 31.59
  A 0.99 0.99 0.0 0 0 200.76 32.59
  L 205.42 32.61
  A 0.69 0.69 0.0 0 1 206.11 33.31
  L 206.07 59.31
  A 0.71 0.71 0.0 0 0 206.76 60.02
  Q 207.00 60.03 208.70 60.04
  Z
  M 41.80 68.44
  A 0.63 0.63 0.0 0 0 41.17 67.81
  L 22.95 67.81
  A 0.63 0.63 0.0 0 0 22.32 68.44
  L 22.32 72.50
  A 0.63 0.63 0.0 0 0 22.95 73.13
  L 41.17 73.13
  A 0.63 0.63 0.0 0 0 41.80 72.50
  L 41.80 68.44
  Z
  M 22.74 114.94
  L 22.71 121.46
  A 0.59 0.59 0.0 0 0 23.30 122.05
  L 23.55 122.05
  A 0.44 0.44 0.0 0 0 23.99 121.61
  L 23.99 115.12
  A 0.55 0.55 0.0 0 1 24.55 114.57
  Q 25.59 114.59 25.76 114.48
  Q 26.59 113.93 25.86 113.51
  Q 25.41 113.25 24.64 113.39
  A 0.50 0.50 0.0 0 1 24.05 112.92
  Q 23.98 111.40 25.08 110.98
  Q 25.33 110.89 25.90 110.91
  Q 26.62 110.94 26.76 110.86
  A 0.53 0.52 -53.3 0 0 26.62 109.89
  Q 24.58 109.42 23.35 110.58
  A 1.32 1.31 69.6 0 0 22.92 111.53
  Q 22.88 113.51 21.65 113.68
  A 0.45 0.45 0.0 0 0 21.49 114.53
  Q 21.86 114.73 22.10 114.58
  A 0.42 0.42 0.0 0 1 22.74 114.94
  Z
  M 31.2100 122.2900
  A 4.59 4.06 90.0 0 0 35.2700 117.7000
  A 4.59 4.06 90.0 0 0 31.2100 113.1100
  A 4.59 4.06 90.0 0 0 27.1500 117.7000
  A 4.59 4.06 90.0 0 0 31.2100 122.2900
  Z
  M 38.74 121.41
  C 38.66 118.48 37.97 114.32 41.82 114.58
  A 0.43 0.42 -87.6 0 0 42.28 114.15
  L 42.28 113.86
  A 0.70 0.69 -89.6 0 0 41.60 113.16
  Q 40.52 113.15 39.38 114.00
  A 0.62 0.62 0.0 0 1 38.46 113.78
  Q 38.02 112.90 37.40 113.58
  A 0.49 0.48 -23.7 0 0 37.27 113.91
  L 37.27 121.45
  A 0.58 0.57 0.0 0 0 37.85 122.02
  L 38.15 122.02
  A 0.59 0.59 0.0 0 0 38.74 121.41
  Z
  M 201.88 151.70
  C 205.52 154.74 213.48 155.90 216.13 150.60
  C 217.64 147.59 215.65 144.57 212.90 143.60
  Q 211.62 143.14 207.18 141.96
  A 1.19 1.19 0.0 0 1 206.67 139.94
  C 208.33 138.39 212.15 139.78 213.51 140.90
  A 0.52 0.52 0.0 0 0 214.26 140.80
  L 215.74 138.66
  A 0.64 0.64 0.0 0 0 215.59 137.78
  Q 211.99 135.11 207.58 135.72
  C 203.06 136.35 199.81 141.84 203.93 144.85
  C 206.64 146.83 209.22 146.35 211.58 147.76
  A 1.42 1.42 0.0 0 1 211.13 150.37
  Q 206.76 151.23 203.98 148.28
  A 0.36 0.36 0.0 0 0 203.39 148.39
  Q 202.81 149.81 201.82 150.93
  A 0.54 0.53 41.0 0 0 201.88 151.70
  Z
  M 30.88 153.91
  Q 31.78 153.91 32.14 153.90
  A 0.67 0.66 -1.2 0 0 32.78 153.24
  L 32.78 140.04
  A 0.46 0.46 0.0 0 1 33.24 139.58
  L 37.42 139.58
  A 0.60 0.60 0.0 0 0 38.02 138.98
  L 38.02 136.71
  A 0.68 0.68 0.0 0 0 37.33 136.03
  Q 34.32 136.07 30.85 136.06
  Q 27.37 136.08 24.36 136.06
  A 0.68 0.68 0.0 0 0 23.67 136.74
  L 23.68 139.01
  A 0.60 0.60 0.0 0 0 24.28 139.60
  L 28.46 139.59
  A 0.46 0.46 0.0 0 1 28.93 140.05
  L 28.97 153.25
  A 0.67 0.66 1.0 0 0 29.62 153.90
  Q 29.98 153.91 30.88 153.91
  Z
  M 40.88 144.96
  Q 40.88 146.50 40.92 153.34
  A 0.59 0.59 0.0 0 0 41.51 153.92
  L 53.28 153.92
  A 0.45 0.45 0.0 0 0 53.73 153.47
  L 53.73 150.80
  A 0.49 0.49 0.0 0 0 53.24 150.31
  L 45.29 150.31
  A 0.49 0.49 0.0 0 1 44.80 149.82
  L 44.80 147.29
  A 0.48 0.48 0.0 0 1 45.28 146.81
  L 53.01 146.81
  A 0.68 0.68 0.0 0 0 53.69 146.18
  Q 53.71 145.90 53.71 144.96
  Q 53.71 144.03 53.69 143.75
  A 0.68 0.68 0.0 0 0 53.01 143.12
  L 45.28 143.11
  A 0.48 0.48 0.0 0 1 44.80 142.63
  L 44.80 140.10
  A 0.49 0.49 0.0 0 1 45.30 139.61
  L 53.25 139.62
  A 0.49 0.49 0.0 0 0 53.74 139.13
  L 53.74 136.46
  A 0.45 0.45 0.0 0 0 53.29 136.01
  L 41.52 135.99
  A 0.59 0.59 0.0 0 0 40.93 136.57
  Q 40.88 143.41 40.88 144.96
  Z
  M 71.67 153.89
  L 68.05 147.63
  A 0.50 0.50 0.0 0 1 68.25 146.94
  Q 71.38 145.25 71.63 142.23
  C 71.89 139.11 69.36 135.93 66.24 136.01
  Q 60.25 136.16 57.58 135.93
  A 0.46 0.46 0.0 0 0 57.08 136.39
  L 57.08 153.41
  A 0.53 0.52 90.0 0 0 57.60 153.94
  L 60.47 153.94
  A 0.50 0.49 -90.0 0 0 60.96 153.44
  L 60.96 148.25
  A 0.47 0.47 0.0 0 1 61.43 147.78
  L 63.21 147.78
  A 0.80 0.78 74.6 0 1 63.89 148.18
  L 67.03 153.61
  A 0.66 0.64 74.6 0 0 67.59 153.94
  L 71.64 153.94
  A 0.04 0.03 78.3 0 0 71.67 153.89
  Z
  M 75.34 153.80
  Q 76.96 154.04 82.44 153.89
  C 85.23 153.82 87.43 154.24 89.16 151.60
  C 90.86 149.00 89.86 146.64 87.68 145.06
  A 0.62 0.62 0.0 0 1 87.67 144.06
  C 90.09 142.24 90.21 139.79 88.36 137.51
  Q 87.10 135.95 84.05 135.98
  Q 76.35 136.06 75.44 136.03
  A 0.63 0.62 -88.7 0 0 74.79 136.66
  L 74.79 153.16
  A 0.66 0.65 4.7 0 0 75.34 153.80
  Z
  M 97.0754 136.5966
  A 0.57 0.57 0.0 0 0 96.5044 136.0276
  L 93.6844 136.0325
  A 0.57 0.57 0.0 0 0 93.1154 136.6035
  L 93.1446 153.3834
  A 0.57 0.57 0.0 0 0 93.7156 153.9524
  L 96.5356 153.9475
  A 0.57 0.57 0.0 0 0 97.1046 153.3765
  L 97.0754 136.5966
  Z
  M 109.15 154.18
  C 113.21 154.21 116.96 152.35 117.19 147.93
  Q 117.48 142.11 117.35 136.49
  A 0.44 0.44 0.0 0 0 116.91 136.06
  L 113.83 136.06
  A 0.54 0.54 0.0 0 0 113.29 136.59
  Q 113.20 141.88 113.23 146.50
  C 113.25 149.10 111.79 150.66 109.17 150.65
  C 106.54 150.63 105.10 149.05 105.15 146.45
  Q 105.24 141.83 105.21 136.54
  A 0.54 0.54 0.0 0 0 104.67 136.01
  L 101.59 135.97
  A 0.44 0.44 0.0 0 0 101.15 136.40
  Q 100.95 142.01 101.18 147.84
  C 101.35 152.26 105.09 154.16 109.15 154.18
  Z
  M 130.97 153.93
  Q 131.92 153.93 132.39 152.70
  Q 134.61 146.83 136.29 142.64
  A 0.22 0.22 0.0 0 1 136.72 142.72
  L 136.72 153.51
  A 0.40 0.40 0.0 0 0 137.12 153.91
  L 140.42 153.91
  A 0.33 0.33 0.0 0 0 140.75 153.58
  L 140.75 136.55
  A 0.56 0.56 0.0 0 0 140.19 135.99
  L 136.08 135.99
  A 1.44 1.42 -79.6 0 0 134.74 136.93
  Q 133.22 141.05 131.25 146.04
  Q 131.19 146.17 130.96 146.17
  Q 130.72 146.17 130.67 146.04
  Q 128.68 141.06 127.15 136.94
  A 1.44 1.42 79.5 0 0 125.81 136.01
  L 121.70 136.02
  A 0.56 0.56 0.0 0 0 121.14 136.58
  L 121.19 153.61
  A 0.33 0.33 0.0 0 0 121.52 153.94
  L 124.82 153.93
  A 0.40 0.40 0.0 0 0 125.22 153.53
  L 125.19 142.74
  A 0.22 0.22 0.0 0 1 125.62 142.66
  Q 127.31 146.84 129.55 152.70
  Q 130.02 153.93 130.97 153.93
  Z
  M 161.37 153.93
  A 0.62 0.62 0.0 0 0 161.95 153.53
  L 162.86 151.19
  A 0.62 0.62 0.0 0 0 162.28 150.35
  L 156.57 150.35
  A 0.62 0.62 0.0 0 1 155.95 149.73
  L 155.95 136.57
  A 0.62 0.62 0.0 0 0 155.33 135.95
  L 152.69 135.95
  A 0.62 0.62 0.0 0 0 152.07 136.57
  L 152.07 153.31
  A 0.62 0.62 0.0 0 0 152.69 153.93
  L 161.37 153.93
  Z
  M 182.45 153.74
  L 175.85 136.71
  A 1.19 1.18 79.6 0 0 174.74 135.94
  L 171.35 135.94
  A 1.07 1.07 0.0 0 0 170.35 136.63
  L 164.00 153.17
  A 0.54 0.54 0.0 0 0 164.50 153.90
  L 168.11 153.90
  A 0.59 0.59 0.0 0 0 168.70 153.30
  Q 168.68 152.00 169.02 151.48
  A 1.39 1.38 -73.4 0 1 170.18 150.85
  L 176.26 150.86
  A 0.77 0.76 -10.7 0 1 176.97 151.34
  L 177.74 153.33
  A 0.93 0.92 79.3 0 0 178.60 153.92
  L 182.33 153.92
  A 0.13 0.13 0.0 0 0 182.45 153.74
  Z
  M 184.95 153.87
  Q 186.57 154.10 192.07 153.93
  C 194.87 153.84 197.08 154.26 198.80 151.60
  C 200.50 148.98 199.48 146.62 197.29 145.04
  A 0.62 0.62 0.0 0 1 197.27 144.04
  C 199.69 142.20 199.80 139.75 197.94 137.47
  Q 196.67 135.91 193.61 135.95
  Q 185.88 136.07 184.97 136.04
  A 0.63 0.62 -89.0 0 0 184.32 136.67
  L 184.39 153.23
  A 0.66 0.65 4.5 0 0 184.95 153.87
  Z
  M 215.95 165.29
  A 0.37 0.37 0.0 0 0 215.58 164.92
  L 24.44 164.92
  A 0.37 0.37 0.0 0 0 24.07 165.29
  L 24.07 168.47
  A 0.37 0.37 0.0 0 0 24.44 168.84
  L 215.58 168.84
  A 0.37 0.37 0.0 0 0 215.95 168.47
  L 215.95 165.29
  Z
  M 76.04 184.78
  Q 76.31 184.78 77.40 189.98
  A 0.91 0.91 0.0 0 0 78.96 190.41
  C 79.91 189.37 80.47 186.58 81.27 183.63
  C 81.53 182.65 81.99 182.26 82.80 181.59
  A 0.38 0.38 0.0 0 0 82.56 180.92
  L 79.56 180.92
  A 0.47 0.47 0.0 0 0 79.39 181.82
  L 79.83 181.99
  A 0.70 0.69 -60.8 0 1 80.13 183.07
  Q 78.91 184.65 79.09 187.52
  A 0.28 0.27 89.0 0 1 78.82 187.81
  L 78.52 187.81
  A 0.44 0.44 0.0 0 1 78.08 187.43
  Q 77.66 184.58 76.90 181.78
  Q 76.64 180.86 76.04 180.86
  Q 75.44 180.86 75.19 181.78
  Q 74.43 184.58 74.00 187.43
  A 0.44 0.44 0.0 0 1 73.56 187.81
  L 73.26 187.81
  A 0.28 0.27 -88.9 0 1 72.99 187.52
  Q 73.18 184.65 71.96 183.07
  A 0.70 0.69 60.8 0 1 72.26 181.99
  L 72.70 181.82
  A 0.47 0.47 0.0 0 0 72.53 180.92
  L 69.53 180.91
  A 0.38 0.38 0.0 0 0 69.29 181.58
  C 70.10 182.25 70.56 182.65 70.82 183.63
  C 71.61 186.58 72.17 189.37 73.12 190.41
  A 0.91 0.91 0.0 0 0 74.68 189.98
  Q 75.78 184.78 76.04 184.78
  Z
  M 90.50 190.69
  Q 90.72 190.53 90.78 190.27
  A 0.38 0.37 17.2 0 1 91.28 190.01
  L 92.87 190.62
  A 0.76 0.76 0.0 0 0 93.45 190.62
  Q 96.87 189.30 95.96 185.75
  A 1.80 1.68 16.5 0 0 95.46 184.90
  C 94.56 184.06 93.26 183.25 92.19 183.87
  Q 91.69 184.16 91.57 184.16
  A 0.60 0.60 0.0 0 1 90.97 183.47
  Q 91.04 182.98 91.13 182.36
  Q 91.24 181.52 90.94 181.23
  Q 90.31 180.64 89.49 180.91
  A 0.43 0.43 0.0 0 0 89.30 181.60
  Q 89.44 181.75 89.45 181.76
  A 2.00 1.98 -60.6 0 1 89.73 182.78
  L 89.78 190.33
  A 0.45 0.45 0.0 0 0 90.50 190.69
  Z
  M 132.01 181.48
  Q 133.04 181.86 133.10 182.97
  Q 133.11 183.14 133.23 188.60
  A 0.79 0.78 80.5 0 1 132.69 189.36
  L 131.97 189.60
  A 0.29 0.29 0.0 0 0 131.78 189.80
  Q 131.66 190.17 132.13 190.49
  A 0.77 0.76 -31.6 0 0 132.66 190.61
  Q 136.12 190.10 138.53 190.62
  A 0.76 0.75 16.4 0 0 139.39 190.16
  Q 139.57 189.71 139.01 189.28
  A 0.99 0.97 -71.0 0 1 138.63 188.48
  L 138.69 186.10
  A 1.47 1.46 84.8 0 1 139.85 184.70
  L 139.88 184.70
  A 1.05 1.05 0.0 0 1 141.20 185.71
  L 141.20 189.72
  A 0.82 0.81 10.5 0 0 141.73 190.48
  Q 142.42 190.74 143.48 190.43
  A 0.48 0.48 0.0 0 0 143.75 189.71
  Q 142.82 188.30 142.94 186.71
  A 2.68 2.44 80.6 0 0 139.45 183.96
  Q 138.73 184.31 137.02 183.78
  A 0.62 0.54 -2.5 0 0 136.24 184.52
  Q 136.40 184.83 136.78 184.90
  A 0.61 0.61 0.0 0 1 137.28 185.50
  L 137.28 188.43
  A 1.14 1.14 0.0 0 1 136.14 189.57
  L 135.27 189.57
  A 0.93 0.93 0.0 0 1 134.34 188.64
  L 134.34 182.44
  A 0.55 0.54 87.8 0 1 134.84 181.89
  Q 135.26 181.86 135.52 181.65
  A 0.34 0.33 -58.6 0 0 135.38 181.06
  Q 133.58 180.70 132.04 181.06
  A 0.22 0.22 0.0 0 0 132.01 181.48
  Z
  M 155.76 181.63
  Q 155.96 181.74 156.32 181.79
  Q 156.56 181.82 156.51 182.67
  Q 156.30 185.73 156.54 188.18
  A 1.52 1.49 -27.4 0 1 156.17 189.31
  L 155.85 189.67
  A 0.57 0.57 0.0 0 0 156.36 190.61
  Q 159.06 190.20 161.36 190.63
  A 0.70 0.70 0.0 0 0 162.09 190.30
  Q 162.32 189.91 161.78 189.14
  A 0.69 0.68 27.4 0 1 161.65 188.74
  L 161.65 181.55
  A 0.63 0.63 0.0 0 0 161.02 180.92
  L 159.41 180.92
  A 0.40 0.40 0.0 0 0 159.27 181.69
  L 159.58 181.81
  A 0.93 0.93 0.0 0 1 160.18 182.68
  L 160.18 188.73
  A 0.64 0.64 0.0 0 1 159.54 189.37
  L 158.43 189.37
  A 0.58 0.57 -90.0 0 1 157.86 188.79
  L 157.93 181.74
  A 0.72 0.44 49.7 0 0 157.90 181.55
  Q 157.60 180.47 155.81 181.03
  A 0.33 0.32 50.2 0 0 155.76 181.63
  Z
  M 37.78 181.68
  Q 38.28 181.65 38.63 181.86
  Q 38.86 182.00 38.85 182.72
  Q 38.79 187.40 38.97 188.62
  A 0.59 0.58 -8.9 0 1 38.48 189.28
  Q 37.58 189.41 37.49 189.66
  A 0.62 0.62 0.0 0 0 38.01 190.50
  C 42.13 190.86 47.02 190.69 46.16 184.78
  C 45.52 180.42 41.49 180.66 37.73 181.01
  A 0.31 0.31 0.0 0 0 37.45 181.37
  L 37.45 181.42
  A 0.32 0.31 82.9 0 0 37.78 181.68
  Z
  M 61.99 185.74
  L 61.99 181.70
  A 0.79 0.79 0.0 0 0 61.30 180.92
  Q 60.75 180.85 59.60 180.97
  Q 58.98 181.04 59.16 181.45
  Q 59.34 181.84 59.76 181.89
  A 0.57 0.57 0.0 0 1 60.26 182.46
  L 60.26 188.41
  A 0.90 0.89 -11.3 0 1 59.70 189.24
  Q 59.28 189.42 59.20 189.71
  A 0.54 0.54 0.0 0 0 59.52 190.35
  Q 60.82 190.87 62.53 190.33
  A 0.39 0.39 0.0 0 0 62.67 189.67
  Q 61.69 188.77 61.99 187.80
  A 0.48 0.48 0.0 0 1 62.75 187.57
  Q 64.03 188.62 64.86 189.86
  Q 65.73 191.17 66.73 190.33
  A 0.59 0.59 0.0 0 0 66.55 189.33
  Q 65.27 188.86 64.12 186.82
  A 0.70 0.70 0.0 0 1 64.24 185.96
  Q 65.63 184.60 66.21 184.44
  A 0.31 0.31 0.0 0 0 66.13 183.83
  L 63.81 183.83
  A 0.65 0.64 -88.1 0 0 63.17 184.44
  Q 63.08 185.95 62.26 185.99
  A 0.25 0.25 0.0 0 1 61.99 185.74
  Z
  M 101.29 185.68
  Q 101.28 188.43 101.27 188.52
  A 1.04 1.04 0.0 0 1 100.70 189.36
  Q 100.30 189.57 100.27 189.67
  A 0.62 0.62 0.0 0 0 100.84 190.48
  C 104.78 190.63 108.84 190.38 108.86 185.71
  C 108.88 181.04 104.82 180.76 100.88 180.87
  A 0.62 0.62 0.0 0 0 100.31 181.67
  Q 100.34 181.77 100.74 181.98
  A 1.04 1.04 0.0 0 1 101.30 182.83
  Q 101.31 182.92 101.29 185.68
  Z
  M 165.30 181.57
  Q 164.87 180.96 164.43 181.07
  A 0.96 0.95 -48.9 0 0 164.55 182.95
  Q 164.76 182.98 165.05 182.80
  A 0.87 0.86 -33.9 0 0 165.30 181.57
  Z
  M 122.54 185.46
  Q 124.49 183.83 125.91 185.58
  A 0.37 0.37 0.0 0 1 125.56 186.18
  Q 123.06 185.77 120.63 188.90
  A 0.96 0.96 0.0 0 1 118.92 188.31
  L 118.92 185.32
  A 0.51 0.51 0.0 0 1 119.43 184.81
  L 120.67 184.81
  A 0.24 0.24 0.0 0 0 120.91 184.57
  L 120.91 184.26
  A 0.29 0.29 0.0 0 0 120.62 183.97
  L 119.79 183.97
  A 0.88 0.87 -1.0 0 1 118.91 183.13
  Q 118.90 182.99 118.90 182.80
  Q 118.89 182.32 118.66 182.18
  Q 118.29 181.95 117.74 182.14
  A 0.48 0.47 83.2 0 0 117.43 182.54
  Q 117.36 183.39 116.73 184.05
  A 0.54 0.54 0.0 0 0 116.86 184.90
  Q 116.91 184.92 116.95 184.96
  A 1.15 1.14 27.1 0 1 117.28 185.97
  Q 116.96 188.06 117.36 188.83
  Q 118.53 191.04 120.22 190.53
  A 1.16 1.13 -0.7 0 0 121.00 189.75
  L 121.05 189.56
  A 0.41 0.40 37.1 0 1 121.78 189.46
  Q 123.10 191.57 125.02 190.14
  A 0.80 0.79 -55.6 0 1 125.70 190.01
  Q 125.99 190.08 126.45 190.48
  A 0.95 0.88 16.1 0 0 128.01 189.70
  Q 127.92 189.29 127.37 188.87
  A 0.79 0.78 33.7 0 1 127.16 187.86
  Q 127.50 187.25 127.13 185.63
  C 126.57 183.15 123.58 183.27 121.91 184.71
  A 0.34 0.33 -35.8 0 0 121.84 185.12
  L 121.99 185.37
  A 0.36 0.36 0.0 0 0 122.54 185.46
  Z
  M 144.35 184.69
  Q 145.22 185.41 144.79 187.78
  A 2.46 2.46 0.0 0 0 146.61 190.60
  Q 147.54 190.83 148.35 190.14
  A 0.58 0.58 0.0 0 0 147.97 189.12
  L 146.48 189.12
  A 0.60 0.59 6.5 0 1 145.89 188.39
  Q 146.24 186.87 146.01 185.64
  A 0.60 0.60 0.0 0 1 146.48 184.93
  L 147.73 184.66
  A 0.27 0.25 -7.2 0 0 147.94 184.41
  L 147.94 184.01
  A 0.25 0.25 0.0 0 0 147.64 183.77
  L 146.67 183.98
  A 0.60 0.60 0.0 0 1 145.95 183.34
  Q 146.04 182.29 145.57 182.07
  A 0.46 0.45 -72.8 0 0 144.93 182.41
  Q 144.72 183.63 144.34 183.97
  A 0.47 0.47 0.0 0 0 144.35 184.69
  Z
  M 56.10 184.49
  L 55.85 184.05
  A 0.56 0.55 -15.0 0 0 55.37 183.78
  L 54.55 183.78
  A 0.38 0.38 0.0 0 0 54.26 184.41
  Q 55.61 185.95 55.07 188.56
  A 1.06 1.06 0.0 0 1 52.97 188.34
  L 52.97 185.80
  A 1.47 1.44 22.9 0 0 52.54 184.77
  Q 50.46 182.72 47.42 184.45
  A 0.10 0.10 0.0 0 0 47.38 184.53
  L 47.38 185.11
  A 0.51 0.51 0.0 0 0 48.16 185.55
  Q 50.46 184.20 51.26 185.55
  A 0.38 0.38 0.0 0 1 50.87 186.12
  C 49.62 185.91 47.05 187.01 47.00 188.60
  C 46.93 190.48 49.33 191.24 50.96 190.16
  Q 51.31 189.93 51.59 190.05
  Q 51.96 190.20 52.04 190.32
  A 0.82 0.82 0.0 0 0 53.01 190.66
  Q 54.05 190.28 56.56 190.66
  A 0.76 0.76 0.0 0 0 57.02 189.23
  L 56.82 189.13
  A 0.86 0.86 0.0 0 1 56.35 188.29
  Q 56.60 185.47 59.12 184.64
  A 0.41 0.41 0.0 0 0 59.02 183.84
  Q 57.65 183.75 57.02 184.56
  A 0.56 0.55 48.8 0 1 56.10 184.49
  Z
  M 88.30 187.41
  Q 88.94 186.24 87.51 184.65
  C 84.81 181.64 80.48 186.05 82.69 188.94
  Q 85.08 192.05 88.03 189.52
  Q 88.43 189.17 88.41 188.92
  Q 88.38 188.59 88.23 188.15
  A 0.92 0.90 51.2 0 1 88.30 187.41
  Z
  M 167.20 192.62
  Q 170.52 194.96 172.78 191.96
  A 0.94 0.87 -28.1 0 0 172.97 191.41
  L 172.97 185.52
  A 0.70 0.63 -29.3 0 1 173.10 185.13
  L 173.62 184.44
  A 0.53 0.53 0.0 0 0 172.93 183.66
  L 172.15 184.11
  A 0.98 0.97 -43.5 0 1 171.15 184.09
  Q 169.96 183.34 169.01 183.78
  Q 165.83 185.26 167.09 188.82
  A 2.11 2.07 -78.8 0 0 167.62 189.63
  Q 169.50 191.41 171.40 190.14
  A 0.50 0.49 -88.5 0 1 172.07 190.85
  Q 170.54 192.90 167.86 191.70
  A 0.61 0.61 0.0 0 0 167.09 191.94
  L 167.06 191.99
  A 0.48 0.48 0.0 0 0 167.20 192.62
  Z
  M 183.67 188.23
  Q 183.76 187.40 183.86 186.20
  A 1.49 1.40 -80.0 0 1 185.64 184.87
  Q 186.26 185.05 186.55 186.31
  Q 186.65 186.75 186.58 189.95
  A 0.65 0.64 0.4 0 0 187.23 190.60
  L 188.28 190.60
  A 0.55 0.54 75.4 0 0 188.75 189.79
  Q 187.61 187.76 187.91 186.27
  A 2.16 2.15 -1.8 0 0 185.24 183.78
  Q 184.16 184.06 181.70 183.87
  A 0.45 0.45 0.0 0 0 181.56 184.75
  L 181.95 184.85
  A 0.54 0.53 -83.1 0 1 182.35 185.37
  L 182.35 188.80
  A 0.75 0.75 0.0 0 1 181.80 189.52
  Q 181.49 189.60 181.48 189.60
  A 0.45 0.45 0.0 0 0 181.63 190.42
  Q 183.23 190.74 184.59 190.35
  A 0.40 0.39 -37.3 0 0 184.69 189.63
  L 184.24 189.37
  A 1.21 1.20 -71.7 0 1 183.67 188.23
  Z
  M 113.49 186.28
  Q 111.34 185.92 109.49 188.08
  A 0.83 0.82 47.5 0 0 109.45 189.12
  C 110.24 190.18 111.58 191.40 112.94 190.32
  Q 113.68 189.73 114.42 190.32
  Q 114.92 190.71 115.43 190.66
  Q 116.42 190.56 116.48 189.91
  A 0.39 0.37 -70.1 0 0 116.34 189.59
  L 115.79 189.15
  A 1.05 1.04 -64.9 0 1 115.42 188.12
  C 116.19 184.45 113.25 182.29 110.16 184.44
  A 0.53 0.52 -32.6 0 0 110.00 185.14
  L 110.16 185.43
  A 0.35 0.34 52.6 0 0 110.70 185.51
  Q 112.17 184.08 113.90 185.25
  A 0.57 0.57 0.0 0 1 113.49 186.28
  Z
  M 150.61 187.70
  L 153.72 187.71
  A 1.35 1.34 73.6 0 0 154.85 185.63
  C 151.58 180.60 146.35 186.64 150.09 189.86
  C 151.74 191.28 153.45 190.60 154.87 189.30
  C 155.08 189.10 155.06 188.53 154.88 188.34
  A 0.34 0.33 -43.7 0 0 154.38 188.33
  Q 152.89 189.97 150.38 188.61
  A 0.49 0.49 0.0 0 1 150.61 187.70
  Z
  M 163.38 184.57
  Q 164.30 185.53 163.94 188.51
  A 0.76 0.76 0.0 0 1 163.52 189.10
  Q 162.98 189.37 162.76 189.77
  A 0.47 0.47 0.0 0 0 163.14 190.47
  L 165.48 190.62
  A 0.44 0.40 -48.2 0 0 165.66 190.60
  Q 166.66 190.22 165.41 188.85
  A 0.41 0.41 0.0 0 1 165.29 188.56
  L 165.29 184.83
  A 0.72 0.71 -79.0 0 0 164.85 184.17
  Q 163.93 183.77 163.57 183.88
  A 0.42 0.42 0.0 0 0 163.38 184.57
  Z
  M 176.37 187.70
  L 179.50 187.70
  A 1.36 1.35 73.3 0 0 180.63 185.60
  C 177.31 180.55 172.08 186.66 175.86 189.88
  C 177.52 191.30 179.24 190.61 180.67 189.29
  C 180.88 189.09 180.85 188.52 180.67 188.32
  A 0.34 0.33 -44.0 0 0 180.17 188.32
  Q 178.68 189.98 176.14 188.62
  A 0.49 0.49 0.0 0 1 176.37 187.70
  Z
  M 194.95 188.31
  Q 193.69 189.27 191.97 189.15
  A 0.94 0.92 -10.4 0 1 191.20 188.63
  Q 190.07 186.29 192.24 184.93
  A 1.19 1.10 -20.5 0 1 194.02 185.66
  Q 194.12 186.42 195.05 186.70
  A 0.66 0.65 8.6 0 0 195.90 186.08
  L 195.90 184.12
  A 0.30 0.30 0.0 0 0 195.43 183.88
  Q 194.82 184.33 193.61 183.83
  C 190.10 182.38 186.97 188.71 191.96 190.51
  C 193.39 191.03 195.03 189.98 195.67 188.97
  A 0.50 0.50 0.0 0 0 194.95 188.31
  Z
  M 198.39 187.65
  L 201.51 187.77
  A 1.35 1.35 0.0 0 0 202.72 185.71
  C 199.59 180.55 194.15 186.46 197.80 189.81
  C 199.41 191.28 201.15 190.66 202.62 189.39
  C 202.84 189.20 202.83 188.63 202.66 188.43
  A 0.34 0.33 -41.9 0 0 202.16 188.41
  Q 200.61 190.01 198.13 188.56
  A 0.49 0.49 0.0 0 1 198.39 187.65
  Z"
/>
<path fill="#484d53" d="
  M 90.04 43.92
  Q 90.04 52.80 90.04 52.89
  A 2.64 2.62 -72.1 0 0 91.02 54.82
  Q 93.92 57.15 96.18 53.65
  A 0.88 0.86 61.4 0 0 96.31 53.19
  L 96.31 51.13
  A 0.75 0.74 -0.0 0 1 97.06 50.39
  L 100.87 50.39
  A 0.84 0.83 -0.3 0 1 101.71 51.21
  Q 101.80 56.19 98.83 58.46
  C 94.89 61.47 88.39 61.01 85.70 56.35
  C 84.09 53.57 84.73 49.08 84.73 43.92
  C 84.73 38.75 84.11 34.26 85.72 31.48
  C 88.41 26.83 94.91 26.37 98.85 29.39
  Q 101.82 31.66 101.72 36.64
  A 0.84 0.83 0.4 0 1 100.88 37.46
  L 97.07 37.46
  A 0.75 0.74 0.1 0 1 96.32 36.72
  L 96.32 34.66
  A 0.88 0.86 -61.4 0 0 96.19 34.20
  Q 93.94 30.69 91.03 33.02
  A 2.64 2.62 72.2 0 0 90.05 34.94
  Q 90.05 35.04 90.04 43.92
  Z"
/>
<path fill="#484d53" d="
  M 173.62 38.32
  L 169.83 38.32
  A 0.85 0.85 0.0 0 1 168.98 37.48
  C 168.94 34.77 169.01 32.32 165.52 32.12
  A 1.38 1.38 0.0 0 0 164.59 32.41
  Q 162.70 33.89 162.69 34.76
  Q 162.64 43.15 162.64 52.48
  A 3.12 3.12 0.0 0 0 165.60 55.60
  L 165.85 55.62
  A 3.11 3.10 1.2 0 0 169.09 52.52
  L 169.09 48.17
  A 0.67 0.67 0.0 0 0 168.41 47.50
  Q 167.02 47.50 166.76 47.59
  A 0.84 0.84 0.0 0 1 165.63 46.82
  L 165.57 43.98
  A 1.12 1.12 0.0 0 1 166.69 42.84
  L 173.29 42.84
  A 1.16 1.16 0.0 0 1 174.45 44.00
  Q 174.43 46.48 174.35 52.50
  C 174.24 61.18 161.53 63.28 158.17 56.07
  Q 157.32 54.23 157.32 49.84
  Q 157.33 37.22 157.35 35.76
  C 157.40 29.53 162.53 26.52 168.22 27.79
  Q 174.78 29.25 174.48 37.48
  A 0.87 0.86 -89.0 0 1 173.62 38.32
  Z"
/>
<path fill="#484d53" d="
  M 32.05 35.79
  Q 32.34 35.79 32.48 35.53
  Q 34.75 31.07 36.24 28.53
  A 1.45 1.42 -74.4 0 1 37.47 27.82
  L 41.18 27.82
  A 0.65 0.64 90.0 0 1 41.82 28.47
  L 41.82 59.15
  A 0.96 0.96 0.0 0 1 40.86 60.11
  L 37.53 60.11
  A 0.98 0.97 90.0 0 1 36.56 59.13
  L 36.56 38.51
  A 0.26 0.26 0.0 0 0 36.08 38.37
  Q 35.02 40.06 33.13 44.11
  Q 32.58 45.27 32.04 45.27
  Q 31.51 45.27 30.97 44.11
  Q 29.08 40.06 28.02 38.37
  A 0.26 0.26 0.0 0 0 27.54 38.50
  L 27.51 59.12
  A 0.98 0.97 -89.9 0 1 26.54 60.10
  L 23.21 60.10
  A 0.96 0.96 0.0 0 1 22.25 59.14
  L 22.29 28.46
  A 0.65 0.64 -89.9 0 1 22.93 27.81
  L 26.64 27.81
  A 1.45 1.42 74.5 0 1 27.87 28.53
  Q 29.36 31.07 31.62 35.53
  Q 31.76 35.79 32.05 35.79
  Z"
/>
<path fill="#484d53" d="
  M 54.85 27.82
  Q 56.08 27.82 56.93 27.89
  A 1.12 1.11 85.9 0 1 57.93 28.76
  L 64.35 58.82
  A 1.05 1.05 0.0 0 1 63.32 60.09
  L 60.61 60.09
  A 1.49 1.48 84.0 0 1 59.16 58.91
  L 58.35 55.15
  A 0.82 0.82 0.0 0 0 57.59 54.50
  Q 56.99 54.47 54.84 54.47
  Q 52.70 54.47 52.10 54.50
  A 0.82 0.82 0.0 0 0 51.34 55.15
  L 50.53 58.91
  A 1.49 1.48 -84.0 0 1 49.07 60.09
  L 46.36 60.09
  A 1.05 1.05 0.0 0 1 45.34 58.82
  L 51.77 28.76
  A 1.12 1.11 -85.9 0 1 52.77 27.89
  Q 53.61 27.82 54.85 27.82
  Z
  M 52.15 49.85
  A 0.32 0.32 0.0 0 0 52.47 50.22
  L 57.09 50.22
  A 0.32 0.32 0.0 0 0 57.41 49.85
  L 55.10 36.50
  A 0.32 0.32 0.0 0 0 54.46 36.50
  L 52.15 49.85
  Z"
/>
<path fill="#484d53" d="
  M 72.90 59.99
  Q 71.21 59.99 70.97 59.98
  A 0.71 0.71 0.0 0 1 70.28 59.26
  L 70.32 33.31
  A 0.69 0.69 0.0 0 0 69.64 32.62
  L 64.99 32.59
  A 0.99 0.99 0.0 0 1 64.01 31.60
  L 64.02 28.86
  A 1.05 1.05 0.0 0 1 65.07 27.81
  Q 68.62 27.82 73.00 27.83
  Q 77.38 27.85 80.93 27.86
  A 1.05 1.05 0.0 0 1 81.98 28.92
  L 81.97 31.66
  A 0.99 0.99 0.0 0 1 80.99 32.64
  L 76.34 32.64
  A 0.69 0.69 0.0 0 0 75.65 33.33
  L 75.53 59.28
  A 0.71 0.71 0.0 0 1 74.83 59.99
  Q 74.60 60.00 72.90 59.99
  Z"
/>
<path fill="#484d53" d="
  M 114.50 41.57
  Q 115.57 41.57 116.91 41.60
  A 0.56 0.55 -89.3 0 0 117.48 41.04
  L 117.48 28.54
  A 0.73 0.73 0.0 0 1 118.21 27.81
  L 122.00 27.81
  A 0.81 0.80 90.0 0 1 122.80 28.62
  Q 122.79 39.95 122.80 43.95
  Q 122.80 47.95 122.81 59.27
  A 0.81 0.80 90.0 0 1 122.01 60.09
  L 118.22 60.09
  A 0.73 0.73 0.0 0 1 117.49 59.36
  L 117.48 46.86
  A 0.56 0.55 89.2 0 0 116.92 46.30
  Q 115.57 46.34 114.50 46.34
  Q 113.42 46.34 112.08 46.30
  A 0.56 0.55 -89.3 0 0 111.51 46.86
  L 111.51 59.36
  A 0.73 0.73 0.0 0 1 110.78 60.09
  L 106.99 60.09
  A 0.81 0.80 90.0 0 1 106.19 59.28
  Q 106.20 47.96 106.20 43.95
  Q 106.19 39.95 106.18 28.63
  A 0.81 0.80 90.0 0 1 106.98 27.82
  L 110.77 27.82
  A 0.73 0.73 0.0 0 1 111.50 28.55
  L 111.51 41.05
  A 0.56 0.55 89.2 0 0 112.08 41.60
  Q 113.42 41.57 114.50 41.57
  Z"
/>
<path fill="#484d53" d="
  M 143.11 60.09
  L 128.87 60.09
  A 0.78 0.78 0.0 0 1 128.09 59.31
  L 128.09 28.61
  A 0.78 0.78 0.0 0 1 128.87 27.83
  L 132.75 27.83
  A 0.78 0.78 0.0 0 1 133.53 28.61
  L 133.53 54.48
  A 0.78 0.78 0.0 0 0 134.31 55.26
  L 143.11 55.26
  A 0.78 0.78 0.0 0 1 143.89 56.04
  L 143.89 59.31
  A 0.78 0.78 0.0 0 1 143.11 60.09
  Z"
/>
<rect fill="#484d53" x="147.20" y="27.80" width="5.38" height="32.28" rx="0.79"/>
<path fill="#484d53" d="
  M 179.16 43.93
  Q 179.17 39.93 179.16 28.60
  A 0.81 0.80 -90.0 0 1 179.96 27.79
  L 183.75 27.79
  A 0.73 0.73 0.0 0 1 184.48 28.52
  L 184.48 41.03
  A 0.56 0.55 89.3 0 0 185.05 41.58
  Q 186.40 41.55 187.47 41.55
  Q 188.54 41.55 189.89 41.58
  A 0.56 0.55 -89.2 0 0 190.46 41.03
  L 190.47 28.52
  A 0.73 0.73 0.0 0 1 191.20 27.79
  L 194.99 27.79
  A 0.81 0.80 -90.0 0 1 195.79 28.60
  Q 195.78 39.93 195.77 43.94
  Q 195.77 47.94 195.78 59.27
  A 0.81 0.80 -90.0 0 1 194.98 60.08
  L 191.19 60.08
  A 0.73 0.73 0.0 0 1 190.45 59.35
  L 190.46 46.85
  A 0.56 0.55 89.3 0 0 189.89 46.29
  Q 188.54 46.32 187.47 46.32
  Q 186.39 46.32 185.05 46.29
  A 0.56 0.55 -89.2 0 0 184.48 46.84
  L 184.47 59.35
  A 0.73 0.73 0.0 0 1 183.74 60.08
  L 179.95 60.08
  A 0.81 0.80 -90.0 0 1 179.15 59.27
  Q 179.16 47.94 179.16 43.93
  Z"
/>
<path fill="#484d53" d="
  M 208.79 27.81
  Q 213.18 27.83 216.73 27.84
  A 1.05 1.05 0.0 0 1 217.78 28.90
  L 217.78 31.64
  A 0.99 0.99 0.0 0 1 216.79 32.63
  L 212.13 32.63
  A 0.69 0.69 0.0 0 0 211.44 33.32
  L 211.33 59.32
  A 0.71 0.71 0.0 0 1 210.64 60.03
  Q 210.40 60.04 208.70 60.04
  Q 207.00 60.03 206.76 60.02
  A 0.71 0.71 0.0 0 1 206.07 59.31
  L 206.11 33.31
  A 0.69 0.69 0.0 0 0 205.42 32.61
  L 200.76 32.59
  A 0.99 0.99 0.0 0 1 199.78 31.59
  L 199.79 28.85
  A 1.05 1.05 0.0 0 1 200.84 27.80
  Q 204.40 27.80 208.79 27.81
  Z"
/>
<path fill="#ffffff" d="
  M 52.15 49.85
  L 54.46 36.50
  A 0.32 0.32 0.0 0 1 55.10 36.50
  L 57.41 49.85
  A 0.32 0.32 0.0 0 1 57.09 50.22
  L 52.47 50.22
  A 0.32 0.32 0.0 0 1 52.15 49.85
  Z"
/>
<rect fill="#0092c8" x="22.32" y="67.81" width="19.48" height="5.32" rx="0.63"/>
<path fill="#484d53" d="
  M 22.10 114.58
  Q 21.86 114.73 21.49 114.53
  A 0.45 0.45 0.0 0 1 21.65 113.68
  Q 22.88 113.51 22.92 111.53
  A 1.32 1.31 69.6 0 1 23.35 110.58
  Q 24.58 109.42 26.62 109.89
  A 0.53 0.52 -53.3 0 1 26.76 110.86
  Q 26.62 110.94 25.90 110.91
  Q 25.33 110.89 25.08 110.98
  Q 23.98 111.40 24.05 112.92
  A 0.50 0.50 0.0 0 0 24.64 113.39
  Q 25.41 113.25 25.86 113.51
  Q 26.59 113.93 25.76 114.48
  Q 25.59 114.59 24.55 114.57
  A 0.55 0.55 0.0 0 0 23.99 115.12
  L 23.99 121.61
  A 0.44 0.44 0.0 0 1 23.55 122.05
  L 23.30 122.05
  A 0.59 0.59 0.0 0 1 22.71 121.46
  L 22.74 114.94
  A 0.42 0.42 0.0 0 0 22.10 114.58
  Z"
/>
<path fill="#6e6f72" d="
  M 31.2100 122.2900
  A 4.59 4.06 90.0 0 1 27.1500 117.7000
  A 4.59 4.06 90.0 0 1 31.2100 113.1100
  A 4.59 4.06 90.0 0 1 35.2700 117.7000
  A 4.59 4.06 90.0 0 1 31.2100 122.2900
  Z
  M 31.1522 121.1597
  A 3.42 2.59 90.8 0 0 33.7897 117.7762
  A 3.42 2.59 90.8 0 0 31.2478 114.3203
  A 3.42 2.59 90.8 0 0 28.6103 117.7038
  A 3.42 2.59 90.8 0 0 31.1522 121.1597
  Z"
/>
<path fill="#6e6f72" d="
  M 38.74 121.41
  A 0.59 0.59 0.0 0 1 38.15 122.02
  L 37.85 122.02
  A 0.58 0.57 0.0 0 1 37.27 121.45
  L 37.27 113.91
  A 0.49 0.48 -23.7 0 1 37.40 113.58
  Q 38.02 112.90 38.46 113.78
  A 0.62 0.62 0.0 0 0 39.38 114.00
  Q 40.52 113.15 41.60 113.16
  A 0.70 0.69 -89.6 0 1 42.28 113.86
  L 42.28 114.15
  A 0.43 0.42 -87.6 0 1 41.82 114.58
  C 37.97 114.32 38.66 118.48 38.74 121.41
  Z"
/>
<ellipse fill="#ffffff" cx="0.00" cy="0.00" transform="translate(31.20,117.74) rotate(90.8)" rx="3.42" ry="2.59"/>
<path fill="#6e6f72" d="
  M 201.88 151.70
  A 0.54 0.53 41.0 0 1 201.82 150.93
  Q 202.81 149.81 203.39 148.39
  A 0.36 0.36 0.0 0 1 203.98 148.28
  Q 206.76 151.23 211.13 150.37
  A 1.42 1.42 0.0 0 0 211.58 147.76
  C 209.22 146.35 206.64 146.83 203.93 144.85
  C 199.81 141.84 203.06 136.35 207.58 135.72
  Q 211.99 135.11 215.59 137.78
  A 0.64 0.64 0.0 0 1 215.74 138.66
  L 214.26 140.80
  A 0.52 0.52 0.0 0 1 213.51 140.90
  C 212.15 139.78 208.33 138.39 206.67 139.94
  A 1.19 1.19 0.0 0 0 207.18 141.96
  Q 211.62 143.14 212.90 143.60
  C 215.65 144.57 217.64 147.59 216.13 150.60
  C 213.48 155.90 205.52 154.74 201.88 151.70
  Z"
/>
<path fill="#6e6f72" d="
  M 30.85 136.06
  Q 34.32 136.07 37.33 136.03
  A 0.68 0.68 0.0 0 1 38.02 136.71
  L 38.02 138.98
  A 0.60 0.60 0.0 0 1 37.42 139.58
  L 33.24 139.58
  A 0.46 0.46 0.0 0 0 32.78 140.04
  L 32.78 153.24
  A 0.67 0.66 -1.2 0 1 32.14 153.90
  Q 31.78 153.91 30.88 153.91
  Q 29.98 153.91 29.62 153.90
  A 0.67 0.66 1.0 0 1 28.97 153.25
  L 28.93 140.05
  A 0.46 0.46 0.0 0 0 28.46 139.59
  L 24.28 139.60
  A 0.60 0.60 0.0 0 1 23.68 139.01
  L 23.67 136.74
  A 0.68 0.68 0.0 0 1 24.36 136.06
  Q 27.37 136.08 30.85 136.06
  Z"
/>
<path fill="#6e6f72" d="
  M 53.71 144.96
  Q 53.71 145.90 53.69 146.18
  A 0.68 0.68 0.0 0 1 53.01 146.81
  L 45.28 146.81
  A 0.48 0.48 0.0 0 0 44.80 147.29
  L 44.80 149.82
  A 0.49 0.49 0.0 0 0 45.29 150.31
  L 53.24 150.31
  A 0.49 0.49 0.0 0 1 53.73 150.80
  L 53.73 153.47
  A 0.45 0.45 0.0 0 1 53.28 153.92
  L 41.51 153.92
  A 0.59 0.59 0.0 0 1 40.92 153.34
  Q 40.88 146.50 40.88 144.96
  Q 40.88 143.41 40.93 136.57
  A 0.59 0.59 0.0 0 1 41.52 135.99
  L 53.29 136.01
  A 0.45 0.45 0.0 0 1 53.74 136.46
  L 53.74 139.13
  A 0.49 0.49 0.0 0 1 53.25 139.62
  L 45.30 139.61
  A 0.49 0.49 0.0 0 0 44.80 140.10
  L 44.80 142.63
  A 0.48 0.48 0.0 0 0 45.28 143.11
  L 53.01 143.12
  A 0.68 0.68 0.0 0 1 53.69 143.75
  Q 53.71 144.03 53.71 144.96
  Z"
/>
<path fill="#6e6f72" d="
  M 71.67 153.89
  A 0.04 0.03 78.3 0 1 71.64 153.94
  L 67.59 153.94
  A 0.66 0.64 74.6 0 1 67.03 153.61
  L 63.89 148.18
  A 0.80 0.78 74.6 0 0 63.21 147.78
  L 61.43 147.78
  A 0.47 0.47 0.0 0 0 60.96 148.25
  L 60.96 153.44
  A 0.50 0.49 -90.0 0 1 60.47 153.94
  L 57.60 153.94
  A 0.53 0.52 90.0 0 1 57.08 153.41
  L 57.08 136.39
  A 0.46 0.46 0.0 0 1 57.58 135.93
  Q 60.25 136.16 66.24 136.01
  C 69.36 135.93 71.89 139.11 71.63 142.23
  Q 71.38 145.25 68.25 146.94
  A 0.50 0.50 0.0 0 0 68.05 147.63
  L 71.67 153.89
  Z
  M 60.94 139.98
  L 60.90 143.68
  A 0.42 0.42 0.0 0 0 61.32 144.11
  L 65.04 144.14
  A 2.28 2.10 0.5 0 0 67.34 142.06
  L 67.34 141.72
  A 2.28 2.10 0.5 0 0 65.08 139.60
  L 61.36 139.57
  A 0.42 0.42 0.0 0 0 60.94 139.98
  Z"
/>
<path fill="#6e6f72" d="
  M 74.79 153.16
  L 74.79 136.66
  A 0.63 0.62 -88.7 0 1 75.44 136.03
  Q 76.35 136.06 84.05 135.98
  Q 87.10 135.95 88.36 137.51
  C 90.21 139.79 90.09 142.24 87.67 144.06
  A 0.62 0.62 0.0 0 0 87.68 145.06
  C 89.86 146.64 90.86 149.00 89.16 151.60
  C 87.43 154.24 85.23 153.82 82.44 153.89
  Q 76.96 154.04 75.34 153.80
  A 0.66 0.65 4.7 0 1 74.79 153.16
  Z
  M 78.82 140.15
  L 78.86 142.65
  A 0.49 0.49 0.0 0 0 79.36 143.13
  L 83.62 143.05
  A 1.71 1.56 -1.0 0 0 85.30 141.46
  L 85.30 141.10
  A 1.71 1.56 -1.0 0 0 83.56 139.57
  L 79.30 139.65
  A 0.49 0.49 0.0 0 0 78.82 140.15
  Z
  M 78.83 147.09
  L 78.87 150.03
  A 0.35 0.35 0.0 0 0 79.23 150.37
  L 83.76 150.31
  A 2.06 1.75 -0.8 0 0 85.79 148.53
  L 85.79 148.39
  A 2.06 1.75 -0.8 0 0 83.70 146.67
  L 79.17 146.73
  A 0.35 0.35 0.0 0 0 78.83 147.09
  Z"
/>
<rect fill="#6e6f72" x="-1.98" y="-8.96" transform="translate(95.11,144.99) rotate(-0.1)" width="3.96" height="17.92" rx="0.57"/>
<path fill="#6e6f72" d="
  M 109.17 150.65
  C 111.79 150.66 113.25 149.10 113.23 146.50
  Q 113.20 141.88 113.29 136.59
  A 0.54 0.54 0.0 0 1 113.83 136.06
  L 116.91 136.06
  A 0.44 0.44 0.0 0 1 117.35 136.49
  Q 117.48 142.11 117.19 147.93
  C 116.96 152.35 113.21 154.21 109.15 154.18
  C 105.09 154.16 101.35 152.26 101.18 147.84
  Q 100.95 142.01 101.15 136.40
  A 0.44 0.44 0.0 0 1 101.59 135.97
  L 104.67 136.01
  A 0.54 0.54 0.0 0 1 105.21 136.54
  Q 105.24 141.83 105.15 146.45
  C 105.10 149.05 106.54 150.63 109.17 150.65
  Z"
/>
<path fill="#6e6f72" d="
  M 130.96 146.17
  Q 131.19 146.17 131.25 146.04
  Q 133.22 141.05 134.74 136.93
  A 1.44 1.42 -79.6 0 1 136.08 135.99
  L 140.19 135.99
  A 0.56 0.56 0.0 0 1 140.75 136.55
  L 140.75 153.58
  A 0.33 0.33 0.0 0 1 140.42 153.91
  L 137.12 153.91
  A 0.40 0.40 0.0 0 1 136.72 153.51
  L 136.72 142.72
  A 0.22 0.22 0.0 0 0 136.29 142.64
  Q 134.61 146.83 132.39 152.70
  Q 131.92 153.93 130.97 153.93
  Q 130.02 153.93 129.55 152.70
  Q 127.31 146.84 125.62 142.66
  A 0.22 0.22 0.0 0 0 125.19 142.74
  L 125.22 153.53
  A 0.40 0.40 0.0 0 1 124.82 153.93
  L 121.52 153.94
  A 0.33 0.33 0.0 0 1 121.19 153.61
  L 121.14 136.58
  A 0.56 0.56 0.0 0 1 121.70 136.02
  L 125.81 136.01
  A 1.44 1.42 79.5 0 1 127.15 136.94
  Q 128.68 141.06 130.67 146.04
  Q 130.72 146.17 130.96 146.17
  Z"
/>
<path fill="#6e6f72" d="
  M 161.37 153.93
  L 152.69 153.93
  A 0.62 0.62 0.0 0 1 152.07 153.31
  L 152.07 136.57
  A 0.62 0.62 0.0 0 1 152.69 135.95
  L 155.33 135.95
  A 0.62 0.62 0.0 0 1 155.95 136.57
  L 155.95 149.73
  A 0.62 0.62 0.0 0 0 156.57 150.35
  L 162.28 150.35
  A 0.62 0.62 0.0 0 1 162.86 151.19
  L 161.95 153.53
  A 0.62 0.62 0.0 0 1 161.37 153.93
  Z"
/>
<path fill="#6e6f72" d="
  M 182.45 153.74
  A 0.13 0.13 0.0 0 1 182.33 153.92
  L 178.60 153.92
  A 0.93 0.92 79.3 0 1 177.74 153.33
  L 176.97 151.34
  A 0.77 0.76 -10.7 0 0 176.26 150.86
  L 170.18 150.85
  A 1.39 1.38 -73.4 0 0 169.02 151.48
  Q 168.68 152.00 168.70 153.30
  A 0.59 0.59 0.0 0 1 168.11 153.90
  L 164.50 153.90
  A 0.54 0.54 0.0 0 1 164.00 153.17
  L 170.35 136.63
  A 1.07 1.07 0.0 0 1 171.35 135.94
  L 174.74 135.94
  A 1.19 1.18 79.6 0 1 175.85 136.71
  L 182.45 153.74
  Z
  M 170.74 146.60
  A 0.45 0.45 0.0 0 0 171.15 147.21
  L 175.04 147.30
  A 0.45 0.45 0.0 0 0 175.47 146.71
  L 173.66 141.21
  A 0.45 0.45 0.0 0 0 172.81 141.19
  L 170.74 146.60
  Z"
/>
<path fill="#6e6f72" d="
  M 184.95 153.87
  A 0.66 0.65 4.5 0 1 184.39 153.23
  L 184.32 136.67
  A 0.63 0.62 -89.0 0 1 184.97 136.04
  Q 185.88 136.07 193.61 135.95
  Q 196.67 135.91 197.94 137.47
  C 199.80 139.75 199.69 142.20 197.27 144.04
  A 0.62 0.62 0.0 0 0 197.29 145.04
  C 199.48 146.62 200.50 148.98 198.80 151.60
  C 197.08 154.26 194.87 153.84 192.07 153.93
  Q 186.57 154.10 184.95 153.87
  Z
  M 188.58 140.00
  L 188.64 142.80
  A 0.34 0.34 0.0 0 0 188.99 143.13
  L 193.15 143.04
  A 2.06 1.70 -1.2 0 0 195.17 141.30
  L 195.17 141.22
  A 2.06 1.70 -1.2 0 0 193.07 139.56
  L 188.91 139.65
  A 0.34 0.34 0.0 0 0 188.58 140.00
  Z
  M 188.61 147.08
  L 188.63 150.02
  A 0.35 0.35 0.0 0 0 188.99 150.37
  L 193.79 150.32
  A 1.72 1.59 89.5 0 0 195.36 148.59
  L 195.36 148.39
  A 1.72 1.59 89.5 0 0 193.75 146.68
  L 188.95 146.73
  A 0.35 0.35 0.0 0 0 188.61 147.08
  Z"
/>
<path fill="#ffffff" d="
  M 60.94 139.98
  A 0.42 0.42 0.0 0 1 61.36 139.57
  L 65.08 139.60
  A 2.28 2.10 0.5 0 1 67.34 141.72
  L 67.34 142.06
  A 2.28 2.10 0.5 0 1 65.04 144.14
  L 61.32 144.11
  A 0.42 0.42 0.0 0 1 60.90 143.68
  L 60.94 139.98
  Z"
/>
<path fill="#ffffff" d="
  M 78.82 140.15
  A 0.49 0.49 0.0 0 1 79.30 139.65
  L 83.56 139.57
  A 1.71 1.56 -1.0 0 1 85.30 141.10
  L 85.30 141.46
  A 1.71 1.56 -1.0 0 1 83.62 143.05
  L 79.36 143.13
  A 0.49 0.49 0.0 0 1 78.86 142.65
  L 78.82 140.15
  Z"
/>
<path fill="#ffffff" d="
  M 188.58 140.00
  A 0.34 0.34 0.0 0 1 188.91 139.65
  L 193.07 139.56
  A 2.06 1.70 -1.2 0 1 195.17 141.22
  L 195.17 141.30
  A 2.06 1.70 -1.2 0 1 193.15 143.04
  L 188.99 143.13
  A 0.34 0.34 0.0 0 1 188.64 142.80
  L 188.58 140.00
  Z"
/>
<path fill="#ffffff" d="
  M 170.74 146.60
  L 172.81 141.19
  A 0.45 0.45 0.0 0 1 173.66 141.21
  L 175.47 146.71
  A 0.45 0.45 0.0 0 1 175.04 147.30
  L 171.15 147.21
  A 0.45 0.45 0.0 0 1 170.74 146.60
  Z"
/>
<path fill="#ffffff" d="
  M 78.83 147.09
  A 0.35 0.35 0.0 0 1 79.17 146.73
  L 83.70 146.67
  A 2.06 1.75 -0.8 0 1 85.79 148.39
  L 85.79 148.53
  A 2.06 1.75 -0.8 0 1 83.76 150.31
  L 79.23 150.37
  A 0.35 0.35 0.0 0 1 78.87 150.03
  L 78.83 147.09
  Z"
/>
<path fill="#ffffff" d="
  M 188.61 147.08
  A 0.35 0.35 0.0 0 1 188.95 146.73
  L 193.75 146.68
  A 1.72 1.59 89.5 0 1 195.36 148.39
  L 195.36 148.59
  A 1.72 1.59 89.5 0 1 193.79 150.32
  L 188.99 150.37
  A 0.35 0.35 0.0 0 1 188.63 150.02
  L 188.61 147.08
  Z"
/>
<rect fill="#f36239" x="24.07" y="164.92" width="191.88" height="3.92" rx="0.37"/>
<path fill="#818285" d="
  M 76.04 180.86
  Q 76.64 180.86 76.90 181.78
  Q 77.66 184.58 78.08 187.43
  A 0.44 0.44 0.0 0 0 78.52 187.81
  L 78.82 187.81
  A 0.28 0.27 89.0 0 0 79.09 187.52
  Q 78.91 184.65 80.13 183.07
  A 0.70 0.69 -60.8 0 0 79.83 181.99
  L 79.39 181.82
  A 0.47 0.47 0.0 0 1 79.56 180.92
  L 82.56 180.92
  A 0.38 0.38 0.0 0 1 82.80 181.59
  C 81.99 182.26 81.53 182.65 81.27 183.63
  C 80.47 186.58 79.91 189.37 78.96 190.41
  A 0.91 0.91 0.0 0 1 77.40 189.98
  Q 76.31 184.78 76.04 184.78
  Q 75.78 184.78 74.68 189.98
  A 0.91 0.91 0.0 0 1 73.12 190.41
  C 72.17 189.37 71.61 186.58 70.82 183.63
  C 70.56 182.65 70.10 182.25 69.29 181.58
  A 0.38 0.38 0.0 0 1 69.53 180.91
  L 72.53 180.92
  A 0.47 0.47 0.0 0 1 72.70 181.82
  L 72.26 181.99
  A 0.70 0.69 60.8 0 0 71.96 183.07
  Q 73.18 184.65 72.99 187.52
  A 0.28 0.27 -88.9 0 0 73.26 187.81
  L 73.56 187.81
  A 0.44 0.44 0.0 0 0 74.00 187.43
  Q 74.43 184.58 75.19 181.78
  Q 75.44 180.86 76.04 180.86
  Z"
/>
<path fill="#818285" d="
  M 90.50 190.69
  A 0.45 0.45 0.0 0 1 89.78 190.33
  L 89.73 182.78
  A 2.00 1.98 -60.6 0 0 89.45 181.76
  Q 89.44 181.75 89.30 181.60
  A 0.43 0.43 0.0 0 1 89.49 180.91
  Q 90.31 180.64 90.94 181.23
  Q 91.24 181.52 91.13 182.36
  Q 91.04 182.98 90.97 183.47
  A 0.60 0.60 0.0 0 0 91.57 184.16
  Q 91.69 184.16 92.19 183.87
  C 93.26 183.25 94.56 184.06 95.46 184.90
  A 1.80 1.68 16.5 0 1 95.96 185.75
  Q 96.87 189.30 93.45 190.62
  A 0.76 0.76 0.0 0 1 92.87 190.62
  L 91.28 190.01
  A 0.38 0.37 17.2 0 0 90.78 190.27
  Q 90.72 190.53 90.50 190.69
  Z
  M 92.7002 189.1797
  A 2.15 1.88 95.6 0 0 94.7810 187.2235
  A 2.15 1.88 95.6 0 0 93.1198 184.9003
  A 2.15 1.88 95.6 0 0 91.0390 186.8565
  A 2.15 1.88 95.6 0 0 92.7002 189.1797
  Z"
/>
<path fill="#818285" d="
  M 132.04 181.06
  Q 133.58 180.70 135.38 181.06
  A 0.34 0.33 -58.6 0 1 135.52 181.65
  Q 135.26 181.86 134.84 181.89
  A 0.55 0.54 87.8 0 0 134.34 182.44
  L 134.34 188.64
  A 0.93 0.93 0.0 0 0 135.27 189.57
  L 136.14 189.57
  A 1.14 1.14 0.0 0 0 137.28 188.43
  L 137.28 185.50
  A 0.61 0.61 0.0 0 0 136.78 184.90
  Q 136.40 184.83 136.24 184.52
  A 0.62 0.54 -2.5 0 1 137.02 183.78
  Q 138.73 184.31 139.45 183.96
  A 2.68 2.44 80.6 0 1 142.94 186.71
  Q 142.82 188.30 143.75 189.71
  A 0.48 0.48 0.0 0 1 143.48 190.43
  Q 142.42 190.74 141.73 190.48
  A 0.82 0.81 10.5 0 1 141.20 189.72
  L 141.20 185.71
  A 1.05 1.05 0.0 0 0 139.88 184.70
  L 139.85 184.70
  A 1.47 1.46 84.8 0 0 138.69 186.10
  L 138.63 188.48
  A 0.99 0.97 -71.0 0 0 139.01 189.28
  Q 139.57 189.71 139.39 190.16
  A 0.76 0.75 16.4 0 1 138.53 190.62
  Q 136.12 190.10 132.66 190.61
  A 0.77 0.76 -31.6 0 1 132.13 190.49
  Q 131.66 190.17 131.78 189.80
  A 0.29 0.29 0.0 0 1 131.97 189.60
  L 132.69 189.36
  A 0.79 0.78 80.5 0 0 133.23 188.60
  Q 133.11 183.14 133.10 182.97
  Q 133.04 181.86 132.01 181.48
  A 0.22 0.22 0.0 0 1 132.04 181.06
  Z"
/>
<path fill="#818285" d="
  M 155.81 181.03
  Q 157.60 180.47 157.90 181.55
  A 0.72 0.44 49.7 0 1 157.93 181.74
  L 157.86 188.79
  A 0.58 0.57 -90.0 0 0 158.43 189.37
  L 159.54 189.37
  A 0.64 0.64 0.0 0 0 160.18 188.73
  L 160.18 182.68
  A 0.93 0.93 0.0 0 0 159.58 181.81
  L 159.27 181.69
  A 0.40 0.40 0.0 0 1 159.41 180.92
  L 161.02 180.92
  A 0.63 0.63 0.0 0 1 161.65 181.55
  L 161.65 188.74
  A 0.69 0.68 27.4 0 0 161.78 189.14
  Q 162.32 189.91 162.09 190.30
  A 0.70 0.70 0.0 0 1 161.36 190.63
  Q 159.06 190.20 156.36 190.61
  A 0.57 0.57 0.0 0 1 155.85 189.67
  L 156.17 189.31
  A 1.52 1.49 -27.4 0 0 156.54 188.18
  Q 156.30 185.73 156.51 182.67
  Q 156.56 181.82 156.32 181.79
  Q 155.96 181.74 155.76 181.63
  A 0.33 0.32 50.2 0 1 155.81 181.03
  Z"
/>
<path fill="#818285" d="
  M 37.78 181.68
  A 0.32 0.31 82.9 0 1 37.45 181.42
  L 37.45 181.37
  A 0.31 0.31 0.0 0 1 37.73 181.01
  C 41.49 180.66 45.52 180.42 46.16 184.78
  C 47.02 190.69 42.13 190.86 38.01 190.50
  A 0.62 0.62 0.0 0 1 37.49 189.66
  Q 37.58 189.41 38.48 189.28
  A 0.59 0.58 -8.9 0 0 38.97 188.62
  Q 38.79 187.40 38.85 182.72
  Q 38.86 182.00 38.63 181.86
  Q 38.28 181.65 37.78 181.68
  Z
  M 40.19 182.45
  L 40.13 188.89
  A 0.41 0.41 0.0 0 0 40.54 189.30
  L 41.37 189.31
  A 3.46 3.44 0.5 0 0 44.86 185.90
  L 44.86 185.52
  A 3.46 3.44 0.5 0 0 41.43 182.05
  L 40.60 182.04
  A 0.41 0.41 0.0 0 0 40.19 182.45
  Z"
/>
<path fill="#818285" d="
  M 62.26 185.99
  Q 63.08 185.95 63.17 184.44
  A 0.65 0.64 -88.1 0 1 63.81 183.83
  L 66.13 183.83
  A 0.31 0.31 0.0 0 1 66.21 184.44
  Q 65.63 184.60 64.24 185.96
  A 0.70 0.70 0.0 0 0 64.12 186.82
  Q 65.27 188.86 66.55 189.33
  A 0.59 0.59 0.0 0 1 66.73 190.33
  Q 65.73 191.17 64.86 189.86
  Q 64.03 188.62 62.75 187.57
  A 0.48 0.48 0.0 0 0 61.99 187.80
  Q 61.69 188.77 62.67 189.67
  A 0.39 0.39 0.0 0 1 62.53 190.33
  Q 60.82 190.87 59.52 190.35
  A 0.54 0.54 0.0 0 1 59.20 189.71
  Q 59.28 189.42 59.70 189.24
  A 0.90 0.89 -11.3 0 0 60.26 188.41
  L 60.26 182.46
  A 0.57 0.57 0.0 0 0 59.76 181.89
  Q 59.34 181.84 59.16 181.45
  Q 58.98 181.04 59.60 180.97
  Q 60.75 180.85 61.30 180.92
  A 0.79 0.79 0.0 0 1 61.99 181.70
  L 61.99 185.74
  A 0.25 0.25 0.0 0 0 62.26 185.99
  Z"
/>
<path fill="#818285" d="
  M 108.86 185.71
  C 108.84 190.38 104.78 190.63 100.84 190.48
  A 0.62 0.62 0.0 0 1 100.27 189.67
  Q 100.30 189.57 100.70 189.36
  A 1.04 1.04 0.0 0 0 101.27 188.52
  Q 101.28 188.43 101.29 185.68
  Q 101.31 182.92 101.30 182.83
  A 1.04 1.04 0.0 0 0 100.74 181.98
  Q 100.34 181.77 100.31 181.67
  A 0.62 0.62 0.0 0 1 100.88 180.87
  C 104.82 180.76 108.88 181.04 108.86 185.71
  Z
  M 102.91 182.39
  L 102.85 188.97
  A 0.40 0.40 0.0 0 0 103.24 189.37
  L 103.98 189.38
  A 3.18 3.00 0.6 0 0 107.19 186.41
  L 107.21 185.03
  A 3.18 3.00 0.6 0 0 104.06 182.00
  L 103.32 181.99
  A 0.40 0.40 0.0 0 0 102.91 182.39
  Z"
/>
<path fill="#818285" d="
  M 165.30 181.57
  A 0.87 0.86 -33.9 0 1 165.05 182.80
  Q 164.76 182.98 164.55 182.95
  A 0.96 0.95 -48.9 0 1 164.43 181.07
  Q 164.87 180.96 165.30 181.57
  Z"
/>
<path fill="#ffffff" d="
  M 102.91 182.39
  A 0.40 0.40 0.0 0 1 103.32 181.99
  L 104.06 182.00
  A 3.18 3.00 0.6 0 1 107.21 185.03
  L 107.19 186.41
  A 3.18 3.00 0.6 0 1 103.98 189.38
  L 103.24 189.37
  A 0.40 0.40 0.0 0 1 102.85 188.97
  L 102.91 182.39
  Z"
/>
<path fill="#ffffff" d="
  M 40.19 182.45
  A 0.41 0.41 0.0 0 1 40.60 182.04
  L 41.43 182.05
  A 3.46 3.44 0.5 0 1 44.86 185.52
  L 44.86 185.90
  A 3.46 3.44 0.5 0 1 41.37 189.31
  L 40.54 189.30
  A 0.41 0.41 0.0 0 1 40.13 188.89
  L 40.19 182.45
  Z"
/>
<path fill="#818285" d="
  M 122.54 185.46
  A 0.36 0.36 0.0 0 1 121.99 185.37
  L 121.84 185.12
  A 0.34 0.33 -35.8 0 1 121.91 184.71
  C 123.58 183.27 126.57 183.15 127.13 185.63
  Q 127.50 187.25 127.16 187.86
  A 0.79 0.78 33.7 0 0 127.37 188.87
  Q 127.92 189.29 128.01 189.70
  A 0.95 0.88 16.1 0 1 126.45 190.48
  Q 125.99 190.08 125.70 190.01
  A 0.80 0.79 -55.6 0 0 125.02 190.14
  Q 123.10 191.57 121.78 189.46
  A 0.41 0.40 37.1 0 0 121.05 189.56
  L 121.00 189.75
  A 1.16 1.13 -0.7 0 1 120.22 190.53
  Q 118.53 191.04 117.36 188.83
  Q 116.96 188.06 117.28 185.97
  A 1.15 1.14 27.1 0 0 116.95 184.96
  Q 116.91 184.92 116.86 184.90
  A 0.54 0.54 0.0 0 1 116.73 184.05
  Q 117.36 183.39 117.43 182.54
  A 0.48 0.47 83.2 0 1 117.74 182.14
  Q 118.29 181.95 118.66 182.18
  Q 118.89 182.32 118.90 182.80
  Q 118.90 182.99 118.91 183.13
  A 0.88 0.87 -1.0 0 0 119.79 183.97
  L 120.62 183.97
  A 0.29 0.29 0.0 0 1 120.91 184.26
  L 120.91 184.57
  A 0.24 0.24 0.0 0 1 120.67 184.81
  L 119.43 184.81
  A 0.51 0.51 0.0 0 0 118.92 185.32
  L 118.92 188.31
  A 0.96 0.96 0.0 0 0 120.63 188.90
  Q 123.06 185.77 125.56 186.18
  A 0.37 0.37 0.0 0 0 125.91 185.58
  Q 124.49 183.83 122.54 185.46
  Z
  M 125.7410 188.2437
  A 1.54 0.71 -6.2 0 0 124.1333 187.7042
  A 1.54 0.71 -6.2 0 0 122.6790 188.5763
  A 1.54 0.71 -6.2 0 0 124.2867 189.1158
  A 1.54 0.71 -6.2 0 0 125.7410 188.2437
  Z"
/>
<path fill="#818285" d="
  M 144.34 183.97
  Q 144.72 183.63 144.93 182.41
  A 0.46 0.45 -72.8 0 1 145.57 182.07
  Q 146.04 182.29 145.95 183.34
  A 0.60 0.60 0.0 0 0 146.67 183.98
  L 147.64 183.77
  A 0.25 0.25 0.0 0 1 147.94 184.01
  L 147.94 184.41
  A 0.27 0.25 -7.2 0 1 147.73 184.66
  L 146.48 184.93
  A 0.60 0.60 0.0 0 0 146.01 185.64
  Q 146.24 186.87 145.89 188.39
  A 0.60 0.59 6.5 0 0 146.48 189.12
  L 147.97 189.12
  A 0.58 0.58 0.0 0 1 148.35 190.14
  Q 147.54 190.83 146.61 190.60
  A 2.46 2.46 0.0 0 1 144.79 187.78
  Q 145.22 185.41 144.35 184.69
  A 0.47 0.47 0.0 0 1 144.34 183.97
  Z"
/>
<path fill="#818285" d="
  M 57.02 184.56
  Q 57.65 183.75 59.02 183.84
  A 0.41 0.41 0.0 0 1 59.12 184.64
  Q 56.60 185.47 56.35 188.29
  A 0.86 0.86 0.0 0 0 56.82 189.13
  L 57.02 189.23
  A 0.76 0.76 0.0 0 1 56.56 190.66
  Q 54.05 190.28 53.01 190.66
  A 0.82 0.82 0.0 0 1 52.04 190.32
  Q 51.96 190.20 51.59 190.05
  Q 51.31 189.93 50.96 190.16
  C 49.33 191.24 46.93 190.48 47.00 188.60
  C 47.05 187.01 49.62 185.91 50.87 186.12
  A 0.38 0.38 0.0 0 0 51.26 185.55
  Q 50.46 184.20 48.16 185.55
  A 0.51 0.51 0.0 0 1 47.38 185.11
  L 47.38 184.53
  A 0.10 0.10 0.0 0 1 47.42 184.45
  Q 50.46 182.72 52.54 184.77
  A 1.47 1.44 22.9 0 1 52.97 185.80
  L 52.97 188.34
  A 1.06 1.06 0.0 0 0 55.07 188.56
  Q 55.61 185.95 54.26 184.41
  A 0.38 0.38 0.0 0 1 54.55 183.78
  L 55.37 183.78
  A 0.56 0.55 -15.0 0 1 55.85 184.05
  L 56.10 184.49
  A 0.56 0.55 48.8 0 0 57.02 184.56
  Z
  M 51.3525 188.6500
  A 1.51 0.68 5.7 0 0 49.9175 187.8234
  A 1.51 0.68 5.7 0 0 48.3475 188.3500
  A 1.51 0.68 5.7 0 0 49.7825 189.1766
  A 1.51 0.68 5.7 0 0 51.3525 188.6500
  Z"
/>
<path fill="#818285" d="
  M 88.23 188.15
  Q 88.38 188.59 88.41 188.92
  Q 88.43 189.17 88.03 189.52
  Q 85.08 192.05 82.69 188.94
  C 80.48 186.05 84.81 181.64 87.51 184.65
  Q 88.94 186.24 88.30 187.41
  A 0.92 0.90 51.2 0 0 88.23 188.15
  Z
  M 85.42 186.31
  Q 86.56 186.41 86.64 186.40
  A 0.50 0.50 0.0 0 0 86.98 185.58
  Q 86.33 184.82 85.56 184.75
  Q 84.78 184.68 84.01 185.31
  A 0.50 0.50 0.0 0 0 84.19 186.18
  Q 84.28 186.20 85.42 186.31
  Z
  M 87.76 187.59
  L 83.82 187.81
  A 0.13 0.13 0.0 0 0 83.70 187.95
  L 83.70 188.00
  A 1.63 1.22 -3.3 0 0 85.40 189.13
  L 86.34 189.07
  A 1.63 1.22 -3.3 0 0 87.90 187.76
  L 87.89 187.71
  A 0.13 0.13 0.0 0 0 87.76 187.59
  Z"
/>
<path fill="#818285" d="
  M 167.20 192.62
  A 0.48 0.48 0.0 0 1 167.06 191.99
  L 167.09 191.94
  A 0.61 0.61 0.0 0 1 167.86 191.70
  Q 170.54 192.90 172.07 190.85
  A 0.50 0.49 -88.5 0 0 171.40 190.14
  Q 169.50 191.41 167.62 189.63
  A 2.11 2.07 -78.8 0 1 167.09 188.82
  Q 165.83 185.26 169.01 183.78
  Q 169.96 183.34 171.15 184.09
  A 0.98 0.97 -43.5 0 0 172.15 184.11
  L 172.93 183.66
  A 0.53 0.53 0.0 0 1 173.62 184.44
  L 173.10 185.13
  A 0.70 0.63 -29.3 0 0 172.97 185.52
  L 172.97 191.41
  A 0.94 0.87 -28.1 0 1 172.78 191.96
  Q 170.52 194.96 167.20 192.62
  Z
  M 169.8179 189.2581
  A 2.20 1.88 92.4 0 0 171.7884 187.1387
  A 2.20 1.88 92.4 0 0 170.0021 184.8619
  A 2.20 1.88 92.4 0 0 168.0316 186.9813
  A 2.20 1.88 92.4 0 0 169.8179 189.2581
  Z"
/>
<path fill="#818285" d="
  M 184.24 189.37
  L 184.69 189.63
  A 0.40 0.39 -37.3 0 1 184.59 190.35
  Q 183.23 190.74 181.63 190.42
  A 0.45 0.45 0.0 0 1 181.48 189.60
  Q 181.49 189.60 181.80 189.52
  A 0.75 0.75 0.0 0 0 182.35 188.80
  L 182.35 185.37
  A 0.54 0.53 -83.1 0 0 181.95 184.85
  L 181.56 184.75
  A 0.45 0.45 0.0 0 1 181.70 183.87
  Q 184.16 184.06 185.24 183.78
  A 2.16 2.15 -1.8 0 1 187.91 186.27
  Q 187.61 187.76 188.75 189.79
  A 0.55 0.54 75.4 0 1 188.28 190.60
  L 187.23 190.60
  A 0.65 0.64 0.4 0 1 186.58 189.95
  Q 186.65 186.75 186.55 186.31
  Q 186.26 185.05 185.64 184.87
  A 1.49 1.40 -80.0 0 0 183.86 186.20
  Q 183.76 187.40 183.67 188.23
  A 1.21 1.20 -71.7 0 0 184.24 189.37
  Z"
/>
<path fill="#818285" d="
  M 113.49 186.28
  A 0.57 0.57 0.0 0 0 113.90 185.25
  Q 112.17 184.08 110.70 185.51
  A 0.35 0.34 52.6 0 1 110.16 185.43
  L 110.00 185.14
  A 0.53 0.52 -32.6 0 1 110.16 184.44
  C 113.25 182.29 116.19 184.45 115.42 188.12
  A 1.05 1.04 -64.9 0 0 115.79 189.15
  L 116.34 189.59
  A 0.39 0.37 -70.1 0 1 116.48 189.91
  Q 116.42 190.56 115.43 190.66
  Q 114.92 190.71 114.42 190.32
  Q 113.68 189.73 112.94 190.32
  C 111.58 191.40 110.24 190.18 109.45 189.12
  A 0.83 0.82 47.5 0 1 109.49 188.08
  Q 111.34 185.92 113.49 186.28
  Z
  M 113.9868 188.3195
  A 1.60 0.71 -3.6 0 0 112.3454 187.7114
  A 1.60 0.71 -3.6 0 0 110.7932 188.5205
  A 1.60 0.71 -3.6 0 0 112.4346 189.1286
  A 1.60 0.71 -3.6 0 0 113.9868 188.3195
  Z"
/>
<path fill="#818285" d="
  M 150.61 187.70
  A 0.49 0.49 0.0 0 0 150.38 188.61
  Q 152.89 189.97 154.38 188.33
  A 0.34 0.33 -43.7 0 1 154.88 188.34
  C 155.06 188.53 155.08 189.10 154.87 189.30
  C 153.45 190.60 151.74 191.28 150.09 189.86
  C 146.35 186.64 151.58 180.60 154.85 185.63
  A 1.35 1.34 73.6 0 1 153.72 187.71
  L 150.61 187.70
  Z
  M 151.91 186.30
  Q 152.41 186.26 152.91 186.18
  A 0.40 0.40 0.0 0 0 153.21 185.61
  Q 152.75 184.61 151.78 184.69
  Q 150.81 184.77 150.51 185.83
  A 0.40 0.40 0.0 0 0 150.90 186.34
  Q 151.40 186.34 151.91 186.30
  Z"
/>
<path fill="#818285" d="
  M 163.57 183.88
  Q 163.93 183.77 164.85 184.17
  A 0.72 0.71 -79.0 0 1 165.29 184.83
  L 165.29 188.56
  A 0.41 0.41 0.0 0 0 165.41 188.85
  Q 166.66 190.22 165.66 190.60
  A 0.44 0.40 -48.2 0 1 165.48 190.62
  L 163.14 190.47
  A 0.47 0.47 0.0 0 1 162.76 189.77
  Q 162.98 189.37 163.52 189.10
  A 0.76 0.76 0.0 0 0 163.94 188.51
  Q 164.30 185.53 163.38 184.57
  A 0.42 0.42 0.0 0 1 163.57 183.88
  Z"
/>
<path fill="#818285" d="
  M 176.37 187.70
  A 0.49 0.49 0.0 0 0 176.14 188.62
  Q 178.68 189.98 180.17 188.32
  A 0.34 0.33 -44.0 0 1 180.67 188.32
  C 180.85 188.52 180.88 189.09 180.67 189.29
  C 179.24 190.61 177.52 191.30 175.86 189.88
  C 172.08 186.66 177.31 180.55 180.63 185.60
  A 1.36 1.35 73.3 0 1 179.50 187.70
  L 176.37 187.70
  Z
  M 177.71 186.32
  Q 178.65 186.31 178.76 186.29
  A 0.57 0.57 0.0 0 0 179.19 185.58
  Q 178.97 184.72 177.71 184.72
  Q 176.45 184.73 176.23 185.60
  A 0.57 0.57 0.0 0 0 176.67 186.30
  Q 176.78 186.32 177.71 186.32
  Z"
/>
<path fill="#818285" d="
  M 194.95 188.31
  A 0.50 0.50 0.0 0 1 195.67 188.97
  C 195.03 189.98 193.39 191.03 191.96 190.51
  C 186.97 188.71 190.10 182.38 193.61 183.83
  Q 194.82 184.33 195.43 183.88
  A 0.30 0.30 0.0 0 1 195.90 184.12
  L 195.90 186.08
  A 0.66 0.65 8.6 0 1 195.05 186.70
  Q 194.12 186.42 194.02 185.66
  A 1.19 1.10 -20.5 0 0 192.24 184.93
  Q 190.07 186.29 191.20 188.63
  A 0.94 0.92 -10.4 0 0 191.97 189.15
  Q 193.69 189.27 194.95 188.31
  Z"
/>
<path fill="#818285" d="
  M 198.39 187.65
  A 0.49 0.49 0.0 0 0 198.13 188.56
  Q 200.61 190.01 202.16 188.41
  A 0.34 0.33 -41.9 0 1 202.66 188.43
  C 202.83 188.63 202.84 189.20 202.62 189.39
  C 201.15 190.66 199.41 191.28 197.80 189.81
  C 194.15 186.46 199.59 180.55 202.72 185.71
  A 1.35 1.35 0.0 0 1 201.51 187.77
  L 198.39 187.65
  Z
  M 199.73 186.28
  Q 200.26 186.28 200.63 186.27
  A 0.55 0.55 0.0 0 0 201.03 185.37
  Q 200.54 184.78 199.71 184.79
  Q 198.89 184.80 198.41 185.39
  A 0.55 0.55 0.0 0 0 198.83 186.29
  Q 199.20 186.29 199.73 186.28
  Z"
/>
<path fill="#ffffff" d="
  M 85.56 184.75
  Q 86.33 184.82 86.98 185.58
  A 0.50 0.50 0.0 0 1 86.64 186.40
  Q 86.56 186.41 85.42 186.31
  Q 84.28 186.20 84.19 186.18
  A 0.50 0.50 0.0 0 1 84.01 185.31
  Q 84.78 184.68 85.56 184.75
  Z"
/>
<ellipse fill="#ffffff" cx="0.00" cy="0.00" transform="translate(92.91,187.04) rotate(95.6)" rx="2.15" ry="1.88"/>
<path fill="#ffffff" d="
  M 151.78 184.69
  Q 152.75 184.61 153.21 185.61
  A 0.40 0.40 0.0 0 1 152.91 186.18
  Q 152.41 186.26 151.91 186.30
  Q 151.40 186.34 150.90 186.34
  A 0.40 0.40 0.0 0 1 150.51 185.83
  Q 150.81 184.77 151.78 184.69
  Z"
/>
<ellipse fill="#ffffff" cx="0.00" cy="0.00" transform="translate(169.91,187.06) rotate(92.4)" rx="2.20" ry="1.88"/>
<path fill="#ffffff" d="
  M 177.71 184.72
  Q 178.97 184.72 179.19 185.58
  A 0.57 0.57 0.0 0 1 178.76 186.29
  Q 178.65 186.31 177.71 186.32
  Q 176.78 186.32 176.67 186.30
  A 0.57 0.57 0.0 0 1 176.23 185.60
  Q 176.45 184.73 177.71 184.72
  Z"
/>
<path fill="#ffffff" d="
  M 199.71 184.79
  Q 200.54 184.78 201.03 185.37
  A 0.55 0.55 0.0 0 1 200.63 186.27
  Q 200.26 186.28 199.73 186.28
  Q 199.20 186.29 198.83 186.29
  A 0.55 0.55 0.0 0 1 198.41 185.39
  Q 198.89 184.80 199.71 184.79
  Z"
/>
<path fill="#ffffff" d="
  M 87.76 187.59
  A 0.13 0.13 0.0 0 1 87.89 187.71
  L 87.90 187.76
  A 1.63 1.22 -3.3 0 1 86.34 189.07
  L 85.40 189.13
  A 1.63 1.22 -3.3 0 1 83.70 188.00
  L 83.70 187.95
  A 0.13 0.13 0.0 0 1 83.82 187.81
  L 87.76 187.59
  Z"
/>
<ellipse fill="#ffffff" cx="0.00" cy="0.00" transform="translate(49.85,188.50) rotate(5.7)" rx="1.51" ry="0.68"/>
<ellipse fill="#ffffff" cx="0.00" cy="0.00" transform="translate(112.39,188.42) rotate(-3.6)" rx="1.60" ry="0.71"/>
<ellipse fill="#ffffff" cx="0.00" cy="0.00" transform="translate(124.21,188.41) rotate(-6.2)" rx="1.54" ry="0.71"/>
</svg>
