<?xml version="1.0" encoding="UTF-8" standalone="no"?>
<!DOCTYPE svg PUBLIC "-//W3C//DTD SVG 1.1//EN" "http://www.w3.org/Graphics/SVG/1.1/DTD/svg11.dtd">
<svg xmlns="http://www.w3.org/2000/svg" version="1.1" viewBox="0.00 0.00 600.00 500.00">
<g stroke-width="2.00" fill="none" stroke-linecap="butt">
<path stroke="#ff8c91" vector-effect="non-scaling-stroke" d="
  M 75.26 282.21
  L 65.11 287.44
  A 1.47 1.45 81.0 0 0 64.32 288.54
  L 64.08 290.24
  A 0.63 0.63 0.0 0 0 65.01 290.88
  Q 70.04 288.10 75.47 285.79
  Q 75.74 285.68 76.23 285.81"
/>
<path stroke="#809ec9" vector-effect="non-scaling-stroke" d="
  M 76.23 285.81
  C 82.14 311.79 97.25 336.21 116.44 354.60"
/>
<path stroke="#ff8c91" vector-effect="non-scaling-stroke" d="
  M 116.44 354.60
  L 93.91 375.21
  A 1.81 1.76 -17.6 0 0 93.33 376.29
  L 92.82 379.80
  A 0.40 0.40 0.0 0 0 93.50 380.14
  Q 105.98 367.58 119.02 356.96"
/>
<path stroke="#809ec9" vector-effect="non-scaling-stroke" d="
  M 119.02 356.96
  Q 151.89 386.44 193.49 392.31
  C 300.20 407.37 385.89 302.69 346.82 200.91
  Q 345.99 198.75 345.00 196.70"
/>
<path stroke="#ff8c91" vector-effect="non-scaling-stroke" d="
  M 345.00 196.70
  Q 345.09 196.16 345.40 195.90
  Q 349.19 192.73 358.05 184.31
  C 375.75 167.48 392.13 146.53 400.35 123.38
  Q 400.55 122.81 400.38 122.46
  A 0.31 0.30 -40.0 0 0 399.85 122.42
  Q 391.11 135.07 378.84 145.84
  Q 358.69 163.55 335.27 177.31
  Q 334.96 177.49 334.84 177.24"
/>
<path stroke="#809ec9" vector-effect="non-scaling-stroke" d="
  M 334.84 177.24
  Q 332.04 172.50 328.72 168.03
  C 303.16 133.62 263.70 111.77 220.75 109.99
  Q 174.05 108.06 135.69 133.69
  Q 102.34 155.97 85.45 191.71
  Q 65.23 234.48 75.26 282.21"
/>
<path stroke="#802b5b" vector-effect="non-scaling-stroke" d="
  M 334.84 177.24
  Q 334.84 177.39 334.84 177.49
  A 0.18 0.17 75.0 0 1 334.76 177.64
  Q 321.57 185.38 304.69 193.41
  Q 276.44 206.86 250.31 216.65"
/>
<path stroke="#809ec9" vector-effect="non-scaling-stroke" d="
  M 250.31 216.65
  Q 236.52 199.49 220.01 185.25
  C 206.98 174.01 192.03 164.00 175.41 158.86
  C 165.36 155.76 152.13 156.32 146.26 166.98
  C 140.64 177.18 141.53 190.93 144.19 202.16
  Q 149.77 225.75 162.78 246.66"
/>
<path stroke="#802b5b" vector-effect="non-scaling-stroke" d="
  M 162.78 246.66
  L 144.37 252.74"
/>
<path stroke="#809ec9" vector-effect="non-scaling-stroke" d="
  M 144.37 252.74
  Q 144.39 242.16 144.45 231.99
  C 144.48 228.63 145.67 227.21 148.08 225.42
  A 0.59 0.59 0.0 0 0 147.73 224.35
  L 133.03 224.35
  A 0.35 0.35 0.0 0 0 132.76 224.92
  L 136.09 229.05
  A 3.87 3.84 -64.7 0 1 136.95 231.48
  L 136.95 256.39
  A 0.34 0.34 0.0 0 1 136.32 256.56
  L 118.11 225.02
  A 1.50 1.49 -14.8 0 0 116.81 224.27
  L 95.01 224.27
  A 0.30 0.29 70.7 0 0 94.78 224.75
  L 98.06 228.82
  A 3.89 3.85 25.7 0 1 98.93 231.26
  L 99.04 270.25"
/>
<path stroke="#802b5b" vector-effect="non-scaling-stroke" d="
  M 99.04 270.25
  L 75.26 282.21"
/>
<path stroke="#809ec9" vector-effect="non-scaling-stroke" d="
  M 270.21 228.61
  L 270.22 237.20
  A 0.24 0.24 0.0 0 1 269.86 237.40
  L 263.77 233.88
  A 0.23 0.23 0.0 0 0 263.47 234.21
  L 270.17 244.35"
/>
<path stroke="#809ec9" vector-effect="non-scaling-stroke" d="
  M 273.02 249.13
  Q 279.85 260.53 285.04 272.70
  A 0.55 0.54 -48.6 0 0 286.07 272.63
  L 297.28 233.31"
/>
<path stroke="#809ec9" vector-effect="non-scaling-stroke" d="
  M 308.79 225.38
  L 319.05 225.37
  A 1.50 1.50 0.0 0 1 320.46 226.36
  L 338.45 275.49
  A 0.72 0.71 9.5 0 0 338.69 275.82
  L 341.77 278.22
  A 0.25 0.25 0.0 0 1 341.62 278.66
  L 311.29 278.66
  A 0.53 0.53 0.0 0 1 311.04 277.67
  C 315.97 274.98 315.06 270.86 313.08 266.65
  A 0.82 0.80 77.2 0 0 312.35 266.18
  L 295.91 266.18
  A 1.01 1.00 8.6 0 0 294.95 266.88
  C 294.11 269.55 293.48 274.44 295.40 276.56
  Q 296.27 277.53 296.53 277.82
  A 0.37 0.36 -20.1 0 1 296.25 278.42
  L 287.93 278.42
  A 0.71 0.71 0.0 0 0 287.26 279.37
  C 294.24 298.77 301.89 340.66 265.14 333.96
  Q 255.90 332.28 246.78 328.05
  A 0.22 0.21 27.6 0 1 246.68 327.75
  L 246.85 327.45
  A 0.23 0.23 0.0 0 1 247.15 327.36
  Q 257.01 331.74 267.51 332.73
  C 283.68 334.25 291.36 323.77 290.81 308.48
  Q 290.55 301.28 290.06 298.66
  Q 288.20 288.87 284.82 279.26
  A 1.21 1.20 79.9 0 0 283.69 278.47
  L 280.57 278.47
  A 0.55 0.55 0.0 0 1 280.30 277.45
  L 282.80 276.01
  A 0.83 0.82 64.7 0 0 283.16 275.00
  Q 278.07 261.86 270.94 249.99"
/>
<path stroke="#ff8c91" vector-effect="non-scaling-stroke" d="
  M 270.94 249.99
  L 268.20 245.64"
/>
<path stroke="#809ec9" vector-effect="non-scaling-stroke" d="
  M 268.20 245.64
  L 259.27 232.44"
/>
<path stroke="#ff8080" vector-effect="non-scaling-stroke" d="
  M 259.27 232.44
  C 255.33 231.13 244.93 230.58 245.15 237.08"
/>
<path stroke="#809ec9" vector-effect="non-scaling-stroke" d="
  M 245.15 237.08
  Q 246.53 240.30 250.03 241.48
  Q 258.97 244.49 264.97 247.65"
/>
<path stroke="#ff8c91" vector-effect="non-scaling-stroke" d="
  M 264.97 247.65
  L 245.97 259.49"
/>
<path stroke="#809ec9" vector-effect="non-scaling-stroke" d="
  M 245.97 259.49
  Q 242.03 257.77 238.50 256.13
  Q 229.68 252.01 228.71 242.17"
/>
<path stroke="#ff8c91" vector-effect="non-scaling-stroke" d="
  M 228.71 242.17
  C 228.52 228.83 241.50 223.47 252.87 224.93
  A 0.40 0.40 0.0 0 0 253.23 224.27
  L 247.82 217.70"
/>
<path stroke="#809ec9" vector-effect="non-scaling-stroke" d="
  M 247.82 217.70
  Q 231.23 197.70 211.08 181.44
  Q 197.48 170.46 183.28 164.51
  C 170.96 159.33 155.27 157.25 148.21 170.03
  C 143.02 179.45 145.16 195.14 148.32 205.65
  Q 154.57 226.53 165.60 245.79"
/>
<path stroke="#ff8c91" vector-effect="non-scaling-stroke" d="
  M 165.60 245.79
  L 162.78 246.66"
/>
<path stroke="#802b5b" vector-effect="non-scaling-stroke" d="
  M 169.42 257.59
  L 144.45 263.81"
/>
<path stroke="#ff8c91" vector-effect="non-scaling-stroke" d="
  M 144.37 252.74
  L 144.45 263.81"
/>
<path stroke="#809ec9" vector-effect="non-scaling-stroke" d="
  M 144.45 263.81
  Q 144.37 265.67 144.25 268.25
  Q 144.20 269.17 144.89 271.86
  C 145.30 273.48 147.91 275.56 148.98 277.25
  A 0.38 0.38 0.0 0 1 148.66 277.83
  L 127.39 277.83
  A 1.39 1.37 -15.2 0 1 126.20 277.16
  L 121.61 269.57"
/>
<path stroke="#ff8c91" vector-effect="non-scaling-stroke" d="
  M 121.61 269.57
  L 117.65 262.67"
/>
<path stroke="#809ec9" vector-effect="non-scaling-stroke" d="
  M 117.65 262.67
  L 106.45 243.52
  A 0.32 0.32 0.0 0 0 105.86 243.68
  L 106.05 267.50"
/>
<path stroke="#ff8c91" vector-effect="non-scaling-stroke" d="
  M 106.05 267.50
  Q 105.94 271.48 108.12 273.69"
/>
<path stroke="#809ec9" vector-effect="non-scaling-stroke" d="
  M 108.12 273.69
  L 110.87 276.50
  A 0.54 0.53 -23.1 0 1 110.50 277.41
  L 95.28 277.83"
/>
<path stroke="#ff8c91" vector-effect="non-scaling-stroke" d="
  M 95.28 277.83
  L 94.50 277.68
  A 0.48 0.48 0.0 0 1 94.14 277.02
  Q 94.30 276.65 94.68 276.46
  Q 98.33 274.66 99.04 270.25"
/>
<path stroke="#802b5b" vector-effect="non-scaling-stroke" d="
  M 345.00 196.70
  Q 344.85 196.70 344.72 196.71
  A 0.55 0.53 -66.0 0 0 344.40 196.84
  Q 327.13 211.84 308.39 224.95
  A 0.19 0.18 70.9 0 0 308.31 225.12
  Q 308.35 225.45 308.79 225.38"
/>
<path stroke="#ff8c91" vector-effect="non-scaling-stroke" d="
  M 308.79 225.38
  Q 308.02 225.43 307.73 225.64
  Q 302.62 229.21 297.51 232.77
  Q 297.29 232.93 297.28 233.31"
/>
<path stroke="#802b5b" vector-effect="non-scaling-stroke" d="
  M 297.28 233.31
  Q 297.11 233.27 296.97 233.25
  A 0.58 0.57 -58.3 0 0 296.60 233.34
  L 273.02 249.13"
/>
<path stroke="#ff8c91" vector-effect="non-scaling-stroke" d="
  M 273.02 249.13
  L 270.17 244.35"
/>
<path stroke="#802b5b" vector-effect="non-scaling-stroke" d="
  M 270.17 244.35
  L 294.58 227.42"
/>
<path stroke="#ff8c91" vector-effect="non-scaling-stroke" d="
  M 294.58 227.42
  L 297.28 225.34"
/>
<path stroke="#802b5b" vector-effect="non-scaling-stroke" d="
  M 297.28 225.34
  L 330.41 199.42
  A 0.43 0.43 0.0 0 0 330.48 198.82
  L 330.47 198.80
  A 0.43 0.43 0.0 0 0 329.88 198.71
  Q 319.90 205.70 309.06 211.34
  Q 290.38 221.06 270.21 228.61"
/>
<path stroke="#ff8c91" vector-effect="non-scaling-stroke" d="
  M 270.21 228.61
  L 270.34 224.55
  A 0.41 0.41 0.0 0 0 269.61 224.29
  C 268.13 226.16 266.42 227.23 263.86 226.59
  Q 261.31 225.96 258.24 225.68
  A 2.23 2.20 73.6 0 1 256.70 224.83
  L 250.31 216.65"
/>
<path stroke="#802b5b" vector-effect="non-scaling-stroke" d="
  M 268.20 245.64
  Q 266.38 246.28 264.97 247.65"
/>
<path stroke="#802b5b" vector-effect="non-scaling-stroke" d="
  M 119.02 356.96
  Q 157.26 325.25 198.46 297.60"
/>
<path stroke="#809ec9" vector-effect="non-scaling-stroke" d="
  M 198.46 297.60
  C 200.98 301.25 214.17 320.00 219.33 312.31
  C 220.91 309.96 217.84 307.37 216.02 306.00
  Q 209.15 300.80 202.13 295.00"
/>
<path stroke="#802b5b" vector-effect="non-scaling-stroke" d="
  M 202.13 295.00
  L 229.51 277.27"
/>
<path stroke="#809ec9" vector-effect="non-scaling-stroke" d="
  M 229.51 277.27
  L 229.52 281.26
  A 0.44 0.43 70.3 0 0 230.23 281.60
  L 235.21 277.59
  A 1.86 1.85 35.4 0 1 237.03 277.29
  Q 244.51 280.09 252.76 279.75
  C 260.56 279.42 271.03 275.16 274.62 267.60
  C 277.65 261.19 273.65 255.91 269.70 251.31"
/>
<path stroke="#802b5b" vector-effect="non-scaling-stroke" d="
  M 269.70 251.31
  Q 270.06 250.69 270.94 249.99"
/>
<path stroke="#802b5b" vector-effect="non-scaling-stroke" d="
  M 245.97 259.49
  L 233.36 267.13"
/>
<path stroke="#809ec9" vector-effect="non-scaling-stroke" d="
  M 233.36 267.13
  Q 231.44 266.12 229.99 264.60
  A 0.52 0.52 0.0 0 0 229.09 264.97
  L 229.24 269.85"
/>
<path stroke="#802b5b" vector-effect="non-scaling-stroke" d="
  M 229.24 269.85
  L 219.04 276.70"
/>
<path stroke="#802b5b" vector-effect="non-scaling-stroke" d="
  M 247.82 217.70
  L 202.67 233.56"
/>
<path stroke="#809ec9" vector-effect="non-scaling-stroke" d="
  M 202.67 233.56
  L 199.83 225.78
  A 1.97 1.97 0.0 0 0 197.98 224.48
  L 172.61 224.48
  A 0.35 0.35 0.0 0 0 172.37 225.08
  Q 174.35 226.95 176.16 229.16
  Q 176.96 230.13 176.21 233.25
  Q 174.94 238.50 173.53 243.37"
/>
<path stroke="#802b5b" vector-effect="non-scaling-stroke" d="
  M 173.53 243.37
  L 165.60 245.79"
/>
<path stroke="#809ec9" vector-effect="non-scaling-stroke" d="
  M 297.28 225.34
  L 293.97 225.17
  A 0.48 0.48 0.0 0 0 293.48 225.74
  Q 293.63 226.47 294.58 227.42"
/>
<path stroke="#802b5b" vector-effect="non-scaling-stroke" d="
  M 228.71 242.17
  L 207.86 247.87"
/>
<path stroke="#ff8c91" vector-effect="non-scaling-stroke" d="
  M 207.86 247.87
  L 202.67 233.56"
/>
<path stroke="#ff8c91" vector-effect="non-scaling-stroke" d="
  M 269.70 251.31
  L 253.44 262.25"
/>
<path stroke="#802b5b" vector-effect="non-scaling-stroke" d="
  M 253.44 262.25
  L 239.76 270.58"
/>
<path stroke="#ff8c91" vector-effect="non-scaling-stroke" d="
  M 239.76 270.58
  L 229.51 277.27"
/>
<path stroke="#ff8c91" vector-effect="non-scaling-stroke" d="
  M 202.13 295.00
  L 198.46 297.60"
/>
<path stroke="#802b5b" vector-effect="non-scaling-stroke" d="
  M 116.44 354.60
  Q 129.91 341.37 144.50 329.50
  Q 168.50 309.99 194.39 293.07
  A 1.09 1.06 -7.2 0 0 194.79 292.57
  Q 194.84 292.42 194.89 292.26"
/>
<path stroke="#802b5b" vector-effect="non-scaling-stroke" d="
  M 198.34 290.47
  L 217.11 277.90"
/>
<path stroke="#ff8c91" vector-effect="non-scaling-stroke" d="
  M 229.24 269.85
  L 233.36 267.13"
/>
<path stroke="#801f4a" vector-effect="non-scaling-stroke" d="
  M 259.27 232.44
  L 245.15 237.08"
/>
<path stroke="#802b5b" vector-effect="non-scaling-stroke" d="
  M 76.23 285.81
  L 95.28 277.83"
/>
<path stroke="#802b5b" vector-effect="non-scaling-stroke" d="
  M 108.12 273.69
  Q 115.18 272.30 121.61 269.57"
/>
<path stroke="#809ec9" vector-effect="non-scaling-stroke" d="
  M 207.86 247.87
  Q 212.52 262.37 219.04 276.70"
/>
<path stroke="#ff8c91" vector-effect="non-scaling-stroke" d="
  M 219.04 276.70
  L 217.11 277.90"
/>
<path stroke="#809ec9" vector-effect="non-scaling-stroke" d="
  M 217.11 277.90
  L 190.82 277.74
  A 0.47 0.47 0.0 0 1 190.51 276.92
  Q 192.80 274.91 193.32 274.05
  C 194.64 271.88 193.26 267.80 192.27 265.82
  A 0.88 0.87 -12.9 0 0 191.48 265.33
  L 179.13 265.33
  A 0.44 0.44 0.0 0 0 178.79 266.04
  L 198.34 290.47"
/>
<path stroke="#ff8c91" vector-effect="non-scaling-stroke" d="
  M 198.34 290.47
  Q 196.26 291.96 194.89 292.26"
/>
<path stroke="#809ec9" vector-effect="non-scaling-stroke" d="
  M 194.89 292.26
  Q 184.29 279.56 175.04 266.15
  A 0.47 0.47 0.0 0 0 174.22 266.25
  Q 171.79 272.50 175.61 277.28
  A 0.20 0.19 -18.8 0 1 175.45 277.59
  L 159.78 277.59
  A 0.45 0.45 0.0 0 1 159.57 276.75
  Q 163.10 274.79 164.97 272.12
  A 5.33 5.12 -20.7 0 0 165.73 270.52
  L 169.42 257.59"
/>
<path stroke="#ff8c91" vector-effect="non-scaling-stroke" d="
  M 169.42 257.59
  L 173.53 243.37"
/>
<path stroke="#802b5b" vector-effect="non-scaling-stroke" d="
  M 117.65 262.67
  Q 111.66 264.30 106.05 267.50"
/>
<path stroke="#809ec9" vector-effect="non-scaling-stroke" d="
  M 239.76 270.58
  Q 246.28 273.24 252.88 271.48
  Q 255.99 270.65 256.90 269.40
  C 259.48 265.82 256.24 263.95 253.44 262.25"
/>
<path stroke="#ff8080" vector-effect="non-scaling-stroke" d="
  M 538.53 279.03
  L 531.26 266.43
  A 1.44 1.42 -14.8 0 0 530.02 265.72
  L 500.05 265.72
  A 0.62 0.61 -90.0 0 1 499.44 265.10
  L 499.44 226.47
  A 0.61 0.61 0.0 0 0 498.83 225.86
  L 486.15 225.86
  A 0.46 0.46 0.0 0 0 485.69 226.32
  Q 485.75 242.63 485.68 262.27
  Q 485.66 268.28 486.76 270.60
  C 489.62 276.63 494.99 279.43 502.00 279.43
  Q 511.50 279.44 538.30 279.43
  A 0.27 0.27 0.0 0 0 538.53 279.03"
/>
<path stroke="#ff8080" vector-effect="non-scaling-stroke" d="
  M 396.35 226.90
  Q 396.41 255.81 396.33 260.49
  C 396.26 264.72 393.99 265.91 389.81 265.90
  Q 379.21 265.87 365.23 265.87
  A 0.69 0.68 -74.6 0 0 364.64 266.21
  L 357.07 279.31
  A 0.28 0.27 15.0 0 0 357.31 279.72
  Q 381.61 279.62 392.16 279.72
  Q 398.49 279.78 401.28 278.42
  C 410.02 274.17 410.21 267.42 410.17 256.92
  Q 410.06 229.47 410.12 226.79
  A 0.60 0.60 0.0 0 0 409.52 226.18
  L 397.07 226.18
  A 0.72 0.72 0.0 0 0 396.35 226.90"
/>
<path stroke="#ff8080" vector-effect="non-scaling-stroke" d="
  M 412.83 226.64
  L 412.83 278.90
  A 0.54 0.53 -90.0 0 0 413.36 279.44
  L 426.75 279.44
  A 0.56 0.56 0.0 0 0 427.31 278.88
  L 427.31 240.33
  A 0.42 0.42 0.0 0 1 427.73 239.91
  Q 454.47 239.79 464.50 239.96
  Q 468.33 240.03 469.01 243.33
  C 469.84 247.40 469.31 251.98 464.24 251.89
  Q 462.71 251.86 429.60 251.86
  A 0.82 0.82 0.0 0 0 428.89 253.09
  L 435.80 265.06
  A 0.71 0.70 75.3 0 0 436.39 265.41
  Q 457.97 265.57 470.49 265.33
  Q 478.56 265.17 481.21 258.44
  Q 485.51 247.52 481.56 234.47
  C 479.29 226.97 471.99 226.18 465.06 226.18
  Q 426.38 226.21 413.30 226.17
  A 0.47 0.46 -89.4 0 0 412.83 226.64"
/>
<path stroke="#809ec9" vector-effect="non-scaling-stroke" d="
  M 216.2296 121.2810
  A 1.27 1.11 1.4 0 0 214.9871 120.1403
  A 1.27 1.11 1.4 0 0 213.6904 121.2190
  A 1.27 1.11 1.4 0 0 214.9329 122.3597
  A 1.27 1.11 1.4 0 0 216.2296 121.2810"
/>
<path stroke="#809ec9" vector-effect="non-scaling-stroke" d="
  M 244.75 134.78
  A 0.32 0.32 0.0 0 1 244.50 134.54
  L 243.82 131.77
  A 0.32 0.32 0.0 0 0 243.20 131.78
  L 242.59 134.56
  A 0.32 0.32 0.0 0 1 242.35 134.81
  L 239.58 135.49
  A 0.32 0.32 0.0 0 0 239.59 136.11
  L 242.37 136.72
  A 0.32 0.32 0.0 0 1 242.62 136.96
  L 243.30 139.73
  A 0.32 0.32 0.0 0 0 243.92 139.72
  L 244.53 136.94
  A 0.32 0.32 0.0 0 1 244.77 136.69
  L 247.54 136.01
  A 0.32 0.32 0.0 0 0 247.53 135.39
  L 244.75 134.78"
/>
<path stroke="#809ec9" vector-effect="non-scaling-stroke" d="
  M 207.53 136.95
  A 1.30 1.30 0.0 0 0 206.23 135.65
  A 1.30 1.30 0.0 0 0 204.93 136.95
  A 1.30 1.30 0.0 0 0 206.23 138.25
  A 1.30 1.30 0.0 0 0 207.53 136.95"
/>
<path stroke="#809ec9" vector-effect="non-scaling-stroke" d="
  M 224.22 138.94
  A 1.41 1.41 0.0 0 0 222.81 137.53
  A 1.41 1.41 0.0 0 0 221.40 138.94
  A 1.41 1.41 0.0 0 0 222.81 140.35
  A 1.41 1.41 0.0 0 0 224.22 138.94"
/>
<path stroke="#809ec9" vector-effect="non-scaling-stroke" d="
  M 188.55 148.60
  A 1.15 1.15 0.0 0 0 187.40 147.45
  A 1.15 1.15 0.0 0 0 186.25 148.60
  A 1.15 1.15 0.0 0 0 187.40 149.75
  A 1.15 1.15 0.0 0 0 188.55 148.60"
/>
<path stroke="#809ec9" vector-effect="non-scaling-stroke" d="
  M 211.36 148.94
  A 1.12 1.12 0.0 0 0 210.24 147.82
  A 1.12 1.12 0.0 0 0 209.12 148.94
  A 1.12 1.12 0.0 0 0 210.24 150.06
  A 1.12 1.12 0.0 0 0 211.36 148.94"
/>
<path stroke="#809ec9" vector-effect="non-scaling-stroke" d="
  M 191.99 150.95
  A 1.18 1.18 0.0 0 0 190.81 149.77
  A 1.18 1.18 0.0 0 0 189.63 150.95
  A 1.18 1.18 0.0 0 0 190.81 152.13
  A 1.18 1.18 0.0 0 0 191.99 150.95"
/>
<path stroke="#809ec9" vector-effect="non-scaling-stroke" d="
  M 195.37 153.31
  A 1.19 1.19 0.0 0 0 194.18 152.12
  A 1.19 1.19 0.0 0 0 192.99 153.31
  A 1.19 1.19 0.0 0 0 194.18 154.50
  A 1.19 1.19 0.0 0 0 195.37 153.31"
/>
<path stroke="#809ec9" vector-effect="non-scaling-stroke" d="
  M 224.02 155.58
  A 1.09 1.09 0.0 0 0 222.93 154.49
  A 1.09 1.09 0.0 0 0 221.84 155.58
  A 1.09 1.09 0.0 0 0 222.93 156.67
  A 1.09 1.09 0.0 0 0 224.02 155.58"
/>
<path stroke="#809ec9" vector-effect="non-scaling-stroke" d="
  M 190.21 157.78
  A 1.22 1.22 0.0 0 0 188.99 156.56
  A 1.22 1.22 0.0 0 0 187.77 157.78
  A 1.22 1.22 0.0 0 0 188.99 159.00
  A 1.22 1.22 0.0 0 0 190.21 157.78"
/>
<path stroke="#809ec9" vector-effect="non-scaling-stroke" d="
  M 245.17 167.94
  A 1.30 1.30 0.0 0 0 243.87 166.64
  A 1.30 1.30 0.0 0 0 242.57 167.94
  A 1.30 1.30 0.0 0 0 243.87 169.24
  A 1.30 1.30 0.0 0 0 245.17 167.94"
/>
<path stroke="#809ec9" vector-effect="non-scaling-stroke" d="
  M 303.61 239.91
  A 0.35 0.35 0.0 0 0 302.94 239.93
  L 297.09 258.89
  A 0.35 0.35 0.0 0 0 297.42 259.34
  L 310.22 259.34
  A 0.35 0.35 0.0 0 0 310.55 258.87
  L 303.61 239.91"
/>
<path stroke="#809ec9" vector-effect="non-scaling-stroke" d="
  M 163.07 176.85
  A 1.25 1.25 0.0 0 0 161.82 175.60
  A 1.25 1.25 0.0 0 0 160.57 176.85
  A 1.25 1.25 0.0 0 0 161.82 178.10
  A 1.25 1.25 0.0 0 0 163.07 176.85"
/>
<path stroke="#809ec9" vector-effect="non-scaling-stroke" d="
  M 177.00 182.21
  Q 177.65 179.01 180.82 179.52
  A 0.17 0.17 0.0 0 0 181.02 179.35
  L 181.02 179.10
  A 0.38 0.38 0.0 0 0 180.58 178.73
  Q 177.68 179.23 176.89 176.43
  A 0.37 0.37 0.0 0 0 176.17 176.45
  Q 175.54 179.12 172.62 178.77
  A 0.31 0.31 0.0 0 0 172.28 179.07
  L 172.27 179.08
  A 0.40 0.40 0.0 0 0 172.68 179.49
  Q 175.65 179.35 176.30 182.22
  A 0.36 0.36 0.0 0 0 177.00 182.21"
/>
<path stroke="#809ec9" vector-effect="non-scaling-stroke" d="
  M 168.10 182.97
  A 1.22 1.22 0.0 0 0 166.88 181.75
  A 1.22 1.22 0.0 0 0 165.66 182.97
  A 1.22 1.22 0.0 0 0 166.88 184.19
  A 1.22 1.22 0.0 0 0 168.10 182.97"
/>
<path stroke="#809ec9" vector-effect="non-scaling-stroke" d="
  M 306.9545 290.5586
  A 1.34 1.08 -5.2 0 0 305.5221 289.6044
  A 1.34 1.08 -5.2 0 0 304.2855 290.8014
  A 1.34 1.08 -5.2 0 0 305.7179 291.7556
  A 1.34 1.08 -5.2 0 0 306.9545 290.5586"
/>
<path stroke="#809ec9" vector-effect="non-scaling-stroke" d="
  M 324.83 295.62
  A 0.33 0.33 0.0 0 1 324.58 295.38
  L 323.87 292.67
  A 0.33 0.33 0.0 0 0 323.23 292.69
  L 322.64 295.43
  A 0.33 0.33 0.0 0 1 322.40 295.68
  L 319.69 296.39
  A 0.33 0.33 0.0 0 0 319.71 297.03
  L 322.45 297.62
  A 0.33 0.33 0.0 0 1 322.70 297.86
  L 323.41 300.57
  A 0.33 0.33 0.0 0 0 324.05 300.55
  L 324.64 297.81
  A 0.33 0.33 0.0 0 1 324.88 297.56
  L 327.59 296.85
  A 0.33 0.33 0.0 0 0 327.57 296.21
  L 324.83 295.62"
/>
<path stroke="#809ec9" vector-effect="non-scaling-stroke" d="
  M 309.73 297.85
  A 1.49 1.49 0.0 0 0 308.24 296.36
  A 1.49 1.49 0.0 0 0 306.75 297.85
  A 1.49 1.49 0.0 0 0 308.24 299.34
  A 1.49 1.49 0.0 0 0 309.73 297.85"
/>
<path stroke="#809ec9" vector-effect="non-scaling-stroke" d="
  M 288.86 298.59
  A 1.48 1.48 0.0 0 0 287.38 297.11
  A 1.48 1.48 0.0 0 0 285.90 298.59
  A 1.48 1.48 0.0 0 0 287.38 300.07
  A 1.48 1.48 0.0 0 0 288.86 298.59"
/>
<path stroke="#809ec9" vector-effect="non-scaling-stroke" d="
  M 329.89 306.31
  A 1.46 1.46 0.0 0 0 328.43 304.85
  A 1.46 1.46 0.0 0 0 326.97 306.31
  A 1.46 1.46 0.0 0 0 328.43 307.77
  A 1.46 1.46 0.0 0 0 329.89 306.31"
/>
<path stroke="#809ec9" vector-effect="non-scaling-stroke" d="
  M 277.46 306.40
  A 1.23 1.23 0.0 0 0 276.23 305.17
  A 1.23 1.23 0.0 0 0 275.00 306.40
  A 1.23 1.23 0.0 0 0 276.23 307.63
  A 1.23 1.23 0.0 0 0 277.46 306.40"
/>
<path stroke="#809ec9" vector-effect="non-scaling-stroke" d="
  M 288.81 308.61
  A 1.53 1.53 0.0 0 0 287.28 307.08
  A 1.53 1.53 0.0 0 0 285.75 308.61
  A 1.53 1.53 0.0 0 0 287.28 310.14
  A 1.53 1.53 0.0 0 0 288.81 308.61"
/>
<path stroke="#809ec9" vector-effect="non-scaling-stroke" d="
  M 322.32 309.05
  A 1.24 1.24 0.0 0 0 321.08 307.81
  A 1.24 1.24 0.0 0 0 319.84 309.05
  A 1.24 1.24 0.0 0 0 321.08 310.29
  A 1.24 1.24 0.0 0 0 322.32 309.05"
/>
<path stroke="#809ec9" vector-effect="non-scaling-stroke" d="
  M 309.29 321.31
  A 1.19 1.19 0.0 0 0 308.10 320.12
  A 1.19 1.19 0.0 0 0 306.91 321.31
  A 1.19 1.19 0.0 0 0 308.10 322.50
  A 1.19 1.19 0.0 0 0 309.29 321.31"
/>
<path stroke="#809ec9" vector-effect="non-scaling-stroke" d="
  M 277.56 322.56
  A 1.32 1.32 0.0 0 0 276.24 321.24
  A 1.32 1.32 0.0 0 0 274.92 322.56
  A 1.32 1.32 0.0 0 0 276.24 323.88
  A 1.32 1.32 0.0 0 0 277.56 322.56"
/>
<path stroke="#809ec9" vector-effect="non-scaling-stroke" d="
  M 307.72 328.35
  Q 311.13 329.04 310.59 332.42
  A 0.18 0.18 0.0 0 0 310.77 332.63
  L 311.03 332.63
  A 0.41 0.40 -4.8 0 0 311.43 332.16
  Q 310.90 329.08 313.88 328.24
  A 0.40 0.40 0.0 0 0 313.86 327.47
  Q 311.02 326.80 311.39 323.69
  A 0.33 0.33 0.0 0 0 311.07 323.32
  L 311.06 323.31
  A 0.42 0.42 0.0 0 0 310.62 323.75
  Q 310.77 326.91 307.71 327.60
  A 0.38 0.38 0.0 0 0 307.72 328.35"
/>
<path stroke="#809ec9" vector-effect="non-scaling-stroke" d="
  M 320.01 327.97
  A 1.22 1.22 0.0 0 0 318.79 326.75
  A 1.22 1.22 0.0 0 0 317.57 327.97
  A 1.22 1.22 0.0 0 0 318.79 329.19
  A 1.22 1.22 0.0 0 0 320.01 327.97"
/>
<path stroke="#809ec9" vector-effect="non-scaling-stroke" d="
  M 173.92 329.14
  A 1.42 1.42 0.0 0 0 172.50 327.72
  A 1.42 1.42 0.0 0 0 171.08 329.14
  A 1.42 1.42 0.0 0 0 172.50 330.56
  A 1.42 1.42 0.0 0 0 173.92 329.14"
/>
<path stroke="#809ec9" vector-effect="non-scaling-stroke" d="
  M 235.52 329.78
  A 1.15 1.15 0.0 0 0 234.37 328.63
  A 1.15 1.15 0.0 0 0 233.22 329.78
  A 1.15 1.15 0.0 0 0 234.37 330.93
  A 1.15 1.15 0.0 0 0 235.52 329.78"
/>
<path stroke="#809ec9" vector-effect="non-scaling-stroke" d="
  M 159.4870 339.9191
  A 1.31 1.11 3.9 0 0 158.2555 338.7226
  A 1.31 1.11 3.9 0 0 156.8730 339.7409
  A 1.31 1.11 3.9 0 0 158.1045 340.9374
  A 1.31 1.11 3.9 0 0 159.4870 339.9191"
/>
<path stroke="#809ec9" vector-effect="non-scaling-stroke" d="
  M 207.6300 339.6420
  A 1.17 0.88 0.1 0 0 206.4615 338.7600
  A 1.17 0.88 0.1 0 0 205.2900 339.6380
  A 1.17 0.88 0.1 0 0 206.4585 340.5200
  A 1.17 0.88 0.1 0 0 207.6300 339.6420"
/>
<path stroke="#809ec9" vector-effect="non-scaling-stroke" d="
  M 175.56 342.90
  A 1.14 1.14 0.0 0 0 174.42 341.76
  A 1.14 1.14 0.0 0 0 173.28 342.90
  A 1.14 1.14 0.0 0 0 174.42 344.04
  A 1.14 1.14 0.0 0 0 175.56 342.90"
/>
<path stroke="#809ec9" vector-effect="non-scaling-stroke" d="
  M 163.33 355.67
  A 0.34 0.34 0.0 0 1 163.09 355.44
  L 162.36 352.95
  A 0.34 0.34 0.0 0 0 161.70 352.96
  L 161.04 355.46
  A 0.34 0.34 0.0 0 1 160.81 355.70
  L 158.32 356.43
  A 0.34 0.34 0.0 0 0 158.33 357.09
  L 160.83 357.75
  A 0.34 0.34 0.0 0 1 161.07 357.98
  L 161.80 360.47
  A 0.34 0.34 0.0 0 0 162.46 360.46
  L 163.12 357.96
  A 0.34 0.34 0.0 0 1 163.35 357.72
  L 165.84 356.99
  A 0.34 0.34 0.0 0 0 165.83 356.33
  L 163.33 355.67"
/>
<path stroke="#809ec9" vector-effect="non-scaling-stroke" d="
  M 282.9583 353.7141
  A 1.33 1.11 -7.6 0 0 281.4932 352.7898
  A 1.33 1.11 -7.6 0 0 280.3217 354.0659
  A 1.33 1.11 -7.6 0 0 281.7868 354.9902
  A 1.33 1.11 -7.6 0 0 282.9583 353.7141"
/>
<path stroke="#809ec9" vector-effect="non-scaling-stroke" d="
  M 177.27 255.37
  L 176.38 257.45
  A 0.81 0.80 11.5 0 0 177.13 258.57
  L 189.43 258.57
  A 0.55 0.55 0.0 0 0 189.94 257.80
  L 187.82 252.75"
/>
<path stroke="#ff8c91" vector-effect="non-scaling-stroke" d="
  M 187.82 252.75
  L 182.76 239.87
  A 0.40 0.40 0.0 0 0 182.00 239.90
  L 177.27 255.37"
/>
<path stroke="#802b5b" vector-effect="non-scaling-stroke" d="
  M 187.82 252.75
  Q 182.86 254.91 177.27 255.37"
/>
<path stroke="#809ec9" vector-effect="non-scaling-stroke" d="
  M 164.09 281.77
  A 1.18 1.18 0.0 0 0 162.91 280.59
  A 1.18 1.18 0.0 0 0 161.73 281.77
  A 1.18 1.18 0.0 0 0 162.91 282.95
  A 1.18 1.18 0.0 0 0 164.09 281.77"
/>
<path stroke="#809ec9" vector-effect="non-scaling-stroke" d="
  M 164.82 308.97
  A 1.46 1.46 0.0 0 0 163.36 307.51
  A 1.46 1.46 0.0 0 0 161.90 308.97
  A 1.46 1.46 0.0 0 0 163.36 310.43
  A 1.46 1.46 0.0 0 0 164.82 308.97"
/>
<path stroke="#809ec9" vector-effect="non-scaling-stroke" d="
  M 126.89 316.01
  A 1.44 1.44 0.0 0 0 125.45 314.57
  A 1.44 1.44 0.0 0 0 124.01 316.01
  A 1.44 1.44 0.0 0 0 125.45 317.45
  A 1.44 1.44 0.0 0 0 126.89 316.01"
/>
<path stroke="#809ec9" vector-effect="non-scaling-stroke" d="
  M 110.9585 317.4411
  A 1.25 1.03 2.8 0 0 109.7603 316.3512
  A 1.25 1.03 2.8 0 0 108.4615 317.3189
  A 1.25 1.03 2.8 0 0 109.6597 318.4088
  A 1.25 1.03 2.8 0 0 110.9585 317.4411"
/>
<path stroke="#809ec9" vector-effect="non-scaling-stroke" d="
  M 149.36 322.96
  A 1.27 1.27 0.0 0 0 148.09 321.69
  A 1.27 1.27 0.0 0 0 146.82 322.96
  A 1.27 1.27 0.0 0 0 148.09 324.23
  A 1.27 1.27 0.0 0 0 149.36 322.96"
/>
<path stroke="#809ec9" vector-effect="non-scaling-stroke" d="
  M 124.81 324.00
  A 1.17 1.17 0.0 0 0 123.64 322.83
  A 1.17 1.17 0.0 0 0 122.47 324.00
  A 1.17 1.17 0.0 0 0 123.64 325.17
  A 1.17 1.17 0.0 0 0 124.81 324.00"
/>
<path stroke="#809ec9" vector-effect="non-scaling-stroke" d="
  M 130.75 328.60
  A 1.45 1.45 0.0 0 0 129.30 327.15
  A 1.45 1.45 0.0 0 0 127.85 328.60
  A 1.45 1.45 0.0 0 0 129.30 330.05
  A 1.45 1.45 0.0 0 0 130.75 328.60"
/>
</g>
<path fill="#ffffff" d="
  M 600.00 0.00
  L 600.00 500.00
  L 0.00 500.00
  L 0.00 0.00
  L 600.00 0.00
  Z
  M 75.26 282.21
  L 65.11 287.44
  A 1.47 1.45 81.0 0 0 64.32 288.54
  L 64.08 290.24
  A 0.63 0.63 0.0 0 0 65.01 290.88
  Q 70.04 288.10 75.47 285.79
  Q 75.74 285.68 76.23 285.81
  C 82.14 311.79 97.25 336.21 116.44 354.60
  L 93.91 375.21
  A 1.81 1.76 -17.6 0 0 93.33 376.29
  L 92.82 379.80
  A 0.40 0.40 0.0 0 0 93.50 380.14
  Q 105.98 367.58 119.02 356.96
  Q 151.89 386.44 193.49 392.31
  C 300.20 407.37 385.89 302.69 346.82 200.91
  Q 345.99 198.75 345.00 196.70
  Q 345.09 196.16 345.40 195.90
  Q 349.19 192.73 358.05 184.31
  C 375.75 167.48 392.13 146.53 400.35 123.38
  Q 400.55 122.81 400.38 122.46
  A 0.31 0.30 -40.0 0 0 399.85 122.42
  Q 391.11 135.07 378.84 145.84
  Q 358.69 163.55 335.27 177.31
  Q 334.96 177.49 334.84 177.24
  Q 332.04 172.50 328.72 168.03
  C 303.16 133.62 263.70 111.77 220.75 109.99
  Q 174.05 108.06 135.69 133.69
  Q 102.34 155.97 85.45 191.71
  Q 65.23 234.48 75.26 282.21
  Z
  M 538.53 279.03
  L 531.26 266.43
  A 1.44 1.42 -14.8 0 0 530.02 265.72
  L 500.05 265.72
  A 0.62 0.61 -90.0 0 1 499.44 265.10
  L 499.44 226.47
  A 0.61 0.61 0.0 0 0 498.83 225.86
  L 486.15 225.86
  A 0.46 0.46 0.0 0 0 485.69 226.32
  Q 485.75 242.63 485.68 262.27
  Q 485.66 268.28 486.76 270.60
  C 489.62 276.63 494.99 279.43 502.00 279.43
  Q 511.50 279.44 538.30 279.43
  A 0.27 0.27 0.0 0 0 538.53 279.03
  Z
  M 396.35 226.90
  Q 396.41 255.81 396.33 260.49
  C 396.26 264.72 393.99 265.91 389.81 265.90
  Q 379.21 265.87 365.23 265.87
  A 0.69 0.68 -74.6 0 0 364.64 266.21
  L 357.07 279.31
  A 0.28 0.27 15.0 0 0 357.31 279.72
  Q 381.61 279.62 392.16 279.72
  Q 398.49 279.78 401.28 278.42
  C 410.02 274.17 410.21 267.42 410.17 256.92
  Q 410.06 229.47 410.12 226.79
  A 0.60 0.60 0.0 0 0 409.52 226.18
  L 397.07 226.18
  A 0.72 0.72 0.0 0 0 396.35 226.90
  Z
  M 412.83 226.64
  L 412.83 278.90
  A 0.54 0.53 -90.0 0 0 413.36 279.44
  L 426.75 279.44
  A 0.56 0.56 0.0 0 0 427.31 278.88
  L 427.31 240.33
  A 0.42 0.42 0.0 0 1 427.73 239.91
  Q 454.47 239.79 464.50 239.96
  Q 468.33 240.03 469.01 243.33
  C 469.84 247.40 469.31 251.98 464.24 251.89
  Q 462.71 251.86 429.60 251.86
  A 0.82 0.82 0.0 0 0 428.89 253.09
  L 435.80 265.06
  A 0.71 0.70 75.3 0 0 436.39 265.41
  Q 457.97 265.57 470.49 265.33
  Q 478.56 265.17 481.21 258.44
  Q 485.51 247.52 481.56 234.47
  C 479.29 226.97 471.99 226.18 465.06 226.18
  Q 426.38 226.21 413.30 226.17
  A 0.47 0.46 -89.4 0 0 412.83 226.64
  Z"
/>
<path fill="#013d93" d="
  M 334.84 177.24
  Q 334.84 177.39 334.84 177.49
  A 0.18 0.17 75.0 0 1 334.76 177.64
  Q 321.57 185.38 304.69 193.41
  Q 276.44 206.86 250.31 216.65
  Q 236.52 199.49 220.01 185.25
  C 206.98 174.01 192.03 164.00 175.41 158.86
  C 165.36 155.76 152.13 156.32 146.26 166.98
  C 140.64 177.18 141.53 190.93 144.19 202.16
  Q 149.77 225.75 162.78 246.66
  L 144.37 252.74
  Q 144.39 242.16 144.45 231.99
  C 144.48 228.63 145.67 227.21 148.08 225.42
  A 0.59 0.59 0.0 0 0 147.73 224.35
  L 133.03 224.35
  A 0.35 0.35 0.0 0 0 132.76 224.92
  L 136.09 229.05
  A 3.87 3.84 -64.7 0 1 136.95 231.48
  L 136.95 256.39
  A 0.34 0.34 0.0 0 1 136.32 256.56
  L 118.11 225.02
  A 1.50 1.49 -14.8 0 0 116.81 224.27
  L 95.01 224.27
  A 0.30 0.29 70.7 0 0 94.78 224.75
  L 98.06 228.82
  A 3.89 3.85 25.7 0 1 98.93 231.26
  L 99.04 270.25
  L 75.26 282.21
  Q 65.23 234.48 85.45 191.71
  Q 102.34 155.97 135.69 133.69
  Q 174.05 108.06 220.75 109.99
  C 263.70 111.77 303.16 133.62 328.72 168.03
  Q 332.04 172.50 334.84 177.24
  Z
  M 216.2296 121.2810
  A 1.27 1.11 1.4 0 0 214.9871 120.1403
  A 1.27 1.11 1.4 0 0 213.6904 121.2190
  A 1.27 1.11 1.4 0 0 214.9329 122.3597
  A 1.27 1.11 1.4 0 0 216.2296 121.2810
  Z
  M 244.75 134.78
  A 0.32 0.32 0.0 0 1 244.50 134.54
  L 243.82 131.77
  A 0.32 0.32 0.0 0 0 243.20 131.78
  L 242.59 134.56
  A 0.32 0.32 0.0 0 1 242.35 134.81
  L 239.58 135.49
  A 0.32 0.32 0.0 0 0 239.59 136.11
  L 242.37 136.72
  A 0.32 0.32 0.0 0 1 242.62 136.96
  L 243.30 139.73
  A 0.32 0.32 0.0 0 0 243.92 139.72
  L 244.53 136.94
  A 0.32 0.32 0.0 0 1 244.77 136.69
  L 247.54 136.01
  A 0.32 0.32 0.0 0 0 247.53 135.39
  L 244.75 134.78
  Z
  M 207.53 136.95
  A 1.30 1.30 0.0 0 0 206.23 135.65
  A 1.30 1.30 0.0 0 0 204.93 136.95
  A 1.30 1.30 0.0 0 0 206.23 138.25
  A 1.30 1.30 0.0 0 0 207.53 136.95
  Z
  M 224.22 138.94
  A 1.41 1.41 0.0 0 0 222.81 137.53
  A 1.41 1.41 0.0 0 0 221.40 138.94
  A 1.41 1.41 0.0 0 0 222.81 140.35
  A 1.41 1.41 0.0 0 0 224.22 138.94
  Z
  M 188.55 148.60
  A 1.15 1.15 0.0 0 0 187.40 147.45
  A 1.15 1.15 0.0 0 0 186.25 148.60
  A 1.15 1.15 0.0 0 0 187.40 149.75
  A 1.15 1.15 0.0 0 0 188.55 148.60
  Z
  M 211.36 148.94
  A 1.12 1.12 0.0 0 0 210.24 147.82
  A 1.12 1.12 0.0 0 0 209.12 148.94
  A 1.12 1.12 0.0 0 0 210.24 150.06
  A 1.12 1.12 0.0 0 0 211.36 148.94
  Z
  M 191.99 150.95
  A 1.18 1.18 0.0 0 0 190.81 149.77
  A 1.18 1.18 0.0 0 0 189.63 150.95
  A 1.18 1.18 0.0 0 0 190.81 152.13
  A 1.18 1.18 0.0 0 0 191.99 150.95
  Z
  M 195.37 153.31
  A 1.19 1.19 0.0 0 0 194.18 152.12
  A 1.19 1.19 0.0 0 0 192.99 153.31
  A 1.19 1.19 0.0 0 0 194.18 154.50
  A 1.19 1.19 0.0 0 0 195.37 153.31
  Z
  M 224.02 155.58
  A 1.09 1.09 0.0 0 0 222.93 154.49
  A 1.09 1.09 0.0 0 0 221.84 155.58
  A 1.09 1.09 0.0 0 0 222.93 156.67
  A 1.09 1.09 0.0 0 0 224.02 155.58
  Z
  M 190.21 157.78
  A 1.22 1.22 0.0 0 0 188.99 156.56
  A 1.22 1.22 0.0 0 0 187.77 157.78
  A 1.22 1.22 0.0 0 0 188.99 159.00
  A 1.22 1.22 0.0 0 0 190.21 157.78
  Z
  M 245.17 167.94
  A 1.30 1.30 0.0 0 0 243.87 166.64
  A 1.30 1.30 0.0 0 0 242.57 167.94
  A 1.30 1.30 0.0 0 0 243.87 169.24
  A 1.30 1.30 0.0 0 0 245.17 167.94
  Z"
/>
<ellipse fill="#ffffff" cx="0.00" cy="0.00" transform="translate(214.96,121.25) rotate(1.4)" rx="1.27" ry="1.11"/>
<path fill="#ff1923" d="
  M 345.00 196.70
  Q 344.85 196.70 344.72 196.71
  A 0.55 0.53 -66.0 0 0 344.40 196.84
  Q 327.13 211.84 308.39 224.95
  A 0.19 0.18 70.9 0 0 308.31 225.12
  Q 308.35 225.45 308.79 225.38
  Q 308.02 225.43 307.73 225.64
  Q 302.62 229.21 297.51 232.77
  Q 297.29 232.93 297.28 233.31
  Q 297.11 233.27 296.97 233.25
  A 0.58 0.57 -58.3 0 0 296.60 233.34
  L 273.02 249.13
  L 270.17 244.35
  L 294.58 227.42
  L 297.28 225.34
  L 330.41 199.42
  A 0.43 0.43 0.0 0 0 330.48 198.82
  L 330.47 198.80
  A 0.43 0.43 0.0 0 0 329.88 198.71
  Q 319.90 205.70 309.06 211.34
  Q 290.38 221.06 270.21 228.61
  L 270.34 224.55
  A 0.41 0.41 0.0 0 0 269.61 224.29
  C 268.13 226.16 266.42 227.23 263.86 226.59
  Q 261.31 225.96 258.24 225.68
  A 2.23 2.20 73.6 0 1 256.70 224.83
  L 250.31 216.65
  Q 276.44 206.86 304.69 193.41
  Q 321.57 185.38 334.76 177.64
  A 0.18 0.17 75.0 0 0 334.84 177.49
  Q 334.84 177.39 334.84 177.24
  Q 334.96 177.49 335.27 177.31
  Q 358.69 163.55 378.84 145.84
  Q 391.11 135.07 399.85 122.42
  A 0.31 0.30 -40.0 0 1 400.38 122.46
  Q 400.55 122.81 400.35 123.38
  C 392.13 146.53 375.75 167.48 358.05 184.31
  Q 349.19 192.73 345.40 195.90
  Q 345.09 196.16 345.00 196.70
  Z"
/>
<path fill="#ffffff" d="
  M 244.75 134.78
  L 247.53 135.39
  A 0.32 0.32 0.0 0 1 247.54 136.01
  L 244.77 136.69
  A 0.32 0.32 0.0 0 0 244.53 136.94
  L 243.92 139.72
  A 0.32 0.32 0.0 0 1 243.30 139.73
  L 242.62 136.96
  A 0.32 0.32 0.0 0 0 242.37 136.72
  L 239.59 136.11
  A 0.32 0.32 0.0 0 1 239.58 135.49
  L 242.35 134.81
  A 0.32 0.32 0.0 0 0 242.59 134.56
  L 243.20 131.78
  A 0.32 0.32 0.0 0 1 243.82 131.77
  L 244.50 134.54
  A 0.32 0.32 0.0 0 0 244.75 134.78
  Z"
/>
<circle fill="#ffffff" cx="206.23" cy="136.95" r="1.30"/>
<circle fill="#ffffff" cx="222.81" cy="138.94" r="1.41"/>
<circle fill="#ffffff" cx="187.40" cy="148.60" r="1.15"/>
<circle fill="#ffffff" cx="210.24" cy="148.94" r="1.12"/>
<circle fill="#ffffff" cx="190.81" cy="150.95" r="1.18"/>
<circle fill="#ffffff" cx="194.18" cy="153.31" r="1.19"/>
<circle fill="#ffffff" cx="222.93" cy="155.58" r="1.09"/>
<circle fill="#ffffff" cx="188.99" cy="157.78" r="1.22"/>
<path fill="#ffffff" d="
  M 250.31 216.65
  L 256.70 224.83
  A 2.23 2.20 73.6 0 0 258.24 225.68
  Q 261.31 225.96 263.86 226.59
  C 266.42 227.23 268.13 226.16 269.61 224.29
  A 0.41 0.41 0.0 0 1 270.34 224.55
  L 270.21 228.61
  L 270.22 237.20
  A 0.24 0.24 0.0 0 1 269.86 237.40
  L 263.77 233.88
  A 0.23 0.23 0.0 0 0 263.47 234.21
  L 270.17 244.35
  L 273.02 249.13
  Q 279.85 260.53 285.04 272.70
  A 0.55 0.54 -48.6 0 0 286.07 272.63
  L 297.28 233.31
  Q 297.29 232.93 297.51 232.77
  Q 302.62 229.21 307.73 225.64
  Q 308.02 225.43 308.79 225.38
  L 319.05 225.37
  A 1.50 1.50 0.0 0 1 320.46 226.36
  L 338.45 275.49
  A 0.72 0.71 9.5 0 0 338.69 275.82
  L 341.77 278.22
  A 0.25 0.25 0.0 0 1 341.62 278.66
  L 311.29 278.66
  A 0.53 0.53 0.0 0 1 311.04 277.67
  C 315.97 274.98 315.06 270.86 313.08 266.65
  A 0.82 0.80 77.2 0 0 312.35 266.18
  L 295.91 266.18
  A 1.01 1.00 8.6 0 0 294.95 266.88
  C 294.11 269.55 293.48 274.44 295.40 276.56
  Q 296.27 277.53 296.53 277.82
  A 0.37 0.36 -20.1 0 1 296.25 278.42
  L 287.93 278.42
  A 0.71 0.71 0.0 0 0 287.26 279.37
  C 294.24 298.77 301.89 340.66 265.14 333.96
  Q 255.90 332.28 246.78 328.05
  A 0.22 0.21 27.6 0 1 246.68 327.75
  L 246.85 327.45
  A 0.23 0.23 0.0 0 1 247.15 327.36
  Q 257.01 331.74 267.51 332.73
  C 283.68 334.25 291.36 323.77 290.81 308.48
  Q 290.55 301.28 290.06 298.66
  Q 288.20 288.87 284.82 279.26
  A 1.21 1.20 79.9 0 0 283.69 278.47
  L 280.57 278.47
  A 0.55 0.55 0.0 0 1 280.30 277.45
  L 282.80 276.01
  A 0.83 0.82 64.7 0 0 283.16 275.00
  Q 278.07 261.86 270.94 249.99
  L 268.20 245.64
  L 259.27 232.44
  C 255.33 231.13 244.93 230.58 245.15 237.08
  Q 246.53 240.30 250.03 241.48
  Q 258.97 244.49 264.97 247.65
  L 245.97 259.49
  Q 242.03 257.77 238.50 256.13
  Q 229.68 252.01 228.71 242.17
  C 228.52 228.83 241.50 223.47 252.87 224.93
  A 0.40 0.40 0.0 0 0 253.23 224.27
  L 247.82 217.70
  Q 231.23 197.70 211.08 181.44
  Q 197.48 170.46 183.28 164.51
  C 170.96 159.33 155.27 157.25 148.21 170.03
  C 143.02 179.45 145.16 195.14 148.32 205.65
  Q 154.57 226.53 165.60 245.79
  L 162.78 246.66
  Q 149.77 225.75 144.19 202.16
  C 141.53 190.93 140.64 177.18 146.26 166.98
  C 152.13 156.32 165.36 155.76 175.41 158.86
  C 192.03 164.00 206.98 174.01 220.01 185.25
  Q 236.52 199.49 250.31 216.65
  Z
  M 303.61 239.91
  A 0.35 0.35 0.0 0 0 302.94 239.93
  L 297.09 258.89
  A 0.35 0.35 0.0 0 0 297.42 259.34
  L 310.22 259.34
  A 0.35 0.35 0.0 0 0 310.55 258.87
  L 303.61 239.91
  Z"
/>
<path fill="#013d93" d="
  M 247.82 217.70
  L 202.67 233.56
  L 199.83 225.78
  A 1.97 1.97 0.0 0 0 197.98 224.48
  L 172.61 224.48
  A 0.35 0.35 0.0 0 0 172.37 225.08
  Q 174.35 226.95 176.16 229.16
  Q 176.96 230.13 176.21 233.25
  Q 174.94 238.50 173.53 243.37
  L 165.60 245.79
  Q 154.57 226.53 148.32 205.65
  C 145.16 195.14 143.02 179.45 148.21 170.03
  C 155.27 157.25 170.96 159.33 183.28 164.51
  Q 197.48 170.46 211.08 181.44
  Q 231.23 197.70 247.82 217.70
  Z
  M 163.07 176.85
  A 1.25 1.25 0.0 0 0 161.82 175.60
  A 1.25 1.25 0.0 0 0 160.57 176.85
  A 1.25 1.25 0.0 0 0 161.82 178.10
  A 1.25 1.25 0.0 0 0 163.07 176.85
  Z
  M 177.00 182.21
  Q 177.65 179.01 180.82 179.52
  A 0.17 0.17 0.0 0 0 181.02 179.35
  L 181.02 179.10
  A 0.38 0.38 0.0 0 0 180.58 178.73
  Q 177.68 179.23 176.89 176.43
  A 0.37 0.37 0.0 0 0 176.17 176.45
  Q 175.54 179.12 172.62 178.77
  A 0.31 0.31 0.0 0 0 172.28 179.07
  L 172.27 179.08
  A 0.40 0.40 0.0 0 0 172.68 179.49
  Q 175.65 179.35 176.30 182.22
  A 0.36 0.36 0.0 0 0 177.00 182.21
  Z
  M 168.10 182.97
  A 1.22 1.22 0.0 0 0 166.88 181.75
  A 1.22 1.22 0.0 0 0 165.66 182.97
  A 1.22 1.22 0.0 0 0 166.88 184.19
  A 1.22 1.22 0.0 0 0 168.10 182.97
  Z"
/>
<circle fill="#ffffff" cx="243.87" cy="167.94" r="1.30"/>
<circle fill="#ffffff" cx="161.82" cy="176.85" r="1.25"/>
<path fill="#ffffff" d="
  M 177.00 182.21
  A 0.36 0.36 0.0 0 1 176.30 182.22
  Q 175.65 179.35 172.68 179.49
  A 0.40 0.40 0.0 0 1 172.27 179.08
  L 172.28 179.07
  A 0.31 0.31 0.0 0 1 172.62 178.77
  Q 175.54 179.12 176.17 176.45
  A 0.37 0.37 0.0 0 1 176.89 176.43
  Q 177.68 179.23 180.58 178.73
  A 0.38 0.38 0.0 0 1 181.02 179.10
  L 181.02 179.35
  A 0.17 0.17 0.0 0 1 180.82 179.52
  Q 177.65 179.01 177.00 182.21
  Z"
/>
<circle fill="#ffffff" cx="166.88" cy="182.97" r="1.22"/>
<path fill="#013d93" d="
  M 345.00 196.70
  Q 345.99 198.75 346.82 200.91
  C 385.89 302.69 300.20 407.37 193.49 392.31
  Q 151.89 386.44 119.02 356.96
  Q 157.26 325.25 198.46 297.60
  C 200.98 301.25 214.17 320.00 219.33 312.31
  C 220.91 309.96 217.84 307.37 216.02 306.00
  Q 209.15 300.80 202.13 295.00
  L 229.51 277.27
  L 229.52 281.26
  A 0.44 0.43 70.3 0 0 230.23 281.60
  L 235.21 277.59
  A 1.86 1.85 35.4 0 1 237.03 277.29
  Q 244.51 280.09 252.76 279.75
  C 260.56 279.42 271.03 275.16 274.62 267.60
  C 277.65 261.19 273.65 255.91 269.70 251.31
  Q 270.06 250.69 270.94 249.99
  Q 278.07 261.86 283.16 275.00
  A 0.83 0.82 64.7 0 1 282.80 276.01
  L 280.30 277.45
  A 0.55 0.55 0.0 0 0 280.57 278.47
  L 283.69 278.47
  A 1.21 1.20 79.9 0 1 284.82 279.26
  Q 288.20 288.87 290.06 298.66
  Q 290.55 301.28 290.81 308.48
  C 291.36 323.77 283.68 334.25 267.51 332.73
  Q 257.01 331.74 247.15 327.36
  A 0.23 0.23 0.0 0 0 246.85 327.45
  L 246.68 327.75
  A 0.22 0.21 27.6 0 0 246.78 328.05
  Q 255.90 332.28 265.14 333.96
  C 301.89 340.66 294.24 298.77 287.26 279.37
  A 0.71 0.71 0.0 0 1 287.93 278.42
  L 296.25 278.42
  A 0.37 0.36 -20.1 0 0 296.53 277.82
  Q 296.27 277.53 295.40 276.56
  C 293.48 274.44 294.11 269.55 294.95 266.88
  A 1.01 1.00 8.6 0 1 295.91 266.18
  L 312.35 266.18
  A 0.82 0.80 77.2 0 1 313.08 266.65
  C 315.06 270.86 315.97 274.98 311.04 277.67
  A 0.53 0.53 0.0 0 0 311.29 278.66
  L 341.62 278.66
  A 0.25 0.25 0.0 0 0 341.77 278.22
  L 338.69 275.82
  A 0.72 0.71 9.5 0 1 338.45 275.49
  L 320.46 226.36
  A 1.50 1.50 0.0 0 0 319.05 225.37
  L 308.79 225.38
  Q 308.35 225.45 308.31 225.12
  A 0.19 0.18 70.9 0 1 308.39 224.95
  Q 327.13 211.84 344.40 196.84
  A 0.55 0.53 -66.0 0 1 344.72 196.71
  Q 344.85 196.70 345.00 196.70
  Z
  M 306.9545 290.5586
  A 1.34 1.08 -5.2 0 0 305.5221 289.6044
  A 1.34 1.08 -5.2 0 0 304.2855 290.8014
  A 1.34 1.08 -5.2 0 0 305.7179 291.7556
  A 1.34 1.08 -5.2 0 0 306.9545 290.5586
  Z
  M 324.83 295.62
  A 0.33 0.33 0.0 0 1 324.58 295.38
  L 323.87 292.67
  A 0.33 0.33 0.0 0 0 323.23 292.69
  L 322.64 295.43
  A 0.33 0.33 0.0 0 1 322.40 295.68
  L 319.69 296.39
  A 0.33 0.33 0.0 0 0 319.71 297.03
  L 322.45 297.62
  A 0.33 0.33 0.0 0 1 322.70 297.86
  L 323.41 300.57
  A 0.33 0.33 0.0 0 0 324.05 300.55
  L 324.64 297.81
  A 0.33 0.33 0.0 0 1 324.88 297.56
  L 327.59 296.85
  A 0.33 0.33 0.0 0 0 327.57 296.21
  L 324.83 295.62
  Z
  M 309.73 297.85
  A 1.49 1.49 0.0 0 0 308.24 296.36
  A 1.49 1.49 0.0 0 0 306.75 297.85
  A 1.49 1.49 0.0 0 0 308.24 299.34
  A 1.49 1.49 0.0 0 0 309.73 297.85
  Z
  M 288.86 298.59
  A 1.48 1.48 0.0 0 0 287.38 297.11
  A 1.48 1.48 0.0 0 0 285.90 298.59
  A 1.48 1.48 0.0 0 0 287.38 300.07
  A 1.48 1.48 0.0 0 0 288.86 298.59
  Z
  M 329.89 306.31
  A 1.46 1.46 0.0 0 0 328.43 304.85
  A 1.46 1.46 0.0 0 0 326.97 306.31
  A 1.46 1.46 0.0 0 0 328.43 307.77
  A 1.46 1.46 0.0 0 0 329.89 306.31
  Z
  M 277.46 306.40
  A 1.23 1.23 0.0 0 0 276.23 305.17
  A 1.23 1.23 0.0 0 0 275.00 306.40
  A 1.23 1.23 0.0 0 0 276.23 307.63
  A 1.23 1.23 0.0 0 0 277.46 306.40
  Z
  M 288.81 308.61
  A 1.53 1.53 0.0 0 0 287.28 307.08
  A 1.53 1.53 0.0 0 0 285.75 308.61
  A 1.53 1.53 0.0 0 0 287.28 310.14
  A 1.53 1.53 0.0 0 0 288.81 308.61
  Z
  M 322.32 309.05
  A 1.24 1.24 0.0 0 0 321.08 307.81
  A 1.24 1.24 0.0 0 0 319.84 309.05
  A 1.24 1.24 0.0 0 0 321.08 310.29
  A 1.24 1.24 0.0 0 0 322.32 309.05
  Z
  M 309.29 321.31
  A 1.19 1.19 0.0 0 0 308.10 320.12
  A 1.19 1.19 0.0 0 0 306.91 321.31
  A 1.19 1.19 0.0 0 0 308.10 322.50
  A 1.19 1.19 0.0 0 0 309.29 321.31
  Z
  M 277.56 322.56
  A 1.32 1.32 0.0 0 0 276.24 321.24
  A 1.32 1.32 0.0 0 0 274.92 322.56
  A 1.32 1.32 0.0 0 0 276.24 323.88
  A 1.32 1.32 0.0 0 0 277.56 322.56
  Z
  M 307.72 328.35
  Q 311.13 329.04 310.59 332.42
  A 0.18 0.18 0.0 0 0 310.77 332.63
  L 311.03 332.63
  A 0.41 0.40 -4.8 0 0 311.43 332.16
  Q 310.90 329.08 313.88 328.24
  A 0.40 0.40 0.0 0 0 313.86 327.47
  Q 311.02 326.80 311.39 323.69
  A 0.33 0.33 0.0 0 0 311.07 323.32
  L 311.06 323.31
  A 0.42 0.42 0.0 0 0 310.62 323.75
  Q 310.77 326.91 307.71 327.60
  A 0.38 0.38 0.0 0 0 307.72 328.35
  Z
  M 320.01 327.97
  A 1.22 1.22 0.0 0 0 318.79 326.75
  A 1.22 1.22 0.0 0 0 317.57 327.97
  A 1.22 1.22 0.0 0 0 318.79 329.19
  A 1.22 1.22 0.0 0 0 320.01 327.97
  Z
  M 173.92 329.14
  A 1.42 1.42 0.0 0 0 172.50 327.72
  A 1.42 1.42 0.0 0 0 171.08 329.14
  A 1.42 1.42 0.0 0 0 172.50 330.56
  A 1.42 1.42 0.0 0 0 173.92 329.14
  Z
  M 235.52 329.78
  A 1.15 1.15 0.0 0 0 234.37 328.63
  A 1.15 1.15 0.0 0 0 233.22 329.78
  A 1.15 1.15 0.0 0 0 234.37 330.93
  A 1.15 1.15 0.0 0 0 235.52 329.78
  Z
  M 159.4870 339.9191
  A 1.31 1.11 3.9 0 0 158.2555 338.7226
  A 1.31 1.11 3.9 0 0 156.8730 339.7409
  A 1.31 1.11 3.9 0 0 158.1045 340.9374
  A 1.31 1.11 3.9 0 0 159.4870 339.9191
  Z
  M 207.6300 339.6420
  A 1.17 0.88 0.1 0 0 206.4615 338.7600
  A 1.17 0.88 0.1 0 0 205.2900 339.6380
  A 1.17 0.88 0.1 0 0 206.4585 340.5200
  A 1.17 0.88 0.1 0 0 207.6300 339.6420
  Z
  M 175.56 342.90
  A 1.14 1.14 0.0 0 0 174.42 341.76
  A 1.14 1.14 0.0 0 0 173.28 342.90
  A 1.14 1.14 0.0 0 0 174.42 344.04
  A 1.14 1.14 0.0 0 0 175.56 342.90
  Z
  M 163.33 355.67
  A 0.34 0.34 0.0 0 1 163.09 355.44
  L 162.36 352.95
  A 0.34 0.34 0.0 0 0 161.70 352.96
  L 161.04 355.46
  A 0.34 0.34 0.0 0 1 160.81 355.70
  L 158.32 356.43
  A 0.34 0.34 0.0 0 0 158.33 357.09
  L 160.83 357.75
  A 0.34 0.34 0.0 0 1 161.07 357.98
  L 161.80 360.47
  A 0.34 0.34 0.0 0 0 162.46 360.46
  L 163.12 357.96
  A 0.34 0.34 0.0 0 1 163.35 357.72
  L 165.84 356.99
  A 0.34 0.34 0.0 0 0 165.83 356.33
  L 163.33 355.67
  Z
  M 282.9583 353.7141
  A 1.33 1.11 -7.6 0 0 281.4932 352.7898
  A 1.33 1.11 -7.6 0 0 280.3217 354.0659
  A 1.33 1.11 -7.6 0 0 281.7868 354.9902
  A 1.33 1.11 -7.6 0 0 282.9583 353.7141
  Z"
/>
<path fill="#013d93" d="
  M 297.28 225.34
  L 293.97 225.17
  A 0.48 0.48 0.0 0 0 293.48 225.74
  Q 293.63 226.47 294.58 227.42
  L 270.17 244.35
  L 263.47 234.21
  A 0.23 0.23 0.0 0 1 263.77 233.88
  L 269.86 237.40
  A 0.24 0.24 0.0 0 0 270.22 237.20
  L 270.21 228.61
  Q 290.38 221.06 309.06 211.34
  Q 319.90 205.70 329.88 198.71
  A 0.43 0.43 0.0 0 1 330.47 198.80
  L 330.48 198.82
  A 0.43 0.43 0.0 0 1 330.41 199.42
  L 297.28 225.34
  Z"
/>
<path fill="#ff1923" d="
  M 247.82 217.70
  L 253.23 224.27
  A 0.40 0.40 0.0 0 1 252.87 224.93
  C 241.50 223.47 228.52 228.83 228.71 242.17
  L 207.86 247.87
  L 202.67 233.56
  L 247.82 217.70
  Z"
/>
<path fill="#ffffff" d="
  M 144.37 252.74
  L 144.45 263.81
  Q 144.37 265.67 144.25 268.25
  Q 144.20 269.17 144.89 271.86
  C 145.30 273.48 147.91 275.56 148.98 277.25
  A 0.38 0.38 0.0 0 1 148.66 277.83
  L 127.39 277.83
  A 1.39 1.37 -15.2 0 1 126.20 277.16
  L 121.61 269.57
  L 117.65 262.67
  L 106.45 243.52
  A 0.32 0.32 0.0 0 0 105.86 243.68
  L 106.05 267.50
  Q 105.94 271.48 108.12 273.69
  L 110.87 276.50
  A 0.54 0.53 -23.1 0 1 110.50 277.41
  L 95.28 277.83
  L 94.50 277.68
  A 0.48 0.48 0.0 0 1 94.14 277.02
  Q 94.30 276.65 94.68 276.46
  Q 98.33 274.66 99.04 270.25
  L 98.93 231.26
  A 3.89 3.85 25.7 0 0 98.06 228.82
  L 94.78 224.75
  A 0.30 0.29 70.7 0 1 95.01 224.27
  L 116.81 224.27
  A 1.50 1.49 -14.8 0 1 118.11 225.02
  L 136.32 256.56
  A 0.34 0.34 0.0 0 0 136.95 256.39
  L 136.95 231.48
  A 3.87 3.84 -64.7 0 0 136.09 229.05
  L 132.76 224.92
  A 0.35 0.35 0.0 0 1 133.03 224.35
  L 147.73 224.35
  A 0.59 0.59 0.0 0 1 148.08 225.42
  C 145.67 227.21 144.48 228.63 144.45 231.99
  Q 144.39 242.16 144.37 252.74
  Z"
/>
<path fill="#ffffff" d="
  M 202.67 233.56
  L 207.86 247.87
  Q 212.52 262.37 219.04 276.70
  L 217.11 277.90
  L 190.82 277.74
  A 0.47 0.47 0.0 0 1 190.51 276.92
  Q 192.80 274.91 193.32 274.05
  C 194.64 271.88 193.26 267.80 192.27 265.82
  A 0.88 0.87 -12.9 0 0 191.48 265.33
  L 179.13 265.33
  A 0.44 0.44 0.0 0 0 178.79 266.04
  L 198.34 290.47
  Q 196.26 291.96 194.89 292.26
  Q 184.29 279.56 175.04 266.15
  A 0.47 0.47 0.0 0 0 174.22 266.25
  Q 171.79 272.50 175.61 277.28
  A 0.20 0.19 -18.8 0 1 175.45 277.59
  L 159.78 277.59
  A 0.45 0.45 0.0 0 1 159.57 276.75
  Q 163.10 274.79 164.97 272.12
  A 5.33 5.12 -20.7 0 0 165.73 270.52
  L 169.42 257.59
  L 173.53 243.37
  Q 174.94 238.50 176.21 233.25
  Q 176.96 230.13 176.16 229.16
  Q 174.35 226.95 172.37 225.08
  A 0.35 0.35 0.0 0 1 172.61 224.48
  L 197.98 224.48
  A 1.97 1.97 0.0 0 1 199.83 225.78
  L 202.67 233.56
  Z
  M 177.27 255.37
  L 176.38 257.45
  A 0.81 0.80 11.5 0 0 177.13 258.57
  L 189.43 258.57
  A 0.55 0.55 0.0 0 0 189.94 257.80
  L 187.82 252.75
  L 182.76 239.87
  A 0.40 0.40 0.0 0 0 182.00 239.90
  L 177.27 255.37
  Z"
/>
<path fill="#ffffff" d="
  M 297.28 225.34
  L 294.58 227.42
  Q 293.63 226.47 293.48 225.74
  A 0.48 0.48 0.0 0 1 293.97 225.17
  L 297.28 225.34
  Z"
/>
<path fill="#fe0000" d="
  M 538.53 279.03
  A 0.27 0.27 0.0 0 1 538.30 279.43
  Q 511.50 279.44 502.00 279.43
  C 494.99 279.43 489.62 276.63 486.76 270.60
  Q 485.66 268.28 485.68 262.27
  Q 485.75 242.63 485.69 226.32
  A 0.46 0.46 0.0 0 1 486.15 225.86
  L 498.83 225.86
  A 0.61 0.61 0.0 0 1 499.44 226.47
  L 499.44 265.10
  A 0.62 0.61 90.0 0 0 500.05 265.72
  L 530.02 265.72
  A 1.44 1.42 -14.8 0 1 531.26 266.43
  L 538.53 279.03
  Z"
/>
<path fill="#fe0000" d="
  M 397.07 226.18
  L 409.52 226.18
  A 0.60 0.60 0.0 0 1 410.12 226.79
  Q 410.06 229.47 410.17 256.92
  C 410.21 267.42 410.02 274.17 401.28 278.42
  Q 398.49 279.78 392.16 279.72
  Q 381.61 279.62 357.31 279.72
  A 0.28 0.27 15.0 0 1 357.07 279.31
  L 364.64 266.21
  A 0.69 0.68 -74.6 0 1 365.23 265.87
  Q 379.21 265.87 389.81 265.90
  C 393.99 265.91 396.26 264.72 396.33 260.49
  Q 396.41 255.81 396.35 226.90
  A 0.72 0.72 0.0 0 1 397.07 226.18
  Z"
/>
<path fill="#fe0000" d="
  M 412.83 226.64
  A 0.47 0.46 -89.4 0 1 413.30 226.17
  Q 426.38 226.21 465.06 226.18
  C 471.99 226.18 479.29 226.97 481.56 234.47
  Q 485.51 247.52 481.21 258.44
  Q 478.56 265.17 470.49 265.33
  Q 457.97 265.57 436.39 265.41
  A 0.71 0.70 75.3 0 1 435.80 265.06
  L 428.89 253.09
  A 0.82 0.82 0.0 0 1 429.60 251.86
  Q 462.71 251.86 464.24 251.89
  C 469.31 251.98 469.84 247.40 469.01 243.33
  Q 468.33 240.03 464.50 239.96
  Q 454.47 239.79 427.73 239.91
  A 0.42 0.42 0.0 0 0 427.31 240.33
  L 427.31 278.88
  A 0.56 0.56 0.0 0 1 426.75 279.44
  L 413.36 279.44
  A 0.54 0.53 -90.0 0 1 412.83 278.90
  L 412.83 226.64
  Z"
/>
<path fill="#fe0000" d="
  M 259.27 232.44
  L 245.15 237.08
  C 244.93 230.58 255.33 231.13 259.27 232.44
  Z"
/>
<path fill="#013d93" d="
  M 259.27 232.44
  L 268.20 245.64
  Q 266.38 246.28 264.97 247.65
  Q 258.97 244.49 250.03 241.48
  Q 246.53 240.30 245.15 237.08
  L 259.27 232.44
  Z"
/>
<path fill="#013d93" d="
  M 297.28 233.31
  L 286.07 272.63
  A 0.55 0.54 -48.6 0 1 285.04 272.70
  Q 279.85 260.53 273.02 249.13
  L 296.60 233.34
  A 0.58 0.57 -58.3 0 1 296.97 233.25
  Q 297.11 233.27 297.28 233.31
  Z"
/>
<path fill="#ff1923" d="
  M 187.82 252.75
  Q 182.86 254.91 177.27 255.37
  L 182.00 239.90
  A 0.40 0.40 0.0 0 1 182.76 239.87
  L 187.82 252.75
  Z"
/>
<path fill="#013d93" d="
  M 303.61 239.91
  L 310.55 258.87
  A 0.35 0.35 0.0 0 1 310.22 259.34
  L 297.42 259.34
  A 0.35 0.35 0.0 0 1 297.09 258.89
  L 302.94 239.93
  A 0.35 0.35 0.0 0 1 303.61 239.91
  Z"
/>
<path fill="#013d93" d="
  M 228.71 242.17
  Q 229.68 252.01 238.50 256.13
  Q 242.03 257.77 245.97 259.49
  L 233.36 267.13
  Q 231.44 266.12 229.99 264.60
  A 0.52 0.52 0.0 0 0 229.09 264.97
  L 229.24 269.85
  L 219.04 276.70
  Q 212.52 262.37 207.86 247.87
  L 228.71 242.17
  Z"
/>
<path fill="#013d93" d="
  M 117.65 262.67
  Q 111.66 264.30 106.05 267.50
  L 105.86 243.68
  A 0.32 0.32 0.0 0 1 106.45 243.52
  L 117.65 262.67
  Z"
/>
<path fill="#ff1923" d="
  M 173.53 243.37
  L 169.42 257.59
  L 144.45 263.81
  L 144.37 252.74
  L 162.78 246.66
  L 165.60 245.79
  L 173.53 243.37
  Z"
/>
<path fill="#ff1923" d="
  M 268.20 245.64
  L 270.94 249.99
  Q 270.06 250.69 269.70 251.31
  L 253.44 262.25
  L 239.76 270.58
  L 229.51 277.27
  L 202.13 295.00
  L 198.46 297.60
  Q 157.26 325.25 119.02 356.96
  Q 105.98 367.58 93.50 380.14
  A 0.40 0.40 0.0 0 1 92.82 379.80
  L 93.33 376.29
  A 1.81 1.76 -17.6 0 1 93.91 375.21
  L 116.44 354.60
  Q 129.91 341.37 144.50 329.50
  Q 168.50 309.99 194.39 293.07
  A 1.09 1.06 -7.2 0 0 194.79 292.57
  Q 194.84 292.42 194.89 292.26
  Q 196.26 291.96 198.34 290.47
  L 217.11 277.90
  L 219.04 276.70
  L 229.24 269.85
  L 233.36 267.13
  L 245.97 259.49
  L 264.97 247.65
  Q 266.38 246.28 268.20 245.64
  Z"
/>
<path fill="#ffffff" d="
  M 269.70 251.31
  C 273.65 255.91 277.65 261.19 274.62 267.60
  C 271.03 275.16 260.56 279.42 252.76 279.75
  Q 244.51 280.09 237.03 277.29
  A 1.86 1.85 35.4 0 0 235.21 277.59
  L 230.23 281.60
  A 0.44 0.43 70.3 0 1 229.52 281.26
  L 229.51 277.27
  L 239.76 270.58
  Q 246.28 273.24 252.88 271.48
  Q 255.99 270.65 256.90 269.40
  C 259.48 265.82 256.24 263.95 253.44 262.25
  L 269.70 251.31
  Z"
/>
<path fill="#013d93" d="
  M 187.82 252.75
  L 189.94 257.80
  A 0.55 0.55 0.0 0 1 189.43 258.57
  L 177.13 258.57
  A 0.81 0.80 11.5 0 1 176.38 257.45
  L 177.27 255.37
  Q 182.86 254.91 187.82 252.75
  Z"
/>
<path fill="#013d93" d="
  M 169.42 257.59
  L 165.73 270.52
  A 5.33 5.12 -20.7 0 1 164.97 272.12
  Q 163.10 274.79 159.57 276.75
  A 0.45 0.45 0.0 0 0 159.78 277.59
  L 175.45 277.59
  A 0.20 0.19 -18.8 0 0 175.61 277.28
  Q 171.79 272.50 174.22 266.25
  A 0.47 0.47 0.0 0 1 175.04 266.15
  Q 184.29 279.56 194.89 292.26
  Q 194.84 292.42 194.79 292.57
  A 1.09 1.06 -7.2 0 1 194.39 293.07
  Q 168.50 309.99 144.50 329.50
  Q 129.91 341.37 116.44 354.60
  C 97.25 336.21 82.14 311.79 76.23 285.81
  L 95.28 277.83
  L 110.50 277.41
  A 0.54 0.53 -23.1 0 0 110.87 276.50
  L 108.12 273.69
  Q 115.18 272.30 121.61 269.57
  L 126.20 277.16
  A 1.39 1.37 -15.2 0 0 127.39 277.83
  L 148.66 277.83
  A 0.38 0.38 0.0 0 0 148.98 277.25
  C 147.91 275.56 145.30 273.48 144.89 271.86
  Q 144.20 269.17 144.25 268.25
  Q 144.37 265.67 144.45 263.81
  L 169.42 257.59
  Z
  M 164.09 281.77
  A 1.18 1.18 0.0 0 0 162.91 280.59
  A 1.18 1.18 0.0 0 0 161.73 281.77
  A 1.18 1.18 0.0 0 0 162.91 282.95
  A 1.18 1.18 0.0 0 0 164.09 281.77
  Z
  M 164.82 308.97
  A 1.46 1.46 0.0 0 0 163.36 307.51
  A 1.46 1.46 0.0 0 0 161.90 308.97
  A 1.46 1.46 0.0 0 0 163.36 310.43
  A 1.46 1.46 0.0 0 0 164.82 308.97
  Z
  M 126.89 316.01
  A 1.44 1.44 0.0 0 0 125.45 314.57
  A 1.44 1.44 0.0 0 0 124.01 316.01
  A 1.44 1.44 0.0 0 0 125.45 317.45
  A 1.44 1.44 0.0 0 0 126.89 316.01
  Z
  M 110.9585 317.4411
  A 1.25 1.03 2.8 0 0 109.7603 316.3512
  A 1.25 1.03 2.8 0 0 108.4615 317.3189
  A 1.25 1.03 2.8 0 0 109.6597 318.4088
  A 1.25 1.03 2.8 0 0 110.9585 317.4411
  Z
  M 149.36 322.96
  A 1.27 1.27 0.0 0 0 148.09 321.69
  A 1.27 1.27 0.0 0 0 146.82 322.96
  A 1.27 1.27 0.0 0 0 148.09 324.23
  A 1.27 1.27 0.0 0 0 149.36 322.96
  Z
  M 124.81 324.00
  A 1.17 1.17 0.0 0 0 123.64 322.83
  A 1.17 1.17 0.0 0 0 122.47 324.00
  A 1.17 1.17 0.0 0 0 123.64 325.17
  A 1.17 1.17 0.0 0 0 124.81 324.00
  Z
  M 130.75 328.60
  A 1.45 1.45 0.0 0 0 129.30 327.15
  A 1.45 1.45 0.0 0 0 127.85 328.60
  A 1.45 1.45 0.0 0 0 129.30 330.05
  A 1.45 1.45 0.0 0 0 130.75 328.60
  Z"
/>
<path fill="#013d93" d="
  M 253.44 262.25
  C 256.24 263.95 259.48 265.82 256.90 269.40
  Q 255.99 270.65 252.88 271.48
  Q 246.28 273.24 239.76 270.58
  L 253.44 262.25
  Z"
/>
<path fill="#ff1923" d="
  M 117.65 262.67
  L 121.61 269.57
  Q 115.18 272.30 108.12 273.69
  Q 105.94 271.48 106.05 267.50
  Q 111.66 264.30 117.65 262.67
  Z"
/>
<path fill="#ffffff" d="
  M 233.36 267.13
  L 229.24 269.85
  L 229.09 264.97
  A 0.52 0.52 0.0 0 1 229.99 264.60
  Q 231.44 266.12 233.36 267.13
  Z"
/>
<path fill="#013d93" d="
  M 217.11 277.90
  L 198.34 290.47
  L 178.79 266.04
  A 0.44 0.44 0.0 0 1 179.13 265.33
  L 191.48 265.33
  A 0.88 0.87 -12.9 0 1 192.27 265.82
  C 193.26 267.80 194.64 271.88 193.32 274.05
  Q 192.80 274.91 190.51 276.92
  A 0.47 0.47 0.0 0 0 190.82 277.74
  L 217.11 277.90
  Z"
/>
<path fill="#ff1923" d="
  M 99.04 270.25
  Q 98.33 274.66 94.68 276.46
  Q 94.30 276.65 94.14 277.02
  A 0.48 0.48 0.0 0 0 94.50 277.68
  L 95.28 277.83
  L 76.23 285.81
  Q 75.74 285.68 75.47 285.79
  Q 70.04 288.10 65.01 290.88
  A 0.63 0.63 0.0 0 1 64.08 290.24
  L 64.32 288.54
  A 1.47 1.45 81.0 0 1 65.11 287.44
  L 75.26 282.21
  L 99.04 270.25
  Z"
/>
<circle fill="#ffffff" cx="162.91" cy="281.77" r="1.18"/>
<ellipse fill="#ffffff" cx="0.00" cy="0.00" transform="translate(305.62,290.68) rotate(-5.2)" rx="1.34" ry="1.08"/>
<path fill="#ffffff" d="
  M 324.83 295.62
  L 327.57 296.21
  A 0.33 0.33 0.0 0 1 327.59 296.85
  L 324.88 297.56
  A 0.33 0.33 0.0 0 0 324.64 297.81
  L 324.05 300.55
  A 0.33 0.33 0.0 0 1 323.41 300.57
  L 322.70 297.86
  A 0.33 0.33 0.0 0 0 322.45 297.62
  L 319.71 297.03
  A 0.33 0.33 0.0 0 1 319.69 296.39
  L 322.40 295.68
  A 0.33 0.33 0.0 0 0 322.64 295.43
  L 323.23 292.69
  A 0.33 0.33 0.0 0 1 323.87 292.67
  L 324.58 295.38
  A 0.33 0.33 0.0 0 0 324.83 295.62
  Z"
/>
<path fill="#ffffff" d="
  M 202.13 295.00
  Q 209.15 300.80 216.02 306.00
  C 217.84 307.37 220.91 309.96 219.33 312.31
  C 214.17 320.00 200.98 301.25 198.46 297.60
  L 202.13 295.00
  Z"
/>
<circle fill="#ffffff" cx="308.24" cy="297.85" r="1.49"/>
<circle fill="#ffffff" cx="287.38" cy="298.59" r="1.48"/>
<circle fill="#ffffff" cx="328.43" cy="306.31" r="1.46"/>
<circle fill="#ffffff" cx="276.23" cy="306.40" r="1.23"/>
<circle fill="#ffffff" cx="287.28" cy="308.61" r="1.53"/>
<circle fill="#ffffff" cx="163.36" cy="308.97" r="1.46"/>
<circle fill="#ffffff" cx="321.08" cy="309.05" r="1.24"/>
<circle fill="#ffffff" cx="125.45" cy="316.01" r="1.44"/>
<ellipse fill="#ffffff" cx="0.00" cy="0.00" transform="translate(109.71,317.38) rotate(2.8)" rx="1.25" ry="1.03"/>
<circle fill="#ffffff" cx="308.10" cy="321.31" r="1.19"/>
<circle fill="#ffffff" cx="276.24" cy="322.56" r="1.32"/>
<circle fill="#ffffff" cx="148.09" cy="322.96" r="1.27"/>
<circle fill="#ffffff" cx="123.64" cy="324.00" r="1.17"/>
<path fill="#ffffff" d="
  M 307.71 327.60
  Q 310.77 326.91 310.62 323.75
  A 0.42 0.42 0.0 0 1 311.06 323.31
  L 311.07 323.32
  A 0.33 0.33 0.0 0 1 311.39 323.69
  Q 311.02 326.80 313.86 327.47
  A 0.40 0.40 0.0 0 1 313.88 328.24
  Q 310.90 329.08 311.43 332.16
  A 0.41 0.40 -4.8 0 1 311.03 332.63
  L 310.77 332.63
  A 0.18 0.18 0.0 0 1 310.59 332.42
  Q 311.13 329.04 307.72 328.35
  A 0.38 0.38 0.0 0 1 307.71 327.60
  Z"
/>
<circle fill="#ffffff" cx="318.79" cy="327.97" r="1.22"/>
<circle fill="#ffffff" cx="129.30" cy="328.60" r="1.45"/>
<circle fill="#ffffff" cx="172.50" cy="329.14" r="1.42"/>
<circle fill="#ffffff" cx="234.37" cy="329.78" r="1.15"/>
<ellipse fill="#ffffff" cx="0.00" cy="0.00" transform="translate(158.18,339.83) rotate(3.9)" rx="1.31" ry="1.11"/>
<ellipse fill="#ffffff" cx="0.00" cy="0.00" transform="translate(206.46,339.64) rotate(0.1)" rx="1.17" ry="0.88"/>
<circle fill="#ffffff" cx="174.42" cy="342.90" r="1.14"/>
<path fill="#ffffff" d="
  M 163.33 355.67
  L 165.83 356.33
  A 0.34 0.34 0.0 0 1 165.84 356.99
  L 163.35 357.72
  A 0.34 0.34 0.0 0 0 163.12 357.96
  L 162.46 360.46
  A 0.34 0.34 0.0 0 1 161.80 360.47
  L 161.07 357.98
  A 0.34 0.34 0.0 0 0 160.83 357.75
  L 158.33 357.09
  A 0.34 0.34 0.0 0 1 158.32 356.43
  L 160.81 355.70
  A 0.34 0.34 0.0 0 0 161.04 355.46
  L 161.70 352.96
  A 0.34 0.34 0.0 0 1 162.36 352.95
  L 163.09 355.44
  A 0.34 0.34 0.0 0 0 163.33 355.67
  Z"
/>
<ellipse fill="#ffffff" cx="0.00" cy="0.00" transform="translate(281.64,353.89) rotate(-7.6)" rx="1.33" ry="1.11"/>
</svg>
