<?xml version="1.0" encoding="UTF-8" standalone="no"?>
<!DOCTYPE svg PUBLIC "-//W3C//DTD SVG 1.1//EN" "http://www.w3.org/Graphics/SVG/1.1/DTD/svg11.dtd">
<svg xmlns="http://www.w3.org/2000/svg" version="1.1" viewBox="0.00 0.00 240.00 211.00">
<g stroke-width="2.00" fill="none" stroke-linecap="butt">
<path stroke="#909294" vector-effect="non-scaling-stroke" d="
  M 226.00 20.76
  A 0.76 0.76 0.0 0 0 225.24 20.00
  L 15.76 20.00
  A 0.76 0.76 0.0 0 0 15.00 20.76
  L 15.00 76.24
  A 0.76 0.76 0.0 0 0 15.76 77.00
  L 225.24 77.00
  A 0.76 0.76 0.0 0 0 226.00 76.24
  L 226.00 20.76"
/>
<path stroke="#909294" vector-effect="non-scaling-stroke" d="
  M 21.67 119.48
  Q 21.81 119.46 22.12 119.49
  A 0.70 0.69 2.7 0 1 22.75 120.18
  L 22.75 126.58
  A 0.40 0.40 0.0 0 0 23.15 126.98
  L 23.45 126.98
  A 0.55 0.54 -90.0 0 0 23.99 126.43
  L 23.99 120.14
  A 0.63 0.63 0.0 0 1 24.62 119.51
  L 25.64 119.51
  A 0.47 0.46 90.0 0 0 26.10 119.04
  L 26.10 118.76
  A 0.35 0.35 0.0 0 0 25.75 118.41
  L 24.83 118.41
  A 0.78 0.78 0.0 0 1 24.05 117.67
  Q 23.99 116.69 24.80 116.12
  A 1.48 1.46 28.6 0 1 25.74 115.85
  Q 26.34 115.89 26.59 115.84
  A 0.47 0.47 0.0 0 0 26.61 114.93
  Q 24.71 114.44 23.52 115.47
  A 1.59 1.57 -15.3 0 0 22.98 116.40
  L 22.68 117.94
  A 0.86 0.85 2.7 0 1 21.92 118.63
  Q 21.33 118.68 21.25 119.01
  A 0.39 0.39 0.0 0 0 21.67 119.48"
/>
<path stroke="#909294" vector-effect="non-scaling-stroke" d="
  M 31.2021 127.2200
  A 4.51 3.99 90.1 0 0 35.2000 122.7170
  A 4.51 3.99 90.1 0 0 31.2179 118.2000
  A 4.51 3.99 90.1 0 0 27.2200 122.7030
  A 4.51 3.99 90.1 0 0 31.2021 127.2200"
/>
<path stroke="#909294" vector-effect="non-scaling-stroke" d="
  M 38.49 119.18
  Q 38.46 118.92 38.43 118.78
  A 0.54 0.54 0.0 0 0 37.37 118.89
  L 37.36 126.50
  A 0.46 0.45 -0.0 0 0 37.82 126.95
  L 38.12 126.95
  A 0.53 0.53 0.0 0 0 38.65 126.42
  L 38.65 121.75
  A 0.98 0.81 -39.7 0 1 38.71 121.43
  Q 39.54 119.23 41.66 119.53
  A 0.56 0.56 0.0 0 0 42.01 118.49
  Q 40.77 117.81 39.02 119.38
  A 0.32 0.32 0.0 0 1 38.49 119.18"
/>
<path stroke="#b18a8e" vector-effect="non-scaling-stroke" d="
  M 182.02 137.71
  L 176.32 144.00"
/>
<path stroke="#909294" vector-effect="non-scaling-stroke" d="
  M 176.32 144.00
  L 174.02 146.54
  A 0.30 0.30 0.0 0 1 173.50 146.34
  L 173.50 140.55
  A 0.65 0.65 0.0 0 0 172.85 139.90
  L 170.81 139.90
  A 0.69 0.69 0.0 0 0 170.12 140.59
  L 170.12 146.98
  A 0.40 0.39 -90.0 0 1 169.73 147.38
  L 163.80 147.38
  A 0.39 0.38 90.0 0 1 163.42 146.99
  L 163.42 140.47
  A 0.56 0.56 0.0 0 0 162.86 139.91
  L 160.55 139.91
  A 0.64 0.63 0.0 0 0 159.91 140.54
  L 159.91 157.76
  A 0.34 0.34 0.0 0 0 160.25 158.10
  L 163.04 158.10
  A 0.37 0.37 0.0 0 0 163.41 157.73
  L 163.41 151.49
  A 0.92 0.92 0.0 0 1 164.33 150.57
  L 169.16 150.57
  A 0.97 0.97 0.0 0 1 170.13 151.54
  L 170.13 157.39
  A 0.76 0.76 0.0 0 0 170.89 158.15
  L 172.66 158.15
  A 0.86 0.86 0.0 0 0 173.52 157.29
  L 173.52 151.12
  A 0.60 0.60 0.0 0 1 174.09 150.52
  L 178.43 150.32"
/>
<path stroke="#b18a8e" vector-effect="non-scaling-stroke" d="
  M 178.43 150.32
  Q 179.03 150.25 179.12 150.42
  Q 179.33 150.84 179.07 151.23
  Q 176.86 154.52 174.89 158.03"
/>
<path stroke="#d78f92" vector-effect="non-scaling-stroke" d="
  M 174.89 158.03
  L 163.39 177.01
  A 0.15 0.15 0.0 0 0 163.63 177.18
  L 176.34 162.87"
/>
<path stroke="#b18a8e" vector-effect="non-scaling-stroke" d="
  M 176.34 162.87
  L 191.16 146.12"
/>
<path stroke="#d78f92" vector-effect="non-scaling-stroke" d="
  M 191.16 146.12
  Q 192.74 145.53 193.89 143.58
  A 0.46 0.46 0.0 0 0 193.49 142.89
  L 189.71 142.89
  A 0.57 0.56 -78.8 0 1 189.19 142.11
  L 197.78 121.19
  A 0.24 0.23 77.5 0 0 197.39 120.94
  L 182.02 137.71"
/>
<path stroke="#891a20" vector-effect="non-scaling-stroke" d="
  M 191.16 146.12
  Q 184.45 151.72 178.73 158.48
  Q 176.96 160.57 176.34 162.87"
/>
<path stroke="#891a20" vector-effect="non-scaling-stroke" d="
  M 174.89 158.03
  C 176.25 157.12 177.76 155.29 179.06 154.73
  Q 179.90 154.38 179.92 154.38
  A 0.19 0.18 79.0 0 0 180.11 154.09
  L 179.66 153.46
  A 0.69 0.69 0.0 0 1 180.20 152.37
  Q 180.90 152.36 181.02 152.39
  A 0.51 0.50 -73.7 0 0 181.65 152.04
  L 182.56 148.78
  A 0.77 0.77 0.0 0 0 182.21 147.91
  Q 180.13 146.68 178.91 144.65
  A 1.14 1.14 0.0 0 1 178.98 143.36
  Q 181.05 140.64 182.02 137.71"
/>
<path stroke="#421d23" vector-effect="non-scaling-stroke" d="
  M 178.43 150.32
  Q 178.75 146.65 176.32 144.00"
/>
<path stroke="#909294" vector-effect="non-scaling-stroke" d="
  M 178.20 137.46
  Q 177.65 136.41 175.78 136.60
  A 1.54 1.33 80.5 0 0 174.66 138.44
  Q 174.95 139.79 175.77 139.59
  A 0.20 0.19 -34.0 0 0 175.84 139.24
  L 175.30 138.87
  A 1.06 1.06 0.0 0 1 175.91 136.94
  Q 177.28 136.96 178.00 137.61
  A 0.13 0.13 0.0 0 0 178.20 137.46"
/>
<path stroke="#909294" vector-effect="non-scaling-stroke" d="
  M 177.80 138.27
  Q 177.37 139.01 177.37 139.06
  A 0.33 0.33 0.0 0 0 177.93 139.29
  Q 178.51 138.70 178.39 138.33
  A 0.32 0.32 0.0 0 0 177.80 138.27"
/>
<path stroke="#909294" vector-effect="non-scaling-stroke" d="
  M 27.04 149.32
  C 29.42 149.85 31.69 150.05 31.65 153.10
  C 31.57 158.78 25.85 157.24 22.34 156.99
  A 0.19 0.19 0.0 0 0 22.15 157.11
  L 22.05 157.38
  A 0.32 0.32 0.0 0 0 22.29 157.80
  C 26.72 158.60 32.96 159.36 32.51 152.52
  C 32.31 149.36 30.02 149.02 27.22 148.39
  C 24.84 147.85 22.56 147.66 22.61 144.61
  C 22.69 138.93 28.41 140.47 31.92 140.72
  A 0.19 0.19 0.0 0 0 32.11 140.60
  L 32.21 140.33
  A 0.32 0.32 0.0 0 0 31.97 139.91
  C 27.54 139.11 21.30 138.35 21.75 145.19
  C 21.95 148.35 24.24 148.69 27.04 149.32"
/>
<path stroke="#909294" vector-effect="non-scaling-stroke" d="
  M 36.29 148.92
  Q 36.28 153.18 36.17 157.42
  A 0.64 0.64 0.0 0 0 36.81 158.07
  L 46.19 158.07
  A 0.26 0.26 0.0 0 0 46.45 157.81
  L 46.45 157.52
  A 0.29 0.29 0.0 0 0 46.16 157.23
  L 37.37 157.23
  A 0.26 0.26 0.0 0 1 37.11 156.97
  L 37.11 149.61
  A 0.28 0.28 0.0 0 1 37.40 149.33
  Q 45.06 149.68 44.97 148.94
  Q 45.06 148.19 37.40 148.52
  A 0.28 0.28 0.0 0 1 37.11 148.24
  L 37.14 140.88
  A 0.26 0.26 0.0 0 1 37.40 140.62
  L 46.19 140.65
  A 0.29 0.29 0.0 0 0 46.48 140.36
  L 46.48 140.07
  A 0.26 0.26 0.0 0 0 46.23 139.81
  L 36.85 139.77
  A 0.64 0.64 0.0 0 0 36.21 140.42
  Q 36.29 144.66 36.29 148.92"
/>
<path stroke="#909294" vector-effect="non-scaling-stroke" d="
  M 55.30 152.59
  Q 58.54 152.58 58.95 152.60
  A 0.86 0.85 -6.9 0 1 59.74 153.21
  L 61.12 158.00
  A 0.12 0.11 -6.4 0 0 61.23 158.08
  L 61.65 158.10
  A 0.33 0.32 -8.2 0 0 61.97 157.68
  Q 58.80 147.31 56.92 140.75
  Q 56.79 140.30 56.25 140.06
  Q 55.76 139.84 55.28 139.84
  Q 54.79 139.84 54.31 140.06
  Q 53.76 140.31 53.64 140.76
  Q 51.78 147.32 48.64 157.70
  A 0.33 0.32 8.0 0 0 48.97 158.12
  L 49.39 158.10
  A 0.12 0.11 6.2 0 0 49.50 158.02
  L 50.86 153.23
  A 0.86 0.85 6.7 0 1 51.65 152.61
  Q 52.06 152.60 55.30 152.59"
/>
<path stroke="#909294" vector-effect="non-scaling-stroke" d="
  M 88.54 149.23
  Q 92.52 157.35 92.59 157.45
  Q 93.27 158.52 94.47 158.17
  A 0.79 0.78 81.5 0 0 95.02 157.42
  L 95.02 140.35
  A 0.35 0.35 0.0 0 0 94.67 140.00
  L 94.36 140.00
  A 0.23 0.23 0.0 0 0 94.13 140.23
  L 94.13 156.71
  A 0.47 0.47 0.0 0 1 93.24 156.91
  Q 91.28 152.84 89.34 148.89
  Q 85.36 140.77 85.30 140.66
  Q 84.61 139.60 83.41 139.95
  A 0.79 0.78 81.5 0 0 82.86 140.70
  L 82.86 157.77
  A 0.35 0.35 0.0 0 0 83.21 158.12
  L 83.52 158.12
  A 0.23 0.23 0.0 0 0 83.75 157.89
  L 83.75 141.41
  A 0.47 0.47 0.0 0 1 84.64 141.21
  Q 86.60 145.28 88.54 149.23"
/>
<path stroke="#909294" vector-effect="non-scaling-stroke" d="
  M 111.05 140.48
  A 0.27 0.26 -85.4 0 0 110.82 140.20
  C 105.77 139.37 100.58 138.64 99.35 144.81
  Q 98.50 149.11 99.43 153.51
  C 100.65 159.30 105.43 158.53 110.10 157.98
  A 1.19 1.18 86.7 0 0 111.15 156.80
  L 111.15 150.03
  A 0.95 0.95 0.0 0 0 110.20 149.08
  L 106.75 149.08
  A 0.27 0.27 0.0 0 0 106.48 149.35
  L 106.48 149.64
  A 0.31 0.30 0.0 0 0 106.79 149.94
  L 109.73 149.94
  A 0.55 0.55 0.0 0 1 110.28 150.49
  L 110.28 156.37
  A 0.79 0.78 -6.5 0 1 109.67 157.13
  Q 105.76 157.98 102.92 157.07
  A 2.11 2.10 -14.1 0 1 102.08 156.57
  C 99.52 154.10 99.66 149.37 100.05 145.98
  Q 100.79 139.60 107.49 140.59
  Q 110.63 141.06 110.66 141.06
  A 0.40 0.40 0.0 0 0 111.05 140.68
  L 111.05 140.48"
/>
<path stroke="#909294" vector-effect="non-scaling-stroke" d="
  M 145.05 149.01
  C 145.05 157.75 148.02 159.46 156.19 157.95
  A 0.86 0.86 0.0 0 0 156.90 157.10
  L 156.90 155.58
  A 0.57 0.57 0.0 0 0 156.33 155.01
  L 151.23 155.01
  A 2.15 2.15 0.0 0 1 149.14 153.37
  Q 148.72 151.64 148.72 149.01
  Q 148.72 146.39 149.14 144.66
  A 2.15 2.15 0.0 0 1 151.23 143.01
  L 156.33 143.01
  A 0.57 0.57 0.0 0 0 156.90 142.44
  L 156.90 140.92
  A 0.86 0.86 0.0 0 0 156.19 140.07
  C 148.01 138.57 145.04 140.27 145.05 149.01"
/>
<path stroke="#909294" vector-effect="non-scaling-stroke" d="
  M 66.04 140.26
  A 0.21 0.21 0.0 0 0 65.83 140.05
  L 65.36 140.05
  A 0.21 0.21 0.0 0 0 65.15 140.26
  L 65.15 157.92
  A 0.21 0.21 0.0 0 0 65.36 158.13
  L 74.32 158.13
  A 0.21 0.21 0.0 0 0 74.53 157.92
  L 74.53 157.51
  A 0.21 0.21 0.0 0 0 74.32 157.30
  L 66.25 157.30
  A 0.21 0.21 0.0 0 1 66.04 157.09
  L 66.04 140.26"
/>
<path stroke="#909294" vector-effect="non-scaling-stroke" d="
  M 78.1752 140.3508
  A 0.34 0.34 0.0 0 0 77.8358 140.0102
  L 77.6158 140.0098
  A 0.34 0.34 0.0 0 0 77.2752 140.3492
  L 77.2448 157.7492
  A 0.34 0.34 0.0 0 0 77.5842 158.0898
  L 77.8042 158.0902
  A 0.34 0.34 0.0 0 0 78.1448 157.7508
  L 78.1752 140.3508"
/>
<path stroke="#909294" vector-effect="non-scaling-stroke" d="
  M 121.38 158.07
  Q 121.91 158.07 122.57 158.13
  A 0.49 0.49 0.0 0 0 123.10 157.65
  L 123.10 143.64
  A 0.53 0.53 0.0 0 1 123.63 143.11
  L 127.35 143.11
  A 0.50 0.49 -90.0 0 0 127.84 142.61
  L 127.84 140.50
  A 0.56 0.56 0.0 0 0 127.28 139.94
  Q 124.52 139.93 121.38 139.93
  Q 118.25 139.93 115.48 139.93
  A 0.56 0.56 0.0 0 0 114.92 140.50
  L 114.92 142.61
  A 0.50 0.49 -90.0 0 0 115.41 143.11
  L 119.13 143.11
  A 0.53 0.53 0.0 0 1 119.66 143.64
  L 119.65 157.65
  A 0.49 0.49 0.0 0 0 120.19 158.13
  Q 120.85 158.07 121.38 158.07"
/>
<path stroke="#909294" vector-effect="non-scaling-stroke" d="
  M 131.23 148.99
  Q 131.23 153.20 131.18 157.67
  A 0.42 0.42 0.0 0 0 131.60 158.09
  L 141.96 158.09
  A 0.56 0.55 -0.0 0 0 142.52 157.54
  L 142.52 155.48
  A 0.57 0.57 0.0 0 0 141.95 154.91
  L 135.14 154.91
  A 0.45 0.45 0.0 0 1 134.69 154.46
  L 134.69 151.03
  A 0.45 0.45 0.0 0 1 135.14 150.58
  L 140.25 150.58
  A 0.80 0.79 -85.8 0 0 141.03 149.90
  Q 141.07 149.63 141.07 149.01
  Q 141.07 148.38 141.03 148.11
  A 0.80 0.79 85.9 0 0 140.25 147.43
  L 135.14 147.42
  A 0.45 0.45 0.0 0 1 134.69 146.97
  L 134.70 143.54
  A 0.45 0.45 0.0 0 1 135.15 143.09
  L 141.96 143.11
  A 0.57 0.57 0.0 0 0 142.54 142.54
  L 142.54 140.48
  A 0.56 0.55 0.1 0 0 141.98 139.93
  L 131.62 139.90
  A 0.42 0.42 0.0 0 0 131.20 140.32
  Q 131.24 144.79 131.23 148.99"
/>
<path stroke="#909294" vector-effect="non-scaling-stroke" d="
  M 156.76 168.68
  A 0.33 0.33 0.0 0 0 156.43 168.35
  L 19.87 168.35
  A 0.33 0.33 0.0 0 0 19.54 168.68
  L 19.54 168.80
  A 0.33 0.33 0.0 0 0 19.87 169.13
  L 156.43 169.13
  A 0.33 0.33 0.0 0 0 156.76 168.80
  L 156.76 168.68"
/>
<path stroke="#909294" vector-effect="non-scaling-stroke" d="
  M 36.03 185.11
  L 40.81 185.11
  A 2.63 2.62 -90.0 0 0 43.43 182.48
  L 43.43 180.92
  A 2.75 2.75 0.0 0 0 40.68 178.17
  L 32.79 178.17
  A 0.58 0.57 -90.0 0 0 32.22 178.75
  L 32.22 186.99
  A 0.55 0.54 -90.0 0 0 32.76 187.54
  L 35.07 187.54
  A 0.45 0.45 0.0 0 0 35.52 187.09
  L 35.52 185.62
  A 0.51 0.51 0.0 0 1 36.03 185.11"
/>
<path stroke="#909294" vector-effect="non-scaling-stroke" d="
  M 45.31 187.51
  A 0.62 0.61 -74.5 0 0 45.84 187.20
  L 46.23 186.52
  A 1.14 1.14 0.0 0 1 47.21 185.96
  L 51.18 185.96
  A 1.32 1.31 75.0 0 1 52.32 186.62
  L 52.63 187.14
  A 0.73 0.72 75.0 0 0 53.26 187.51
  L 58.98 187.51
  A 0.52 0.52 0.0 0 0 59.50 186.99
  L 59.50 185.41
  A 0.41 0.40 90.0 0 1 59.90 185.00
  L 63.89 185.00
  A 0.48 0.48 0.0 0 1 64.37 185.48
  L 64.37 187.01
  A 0.56 0.56 0.0 0 0 64.93 187.57
  L 66.79 187.57
  A 0.77 0.77 0.0 0 0 67.56 186.83
  Q 67.62 185.38 66.98 184.28
  A 0.88 0.87 43.3 0 1 66.95 183.45
  Q 68.01 181.21 67.15 179.41
  Q 66.66 178.39 65.12 178.27
  Q 63.60 178.15 57.03 178.14
  A 0.62 0.62 0.0 0 0 56.41 178.76
  L 56.41 186.59
  A 0.24 0.24 0.0 0 1 55.97 186.71
  L 51.30 178.62
  A 1.00 0.99 74.7 0 0 50.44 178.12
  L 48.09 178.12
  A 0.80 0.79 -75.0 0 0 47.40 178.52
  L 42.41 187.16
  A 0.23 0.23 0.0 0 0 42.61 187.51
  L 45.31 187.51"
/>
<path stroke="#909294" vector-effect="non-scaling-stroke" d="
  M 99.54 183.73
  Q 101.73 186.59 102.26 187.10
  A 1.28 1.25 66.6 0 0 103.14 187.46
  L 106.48 187.52
  A 0.54 0.54 0.0 0 0 107.03 186.98
  L 107.03 178.51
  A 0.36 0.36 0.0 0 0 106.67 178.15
  L 104.37 178.15
  A 0.43 0.43 0.0 0 0 103.94 178.58
  L 103.94 183.68
  A 0.23 0.23 0.0 0 1 103.53 183.82
  Q 103.37 183.61 102.08 181.92
  Q 99.90 179.06 99.37 178.55
  A 1.28 1.25 66.6 0 0 98.48 178.19
  L 95.14 178.13
  A 0.54 0.54 0.0 0 0 94.59 178.67
  L 94.59 187.14
  A 0.36 0.36 0.0 0 0 94.95 187.50
  L 97.25 187.50
  A 0.43 0.43 0.0 0 0 97.68 187.07
  L 97.68 181.97
  A 0.23 0.23 0.0 0 1 98.09 181.83
  Q 98.25 182.03 99.54 183.73"
/>
<path stroke="#909294" vector-effect="non-scaling-stroke" d="
  M 74.24 183.93
  Q 75.75 183.91 76.11 183.96
  A 0.64 0.63 -41.0 0 1 76.02 185.22
  L 69.30 185.22
  A 0.47 0.47 0.0 0 0 68.89 185.93
  L 69.13 186.35
  A 2.01 2.01 0.0 0 0 70.65 187.34
  Q 74.08 187.71 76.82 187.44
  Q 80.38 187.09 79.30 183.30
  A 1.96 1.96 0.0 0 0 77.50 181.87
  Q 76.15 181.80 74.00 181.84
  Q 72.49 181.85 72.13 181.80
  A 0.64 0.63 -41.0 0 1 72.22 180.54
  L 78.94 180.54
  A 0.47 0.47 0.0 0 0 79.35 179.83
  L 79.11 179.41
  A 2.01 2.01 0.0 0 0 77.59 178.42
  Q 74.16 178.05 71.42 178.32
  Q 67.86 178.67 68.94 182.46
  A 1.96 1.96 0.0 0 0 70.74 183.89
  Q 72.09 183.95 74.24 183.93"
/>
<path stroke="#909294" vector-effect="non-scaling-stroke" d="
  M 93.0766 180.9816
  A 2.74 2.74 0.0 0 0 90.3461 178.2321
  L 83.4462 178.2080
  A 2.74 2.74 0.0 0 0 80.6966 180.9384
  L 80.6834 184.7184
  A 2.74 2.74 0.0 0 0 83.4139 187.4679
  L 90.3138 187.4920
  A 2.74 2.74 0.0 0 0 93.0634 184.7616
  L 93.0766 180.9816"
/>
<path stroke="#909294" vector-effect="non-scaling-stroke" d="
  M 113.78 183.92
  Q 115.29 183.89 115.65 183.93
  A 0.63 0.63 0.0 0 1 115.57 185.19
  L 108.85 185.24
  A 0.47 0.47 0.0 0 0 108.45 185.95
  L 108.69 186.37
  A 2.01 2.01 0.0 0 0 110.21 187.35
  Q 113.64 187.69 116.38 187.41
  Q 119.94 187.04 118.83 183.26
  A 1.96 1.95 83.1 0 0 117.03 181.84
  Q 115.67 181.78 113.53 181.83
  Q 112.02 181.85 111.66 181.80
  A 0.63 0.63 0.0 0 1 111.74 180.54
  L 118.45 180.50
  A 0.47 0.47 0.0 0 0 118.86 179.79
  L 118.62 179.37
  A 2.01 2.01 0.0 0 0 117.09 178.39
  Q 113.66 178.04 110.92 178.33
  Q 107.37 178.70 108.47 182.48
  A 1.96 1.95 83.1 0 0 110.28 183.90
  Q 111.63 183.95 113.78 183.92"
/>
<path stroke="#909294" vector-effect="non-scaling-stroke" d="
  M 124.13 183.31
  C 124.11 186.13 127.43 189.75 129.90 186.62
  Q 130.75 185.54 130.80 185.41
  A 0.40 0.40 0.0 0 0 130.13 184.99
  L 128.95 186.25
  A 1.78 1.78 0.0 0 1 126.21 186.08
  Q 125.20 184.70 125.21 183.31
  Q 125.21 181.93 126.24 180.55
  A 1.78 1.78 0.0 0 1 128.98 180.42
  L 130.15 181.69
  A 0.40 0.40 0.0 0 0 130.82 181.27
  Q 130.77 181.14 129.93 180.05
  C 127.49 176.90 124.14 180.49 124.13 183.31"
/>
<path stroke="#909294" vector-effect="non-scaling-stroke" d="
  M 26.94 186.83
  C 26.88 184.59 27.34 181.77 25.25 181.20
  Q 23.04 180.59 21.70 182.46
  A 0.28 0.28 0.0 0 0 22.06 182.88
  Q 22.68 182.55 23.77 182.02
  Q 25.32 181.26 25.88 183.02
  A 0.55 0.55 0.0 0 1 25.23 183.72
  Q 23.63 183.36 22.24 184.39
  A 1.82 1.64 -38.7 0 0 21.83 186.91
  Q 23.25 188.51 25.26 187.28
  Q 25.64 187.05 25.82 187.15
  Q 26.28 187.42 26.36 187.42
  A 0.57 0.57 0.0 0 0 26.94 186.83"
/>
<path stroke="#909294" vector-effect="non-scaling-stroke" d="
  M 134.1806 187.7571
  A 3.33 2.77 92.4 0 0 137.0876 184.5460
  A 3.33 2.77 92.4 0 0 134.4594 181.1029
  A 3.33 2.77 92.4 0 0 131.5524 184.3140
  A 3.33 2.77 92.4 0 0 134.1806 187.7571"
/>
<path stroke="#909294" vector-effect="non-scaling-stroke" d="
  M 138.60 181.72
  L 138.60 187.31
  A 0.20 0.20 0.0 0 0 138.80 187.51
  L 139.17 187.51
  A 0.36 0.36 0.0 0 0 139.53 187.15
  L 139.53 183.22
  A 1.17 1.17 0.0 0 1 140.70 182.05
  L 141.21 182.05
  A 1.03 1.02 90.0 0 1 142.23 183.08
  L 142.23 186.99
  A 0.49 0.48 0.0 0 0 142.72 187.47
  L 142.97 187.47
  A 0.18 0.18 0.0 0 0 143.15 187.30
  L 143.25 183.42
  A 1.42 1.42 0.0 0 1 144.70 182.03
  L 144.97 182.01
  A 1.03 1.03 0.0 0 1 146.05 183.04
  L 146.05 187.21
  A 0.23 0.23 0.0 0 0 146.28 187.44
  L 146.55 187.44
  A 0.37 0.37 0.0 0 0 146.92 187.07
  L 146.92 182.93
  A 1.70 1.70 0.0 0 0 144.26 181.53
  L 143.48 182.07
  A 0.62 0.62 0.0 0 1 142.66 181.95
  Q 142.28 181.48 141.94 181.31
  Q 141.43 181.06 141.03 181.26
  Q 139.44 182.06 138.91 181.58
  A 0.19 0.19 0.0 0 0 138.60 181.72"
/>
<path stroke="#909294" vector-effect="non-scaling-stroke" d="
  M 150.26 187.07
  C 153.71 189.64 155.68 183.33 152.33 181.26
  A 1.05 1.05 0.0 0 0 151.12 181.33
  Q 150.06 182.15 149.34 181.52
  A 0.30 0.30 0.0 0 0 148.84 181.75
  L 148.84 189.26
  A 0.40 0.40 0.0 0 0 149.15 189.65
  Q 150.21 189.89 149.65 187.47
  A 0.39 0.39 0.0 0 1 150.26 187.07"
/>
<path stroke="#909294" vector-effect="non-scaling-stroke" d="
  M 160.38 186.79
  C 160.34 184.60 160.81 181.84 158.77 181.27
  Q 156.62 180.65 155.29 182.47
  A 0.28 0.28 0.0 0 0 155.64 182.88
  Q 156.25 182.57 157.32 182.06
  Q 158.84 181.33 159.37 183.05
  A 0.54 0.54 0.0 0 1 158.73 183.73
  Q 157.17 183.37 155.80 184.36
  A 1.78 1.60 -38.2 0 0 155.38 186.82
  Q 156.76 188.40 158.73 187.21
  Q 159.11 186.99 159.28 187.09
  Q 159.73 187.36 159.81 187.36
  A 0.56 0.56 0.0 0 0 160.38 186.79"
/>
<path stroke="#909294" vector-effect="non-scaling-stroke" d="
  M 162.28 181.64
  L 162.28 187.31
  A 0.22 0.22 0.0 0 0 162.50 187.53
  L 162.78 187.53
  A 0.40 0.39 -0.7 0 0 163.18 187.13
  Q 163.17 184.41 163.25 183.77
  A 1.94 1.64 -73.7 0 1 165.72 182.14
  Q 166.10 182.35 166.24 183.29
  Q 166.45 184.66 166.19 187.11
  A 0.29 0.29 0.0 0 0 166.48 187.44
  L 166.80 187.44
  A 0.34 0.34 0.0 0 0 167.14 187.13
  C 167.28 185.61 167.63 182.45 166.06 181.41
  Q 164.91 180.66 163.71 181.82
  A 0.53 0.52 51.7 0 1 162.90 181.72
  Q 162.81 181.58 162.73 181.48
  A 0.25 0.25 0.0 0 0 162.28 181.64"
/>
<path stroke="#909294" vector-effect="non-scaling-stroke" d="
  M 168.24 181.57
  Q 168.76 184.09 169.64 185.86
  C 170.46 187.48 170.26 188.42 168.54 189.07
  A 0.45 0.44 74.5 0 0 168.26 189.57
  L 168.27 189.62
  A 0.36 0.36 0.0 0 0 168.70 189.90
  C 169.51 189.72 170.20 189.22 170.50 188.43
  Q 172.86 182.30 173.03 181.80
  A 0.30 0.29 -70.6 0 0 172.86 181.44
  L 172.60 181.33
  A 0.14 0.13 -68.2 0 0 172.43 181.41
  L 170.81 185.35
  A 0.34 0.34 0.0 0 1 170.17 185.29
  Q 169.64 182.75 168.75 181.37
  A 0.28 0.28 0.0 0 0 168.24 181.57"
/>
<path stroke="#682227" vector-effect="non-scaling-stroke" d="
  M 213.66 29.31
  L 200.11 46.53
  A 1.21 1.21 0.0 0 0 200.06 47.96
  L 206.11 56.76
  A 0.41 0.40 72.6 0 1 205.78 57.40
  L 202.27 57.40
  A 2.02 2.00 72.8 0 1 200.61 56.52
  L 197.60 52.15
  A 0.82 0.82 0.0 0 0 196.24 52.15
  L 192.11 58.19
  A 0.52 0.52 0.0 0 0 192.54 59.01
  L 192.96 59.01
  A 1.51 1.49 -72.6 0 0 194.20 58.35
  L 196.52 54.96
  A 0.55 0.55 0.0 0 1 197.42 54.96
  L 199.46 57.93
  A 2.13 2.11 -17.1 0 0 201.21 58.85
  L 208.70 58.85
  A 0.48 0.48 0.0 0 0 209.09 58.10
  L 202.28 48.20
  A 1.49 1.48 44.8 0 1 202.27 46.52
  L 213.93 29.51
  A 0.17 0.17 0.0 0 0 213.66 29.31"
/>
<path stroke="#888b8d" vector-effect="non-scaling-stroke" d="
  M 32.4613 59.3710
  A 12.21 11.03 92.2 0 0 43.9519 47.5934
  A 12.21 11.03 92.2 0 0 33.3987 34.9690
  A 12.21 11.03 92.2 0 0 21.9081 46.7466
  A 12.21 11.03 92.2 0 0 32.4613 59.3710"
/>
<path stroke="#888b8d" vector-effect="non-scaling-stroke" d="
  M 149.4017 59.3610
  A 12.20 11.01 92.2 0 0 160.8719 47.5926
  A 12.20 11.01 92.2 0 0 150.3383 34.9790
  A 12.20 11.01 92.2 0 0 138.8681 46.7474
  A 12.20 11.01 92.2 0 0 149.4017 59.3610"
/>
<path stroke="#888b8d" vector-effect="non-scaling-stroke" d="
  M 51.68 58.81
  A 0.48 0.47 90.0 0 0 52.15 58.33
  L 52.15 51.49
  A 0.82 0.82 0.0 0 1 52.93 50.67
  C 54.04 50.63 55.41 50.76 56.59 50.50
  Q 63.19 49.06 63.10 42.60
  C 62.99 34.33 53.70 35.54 48.20 35.63
  A 0.37 0.37 0.0 0 0 47.83 36.00
  L 47.83 58.33
  A 0.48 0.48 0.0 0 0 48.31 58.81
  L 51.68 58.81"
/>
<path stroke="#888b8d" vector-effect="non-scaling-stroke" d="
  M 66.94 47.22
  Q 67.03 57.20 67.09 58.18
  A 0.62 0.61 -1.8 0 0 67.71 58.75
  L 79.11 58.75
  A 0.60 0.60 0.0 0 0 79.71 58.15
  L 79.71 55.43
  A 0.53 0.53 0.0 0 0 79.18 54.90
  L 71.95 54.90
  A 0.62 0.62 0.0 0 1 71.33 54.28
  L 71.33 49.65
  A 0.56 0.55 -0.0 0 1 71.89 49.10
  L 78.07 49.09
  A 0.70 0.69 -83.3 0 0 78.75 48.55
  Q 78.79 48.37 78.78 47.12
  Q 78.77 45.87 78.72 45.68
  A 0.70 0.69 82.3 0 0 78.04 45.16
  L 71.86 45.25
  A 0.56 0.55 -1.0 0 1 71.29 44.71
  L 71.20 40.08
  A 0.62 0.62 0.0 0 1 71.81 39.45
  L 79.04 39.33
  A 0.53 0.53 0.0 0 0 79.56 38.79
  L 79.52 36.07
  A 0.60 0.60 0.0 0 0 78.91 35.48
  L 67.51 35.68
  A 0.62 0.61 0.8 0 0 66.90 36.26
  Q 66.85 37.24 66.94 47.22"
/>
<path stroke="#888b8d" vector-effect="non-scaling-stroke" d="
  M 95.20 47.89
  Q 98.61 46.22 98.83 42.89
  C 99.42 34.25 90.41 35.55 84.43 35.62
  A 0.54 0.54 0.0 0 0 83.89 36.16
  L 83.89 58.35
  A 0.47 0.47 0.0 0 0 84.36 58.82
  L 87.73 58.82
  A 0.49 0.48 -90.0 0 0 88.21 58.33
  L 88.21 50.37
  A 0.69 0.69 0.0 0 1 88.91 49.68
  C 92.22 49.68 94.33 54.73 96.18 58.07
  A 1.40 1.39 75.4 0 0 97.40 58.79
  L 105.63 58.79
  A 0.78 0.78 0.0 0 0 106.36 58.28
  L 108.05 53.64
  A 0.90 0.90 0.0 0 1 108.89 53.06
  L 115.61 53.06
  A 0.84 0.84 0.0 0 1 116.40 53.61
  L 118.05 58.16
  A 0.98 0.97 -9.7 0 0 118.97 58.80
  L 122.00 58.80
  A 0.68 0.67 79.9 0 0 122.63 57.89
  L 114.76 36.22
  A 0.94 0.94 0.0 0 0 113.88 35.61
  L 110.58 35.61
  A 0.87 0.87 0.0 0 0 109.76 36.18
  L 102.08 57.18
  A 0.53 0.53 0.0 0 1 101.15 57.30
  L 95.05 48.43
  A 0.37 0.37 0.0 0 1 95.20 47.89"
/>
<path stroke="#888b8d" vector-effect="non-scaling-stroke" d="
  M 130.02 58.78
  Q 131.13 58.78 131.51 58.77
  A 0.68 0.68 0.0 0 0 132.17 58.09
  L 132.17 40.00
  A 0.66 0.65 0.0 0 1 132.83 39.35
  L 137.79 39.35
  A 0.66 0.66 0.0 0 0 138.45 38.69
  L 138.45 36.27
  A 0.69 0.69 0.0 0 0 137.75 35.58
  Q 134.10 35.65 129.97 35.63
  Q 125.84 35.67 122.19 35.61
  A 0.69 0.69 0.0 0 0 121.49 36.30
  L 121.50 38.72
  A 0.66 0.66 0.0 0 0 122.16 39.38
  L 127.12 39.36
  A 0.66 0.65 -0.2 0 1 127.79 40.01
  L 127.86 58.10
  A 0.68 0.68 0.0 0 0 128.53 58.77
  Q 128.90 58.78 130.02 58.78"
/>
<path stroke="#888b8d" vector-effect="non-scaling-stroke" d="
  M 176.04 47.93
  C 181.87 45.04 180.95 36.80 174.14 35.81
  Q 172.43 35.56 165.37 35.61
  A 0.57 0.57 0.0 0 0 164.80 36.18
  L 164.80 58.31
  A 0.50 0.50 0.0 0 0 165.30 58.81
  L 168.67 58.81
  A 0.45 0.44 90.0 0 0 169.11 58.36
  L 169.11 50.34
  A 0.64 0.63 -1.4 0 1 169.72 49.71
  C 173.12 49.54 174.89 54.16 177.17 58.13
  A 1.32 1.31 75.0 0 0 178.31 58.79
  L 182.17 58.79
  A 0.49 0.49 0.0 0 0 182.57 58.03
  L 175.93 48.38
  A 0.31 0.31 0.0 0 1 176.04 47.93"
/>
<path stroke="#909294" vector-effect="non-scaling-stroke" d="
  M 178.40 67.71
  L 194.03 47.85
  A 0.83 0.81 -43.7 0 0 194.06 46.88
  L 187.97 38.03
  A 0.51 0.50 72.7 0 1 188.38 37.24
  L 191.75 37.24
  A 1.95 1.92 72.5 0 1 193.34 38.08
  L 196.66 42.91
  A 0.42 0.42 0.0 0 0 197.35 42.91
  L 201.79 36.43
  A 0.39 0.39 0.0 0 0 201.47 35.82
  L 201.07 35.82
  A 1.91 1.91 0.0 0 0 199.50 36.64
  L 197.46 39.63
  A 0.58 0.57 -44.8 0 1 196.51 39.63
  L 194.50 36.70
  A 1.88 1.86 72.4 0 0 192.97 35.90
  L 185.01 35.90
  A 0.33 0.33 0.0 0 0 184.74 36.42
  L 191.88 46.80
  A 0.84 0.84 0.0 0 1 191.88 47.74
  L 178.26 67.61
  A 0.09 0.09 0.0 0 0 178.40 67.71"
/>
<path stroke="#888b8d" vector-effect="non-scaling-stroke" d="
  M 32.9417 55.3300
  A 8.12 6.42 90.2 0 0 39.3900 47.2324
  A 8.12 6.42 90.2 0 0 32.9983 39.0900
  A 8.12 6.42 90.2 0 0 26.5500 47.1876
  A 8.12 6.42 90.2 0 0 32.9417 55.3300"
/>
<path stroke="#888b8d" vector-effect="non-scaling-stroke" d="
  M 149.7707 55.3394
  A 8.13 6.43 90.7 0 0 156.2995 47.2886
  A 8.13 6.43 90.7 0 0 149.9693 39.0806
  A 8.13 6.43 90.7 0 0 143.4405 47.1314
  A 8.13 6.43 90.7 0 0 149.7707 55.3394"
/>
<path stroke="#888b8d" vector-effect="non-scaling-stroke" d="
  M 52.19 40.06
  L 52.15 46.02
  A 0.86 0.86 0.0 0 0 53.01 46.89
  L 54.32 46.89
  A 4.31 3.63 0.3 0 0 58.65 43.29
  L 58.65 42.87
  A 4.31 3.63 0.3 0 0 54.36 39.21
  L 53.05 39.21
  A 0.86 0.86 0.0 0 0 52.19 40.06"
/>
<path stroke="#888b8d" vector-effect="non-scaling-stroke" d="
  M 88.18 39.95
  L 88.26 45.29
  A 0.68 0.68 0.0 0 0 88.95 45.96
  L 90.52 45.94
  A 3.93 3.18 -0.8 0 0 94.40 42.71
  L 94.40 42.37
  A 3.93 3.18 -0.8 0 0 90.42 39.24
  L 88.85 39.26
  A 0.68 0.68 0.0 0 0 88.18 39.95"
/>
<path stroke="#888b8d" vector-effect="non-scaling-stroke" d="
  M 112.21 49.50
  Q 114.33 49.49 114.36 49.49
  A 0.58 0.58 0.0 0 0 114.92 48.65
  Q 114.34 47.53 112.70 42.02
  C 112.63 41.80 112.40 41.65 112.17 41.65
  C 111.95 41.65 111.72 41.80 111.65 42.03
  Q 110.06 47.55 109.50 48.68
  A 0.58 0.58 0.0 0 0 110.06 49.51
  Q 110.09 49.51 112.21 49.50"
/>
<path stroke="#888b8d" vector-effect="non-scaling-stroke" d="
  M 169.05 39.99
  L 169.13 45.25
  A 0.73 0.73 0.0 0 0 169.87 45.97
  L 171.58 45.95
  A 3.78 3.19 -0.8 0 0 175.31 42.71
  L 175.31 42.37
  A 3.78 3.19 -0.8 0 0 171.48 39.23
  L 169.77 39.25
  A 0.73 0.73 0.0 0 0 169.05 39.99"
/>
<path stroke="#909294" vector-effect="non-scaling-stroke" d="
  M 31.2061 126.1900
  A 3.47 2.66 89.9 0 0 33.8600 122.7154
  A 3.47 2.66 89.9 0 0 31.1939 119.2500
  A 3.47 2.66 89.9 0 0 28.5400 122.7246
  A 3.47 2.66 89.9 0 0 31.2061 126.1900"
/>
<path stroke="#909294" vector-effect="non-scaling-stroke" d="
  M 55.30 151.66
  Q 57.35 151.66 58.57 151.56
  A 0.50 0.49 -10.5 0 0 59.01 150.93
  Q 57.09 144.09 55.98 141.01
  Q 55.86 140.69 55.28 140.69
  Q 54.70 140.69 54.59 141.02
  Q 53.48 144.10 51.59 150.94
  A 0.50 0.49 10.3 0 0 52.03 151.57
  Q 53.25 151.67 55.30 151.66"
/>
<path stroke="#682227" vector-effect="non-scaling-stroke" d="
  M 174.88 148.79
  A 0.39 0.39 0.0 0 0 174.73 148.09
  Q 174.11 147.97 174.01 148.80
  A 0.29 0.29 0.0 0 0 174.46 149.08
  L 174.88 148.79"
/>
<path stroke="#909294" vector-effect="non-scaling-stroke" d="
  M 40.1895 181.4758
  A 0.75 0.75 0.0 0 0 39.4382 180.7271
  L 36.1182 180.7329
  A 0.75 0.75 0.0 0 0 35.3695 181.4842
  L 35.3705 182.0842
  A 0.75 0.75 0.0 0 0 36.1218 182.8329
  L 39.4418 182.8271
  A 0.75 0.75 0.0 0 0 40.1905 182.0758
  L 40.1895 181.4758"
/>
<path stroke="#909294" vector-effect="non-scaling-stroke" d="
  M 64.5720 181.5628
  A 0.81 0.81 0.0 0 0 63.7691 180.7457
  L 60.1692 180.7143
  A 0.81 0.81 0.0 0 0 59.3522 181.5172
  L 59.3480 181.9972
  A 0.81 0.81 0.0 0 0 60.1509 182.8143
  L 63.7508 182.8457
  A 0.81 0.81 0.0 0 0 64.5678 182.0428
  L 64.5720 181.5628"
/>
<path stroke="#909294" vector-effect="non-scaling-stroke" d="
  M 47.75 183.89
  Q 48.12 184.56 50.25 184.06
  A 0.40 0.40 0.0 0 0 50.52 183.49
  Q 50.30 183.06 50.06 182.62
  Q 49.81 182.18 49.57 181.77
  A 0.40 0.40 0.0 0 0 48.94 181.69
  Q 47.38 183.22 47.75 183.89"
/>
<path stroke="#909294" vector-effect="non-scaling-stroke" d="
  M 89.92 181.68
  A 0.94 0.94 0.0 0 0 88.98 180.74
  L 84.86 180.74
  A 0.94 0.94 0.0 0 0 83.92 181.68
  L 83.92 184.14
  A 0.94 0.94 0.0 0 0 84.86 185.08
  L 88.98 185.08
  A 0.94 0.94 0.0 0 0 89.92 184.14
  L 89.92 181.68"
/>
<path stroke="#682227" vector-effect="non-scaling-stroke" d="
  M 83.18 185.31
  Q 83.06 184.94 82.90 184.92
  A 0.28 0.27 58.4 0 0 82.79 185.45
  Q 82.89 185.50 83.09 185.46
  A 0.12 0.12 0.0 0 0 83.18 185.31"
/>
<path stroke="#909294" vector-effect="non-scaling-stroke" d="
  M 25.8305 184.9736
  A 1.71 1.15 -23.3 0 0 23.8051 184.5938
  A 1.71 1.15 -23.3 0 0 22.6895 186.3264
  A 1.71 1.15 -23.3 0 0 24.7149 186.7062
  A 1.71 1.15 -23.3 0 0 25.8305 184.9736"
/>
<path stroke="#909294" vector-effect="non-scaling-stroke" d="
  M 134.3489 186.9800
  A 2.55 1.78 89.8 0 0 136.1200 184.4238
  A 2.55 1.78 89.8 0 0 134.3311 181.8800
  A 2.55 1.78 89.8 0 0 132.5600 184.4362
  A 2.55 1.78 89.8 0 0 134.3489 186.9800"
/>
<path stroke="#909294" vector-effect="non-scaling-stroke" d="
  M 151.4129 186.9200
  A 2.47 1.77 89.7 0 0 153.1700 184.4407
  A 2.47 1.77 89.7 0 0 151.3871 181.9800
  A 2.47 1.77 89.7 0 0 149.6300 184.4593
  A 2.47 1.77 89.7 0 0 151.4129 186.9200"
/>
<path stroke="#909294" vector-effect="non-scaling-stroke" d="
  M 158.64 184.34
  Q 157.41 184.41 156.47 184.99
  A 1.12 1.01 29.3 0 0 157.12 186.91
  Q 158.34 187.01 159.14 186.06
  A 1.08 0.87 -67.5 0 0 158.64 184.34"
/>
</g>
<path fill="#ffffff" d="
  M 240.00 0.00
  L 240.00 211.00
  L 0.00 211.00
  L 0.00 0.00
  L 240.00 0.00
  Z
  M 226.00 20.76
  A 0.76 0.76 0.0 0 0 225.24 20.00
  L 15.76 20.00
  A 0.76 0.76 0.0 0 0 15.00 20.76
  L 15.00 76.24
  A 0.76 0.76 0.0 0 0 15.76 77.00
  L 225.24 77.00
  A 0.76 0.76 0.0 0 0 226.00 76.24
  L 226.00 20.76
  Z
  M 21.67 119.48
  Q 21.81 119.46 22.12 119.49
  A 0.70 0.69 2.7 0 1 22.75 120.18
  L 22.75 126.58
  A 0.40 0.40 0.0 0 0 23.15 126.98
  L 23.45 126.98
  A 0.55 0.54 -90.0 0 0 23.99 126.43
  L 23.99 120.14
  A 0.63 0.63 0.0 0 1 24.62 119.51
  L 25.64 119.51
  A 0.47 0.46 90.0 0 0 26.10 119.04
  L 26.10 118.76
  A 0.35 0.35 0.0 0 0 25.75 118.41
  L 24.83 118.41
  A 0.78 0.78 0.0 0 1 24.05 117.67
  Q 23.99 116.69 24.80 116.12
  A 1.48 1.46 28.6 0 1 25.74 115.85
  Q 26.34 115.89 26.59 115.84
  A 0.47 0.47 0.0 0 0 26.61 114.93
  Q 24.71 114.44 23.52 115.47
  A 1.59 1.57 -15.3 0 0 22.98 116.40
  L 22.68 117.94
  A 0.86 0.85 2.7 0 1 21.92 118.63
  Q 21.33 118.68 21.25 119.01
  A 0.39 0.39 0.0 0 0 21.67 119.48
  Z
  M 31.2021 127.2200
  A 4.51 3.99 90.1 0 0 35.2000 122.7170
  A 4.51 3.99 90.1 0 0 31.2179 118.2000
  A 4.51 3.99 90.1 0 0 27.2200 122.7030
  A 4.51 3.99 90.1 0 0 31.2021 127.2200
  Z
  M 38.49 119.18
  Q 38.46 118.92 38.43 118.78
  A 0.54 0.54 0.0 0 0 37.37 118.89
  L 37.36 126.50
  A 0.46 0.45 -0.0 0 0 37.82 126.95
  L 38.12 126.95
  A 0.53 0.53 0.0 0 0 38.65 126.42
  L 38.65 121.75
  A 0.98 0.81 -39.7 0 1 38.71 121.43
  Q 39.54 119.23 41.66 119.53
  A 0.56 0.56 0.0 0 0 42.01 118.49
  Q 40.77 117.81 39.02 119.38
  A 0.32 0.32 0.0 0 1 38.49 119.18
  Z
  M 182.02 137.71
  L 176.32 144.00
  L 174.02 146.54
  A 0.30 0.30 0.0 0 1 173.50 146.34
  L 173.50 140.55
  A 0.65 0.65 0.0 0 0 172.85 139.90
  L 170.81 139.90
  A 0.69 0.69 0.0 0 0 170.12 140.59
  L 170.12 146.98
  A 0.40 0.39 -90.0 0 1 169.73 147.38
  L 163.80 147.38
  A 0.39 0.38 90.0 0 1 163.42 146.99
  L 163.42 140.47
  A 0.56 0.56 0.0 0 0 162.86 139.91
  L 160.55 139.91
  A 0.64 0.63 0.0 0 0 159.91 140.54
  L 159.91 157.76
  A 0.34 0.34 0.0 0 0 160.25 158.10
  L 163.04 158.10
  A 0.37 0.37 0.0 0 0 163.41 157.73
  L 163.41 151.49
  A 0.92 0.92 0.0 0 1 164.33 150.57
  L 169.16 150.57
  A 0.97 0.97 0.0 0 1 170.13 151.54
  L 170.13 157.39
  A 0.76 0.76 0.0 0 0 170.89 158.15
  L 172.66 158.15
  A 0.86 0.86 0.0 0 0 173.52 157.29
  L 173.52 151.12
  A 0.60 0.60 0.0 0 1 174.09 150.52
  L 178.43 150.32
  Q 179.03 150.25 179.12 150.42
  Q 179.33 150.84 179.07 151.23
  Q 176.86 154.52 174.89 158.03
  L 163.39 177.01
  A 0.15 0.15 0.0 0 0 163.63 177.18
  L 176.34 162.87
  L 191.16 146.12
  Q 192.74 145.53 193.89 143.58
  A 0.46 0.46 0.0 0 0 193.49 142.89
  L 189.71 142.89
  A 0.57 0.56 -78.8 0 1 189.19 142.11
  L 197.78 121.19
  A 0.24 0.23 77.5 0 0 197.39 120.94
  L 182.02 137.71
  Z
  M 178.20 137.46
  Q 177.65 136.41 175.78 136.60
  A 1.54 1.33 80.5 0 0 174.66 138.44
  Q 174.95 139.79 175.77 139.59
  A 0.20 0.19 -34.0 0 0 175.84 139.24
  L 175.30 138.87
  A 1.06 1.06 0.0 0 1 175.91 136.94
  Q 177.28 136.96 178.00 137.61
  A 0.13 0.13 0.0 0 0 178.20 137.46
  Z
  M 177.80 138.27
  Q 177.37 139.01 177.37 139.06
  A 0.33 0.33 0.0 0 0 177.93 139.29
  Q 178.51 138.70 178.39 138.33
  A 0.32 0.32 0.0 0 0 177.80 138.27
  Z
  M 27.04 149.32
  C 29.42 149.85 31.69 150.05 31.65 153.10
  C 31.57 158.78 25.85 157.24 22.34 156.99
  A 0.19 0.19 0.0 0 0 22.15 157.11
  L 22.05 157.38
  A 0.32 0.32 0.0 0 0 22.29 157.80
  C 26.72 158.60 32.96 159.36 32.51 152.52
  C 32.31 149.36 30.02 149.02 27.22 148.39
  C 24.84 147.85 22.56 147.66 22.61 144.61
  C 22.69 138.93 28.41 140.47 31.92 140.72
  A 0.19 0.19 0.0 0 0 32.11 140.60
  L 32.21 140.33
  A 0.32 0.32 0.0 0 0 31.97 139.91
  C 27.54 139.11 21.30 138.35 21.75 145.19
  C 21.95 148.35 24.24 148.69 27.04 149.32
  Z
  M 36.29 148.92
  Q 36.28 153.18 36.17 157.42
  A 0.64 0.64 0.0 0 0 36.81 158.07
  L 46.19 158.07
  A 0.26 0.26 0.0 0 0 46.45 157.81
  L 46.45 157.52
  A 0.29 0.29 0.0 0 0 46.16 157.23
  L 37.37 157.23
  A 0.26 0.26 0.0 0 1 37.11 156.97
  L 37.11 149.61
  A 0.28 0.28 0.0 0 1 37.40 149.33
  Q 45.06 149.68 44.97 148.94
  Q 45.06 148.19 37.40 148.52
  A 0.28 0.28 0.0 0 1 37.11 148.24
  L 37.14 140.88
  A 0.26 0.26 0.0 0 1 37.40 140.62
  L 46.19 140.65
  A 0.29 0.29 0.0 0 0 46.48 140.36
  L 46.48 140.07
  A 0.26 0.26 0.0 0 0 46.23 139.81
  L 36.85 139.77
  A 0.64 0.64 0.0 0 0 36.21 140.42
  Q 36.29 144.66 36.29 148.92
  Z
  M 55.30 152.59
  Q 58.54 152.58 58.95 152.60
  A 0.86 0.85 -6.9 0 1 59.74 153.21
  L 61.12 158.00
  A 0.12 0.11 -6.4 0 0 61.23 158.08
  L 61.65 158.10
  A 0.33 0.32 -8.2 0 0 61.97 157.68
  Q 58.80 147.31 56.92 140.75
  Q 56.79 140.30 56.25 140.06
  Q 55.76 139.84 55.28 139.84
  Q 54.79 139.84 54.31 140.06
  Q 53.76 140.31 53.64 140.76
  Q 51.78 147.32 48.64 157.70
  A 0.33 0.32 8.0 0 0 48.97 158.12
  L 49.39 158.10
  A 0.12 0.11 6.2 0 0 49.50 158.02
  L 50.86 153.23
  A 0.86 0.85 6.7 0 1 51.65 152.61
  Q 52.06 152.60 55.30 152.59
  Z
  M 88.54 149.23
  Q 92.52 157.35 92.59 157.45
  Q 93.27 158.52 94.47 158.17
  A 0.79 0.78 81.5 0 0 95.02 157.42
  L 95.02 140.35
  A 0.35 0.35 0.0 0 0 94.67 140.00
  L 94.36 140.00
  A 0.23 0.23 0.0 0 0 94.13 140.23
  L 94.13 156.71
  A 0.47 0.47 0.0 0 1 93.24 156.91
  Q 91.28 152.84 89.34 148.89
  Q 85.36 140.77 85.30 140.66
  Q 84.61 139.60 83.41 139.95
  A 0.79 0.78 81.5 0 0 82.86 140.70
  L 82.86 157.77
  A 0.35 0.35 0.0 0 0 83.21 158.12
  L 83.52 158.12
  A 0.23 0.23 0.0 0 0 83.75 157.89
  L 83.75 141.41
  A 0.47 0.47 0.0 0 1 84.64 141.21
  Q 86.60 145.28 88.54 149.23
  Z
  M 111.05 140.48
  A 0.27 0.26 -85.4 0 0 110.82 140.20
  C 105.77 139.37 100.58 138.64 99.35 144.81
  Q 98.50 149.11 99.43 153.51
  C 100.65 159.30 105.43 158.53 110.10 157.98
  A 1.19 1.18 86.7 0 0 111.15 156.80
  L 111.15 150.03
  A 0.95 0.95 0.0 0 0 110.20 149.08
  L 106.75 149.08
  A 0.27 0.27 0.0 0 0 106.48 149.35
  L 106.48 149.64
  A 0.31 0.30 0.0 0 0 106.79 149.94
  L 109.73 149.94
  A 0.55 0.55 0.0 0 1 110.28 150.49
  L 110.28 156.37
  A 0.79 0.78 -6.5 0 1 109.67 157.13
  Q 105.76 157.98 102.92 157.07
  A 2.11 2.10 -14.1 0 1 102.08 156.57
  C 99.52 154.10 99.66 149.37 100.05 145.98
  Q 100.79 139.60 107.49 140.59
  Q 110.63 141.06 110.66 141.06
  A 0.40 0.40 0.0 0 0 111.05 140.68
  L 111.05 140.48
  Z
  M 145.05 149.01
  C 145.05 157.75 148.02 159.46 156.19 157.95
  A 0.86 0.86 0.0 0 0 156.90 157.10
  L 156.90 155.58
  A 0.57 0.57 0.0 0 0 156.33 155.01
  L 151.23 155.01
  A 2.15 2.15 0.0 0 1 149.14 153.37
  Q 148.72 151.64 148.72 149.01
  Q 148.72 146.39 149.14 144.66
  A 2.15 2.15 0.0 0 1 151.23 143.01
  L 156.33 143.01
  A 0.57 0.57 0.0 0 0 156.90 142.44
  L 156.90 140.92
  A 0.86 0.86 0.0 0 0 156.19 140.07
  C 148.01 138.57 145.04 140.27 145.05 149.01
  Z
  M 66.04 140.26
  A 0.21 0.21 0.0 0 0 65.83 140.05
  L 65.36 140.05
  A 0.21 0.21 0.0 0 0 65.15 140.26
  L 65.15 157.92
  A 0.21 0.21 0.0 0 0 65.36 158.13
  L 74.32 158.13
  A 0.21 0.21 0.0 0 0 74.53 157.92
  L 74.53 157.51
  A 0.21 0.21 0.0 0 0 74.32 157.30
  L 66.25 157.30
  A 0.21 0.21 0.0 0 1 66.04 157.09
  L 66.04 140.26
  Z
  M 78.1752 140.3508
  A 0.34 0.34 0.0 0 0 77.8358 140.0102
  L 77.6158 140.0098
  A 0.34 0.34 0.0 0 0 77.2752 140.3492
  L 77.2448 157.7492
  A 0.34 0.34 0.0 0 0 77.5842 158.0898
  L 77.8042 158.0902
  A 0.34 0.34 0.0 0 0 78.1448 157.7508
  L 78.1752 140.3508
  Z
  M 121.38 158.07
  Q 121.91 158.07 122.57 158.13
  A 0.49 0.49 0.0 0 0 123.10 157.65
  L 123.10 143.64
  A 0.53 0.53 0.0 0 1 123.63 143.11
  L 127.35 143.11
  A 0.50 0.49 -90.0 0 0 127.84 142.61
  L 127.84 140.50
  A 0.56 0.56 0.0 0 0 127.28 139.94
  Q 124.52 139.93 121.38 139.93
  Q 118.25 139.93 115.48 139.93
  A 0.56 0.56 0.0 0 0 114.92 140.50
  L 114.92 142.61
  A 0.50 0.49 -90.0 0 0 115.41 143.11
  L 119.13 143.11
  A 0.53 0.53 0.0 0 1 119.66 143.64
  L 119.65 157.65
  A 0.49 0.49 0.0 0 0 120.19 158.13
  Q 120.85 158.07 121.38 158.07
  Z
  M 131.23 148.99
  Q 131.23 153.20 131.18 157.67
  A 0.42 0.42 0.0 0 0 131.60 158.09
  L 141.96 158.09
  A 0.56 0.55 -0.0 0 0 142.52 157.54
  L 142.52 155.48
  A 0.57 0.57 0.0 0 0 141.95 154.91
  L 135.14 154.91
  A 0.45 0.45 0.0 0 1 134.69 154.46
  L 134.69 151.03
  A 0.45 0.45 0.0 0 1 135.14 150.58
  L 140.25 150.58
  A 0.80 0.79 -85.8 0 0 141.03 149.90
  Q 141.07 149.63 141.07 149.01
  Q 141.07 148.38 141.03 148.11
  A 0.80 0.79 85.9 0 0 140.25 147.43
  L 135.14 147.42
  A 0.45 0.45 0.0 0 1 134.69 146.97
  L 134.70 143.54
  A 0.45 0.45 0.0 0 1 135.15 143.09
  L 141.96 143.11
  A 0.57 0.57 0.0 0 0 142.54 142.54
  L 142.54 140.48
  A 0.56 0.55 0.1 0 0 141.98 139.93
  L 131.62 139.90
  A 0.42 0.42 0.0 0 0 131.20 140.32
  Q 131.24 144.79 131.23 148.99
  Z
  M 156.76 168.68
  A 0.33 0.33 0.0 0 0 156.43 168.35
  L 19.87 168.35
  A 0.33 0.33 0.0 0 0 19.54 168.68
  L 19.54 168.80
  A 0.33 0.33 0.0 0 0 19.87 169.13
  L 156.43 169.13
  A 0.33 0.33 0.0 0 0 156.76 168.80
  L 156.76 168.68
  Z
  M 36.03 185.11
  L 40.81 185.11
  A 2.63 2.62 -90.0 0 0 43.43 182.48
  L 43.43 180.92
  A 2.75 2.75 0.0 0 0 40.68 178.17
  L 32.79 178.17
  A 0.58 0.57 -90.0 0 0 32.22 178.75
  L 32.22 186.99
  A 0.55 0.54 -90.0 0 0 32.76 187.54
  L 35.07 187.54
  A 0.45 0.45 0.0 0 0 35.52 187.09
  L 35.52 185.62
  A 0.51 0.51 0.0 0 1 36.03 185.11
  Z
  M 45.31 187.51
  A 0.62 0.61 -74.5 0 0 45.84 187.20
  L 46.23 186.52
  A 1.14 1.14 0.0 0 1 47.21 185.96
  L 51.18 185.96
  A 1.32 1.31 75.0 0 1 52.32 186.62
  L 52.63 187.14
  A 0.73 0.72 75.0 0 0 53.26 187.51
  L 58.98 187.51
  A 0.52 0.52 0.0 0 0 59.50 186.99
  L 59.50 185.41
  A 0.41 0.40 90.0 0 1 59.90 185.00
  L 63.89 185.00
  A 0.48 0.48 0.0 0 1 64.37 185.48
  L 64.37 187.01
  A 0.56 0.56 0.0 0 0 64.93 187.57
  L 66.79 187.57
  A 0.77 0.77 0.0 0 0 67.56 186.83
  Q 67.62 185.38 66.98 184.28
  A 0.88 0.87 43.3 0 1 66.95 183.45
  Q 68.01 181.21 67.15 179.41
  Q 66.66 178.39 65.12 178.27
  Q 63.60 178.15 57.03 178.14
  A 0.62 0.62 0.0 0 0 56.41 178.76
  L 56.41 186.59
  A 0.24 0.24 0.0 0 1 55.97 186.71
  L 51.30 178.62
  A 1.00 0.99 74.7 0 0 50.44 178.12
  L 48.09 178.12
  A 0.80 0.79 -75.0 0 0 47.40 178.52
  L 42.41 187.16
  A 0.23 0.23 0.0 0 0 42.61 187.51
  L 45.31 187.51
  Z
  M 99.54 183.73
  Q 101.73 186.59 102.26 187.10
  A 1.28 1.25 66.6 0 0 103.14 187.46
  L 106.48 187.52
  A 0.54 0.54 0.0 0 0 107.03 186.98
  L 107.03 178.51
  A 0.36 0.36 0.0 0 0 106.67 178.15
  L 104.37 178.15
  A 0.43 0.43 0.0 0 0 103.94 178.58
  L 103.94 183.68
  A 0.23 0.23 0.0 0 1 103.53 183.82
  Q 103.37 183.61 102.08 181.92
  Q 99.90 179.06 99.37 178.55
  A 1.28 1.25 66.6 0 0 98.48 178.19
  L 95.14 178.13
  A 0.54 0.54 0.0 0 0 94.59 178.67
  L 94.59 187.14
  A 0.36 0.36 0.0 0 0 94.95 187.50
  L 97.25 187.50
  A 0.43 0.43 0.0 0 0 97.68 187.07
  L 97.68 181.97
  A 0.23 0.23 0.0 0 1 98.09 181.83
  Q 98.25 182.03 99.54 183.73
  Z
  M 74.24 183.93
  Q 75.75 183.91 76.11 183.96
  A 0.64 0.63 -41.0 0 1 76.02 185.22
  L 69.30 185.22
  A 0.47 0.47 0.0 0 0 68.89 185.93
  L 69.13 186.35
  A 2.01 2.01 0.0 0 0 70.65 187.34
  Q 74.08 187.71 76.82 187.44
  Q 80.38 187.09 79.30 183.30
  A 1.96 1.96 0.0 0 0 77.50 181.87
  Q 76.15 181.80 74.00 181.84
  Q 72.49 181.85 72.13 181.80
  A 0.64 0.63 -41.0 0 1 72.22 180.54
  L 78.94 180.54
  A 0.47 0.47 0.0 0 0 79.35 179.83
  L 79.11 179.41
  A 2.01 2.01 0.0 0 0 77.59 178.42
  Q 74.16 178.05 71.42 178.32
  Q 67.86 178.67 68.94 182.46
  A 1.96 1.96 0.0 0 0 70.74 183.89
  Q 72.09 183.95 74.24 183.93
  Z
  M 93.0766 180.9816
  A 2.74 2.74 0.0 0 0 90.3461 178.2321
  L 83.4462 178.2080
  A 2.74 2.74 0.0 0 0 80.6966 180.9384
  L 80.6834 184.7184
  A 2.74 2.74 0.0 0 0 83.4139 187.4679
  L 90.3138 187.4920
  A 2.74 2.74 0.0 0 0 93.0634 184.7616
  L 93.0766 180.9816
  Z
  M 113.78 183.92
  Q 115.29 183.89 115.65 183.93
  A 0.63 0.63 0.0 0 1 115.57 185.19
  L 108.85 185.24
  A 0.47 0.47 0.0 0 0 108.45 185.95
  L 108.69 186.37
  A 2.01 2.01 0.0 0 0 110.21 187.35
  Q 113.64 187.69 116.38 187.41
  Q 119.94 187.04 118.83 183.26
  A 1.96 1.95 83.1 0 0 117.03 181.84
  Q 115.67 181.78 113.53 181.83
  Q 112.02 181.85 111.66 181.80
  A 0.63 0.63 0.0 0 1 111.74 180.54
  L 118.45 180.50
  A 0.47 0.47 0.0 0 0 118.86 179.79
  L 118.62 179.37
  A 2.01 2.01 0.0 0 0 117.09 178.39
  Q 113.66 178.04 110.92 178.33
  Q 107.37 178.70 108.47 182.48
  A 1.96 1.95 83.1 0 0 110.28 183.90
  Q 111.63 183.95 113.78 183.92
  Z
  M 124.13 183.31
  C 124.11 186.13 127.43 189.75 129.90 186.62
  Q 130.75 185.54 130.80 185.41
  A 0.40 0.40 0.0 0 0 130.13 184.99
  L 128.95 186.25
  A 1.78 1.78 0.0 0 1 126.21 186.08
  Q 125.20 184.70 125.21 183.31
  Q 125.21 181.93 126.24 180.55
  A 1.78 1.78 0.0 0 1 128.98 180.42
  L 130.15 181.69
  A 0.40 0.40 0.0 0 0 130.82 181.27
  Q 130.77 181.14 129.93 180.05
  C 127.49 176.90 124.14 180.49 124.13 183.31
  Z
  M 26.94 186.83
  C 26.88 184.59 27.34 181.77 25.25 181.20
  Q 23.04 180.59 21.70 182.46
  A 0.28 0.28 0.0 0 0 22.06 182.88
  Q 22.68 182.55 23.77 182.02
  Q 25.32 181.26 25.88 183.02
  A 0.55 0.55 0.0 0 1 25.23 183.72
  Q 23.63 183.36 22.24 184.39
  A 1.82 1.64 -38.7 0 0 21.83 186.91
  Q 23.25 188.51 25.26 187.28
  Q 25.64 187.05 25.82 187.15
  Q 26.28 187.42 26.36 187.42
  A 0.57 0.57 0.0 0 0 26.94 186.83
  Z
  M 134.1806 187.7571
  A 3.33 2.77 92.4 0 0 137.0876 184.5460
  A 3.33 2.77 92.4 0 0 134.4594 181.1029
  A 3.33 2.77 92.4 0 0 131.5524 184.3140
  A 3.33 2.77 92.4 0 0 134.1806 187.7571
  Z
  M 138.60 181.72
  L 138.60 187.31
  A 0.20 0.20 0.0 0 0 138.80 187.51
  L 139.17 187.51
  A 0.36 0.36 0.0 0 0 139.53 187.15
  L 139.53 183.22
  A 1.17 1.17 0.0 0 1 140.70 182.05
  L 141.21 182.05
  A 1.03 1.02 90.0 0 1 142.23 183.08
  L 142.23 186.99
  A 0.49 0.48 0.0 0 0 142.72 187.47
  L 142.97 187.47
  A 0.18 0.18 0.0 0 0 143.15 187.30
  L 143.25 183.42
  A 1.42 1.42 0.0 0 1 144.70 182.03
  L 144.97 182.01
  A 1.03 1.03 0.0 0 1 146.05 183.04
  L 146.05 187.21
  A 0.23 0.23 0.0 0 0 146.28 187.44
  L 146.55 187.44
  A 0.37 0.37 0.0 0 0 146.92 187.07
  L 146.92 182.93
  A 1.70 1.70 0.0 0 0 144.26 181.53
  L 143.48 182.07
  A 0.62 0.62 0.0 0 1 142.66 181.95
  Q 142.28 181.48 141.94 181.31
  Q 141.43 181.06 141.03 181.26
  Q 139.44 182.06 138.91 181.58
  A 0.19 0.19 0.0 0 0 138.60 181.72
  Z
  M 150.26 187.07
  C 153.71 189.64 155.68 183.33 152.33 181.26
  A 1.05 1.05 0.0 0 0 151.12 181.33
  Q 150.06 182.15 149.34 181.52
  A 0.30 0.30 0.0 0 0 148.84 181.75
  L 148.84 189.26
  A 0.40 0.40 0.0 0 0 149.15 189.65
  Q 150.21 189.89 149.65 187.47
  A 0.39 0.39 0.0 0 1 150.26 187.07
  Z
  M 160.38 186.79
  C 160.34 184.60 160.81 181.84 158.77 181.27
  Q 156.62 180.65 155.29 182.47
  A 0.28 0.28 0.0 0 0 155.64 182.88
  Q 156.25 182.57 157.32 182.06
  Q 158.84 181.33 159.37 183.05
  A 0.54 0.54 0.0 0 1 158.73 183.73
  Q 157.17 183.37 155.80 184.36
  A 1.78 1.60 -38.2 0 0 155.38 186.82
  Q 156.76 188.40 158.73 187.21
  Q 159.11 186.99 159.28 187.09
  Q 159.73 187.36 159.81 187.36
  A 0.56 0.56 0.0 0 0 160.38 186.79
  Z
  M 162.28 181.64
  L 162.28 187.31
  A 0.22 0.22 0.0 0 0 162.50 187.53
  L 162.78 187.53
  A 0.40 0.39 -0.7 0 0 163.18 187.13
  Q 163.17 184.41 163.25 183.77
  A 1.94 1.64 -73.7 0 1 165.72 182.14
  Q 166.10 182.35 166.24 183.29
  Q 166.45 184.66 166.19 187.11
  A 0.29 0.29 0.0 0 0 166.48 187.44
  L 166.80 187.44
  A 0.34 0.34 0.0 0 0 167.14 187.13
  C 167.28 185.61 167.63 182.45 166.06 181.41
  Q 164.91 180.66 163.71 181.82
  A 0.53 0.52 51.7 0 1 162.90 181.72
  Q 162.81 181.58 162.73 181.48
  A 0.25 0.25 0.0 0 0 162.28 181.64
  Z
  M 168.24 181.57
  Q 168.76 184.09 169.64 185.86
  C 170.46 187.48 170.26 188.42 168.54 189.07
  A 0.45 0.44 74.5 0 0 168.26 189.57
  L 168.27 189.62
  A 0.36 0.36 0.0 0 0 168.70 189.90
  C 169.51 189.72 170.20 189.22 170.50 188.43
  Q 172.86 182.30 173.03 181.80
  A 0.30 0.29 -70.6 0 0 172.86 181.44
  L 172.60 181.33
  A 0.14 0.13 -68.2 0 0 172.43 181.41
  L 170.81 185.35
  A 0.34 0.34 0.0 0 1 170.17 185.29
  Q 169.64 182.75 168.75 181.37
  A 0.28 0.28 0.0 0 0 168.24 181.57
  Z"
/>
<path fill="#212529" d="
  M 226.00 76.24
  A 0.76 0.76 0.0 0 1 225.24 77.00
  L 15.76 77.00
  A 0.76 0.76 0.0 0 1 15.00 76.24
  L 15.00 20.76
  A 0.76 0.76 0.0 0 1 15.76 20.00
  L 225.24 20.00
  A 0.76 0.76 0.0 0 1 226.00 20.76
  L 226.00 76.24
  Z
  M 213.66 29.31
  L 200.11 46.53
  A 1.21 1.21 0.0 0 0 200.06 47.96
  L 206.11 56.76
  A 0.41 0.40 72.6 0 1 205.78 57.40
  L 202.27 57.40
  A 2.02 2.00 72.8 0 1 200.61 56.52
  L 197.60 52.15
  A 0.82 0.82 0.0 0 0 196.24 52.15
  L 192.11 58.19
  A 0.52 0.52 0.0 0 0 192.54 59.01
  L 192.96 59.01
  A 1.51 1.49 -72.6 0 0 194.20 58.35
  L 196.52 54.96
  A 0.55 0.55 0.0 0 1 197.42 54.96
  L 199.46 57.93
  A 2.13 2.11 -17.1 0 0 201.21 58.85
  L 208.70 58.85
  A 0.48 0.48 0.0 0 0 209.09 58.10
  L 202.28 48.20
  A 1.49 1.48 44.8 0 1 202.27 46.52
  L 213.93 29.51
  A 0.17 0.17 0.0 0 0 213.66 29.31
  Z
  M 32.4613 59.3710
  A 12.21 11.03 92.2 0 0 43.9519 47.5934
  A 12.21 11.03 92.2 0 0 33.3987 34.9690
  A 12.21 11.03 92.2 0 0 21.9081 46.7466
  A 12.21 11.03 92.2 0 0 32.4613 59.3710
  Z
  M 149.4017 59.3610
  A 12.20 11.01 92.2 0 0 160.8719 47.5926
  A 12.20 11.01 92.2 0 0 150.3383 34.9790
  A 12.20 11.01 92.2 0 0 138.8681 46.7474
  A 12.20 11.01 92.2 0 0 149.4017 59.3610
  Z
  M 51.68 58.81
  A 0.48 0.47 90.0 0 0 52.15 58.33
  L 52.15 51.49
  A 0.82 0.82 0.0 0 1 52.93 50.67
  C 54.04 50.63 55.41 50.76 56.59 50.50
  Q 63.19 49.06 63.10 42.60
  C 62.99 34.33 53.70 35.54 48.20 35.63
  A 0.37 0.37 0.0 0 0 47.83 36.00
  L 47.83 58.33
  A 0.48 0.48 0.0 0 0 48.31 58.81
  L 51.68 58.81
  Z
  M 66.94 47.22
  Q 67.03 57.20 67.09 58.18
  A 0.62 0.61 -1.8 0 0 67.71 58.75
  L 79.11 58.75
  A 0.60 0.60 0.0 0 0 79.71 58.15
  L 79.71 55.43
  A 0.53 0.53 0.0 0 0 79.18 54.90
  L 71.95 54.90
  A 0.62 0.62 0.0 0 1 71.33 54.28
  L 71.33 49.65
  A 0.56 0.55 -0.0 0 1 71.89 49.10
  L 78.07 49.09
  A 0.70 0.69 -83.3 0 0 78.75 48.55
  Q 78.79 48.37 78.78 47.12
  Q 78.77 45.87 78.72 45.68
  A 0.70 0.69 82.3 0 0 78.04 45.16
  L 71.86 45.25
  A 0.56 0.55 -1.0 0 1 71.29 44.71
  L 71.20 40.08
  A 0.62 0.62 0.0 0 1 71.81 39.45
  L 79.04 39.33
  A 0.53 0.53 0.0 0 0 79.56 38.79
  L 79.52 36.07
  A 0.60 0.60 0.0 0 0 78.91 35.48
  L 67.51 35.68
  A 0.62 0.61 0.8 0 0 66.90 36.26
  Q 66.85 37.24 66.94 47.22
  Z
  M 95.20 47.89
  Q 98.61 46.22 98.83 42.89
  C 99.42 34.25 90.41 35.55 84.43 35.62
  A 0.54 0.54 0.0 0 0 83.89 36.16
  L 83.89 58.35
  A 0.47 0.47 0.0 0 0 84.36 58.82
  L 87.73 58.82
  A 0.49 0.48 -90.0 0 0 88.21 58.33
  L 88.21 50.37
  A 0.69 0.69 0.0 0 1 88.91 49.68
  C 92.22 49.68 94.33 54.73 96.18 58.07
  A 1.40 1.39 75.4 0 0 97.40 58.79
  L 105.63 58.79
  A 0.78 0.78 0.0 0 0 106.36 58.28
  L 108.05 53.64
  A 0.90 0.90 0.0 0 1 108.89 53.06
  L 115.61 53.06
  A 0.84 0.84 0.0 0 1 116.40 53.61
  L 118.05 58.16
  A 0.98 0.97 -9.7 0 0 118.97 58.80
  L 122.00 58.80
  A 0.68 0.67 79.9 0 0 122.63 57.89
  L 114.76 36.22
  A 0.94 0.94 0.0 0 0 113.88 35.61
  L 110.58 35.61
  A 0.87 0.87 0.0 0 0 109.76 36.18
  L 102.08 57.18
  A 0.53 0.53 0.0 0 1 101.15 57.30
  L 95.05 48.43
  A 0.37 0.37 0.0 0 1 95.20 47.89
  Z
  M 130.02 58.78
  Q 131.13 58.78 131.51 58.77
  A 0.68 0.68 0.0 0 0 132.17 58.09
  L 132.17 40.00
  A 0.66 0.65 0.0 0 1 132.83 39.35
  L 137.79 39.35
  A 0.66 0.66 0.0 0 0 138.45 38.69
  L 138.45 36.27
  A 0.69 0.69 0.0 0 0 137.75 35.58
  Q 134.10 35.65 129.97 35.63
  Q 125.84 35.67 122.19 35.61
  A 0.69 0.69 0.0 0 0 121.49 36.30
  L 121.50 38.72
  A 0.66 0.66 0.0 0 0 122.16 39.38
  L 127.12 39.36
  A 0.66 0.65 -0.2 0 1 127.79 40.01
  L 127.86 58.10
  A 0.68 0.68 0.0 0 0 128.53 58.77
  Q 128.90 58.78 130.02 58.78
  Z
  M 176.04 47.93
  C 181.87 45.04 180.95 36.80 174.14 35.81
  Q 172.43 35.56 165.37 35.61
  A 0.57 0.57 0.0 0 0 164.80 36.18
  L 164.80 58.31
  A 0.50 0.50 0.0 0 0 165.30 58.81
  L 168.67 58.81
  A 0.45 0.44 90.0 0 0 169.11 58.36
  L 169.11 50.34
  A 0.64 0.63 -1.4 0 1 169.72 49.71
  C 173.12 49.54 174.89 54.16 177.17 58.13
  A 1.32 1.31 75.0 0 0 178.31 58.79
  L 182.17 58.79
  A 0.49 0.49 0.0 0 0 182.57 58.03
  L 175.93 48.38
  A 0.31 0.31 0.0 0 1 176.04 47.93
  Z
  M 178.40 67.71
  L 194.03 47.85
  A 0.83 0.81 -43.7 0 0 194.06 46.88
  L 187.97 38.03
  A 0.51 0.50 72.7 0 1 188.38 37.24
  L 191.75 37.24
  A 1.95 1.92 72.5 0 1 193.34 38.08
  L 196.66 42.91
  A 0.42 0.42 0.0 0 0 197.35 42.91
  L 201.79 36.43
  A 0.39 0.39 0.0 0 0 201.47 35.82
  L 201.07 35.82
  A 1.91 1.91 0.0 0 0 199.50 36.64
  L 197.46 39.63
  A 0.58 0.57 -44.8 0 1 196.51 39.63
  L 194.50 36.70
  A 1.88 1.86 72.4 0 0 192.97 35.90
  L 185.01 35.90
  A 0.33 0.33 0.0 0 0 184.74 36.42
  L 191.88 46.80
  A 0.84 0.84 0.0 0 1 191.88 47.74
  L 178.26 67.61
  A 0.09 0.09 0.0 0 0 178.40 67.71
  Z"
/>
<path fill="#ae1f24" d="
  M 213.93 29.51
  L 202.27 46.52
  A 1.49 1.48 44.8 0 0 202.28 48.20
  L 209.09 58.10
  A 0.48 0.48 0.0 0 1 208.70 58.85
  L 201.21 58.85
  A 2.13 2.11 -17.1 0 1 199.46 57.93
  L 197.42 54.96
  A 0.55 0.55 0.0 0 0 196.52 54.96
  L 194.20 58.35
  A 1.51 1.49 -72.6 0 1 192.96 59.01
  L 192.54 59.01
  A 0.52 0.52 0.0 0 1 192.11 58.19
  L 196.24 52.15
  A 0.82 0.82 0.0 0 1 197.60 52.15
  L 200.61 56.52
  A 2.02 2.00 72.8 0 0 202.27 57.40
  L 205.78 57.40
  A 0.41 0.40 72.6 0 0 206.11 56.76
  L 200.06 47.96
  A 1.21 1.21 0.0 0 1 200.11 46.53
  L 213.66 29.31
  A 0.17 0.17 0.0 0 1 213.93 29.51
  Z"
/>
<path fill="#eff0f0" d="
  M 32.4613 59.3710
  A 12.21 11.03 92.2 0 1 21.9081 46.7466
  A 12.21 11.03 92.2 0 1 33.3987 34.9690
  A 12.21 11.03 92.2 0 1 43.9519 47.5934
  A 12.21 11.03 92.2 0 1 32.4613 59.3710
  Z
  M 32.9417 55.3300
  A 8.12 6.42 90.2 0 0 39.3900 47.2324
  A 8.12 6.42 90.2 0 0 32.9983 39.0900
  A 8.12 6.42 90.2 0 0 26.5500 47.1876
  A 8.12 6.42 90.2 0 0 32.9417 55.3300
  Z"
/>
<path fill="#eff0f0" d="
  M 149.4017 59.3610
  A 12.20 11.01 92.2 0 1 138.8681 46.7474
  A 12.20 11.01 92.2 0 1 150.3383 34.9790
  A 12.20 11.01 92.2 0 1 160.8719 47.5926
  A 12.20 11.01 92.2 0 1 149.4017 59.3610
  Z
  M 149.7707 55.3394
  A 8.13 6.43 90.7 0 0 156.2995 47.2886
  A 8.13 6.43 90.7 0 0 149.9693 39.0806
  A 8.13 6.43 90.7 0 0 143.4405 47.1314
  A 8.13 6.43 90.7 0 0 149.7707 55.3394
  Z"
/>
<path fill="#eff0f0" d="
  M 51.68 58.81
  L 48.31 58.81
  A 0.48 0.48 0.0 0 1 47.83 58.33
  L 47.83 36.00
  A 0.37 0.37 0.0 0 1 48.20 35.63
  C 53.70 35.54 62.99 34.33 63.10 42.60
  Q 63.19 49.06 56.59 50.50
  C 55.41 50.76 54.04 50.63 52.93 50.67
  A 0.82 0.82 0.0 0 0 52.15 51.49
  L 52.15 58.33
  A 0.48 0.47 -90.0 0 1 51.68 58.81
  Z
  M 52.19 40.06
  L 52.15 46.02
  A 0.86 0.86 0.0 0 0 53.01 46.89
  L 54.32 46.89
  A 4.31 3.63 0.3 0 0 58.65 43.29
  L 58.65 42.87
  A 4.31 3.63 0.3 0 0 54.36 39.21
  L 53.05 39.21
  A 0.86 0.86 0.0 0 0 52.19 40.06
  Z"
/>
<path fill="#eff0f0" d="
  M 78.78 47.12
  Q 78.79 48.37 78.75 48.55
  A 0.70 0.69 -83.3 0 1 78.07 49.09
  L 71.89 49.10
  A 0.56 0.55 0.0 0 0 71.33 49.65
  L 71.33 54.28
  A 0.62 0.62 0.0 0 0 71.95 54.90
  L 79.18 54.90
  A 0.53 0.53 0.0 0 1 79.71 55.43
  L 79.71 58.15
  A 0.60 0.60 0.0 0 1 79.11 58.75
  L 67.71 58.75
  A 0.62 0.61 -1.8 0 1 67.09 58.18
  Q 67.03 57.20 66.94 47.22
  Q 66.85 37.24 66.90 36.26
  A 0.62 0.61 0.8 0 1 67.51 35.68
  L 78.91 35.48
  A 0.60 0.60 0.0 0 1 79.52 36.07
  L 79.56 38.79
  A 0.53 0.53 0.0 0 1 79.04 39.33
  L 71.81 39.45
  A 0.62 0.62 0.0 0 0 71.20 40.08
  L 71.29 44.71
  A 0.56 0.55 -1.0 0 0 71.86 45.25
  L 78.04 45.16
  A 0.70 0.69 82.3 0 1 78.72 45.68
  Q 78.77 45.87 78.78 47.12
  Z"
/>
<path fill="#eff0f0" d="
  M 95.05 48.43
  L 101.15 57.30
  A 0.53 0.53 0.0 0 0 102.08 57.18
  L 109.76 36.18
  A 0.87 0.87 0.0 0 1 110.58 35.61
  L 113.88 35.61
  A 0.94 0.94 0.0 0 1 114.76 36.22
  L 122.63 57.89
  A 0.68 0.67 79.9 0 1 122.00 58.80
  L 118.97 58.80
  A 0.98 0.97 -9.7 0 1 118.05 58.16
  L 116.40 53.61
  A 0.84 0.84 0.0 0 0 115.61 53.06
  L 108.89 53.06
  A 0.90 0.90 0.0 0 0 108.05 53.64
  L 106.36 58.28
  A 0.78 0.78 0.0 0 1 105.63 58.79
  L 97.40 58.79
  A 1.40 1.39 75.4 0 1 96.18 58.07
  C 94.33 54.73 92.22 49.68 88.91 49.68
  A 0.69 0.69 0.0 0 0 88.21 50.37
  L 88.21 58.33
  A 0.49 0.48 90.0 0 1 87.73 58.82
  L 84.36 58.82
  A 0.47 0.47 0.0 0 1 83.89 58.35
  L 83.89 36.16
  A 0.54 0.54 0.0 0 1 84.43 35.62
  C 90.41 35.55 99.42 34.25 98.83 42.89
  Q 98.61 46.22 95.20 47.89
  A 0.37 0.37 0.0 0 0 95.05 48.43
  Z
  M 88.18 39.95
  L 88.26 45.29
  A 0.68 0.68 0.0 0 0 88.95 45.96
  L 90.52 45.94
  A 3.93 3.18 -0.8 0 0 94.40 42.71
  L 94.40 42.37
  A 3.93 3.18 -0.8 0 0 90.42 39.24
  L 88.85 39.26
  A 0.68 0.68 0.0 0 0 88.18 39.95
  Z
  M 112.21 49.50
  Q 114.33 49.49 114.36 49.49
  A 0.58 0.58 0.0 0 0 114.92 48.65
  Q 114.34 47.53 112.70 42.02
  C 112.63 41.80 112.40 41.65 112.17 41.65
  C 111.95 41.65 111.72 41.80 111.65 42.03
  Q 110.06 47.55 109.50 48.68
  A 0.58 0.58 0.0 0 0 110.06 49.51
  Q 110.09 49.51 112.21 49.50
  Z"
/>
<path fill="#eff0f0" d="
  M 129.97 35.63
  Q 134.10 35.65 137.75 35.58
  A 0.69 0.69 0.0 0 1 138.45 36.27
  L 138.45 38.69
  A 0.66 0.66 0.0 0 1 137.79 39.35
  L 132.83 39.35
  A 0.66 0.65 -0.0 0 0 132.17 40.00
  L 132.17 58.09
  A 0.68 0.68 0.0 0 1 131.51 58.77
  Q 131.13 58.78 130.02 58.78
  Q 128.90 58.78 128.53 58.77
  A 0.68 0.68 0.0 0 1 127.86 58.10
  L 127.79 40.01
  A 0.66 0.65 -0.2 0 0 127.12 39.36
  L 122.16 39.38
  A 0.66 0.66 0.0 0 1 121.50 38.72
  L 121.49 36.30
  A 0.69 0.69 0.0 0 1 122.19 35.61
  Q 125.84 35.67 129.97 35.63
  Z"
/>
<path fill="#eff0f0" d="
  M 175.93 48.38
  L 182.57 58.03
  A 0.49 0.49 0.0 0 1 182.17 58.79
  L 178.31 58.79
  A 1.32 1.31 75.0 0 1 177.17 58.13
  C 174.89 54.16 173.12 49.54 169.72 49.71
  A 0.64 0.63 -1.4 0 0 169.11 50.34
  L 169.11 58.36
  A 0.45 0.44 90.0 0 1 168.67 58.81
  L 165.30 58.81
  A 0.50 0.50 0.0 0 1 164.80 58.31
  L 164.80 36.18
  A 0.57 0.57 0.0 0 1 165.37 35.61
  Q 172.43 35.56 174.14 35.81
  C 180.95 36.80 181.87 45.04 176.04 47.93
  A 0.31 0.31 0.0 0 0 175.93 48.38
  Z
  M 169.05 39.99
  L 169.13 45.25
  A 0.73 0.73 0.0 0 0 169.87 45.97
  L 171.58 45.95
  A 3.78 3.19 -0.8 0 0 175.31 42.71
  L 175.31 42.37
  A 3.78 3.19 -0.8 0 0 171.48 39.23
  L 169.77 39.25
  A 0.73 0.73 0.0 0 0 169.05 39.99
  Z"
/>
<path fill="#ffffff" d="
  M 178.26 67.61
  L 191.88 47.74
  A 0.84 0.84 0.0 0 0 191.88 46.80
  L 184.74 36.42
  A 0.33 0.33 0.0 0 1 185.01 35.90
  L 192.97 35.90
  A 1.88 1.86 72.4 0 1 194.50 36.70
  L 196.51 39.63
  A 0.58 0.57 -44.8 0 0 197.46 39.63
  L 199.50 36.64
  A 1.91 1.91 0.0 0 1 201.07 35.82
  L 201.47 35.82
  A 0.39 0.39 0.0 0 1 201.79 36.43
  L 197.35 42.91
  A 0.42 0.42 0.0 0 1 196.66 42.91
  L 193.34 38.08
  A 1.95 1.92 72.5 0 0 191.75 37.24
  L 188.38 37.24
  A 0.51 0.50 72.7 0 0 187.97 38.03
  L 194.06 46.88
  A 0.83 0.81 -43.7 0 1 194.03 47.85
  L 178.40 67.71
  A 0.09 0.09 0.0 0 1 178.26 67.61
  Z"
/>
<ellipse fill="#212529" cx="0.00" cy="0.00" transform="translate(32.97,47.21) rotate(90.2)" rx="8.12" ry="6.42"/>
<path fill="#212529" d="
  M 52.19 40.06
  A 0.86 0.86 0.0 0 1 53.05 39.21
  L 54.36 39.21
  A 4.31 3.63 0.3 0 1 58.65 42.87
  L 58.65 43.29
  A 4.31 3.63 0.3 0 1 54.32 46.89
  L 53.01 46.89
  A 0.86 0.86 0.0 0 1 52.15 46.02
  L 52.19 40.06
  Z"
/>
<path fill="#212529" d="
  M 88.18 39.95
  A 0.68 0.68 0.0 0 1 88.85 39.26
  L 90.42 39.24
  A 3.93 3.18 -0.8 0 1 94.40 42.37
  L 94.40 42.71
  A 3.93 3.18 -0.8 0 1 90.52 45.94
  L 88.95 45.96
  A 0.68 0.68 0.0 0 1 88.26 45.29
  L 88.18 39.95
  Z"
/>
<ellipse fill="#212529" cx="0.00" cy="0.00" transform="translate(149.87,47.21) rotate(90.7)" rx="8.13" ry="6.43"/>
<path fill="#212529" d="
  M 169.05 39.99
  A 0.73 0.73 0.0 0 1 169.77 39.25
  L 171.48 39.23
  A 3.78 3.19 -0.8 0 1 175.31 42.37
  L 175.31 42.71
  A 3.78 3.19 -0.8 0 1 171.58 45.95
  L 169.87 45.97
  A 0.73 0.73 0.0 0 1 169.13 45.25
  L 169.05 39.99
  Z"
/>
<path fill="#212529" d="
  M 112.17 41.65
  C 112.40 41.65 112.63 41.80 112.70 42.02
  Q 114.34 47.53 114.92 48.65
  A 0.58 0.58 0.0 0 1 114.36 49.49
  Q 114.33 49.49 112.21 49.50
  Q 110.09 49.51 110.06 49.51
  A 0.58 0.58 0.0 0 1 109.50 48.68
  Q 110.06 47.55 111.65 42.03
  C 111.72 41.80 111.95 41.65 112.17 41.65
  Z"
/>
<path fill="#212529" d="
  M 21.25 119.01
  Q 21.33 118.68 21.92 118.63
  A 0.86 0.85 2.7 0 0 22.68 117.94
  L 22.98 116.40
  A 1.59 1.57 -15.3 0 1 23.52 115.47
  Q 24.71 114.44 26.61 114.93
  A 0.47 0.47 0.0 0 1 26.59 115.84
  Q 26.34 115.89 25.74 115.85
  A 1.48 1.46 28.6 0 0 24.80 116.12
  Q 23.99 116.69 24.05 117.67
  A 0.78 0.78 0.0 0 0 24.83 118.41
  L 25.75 118.41
  A 0.35 0.35 0.0 0 1 26.10 118.76
  L 26.10 119.04
  A 0.47 0.46 90.0 0 1 25.64 119.51
  L 24.62 119.51
  A 0.63 0.63 0.0 0 0 23.99 120.14
  L 23.99 126.43
  A 0.55 0.54 90.0 0 1 23.45 126.98
  L 23.15 126.98
  A 0.40 0.40 0.0 0 1 22.75 126.58
  L 22.75 120.18
  A 0.70 0.69 2.7 0 0 22.12 119.49
  Q 21.81 119.46 21.67 119.48
  A 0.39 0.39 0.0 0 1 21.25 119.01
  Z"
/>
<path fill="#212529" d="
  M 31.2021 127.2200
  A 4.51 3.99 90.1 0 1 27.2200 122.7030
  A 4.51 3.99 90.1 0 1 31.2179 118.2000
  A 4.51 3.99 90.1 0 1 35.2000 122.7170
  A 4.51 3.99 90.1 0 1 31.2021 127.2200
  Z
  M 31.2061 126.1900
  A 3.47 2.66 89.9 0 0 33.8600 122.7154
  A 3.47 2.66 89.9 0 0 31.1939 119.2500
  A 3.47 2.66 89.9 0 0 28.5400 122.7246
  A 3.47 2.66 89.9 0 0 31.2061 126.1900
  Z"
/>
<path fill="#212529" d="
  M 38.49 119.18
  A 0.32 0.32 0.0 0 0 39.02 119.38
  Q 40.77 117.81 42.01 118.49
  A 0.56 0.56 0.0 0 1 41.66 119.53
  Q 39.54 119.23 38.71 121.43
  A 0.98 0.81 -39.7 0 0 38.65 121.75
  L 38.65 126.42
  A 0.53 0.53 0.0 0 1 38.12 126.95
  L 37.82 126.95
  A 0.46 0.45 -0.0 0 1 37.36 126.50
  L 37.37 118.89
  A 0.54 0.54 0.0 0 1 38.43 118.78
  Q 38.46 118.92 38.49 119.18
  Z"
/>
<ellipse fill="#ffffff" cx="0.00" cy="0.00" transform="translate(31.20,122.72) rotate(89.9)" rx="3.47" ry="2.66"/>
<path fill="#ae1f24" d="
  M 191.16 146.12
  Q 184.45 151.72 178.73 158.48
  Q 176.96 160.57 176.34 162.87
  L 163.63 177.18
  A 0.15 0.15 0.0 0 1 163.39 177.01
  L 174.89 158.03
  C 176.25 157.12 177.76 155.29 179.06 154.73
  Q 179.90 154.38 179.92 154.38
  A 0.19 0.18 79.0 0 0 180.11 154.09
  L 179.66 153.46
  A 0.69 0.69 0.0 0 1 180.20 152.37
  Q 180.90 152.36 181.02 152.39
  A 0.51 0.50 -73.7 0 0 181.65 152.04
  L 182.56 148.78
  A 0.77 0.77 0.0 0 0 182.21 147.91
  Q 180.13 146.68 178.91 144.65
  A 1.14 1.14 0.0 0 1 178.98 143.36
  Q 181.05 140.64 182.02 137.71
  L 197.39 120.94
  A 0.24 0.23 77.5 0 1 197.78 121.19
  L 189.19 142.11
  A 0.57 0.56 -78.8 0 0 189.71 142.89
  L 193.49 142.89
  A 0.46 0.46 0.0 0 1 193.89 143.58
  Q 192.74 145.53 191.16 146.12
  Z"
/>
<path fill="#212529" d="
  M 178.00 137.61
  Q 177.28 136.96 175.91 136.94
  A 1.06 1.06 0.0 0 0 175.30 138.87
  L 175.84 139.24
  A 0.20 0.19 -34.0 0 1 175.77 139.59
  Q 174.95 139.79 174.66 138.44
  A 1.54 1.33 80.5 0 1 175.78 136.60
  Q 177.65 136.41 178.20 137.46
  A 0.13 0.13 0.0 0 1 178.00 137.61
  Z"
/>
<path fill="#63151c" d="
  M 182.02 137.71
  Q 181.05 140.64 178.98 143.36
  A 1.14 1.14 0.0 0 0 178.91 144.65
  Q 180.13 146.68 182.21 147.91
  A 0.77 0.77 0.0 0 1 182.56 148.78
  L 181.65 152.04
  A 0.51 0.50 -73.7 0 1 181.02 152.39
  Q 180.90 152.36 180.20 152.37
  A 0.69 0.69 0.0 0 0 179.66 153.46
  L 180.11 154.09
  A 0.19 0.18 79.0 0 1 179.92 154.38
  Q 179.90 154.38 179.06 154.73
  C 177.76 155.29 176.25 157.12 174.89 158.03
  Q 176.86 154.52 179.07 151.23
  Q 179.33 150.84 179.12 150.42
  Q 179.03 150.25 178.43 150.32
  Q 178.75 146.65 176.32 144.00
  L 182.02 137.71
  Z"
/>
<path fill="#212529" d="
  M 178.39 138.33
  Q 178.51 138.70 177.93 139.29
  A 0.33 0.33 0.0 0 1 177.37 139.06
  Q 177.37 139.01 177.80 138.27
  A 0.32 0.32 0.0 0 1 178.39 138.33
  Z"
/>
<path fill="#212529" d="
  M 27.22 148.39
  C 30.02 149.02 32.31 149.36 32.51 152.52
  C 32.96 159.36 26.72 158.60 22.29 157.80
  A 0.32 0.32 0.0 0 1 22.05 157.38
  L 22.15 157.11
  A 0.19 0.19 0.0 0 1 22.34 156.99
  C 25.85 157.24 31.57 158.78 31.65 153.10
  C 31.69 150.05 29.42 149.85 27.04 149.32
  C 24.24 148.69 21.95 148.35 21.75 145.19
  C 21.30 138.35 27.54 139.11 31.97 139.91
  A 0.32 0.32 0.0 0 1 32.21 140.33
  L 32.11 140.60
  A 0.19 0.19 0.0 0 1 31.92 140.72
  C 28.41 140.47 22.69 138.93 22.61 144.61
  C 22.56 147.66 24.84 147.85 27.22 148.39
  Z"
/>
<path fill="#212529" d="
  M 44.97 148.94
  Q 45.06 149.68 37.40 149.33
  A 0.28 0.28 0.0 0 0 37.11 149.61
  L 37.11 156.97
  A 0.26 0.26 0.0 0 0 37.37 157.23
  L 46.16 157.23
  A 0.29 0.29 0.0 0 1 46.45 157.52
  L 46.45 157.81
  A 0.26 0.26 0.0 0 1 46.19 158.07
  L 36.81 158.07
  A 0.64 0.64 0.0 0 1 36.17 157.42
  Q 36.28 153.18 36.29 148.92
  Q 36.29 144.66 36.21 140.42
  A 0.64 0.64 0.0 0 1 36.85 139.77
  L 46.23 139.81
  A 0.26 0.26 0.0 0 1 46.48 140.07
  L 46.48 140.36
  A 0.29 0.29 0.0 0 1 46.19 140.65
  L 37.40 140.62
  A 0.26 0.26 0.0 0 0 37.14 140.88
  L 37.11 148.24
  A 0.28 0.28 0.0 0 0 37.40 148.52
  Q 45.06 148.19 44.97 148.94
  Z"
/>
<path fill="#212529" d="
  M 55.28 139.84
  Q 55.76 139.84 56.25 140.06
  Q 56.79 140.30 56.92 140.75
  Q 58.80 147.31 61.97 157.68
  A 0.33 0.32 -8.2 0 1 61.65 158.10
  L 61.23 158.08
  A 0.12 0.11 -6.4 0 1 61.12 158.00
  L 59.74 153.21
  A 0.86 0.85 -6.9 0 0 58.95 152.60
  Q 58.54 152.58 55.30 152.59
  Q 52.06 152.60 51.65 152.61
  A 0.86 0.85 6.7 0 0 50.86 153.23
  L 49.50 158.02
  A 0.12 0.11 6.2 0 1 49.39 158.10
  L 48.97 158.12
  A 0.33 0.32 8.0 0 1 48.64 157.70
  Q 51.78 147.32 53.64 140.76
  Q 53.76 140.31 54.31 140.06
  Q 54.79 139.84 55.28 139.84
  Z
  M 55.30 151.66
  Q 57.35 151.66 58.57 151.56
  A 0.50 0.49 -10.5 0 0 59.01 150.93
  Q 57.09 144.09 55.98 141.01
  Q 55.86 140.69 55.28 140.69
  Q 54.70 140.69 54.59 141.02
  Q 53.48 144.10 51.59 150.94
  A 0.50 0.49 10.3 0 0 52.03 151.57
  Q 53.25 151.67 55.30 151.66
  Z"
/>
<path fill="#212529" d="
  M 88.54 149.23
  Q 86.60 145.28 84.64 141.21
  A 0.47 0.47 0.0 0 0 83.75 141.41
  L 83.75 157.89
  A 0.23 0.23 0.0 0 1 83.52 158.12
  L 83.21 158.12
  A 0.35 0.35 0.0 0 1 82.86 157.77
  L 82.86 140.70
  A 0.79 0.78 81.5 0 1 83.41 139.95
  Q 84.61 139.60 85.30 140.66
  Q 85.36 140.77 89.34 148.89
  Q 91.28 152.84 93.24 156.91
  A 0.47 0.47 0.0 0 0 94.13 156.71
  L 94.13 140.23
  A 0.23 0.23 0.0 0 1 94.36 140.00
  L 94.67 140.00
  A 0.35 0.35 0.0 0 1 95.02 140.35
  L 95.02 157.42
  A 0.79 0.78 81.5 0 1 94.47 158.17
  Q 93.27 158.52 92.59 157.45
  Q 92.52 157.35 88.54 149.23
  Z"
/>
<path fill="#212529" d="
  M 110.66 141.06
  Q 110.63 141.06 107.49 140.59
  Q 100.79 139.60 100.05 145.98
  C 99.66 149.37 99.52 154.10 102.08 156.57
  A 2.11 2.10 -14.1 0 0 102.92 157.07
  Q 105.76 157.98 109.67 157.13
  A 0.79 0.78 -6.5 0 0 110.28 156.37
  L 110.28 150.49
  A 0.55 0.55 0.0 0 0 109.73 149.94
  L 106.79 149.94
  A 0.31 0.30 0.0 0 1 106.48 149.64
  L 106.48 149.35
  A 0.27 0.27 0.0 0 1 106.75 149.08
  L 110.20 149.08
  A 0.95 0.95 0.0 0 1 111.15 150.03
  L 111.15 156.80
  A 1.19 1.18 86.7 0 1 110.10 157.98
  C 105.43 158.53 100.65 159.30 99.43 153.51
  Q 98.50 149.11 99.35 144.81
  C 100.58 138.64 105.77 139.37 110.82 140.20
  A 0.27 0.26 -85.4 0 1 111.05 140.48
  L 111.05 140.68
  A 0.40 0.40 0.0 0 1 110.66 141.06
  Z"
/>
<path fill="#212529" d="
  M 148.72 149.01
  Q 148.72 151.64 149.14 153.37
  A 2.15 2.15 0.0 0 0 151.23 155.01
  L 156.33 155.01
  A 0.57 0.57 0.0 0 1 156.90 155.58
  L 156.90 157.10
  A 0.86 0.86 0.0 0 1 156.19 157.95
  C 148.02 159.46 145.05 157.75 145.05 149.01
  C 145.04 140.27 148.01 138.57 156.19 140.07
  A 0.86 0.86 0.0 0 1 156.90 140.92
  L 156.90 142.44
  A 0.57 0.57 0.0 0 1 156.33 143.01
  L 151.23 143.01
  A 2.15 2.15 0.0 0 0 149.14 144.66
  Q 148.72 146.39 148.72 149.01
  Z"
/>
<path fill="#212529" d="
  M 66.04 140.26
  L 66.04 157.09
  A 0.21 0.21 0.0 0 0 66.25 157.30
  L 74.32 157.30
  A 0.21 0.21 0.0 0 1 74.53 157.51
  L 74.53 157.92
  A 0.21 0.21 0.0 0 1 74.32 158.13
  L 65.36 158.13
  A 0.21 0.21 0.0 0 1 65.15 157.92
  L 65.15 140.26
  A 0.21 0.21 0.0 0 1 65.36 140.05
  L 65.83 140.05
  A 0.21 0.21 0.0 0 1 66.04 140.26
  Z"
/>
<rect fill="#212529" x="-0.45" y="-9.04" transform="translate(77.71,149.05) rotate(0.1)" width="0.90" height="18.08" rx="0.34"/>
<path fill="#212529" d="
  M 121.38 139.93
  Q 124.52 139.93 127.28 139.94
  A 0.56 0.56 0.0 0 1 127.84 140.50
  L 127.84 142.61
  A 0.50 0.49 -90.0 0 1 127.35 143.11
  L 123.63 143.11
  A 0.53 0.53 0.0 0 0 123.10 143.64
  L 123.10 157.65
  A 0.49 0.49 0.0 0 1 122.57 158.13
  Q 121.91 158.07 121.38 158.07
  Q 120.85 158.07 120.19 158.13
  A 0.49 0.49 0.0 0 1 119.65 157.65
  L 119.66 143.64
  A 0.53 0.53 0.0 0 0 119.13 143.11
  L 115.41 143.11
  A 0.50 0.49 -90.0 0 1 114.92 142.61
  L 114.92 140.50
  A 0.56 0.56 0.0 0 1 115.48 139.93
  Q 118.25 139.93 121.38 139.93
  Z"
/>
<path fill="#212529" d="
  M 141.07 149.01
  Q 141.07 149.63 141.03 149.90
  A 0.80 0.79 -85.8 0 1 140.25 150.58
  L 135.14 150.58
  A 0.45 0.45 0.0 0 0 134.69 151.03
  L 134.69 154.46
  A 0.45 0.45 0.0 0 0 135.14 154.91
  L 141.95 154.91
  A 0.57 0.57 0.0 0 1 142.52 155.48
  L 142.52 157.54
  A 0.56 0.55 -0.0 0 1 141.96 158.09
  L 131.60 158.09
  A 0.42 0.42 0.0 0 1 131.18 157.67
  Q 131.23 153.20 131.23 148.99
  Q 131.24 144.79 131.20 140.32
  A 0.42 0.42 0.0 0 1 131.62 139.90
  L 141.98 139.93
  A 0.56 0.55 0.1 0 1 142.54 140.48
  L 142.54 142.54
  A 0.57 0.57 0.0 0 1 141.96 143.11
  L 135.15 143.09
  A 0.45 0.45 0.0 0 0 134.70 143.54
  L 134.69 146.97
  A 0.45 0.45 0.0 0 0 135.14 147.42
  L 140.25 147.43
  A 0.80 0.79 85.9 0 1 141.03 148.11
  Q 141.07 148.38 141.07 149.01
  Z"
/>
<path fill="#212529" d="
  M 176.32 144.00
  Q 178.75 146.65 178.43 150.32
  L 174.09 150.52
  A 0.60 0.60 0.0 0 0 173.52 151.12
  L 173.52 157.29
  A 0.86 0.86 0.0 0 1 172.66 158.15
  L 170.89 158.15
  A 0.76 0.76 0.0 0 1 170.13 157.39
  L 170.13 151.54
  A 0.97 0.97 0.0 0 0 169.16 150.57
  L 164.33 150.57
  A 0.92 0.92 0.0 0 0 163.41 151.49
  L 163.41 157.73
  A 0.37 0.37 0.0 0 1 163.04 158.10
  L 160.25 158.10
  A 0.34 0.34 0.0 0 1 159.91 157.76
  L 159.91 140.54
  A 0.64 0.63 0.0 0 1 160.55 139.91
  L 162.86 139.91
  A 0.56 0.56 0.0 0 1 163.42 140.47
  L 163.42 146.99
  A 0.39 0.38 -90.0 0 0 163.80 147.38
  L 169.73 147.38
  A 0.40 0.39 -90.0 0 0 170.12 146.98
  L 170.12 140.59
  A 0.69 0.69 0.0 0 1 170.81 139.90
  L 172.85 139.90
  A 0.65 0.65 0.0 0 1 173.50 140.55
  L 173.50 146.34
  A 0.30 0.30 0.0 0 0 174.02 146.54
  L 176.32 144.00
  Z
  M 174.88 148.79
  A 0.39 0.39 0.0 0 0 174.73 148.09
  Q 174.11 147.97 174.01 148.80
  A 0.29 0.29 0.0 0 0 174.46 149.08
  L 174.88 148.79
  Z"
/>
<path fill="#ffffff" d="
  M 55.28 140.69
  Q 55.86 140.69 55.98 141.01
  Q 57.09 144.09 59.01 150.93
  A 0.50 0.49 -10.5 0 1 58.57 151.56
  Q 57.35 151.66 55.30 151.66
  Q 53.25 151.67 52.03 151.57
  A 0.50 0.49 10.3 0 1 51.59 150.94
  Q 53.48 144.10 54.59 141.02
  Q 54.70 140.69 55.28 140.69
  Z"
/>
<path fill="#63151c" d="
  M 191.16 146.12
  L 176.34 162.87
  Q 176.96 160.57 178.73 158.48
  Q 184.45 151.72 191.16 146.12
  Z"
/>
<path fill="#ae1f24" d="
  M 174.88 148.79
  L 174.46 149.08
  A 0.29 0.29 0.0 0 1 174.01 148.80
  Q 174.11 147.97 174.73 148.09
  A 0.39 0.39 0.0 0 1 174.88 148.79
  Z"
/>
<rect fill="#212529" x="19.54" y="168.35" width="137.22" height="0.78" rx="0.33"/>
<path fill="#212529" d="
  M 35.52 185.62
  L 35.52 187.09
  A 0.45 0.45 0.0 0 1 35.07 187.54
  L 32.76 187.54
  A 0.55 0.54 -90.0 0 1 32.22 186.99
  L 32.22 178.75
  A 0.58 0.57 90.0 0 1 32.79 178.17
  L 40.68 178.17
  A 2.75 2.75 0.0 0 1 43.43 180.92
  L 43.43 182.48
  A 2.63 2.62 90.0 0 1 40.81 185.11
  L 36.03 185.11
  A 0.51 0.51 0.0 0 0 35.52 185.62
  Z
  M 40.1895 181.4758
  A 0.75 0.75 0.0 0 0 39.4382 180.7271
  L 36.1182 180.7329
  A 0.75 0.75 0.0 0 0 35.3695 181.4842
  L 35.3705 182.0842
  A 0.75 0.75 0.0 0 0 36.1218 182.8329
  L 39.4418 182.8271
  A 0.75 0.75 0.0 0 0 40.1905 182.0758
  L 40.1895 181.4758
  Z"
/>
<path fill="#212529" d="
  M 45.31 187.51
  L 42.61 187.51
  A 0.23 0.23 0.0 0 1 42.41 187.16
  L 47.40 178.52
  A 0.80 0.79 -75.0 0 1 48.09 178.12
  L 50.44 178.12
  A 1.00 0.99 74.7 0 1 51.30 178.62
  L 55.97 186.71
  A 0.24 0.24 0.0 0 0 56.41 186.59
  L 56.41 178.76
  A 0.62 0.62 0.0 0 1 57.03 178.14
  Q 63.60 178.15 65.12 178.27
  Q 66.66 178.39 67.15 179.41
  Q 68.01 181.21 66.95 183.45
  A 0.88 0.87 43.3 0 0 66.98 184.28
  Q 67.62 185.38 67.56 186.83
  A 0.77 0.77 0.0 0 1 66.79 187.57
  L 64.93 187.57
  A 0.56 0.56 0.0 0 1 64.37 187.01
  L 64.37 185.48
  A 0.48 0.48 0.0 0 0 63.89 185.00
  L 59.90 185.00
  A 0.41 0.40 -90.0 0 0 59.50 185.41
  L 59.50 186.99
  A 0.52 0.52 0.0 0 1 58.98 187.51
  L 53.26 187.51
  A 0.73 0.72 75.0 0 1 52.63 187.14
  L 52.32 186.62
  A 1.32 1.31 75.0 0 0 51.18 185.96
  L 47.21 185.96
  A 1.14 1.14 0.0 0 0 46.23 186.52
  L 45.84 187.20
  A 0.62 0.61 -74.5 0 1 45.31 187.51
  Z
  M 64.5720 181.5628
  A 0.81 0.81 0.0 0 0 63.7691 180.7457
  L 60.1692 180.7143
  A 0.81 0.81 0.0 0 0 59.3522 181.5172
  L 59.3480 181.9972
  A 0.81 0.81 0.0 0 0 60.1509 182.8143
  L 63.7508 182.8457
  A 0.81 0.81 0.0 0 0 64.5678 182.0428
  L 64.5720 181.5628
  Z
  M 47.75 183.89
  Q 48.12 184.56 50.25 184.06
  A 0.40 0.40 0.0 0 0 50.52 183.49
  Q 50.30 183.06 50.06 182.62
  Q 49.81 182.18 49.57 181.77
  A 0.40 0.40 0.0 0 0 48.94 181.69
  Q 47.38 183.22 47.75 183.89
  Z"
/>
<path fill="#212529" d="
  M 99.54 183.73
  Q 98.25 182.03 98.09 181.83
  A 0.23 0.23 0.0 0 0 97.68 181.97
  L 97.68 187.07
  A 0.43 0.43 0.0 0 1 97.25 187.50
  L 94.95 187.50
  A 0.36 0.36 0.0 0 1 94.59 187.14
  L 94.59 178.67
  A 0.54 0.54 0.0 0 1 95.14 178.13
  L 98.48 178.19
  A 1.28 1.25 66.6 0 1 99.37 178.55
  Q 99.90 179.06 102.08 181.92
  Q 103.37 183.61 103.53 183.82
  A 0.23 0.23 0.0 0 0 103.94 183.68
  L 103.94 178.58
  A 0.43 0.43 0.0 0 1 104.37 178.15
  L 106.67 178.15
  A 0.36 0.36 0.0 0 1 107.03 178.51
  L 107.03 186.98
  A 0.54 0.54 0.0 0 1 106.48 187.52
  L 103.14 187.46
  A 1.28 1.25 66.6 0 1 102.26 187.10
  Q 101.73 186.59 99.54 183.73
  Z"
/>
<path fill="#212529" d="
  M 74.00 181.84
  Q 76.15 181.80 77.50 181.87
  A 1.96 1.96 0.0 0 1 79.30 183.30
  Q 80.38 187.09 76.82 187.44
  Q 74.08 187.71 70.65 187.34
  A 2.01 2.01 0.0 0 1 69.13 186.35
  L 68.89 185.93
  A 0.47 0.47 0.0 0 1 69.30 185.22
  L 76.02 185.22
  A 0.64 0.63 -41.0 0 0 76.11 183.96
  Q 75.75 183.91 74.24 183.93
  Q 72.09 183.95 70.74 183.89
  A 1.96 1.96 0.0 0 1 68.94 182.46
  Q 67.86 178.67 71.42 178.32
  Q 74.16 178.05 77.59 178.42
  A 2.01 2.01 0.0 0 1 79.11 179.41
  L 79.35 179.83
  A 0.47 0.47 0.0 0 1 78.94 180.54
  L 72.22 180.54
  A 0.64 0.63 -41.0 0 0 72.13 181.80
  Q 72.49 181.85 74.00 181.84
  Z"
/>
<path fill="#212529" d="
  M 93.0634 184.7616
  A 2.74 2.74 0.0 0 1 90.3138 187.4920
  L 83.4139 187.4679
  A 2.74 2.74 0.0 0 1 80.6834 184.7184
  L 80.6966 180.9384
  A 2.74 2.74 0.0 0 1 83.4462 178.2080
  L 90.3461 178.2321
  A 2.74 2.74 0.0 0 1 93.0766 180.9816
  L 93.0634 184.7616
  Z
  M 89.92 181.68
  A 0.94 0.94 0.0 0 0 88.98 180.74
  L 84.86 180.74
  A 0.94 0.94 0.0 0 0 83.92 181.68
  L 83.92 184.14
  A 0.94 0.94 0.0 0 0 84.86 185.08
  L 88.98 185.08
  A 0.94 0.94 0.0 0 0 89.92 184.14
  L 89.92 181.68
  Z
  M 83.18 185.31
  Q 83.06 184.94 82.90 184.92
  A 0.28 0.27 58.4 0 0 82.79 185.45
  Q 82.89 185.50 83.09 185.46
  A 0.12 0.12 0.0 0 0 83.18 185.31
  Z"
/>
<path fill="#212529" d="
  M 113.78 183.92
  Q 111.63 183.95 110.28 183.90
  A 1.96 1.95 83.1 0 1 108.47 182.48
  Q 107.37 178.70 110.92 178.33
  Q 113.66 178.04 117.09 178.39
  A 2.01 2.01 0.0 0 1 118.62 179.37
  L 118.86 179.79
  A 0.47 0.47 0.0 0 1 118.45 180.50
  L 111.74 180.54
  A 0.63 0.63 0.0 0 0 111.66 181.80
  Q 112.02 181.85 113.53 181.83
  Q 115.67 181.78 117.03 181.84
  A 1.96 1.95 83.1 0 1 118.83 183.26
  Q 119.94 187.04 116.38 187.41
  Q 113.64 187.69 110.21 187.35
  A 2.01 2.01 0.0 0 1 108.69 186.37
  L 108.45 185.95
  A 0.47 0.47 0.0 0 1 108.85 185.24
  L 115.57 185.19
  A 0.63 0.63 0.0 0 0 115.65 183.93
  Q 115.29 183.89 113.78 183.92
  Z"
/>
<path fill="#212529" d="
  M 125.21 183.31
  Q 125.20 184.70 126.21 186.08
  A 1.78 1.78 0.0 0 0 128.95 186.25
  L 130.13 184.99
  A 0.40 0.40 0.0 0 1 130.80 185.41
  Q 130.75 185.54 129.90 186.62
  C 127.43 189.75 124.11 186.13 124.13 183.31
  C 124.14 180.49 127.49 176.90 129.93 180.05
  Q 130.77 181.14 130.82 181.27
  A 0.40 0.40 0.0 0 1 130.15 181.69
  L 128.98 180.42
  A 1.78 1.78 0.0 0 0 126.24 180.55
  Q 125.21 181.93 125.21 183.31
  Z"
/>
<rect fill="#ffffff" x="-2.41" y="-1.05" transform="translate(37.78,181.78) rotate(-0.1)" width="4.82" height="2.10" rx="0.75"/>
<rect fill="#ffffff" x="-2.61" y="-1.05" transform="translate(61.96,181.78) rotate(0.5)" width="5.22" height="2.10" rx="0.81"/>
<rect fill="#ffffff" x="83.92" y="180.74" width="6.00" height="4.34" rx="0.94"/>
<path fill="#212529" d="
  M 26.36 187.42
  Q 26.28 187.42 25.82 187.15
  Q 25.64 187.05 25.26 187.28
  Q 23.25 188.51 21.83 186.91
  A 1.82 1.64 -38.7 0 1 22.24 184.39
  Q 23.63 183.36 25.23 183.72
  A 0.55 0.55 0.0 0 0 25.88 183.02
  Q 25.32 181.26 23.77 182.02
  Q 22.68 182.55 22.06 182.88
  A 0.28 0.28 0.0 0 1 21.70 182.46
  Q 23.04 180.59 25.25 181.20
  C 27.34 181.77 26.88 184.59 26.94 186.83
  A 0.57 0.57 0.0 0 1 26.36 187.42
  Z
  M 25.8305 184.9736
  A 1.71 1.15 -23.3 0 0 23.8051 184.5938
  A 1.71 1.15 -23.3 0 0 22.6895 186.3264
  A 1.71 1.15 -23.3 0 0 24.7149 186.7062
  A 1.71 1.15 -23.3 0 0 25.8305 184.9736
  Z"
/>
<path fill="#212529" d="
  M 134.1806 187.7571
  A 3.33 2.77 92.4 0 1 131.5524 184.3140
  A 3.33 2.77 92.4 0 1 134.4594 181.1029
  A 3.33 2.77 92.4 0 1 137.0876 184.5460
  A 3.33 2.77 92.4 0 1 134.1806 187.7571
  Z
  M 134.3489 186.9800
  A 2.55 1.78 89.8 0 0 136.1200 184.4238
  A 2.55 1.78 89.8 0 0 134.3311 181.8800
  A 2.55 1.78 89.8 0 0 132.5600 184.4362
  A 2.55 1.78 89.8 0 0 134.3489 186.9800
  Z"
/>
<path fill="#212529" d="
  M 138.91 181.58
  Q 139.44 182.06 141.03 181.26
  Q 141.43 181.06 141.94 181.31
  Q 142.28 181.48 142.66 181.95
  A 0.62 0.62 0.0 0 0 143.48 182.07
  L 144.26 181.53
  A 1.70 1.70 0.0 0 1 146.92 182.93
  L 146.92 187.07
  A 0.37 0.37 0.0 0 1 146.55 187.44
  L 146.28 187.44
  A 0.23 0.23 0.0 0 1 146.05 187.21
  L 146.05 183.04
  A 1.03 1.03 0.0 0 0 144.97 182.01
  L 144.70 182.03
  A 1.42 1.42 0.0 0 0 143.25 183.42
  L 143.15 187.30
  A 0.18 0.18 0.0 0 1 142.97 187.47
  L 142.72 187.47
  A 0.49 0.48 0.0 0 1 142.23 186.99
  L 142.23 183.08
  A 1.03 1.02 90.0 0 0 141.21 182.05
  L 140.70 182.05
  A 1.17 1.17 0.0 0 0 139.53 183.22
  L 139.53 187.15
  A 0.36 0.36 0.0 0 1 139.17 187.51
  L 138.80 187.51
  A 0.20 0.20 0.0 0 1 138.60 187.31
  L 138.60 181.72
  A 0.19 0.19 0.0 0 1 138.91 181.58
  Z"
/>
<path fill="#212529" d="
  M 150.26 187.07
  A 0.39 0.39 0.0 0 0 149.65 187.47
  Q 150.21 189.89 149.15 189.65
  A 0.40 0.40 0.0 0 1 148.84 189.26
  L 148.84 181.75
  A 0.30 0.30 0.0 0 1 149.34 181.52
  Q 150.06 182.15 151.12 181.33
  A 1.05 1.05 0.0 0 1 152.33 181.26
  C 155.68 183.33 153.71 189.64 150.26 187.07
  Z
  M 151.4129 186.9200
  A 2.47 1.77 89.7 0 0 153.1700 184.4407
  A 2.47 1.77 89.7 0 0 151.3871 181.9800
  A 2.47 1.77 89.7 0 0 149.6300 184.4593
  A 2.47 1.77 89.7 0 0 151.4129 186.9200
  Z"
/>
<path fill="#212529" d="
  M 160.38 186.79
  A 0.56 0.56 0.0 0 1 159.81 187.36
  Q 159.73 187.36 159.28 187.09
  Q 159.11 186.99 158.73 187.21
  Q 156.76 188.40 155.38 186.82
  A 1.78 1.60 -38.2 0 1 155.80 184.36
  Q 157.17 183.37 158.73 183.73
  A 0.54 0.54 0.0 0 0 159.37 183.05
  Q 158.84 181.33 157.32 182.06
  Q 156.25 182.57 155.64 182.88
  A 0.28 0.28 0.0 0 1 155.29 182.47
  Q 156.62 180.65 158.77 181.27
  C 160.81 181.84 160.34 184.60 160.38 186.79
  Z
  M 158.64 184.34
  Q 157.41 184.41 156.47 184.99
  A 1.12 1.01 29.3 0 0 157.12 186.91
  Q 158.34 187.01 159.14 186.06
  A 1.08 0.87 -67.5 0 0 158.64 184.34
  Z"
/>
<path fill="#212529" d="
  M 162.73 181.48
  Q 162.81 181.58 162.90 181.72
  A 0.53 0.52 51.7 0 0 163.71 181.82
  Q 164.91 180.66 166.06 181.41
  C 167.63 182.45 167.28 185.61 167.14 187.13
  A 0.34 0.34 0.0 0 1 166.80 187.44
  L 166.48 187.44
  A 0.29 0.29 0.0 0 1 166.19 187.11
  Q 166.45 184.66 166.24 183.29
  Q 166.10 182.35 165.72 182.14
  A 1.94 1.64 -73.7 0 0 163.25 183.77
  Q 163.17 184.41 163.18 187.13
  A 0.40 0.39 -0.7 0 1 162.78 187.53
  L 162.50 187.53
  A 0.22 0.22 0.0 0 1 162.28 187.31
  L 162.28 181.64
  A 0.25 0.25 0.0 0 1 162.73 181.48
  Z"
/>
<path fill="#ffffff" d="
  M 50.06 182.62
  Q 50.30 183.06 50.52 183.49
  A 0.40 0.40 0.0 0 1 50.25 184.06
  Q 48.12 184.56 47.75 183.89
  Q 47.38 183.22 48.94 181.69
  A 0.40 0.40 0.0 0 1 49.57 181.77
  Q 49.81 182.18 50.06 182.62
  Z"
/>
<path fill="#212529" d="
  M 168.24 181.57
  A 0.28 0.28 0.0 0 1 168.75 181.37
  Q 169.64 182.75 170.17 185.29
  A 0.34 0.34 0.0 0 0 170.81 185.35
  L 172.43 181.41
  A 0.14 0.13 -68.2 0 1 172.60 181.33
  L 172.86 181.44
  A 0.30 0.29 -70.6 0 1 173.03 181.80
  Q 172.86 182.30 170.50 188.43
  C 170.20 189.22 169.51 189.72 168.70 189.90
  A 0.36 0.36 0.0 0 1 168.27 189.62
  L 168.26 189.57
  A 0.45 0.44 74.5 0 1 168.54 189.07
  C 170.26 188.42 170.46 187.48 169.64 185.86
  Q 168.76 184.09 168.24 181.57
  Z"
/>
<ellipse fill="#ffffff" cx="0.00" cy="0.00" transform="translate(134.34,184.43) rotate(89.8)" rx="2.55" ry="1.78"/>
<ellipse fill="#ffffff" cx="0.00" cy="0.00" transform="translate(151.40,184.45) rotate(89.7)" rx="2.47" ry="1.77"/>
<path fill="#ffffff" d="
  M 158.64 184.34
  A 1.08 0.87 -67.5 0 1 159.14 186.06
  Q 158.34 187.01 157.12 186.91
  A 1.12 1.01 29.3 0 1 156.47 184.99
  Q 157.41 184.41 158.64 184.34
  Z"
/>
<ellipse fill="#ffffff" cx="0.00" cy="0.00" transform="translate(24.26,185.65) rotate(-23.3)" rx="1.71" ry="1.15"/>
<path fill="#ae1f24" d="
  M 83.09 185.46
  Q 82.89 185.50 82.79 185.45
  A 0.28 0.27 58.4 0 1 82.90 184.92
  Q 83.06 184.94 83.18 185.31
  A 0.12 0.12 0.0 0 1 83.09 185.46
  Z"
/>
</svg>
