<?xml version="1.0" encoding="UTF-8" standalone="no"?>
<!DOCTYPE svg PUBLIC "-//W3C//DTD SVG 1.1//EN" "http://www.w3.org/Graphics/SVG/1.1/DTD/svg11.dtd">
<svg xmlns="http://www.w3.org/2000/svg" version="1.1" viewBox="0.00 0.00 376.00 110.00">
<g stroke-width="2.00" fill="none" stroke-linecap="butt">
<path stroke="#681b20" vector-effect="non-scaling-stroke" d="
  M 330.73 24.14
  L 307.78 53.28
  A 0.90 0.90 0.0 0 0 307.74 54.33
  L 317.86 69.22
  A 0.04 0.03 69.7 0 1 317.84 69.28
  L 310.01 69.28
  A 0.41 0.39 72.6 0 1 309.68 69.10
  L 303.78 60.43
  A 0.48 0.48 0.0 0 0 302.99 60.42
  L 295.67 71.11
  A 0.50 0.50 0.0 0 0 296.09 71.89
  L 297.75 71.89
  A 1.71 1.71 0.0 0 0 299.15 71.16
  L 303.03 65.49
  A 0.46 0.45 -44.7 0 1 303.78 65.49
  L 307.88 71.52
  A 0.89 0.87 -16.8 0 0 308.61 71.90
  L 322.41 71.90
  A 0.34 0.33 -17.1 0 0 322.69 71.38
  L 311.20 54.48
  A 1.12 1.12 0.0 0 1 311.20 53.22
  L 330.99 24.33
  A 0.16 0.16 0.0 0 0 330.73 24.14"
/>
<path stroke="#85888a" vector-effect="non-scaling-stroke" d="
  M 33.09 53.01
  C 32.65 63.37 38.07 71.82 49.11 72.29
  C 60.15 72.75 66.26 64.79 66.70 54.43
  C 67.14 44.07 61.72 35.62 50.68 35.15
  C 39.65 34.69 33.53 42.65 33.09 53.01"
/>
<path stroke="#85888a" vector-effect="non-scaling-stroke" d="
  M 213.80 53.05
  C 213.41 63.41 218.87 71.83 229.90 72.24
  C 240.93 72.66 247.00 64.67 247.39 54.31
  C 247.78 43.96 242.32 35.54 231.29 35.12
  C 220.26 34.71 214.19 42.69 213.80 53.05"
/>
<path stroke="#5d5e62" vector-effect="non-scaling-stroke" d="
  M 128.69 35.74
  Q 128.37 36.42 128.37 37.01
  Q 128.20 53.25 128.14 69.51
  Q 128.14 70.08 128.59 70.96"
/>
<path stroke="#85888a" vector-effect="non-scaling-stroke" d="
  M 128.59 70.96
  Q 128.55 71.21 128.59 71.40
  A 0.41 0.40 -6.1 0 0 128.99 71.71
  L 134.89 71.70"
/>
<path stroke="#5d5e62" vector-effect="non-scaling-stroke" d="
  M 134.89 71.70
  Q 135.64 71.87 135.66 71.19
  Q 135.86 64.55 135.35 57.81"
/>
<path stroke="#85888a" vector-effect="non-scaling-stroke" d="
  M 135.35 57.81
  Q 139.52 57.03 141.52 60.24
  Q 144.61 65.22 148.05 71.27
  A 0.94 0.93 75.0 0 0 148.86 71.74
  L 162.68 71.74
  A 0.64 0.63 -80.3 0 0 163.28 71.31
  L 166.09 63.63
  A 1.12 1.11 -79.7 0 1 167.13 62.90
  L 177.97 62.90
  A 0.76 0.76 0.0 0 1 178.69 63.41
  L 181.36 70.80
  A 1.42 1.42 0.0 0 0 182.69 71.73
  L 187.64 71.73
  A 1.03 1.03 0.0 0 0 188.61 70.35
  L 176.33 36.37
  A 0.93 0.92 -9.9 0 0 175.46 35.76
  L 169.53 35.76
  A 0.91 0.91 0.0 0 0 168.68 36.35
  L 156.40 69.97
  A 0.54 0.53 39.5 0 1 155.44 70.06
  Q 151.47 63.51 148.13 58.40
  C 147.40 57.30 146.51 56.75 145.69 55.94
  A 0.47 0.47 0.0 0 1 145.81 55.19
  C 155.27 50.49 153.65 37.21 142.74 36.00
  Q 139.67 35.66 128.69 35.74"
/>
<path stroke="#c1c0c2" vector-effect="non-scaling-stroke" d="
  M 135.35 57.81
  L 134.89 71.70"
/>
<path stroke="#c1c0c2" vector-effect="non-scaling-stroke" d="
  M 128.59 70.96
  Q 129.05 70.08 129.05 69.75
  Q 129.07 53.37 128.93 37.00
  Q 128.93 36.46 128.69 35.74"
/>
<path stroke="#85888a" vector-effect="non-scaling-stroke" d="
  M 79.75 71.26
  L 79.75 59.93
  A 0.66 0.65 -0.0 0 1 80.41 59.28
  C 90.37 59.30 97.53 55.92 96.46 44.77
  C 95.44 34.08 81.08 35.68 73.33 35.82
  A 0.45 0.45 0.0 0 0 72.89 36.27
  L 72.89 71.24
  A 0.50 0.49 0.0 0 0 73.39 71.73
  L 79.28 71.73
  A 0.47 0.47 0.0 0 0 79.75 71.26"
/>
<path stroke="#5d5e62" vector-effect="non-scaling-stroke" d="
  M 122.20 71.64
  Q 123.46 68.76 122.74 65.99
  A 1.14 1.13 81.7 0 0 121.61 65.14
  L 109.41 65.60"
/>
<path stroke="#85888a" vector-effect="non-scaling-stroke" d="
  M 109.41 65.60
  L 109.32 57.22
  A 0.54 0.54 0.0 0 1 109.86 56.67
  L 120.27 56.67
  A 0.59 0.59 0.0 0 0 120.86 56.08
  L 120.86 51.04
  A 0.65 0.65 0.0 0 0 120.01 50.42
  Q 118.86 50.81 116.48 50.23
  A 3.82 3.51 47.5 0 0 115.44 50.14
  L 109.91 50.50
  A 0.62 0.62 0.0 0 1 109.24 49.88
  L 109.24 42.67
  A 0.78 0.77 0.0 0 1 110.02 41.90
  L 121.47 41.90
  A 0.34 0.34 0.0 0 0 121.81 41.56
  L 121.81 36.19
  A 0.40 0.40 0.0 0 0 121.41 35.79
  L 102.96 35.79
  A 0.61 0.60 90.0 0 0 102.36 36.40
  L 102.36 71.10
  A 0.69 0.69 0.0 0 0 103.06 71.79
  L 122.20 71.64"
/>
<path stroke="#c1c0c2" vector-effect="non-scaling-stroke" d="
  M 109.41 65.60
  L 121.60 65.96
  A 0.48 0.48 0.0 0 1 122.07 66.43
  L 122.20 71.64"
/>
<path stroke="#5d5e62" vector-effect="non-scaling-stroke" d="
  M 203.27 71.69
  L 203.32 43.54"
/>
<path stroke="#85888a" vector-effect="non-scaling-stroke" d="
  M 203.32 43.54
  Q 202.87 41.88 203.97 41.89
  Q 208.10 41.93 212.17 41.92
  A 0.78 0.77 -90.0 0 0 212.94 41.14
  L 212.94 36.45
  A 0.66 0.65 90.0 0 0 212.29 35.79
  L 187.27 35.79
  A 0.65 0.64 -90.0 0 0 186.63 36.44
  L 186.63 41.10
  A 0.78 0.78 0.0 0 0 187.41 41.88
  L 195.60 41.88
  A 0.81 0.81 0.0 0 1 196.41 42.69
  L 196.41 71.10
  A 0.53 0.53 0.0 0 0 196.94 71.63
  L 203.27 71.69"
/>
<path stroke="#c1c0c2" vector-effect="non-scaling-stroke" d="
  M 203.32 43.54
  L 203.27 71.69"
/>
<path stroke="#85888a" vector-effect="non-scaling-stroke" d="
  M 253.68 70.01
  Q 253.53 70.61 253.62 71.15
  A 0.72 0.71 84.6 0 0 254.32 71.74
  L 259.88 71.74
  A 0.59 0.59 0.0 0 0 260.47 71.17
  L 260.84 63.35
  A 0.53 0.48 42.1 0 0 260.83 63.25
  Q 260.49 61.14 260.55 58.34
  A 0.69 0.69 0.0 0 1 261.22 57.66
  Q 264.79 57.52 266.66 60.38
  Q 268.28 62.86 273.25 71.52
  A 0.41 0.38 -13.6 0 0 273.60 71.72
  L 281.27 71.72
  A 0.11 0.11 0.0 0 0 281.37 71.55
  Q 277.42 64.95 273.56 58.94
  C 272.66 57.54 271.17 56.62 270.62 55.84
  A 0.48 0.48 0.0 0 1 270.84 55.12
  C 276.27 52.96 278.33 46.74 276.11 41.53
  Q 273.86 36.23 266.79 35.95
  Q 260.49 35.71 253.52 35.80"
/>
<path stroke="#5d5e62" vector-effect="non-scaling-stroke" d="
  M 253.52 35.80
  Q 253.28 50.83 253.28 65.75
  Q 253.28 66.79 253.68 70.01"
/>
<path stroke="#c1c0c2" vector-effect="non-scaling-stroke" d="
  M 253.52 35.80
  Q 254.16 38.01 254.13 40.25
  Q 253.98 52.88 254.11 65.50
  Q 254.12 66.86 253.68 70.01"
/>
<path stroke="#85888a" vector-effect="non-scaling-stroke" d="
  M 274.20 86.02
  L 299.06 54.44
  A 0.77 0.76 -42.9 0 0 299.10 53.54
  L 289.33 39.18
  A 0.46 0.45 -17.0 0 1 289.71 38.47
  L 296.32 38.47
  A 1.31 1.31 0.0 0 1 297.41 39.05
  L 303.13 47.47
  A 0.39 0.39 0.0 0 0 303.77 47.47
  L 311.20 36.62
  A 0.31 0.31 0.0 0 0 310.94 36.14
  L 308.78 36.14
  A 1.12 1.11 17.0 0 0 307.86 36.62
  L 303.76 42.60
  A 0.39 0.39 0.0 0 1 303.11 42.60
  L 299.01 36.58
  A 1.01 1.00 72.8 0 0 298.18 36.14
  L 284.33 36.14
  A 0.24 0.24 0.0 0 0 284.13 36.52
  L 295.71 53.56
  A 0.75 0.74 -45.5 0 1 295.71 54.39
  L 274.09 85.94
  A 0.07 0.07 0.0 0 0 274.20 86.02"
/>
<path stroke="#85888a" vector-effect="non-scaling-stroke" d="
  M 49.8729 66.2697
  A 12.48 9.86 90.4 0 0 59.8198 53.8588
  A 12.48 9.86 90.4 0 0 50.0471 41.3103
  A 12.48 9.86 90.4 0 0 40.1002 53.7212
  A 12.48 9.86 90.4 0 0 49.8729 66.2697"
/>
<path stroke="#85888a" vector-effect="non-scaling-stroke" d="
  M 230.5749 66.2098
  A 12.43 9.87 90.3 0 0 240.5099 53.8317
  A 12.43 9.87 90.3 0 0 230.7051 41.3502
  A 12.43 9.87 90.3 0 0 220.7701 53.7283
  A 12.43 9.87 90.3 0 0 230.5749 66.2098"
/>
<path stroke="#85888a" vector-effect="non-scaling-stroke" d="
  M 135.51 42.12
  L 135.43 51.16
  A 0.52 0.52 0.0 0 0 135.95 51.68
  L 139.16 51.71
  A 5.59 4.85 0.5 0 0 144.79 46.91
  L 144.79 46.53
  A 5.59 4.85 0.5 0 0 139.24 41.63
  L 136.03 41.60
  A 0.52 0.52 0.0 0 0 135.51 42.12"
/>
<path stroke="#85888a" vector-effect="non-scaling-stroke" d="
  M 168.25 56.51
  A 0.45 0.45 0.0 0 0 168.67 57.11
  L 176.08 57.13
  A 0.45 0.45 0.0 0 0 176.50 56.54
  L 172.84 45.41
  A 0.45 0.45 0.0 0 0 171.99 45.41
  L 168.25 56.51"
/>
<path stroke="#85888a" vector-effect="non-scaling-stroke" d="
  M 79.70 42.11
  L 79.80 52.69
  A 0.47 0.47 0.0 0 0 80.27 53.16
  L 83.63 53.13
  A 5.93 5.33 -0.5 0 0 89.51 47.75
  L 89.51 46.89
  A 5.93 5.33 -0.5 0 0 83.53 41.61
  L 80.17 41.64
  A 0.47 0.47 0.0 0 0 79.70 42.11"
/>
<path stroke="#85888a" vector-effect="non-scaling-stroke" d="
  M 260.43 42.25
  L 260.53 51.11
  A 0.60 0.60 0.0 0 0 261.13 51.70
  L 264.53 51.67
  A 5.34 4.84 -0.6 0 0 269.82 46.77
  L 269.82 46.39
  A 5.34 4.84 -0.6 0 0 264.43 41.61
  L 261.03 41.64
  A 0.60 0.60 0.0 0 0 260.43 42.25"
/>
</g>
<path fill="#212529" d="
  M 376.00 0.00
  L 376.00 110.00
  L 0.00 110.00
  L 0.00 0.00
  L 376.00 0.00
  Z
  M 330.73 24.14
  L 307.78 53.28
  A 0.90 0.90 0.0 0 0 307.74 54.33
  L 317.86 69.22
  A 0.04 0.03 69.7 0 1 317.84 69.28
  L 310.01 69.28
  A 0.41 0.39 72.6 0 1 309.68 69.10
  L 303.78 60.43
  A 0.48 0.48 0.0 0 0 302.99 60.42
  L 295.67 71.11
  A 0.50 0.50 0.0 0 0 296.09 71.89
  L 297.75 71.89
  A 1.71 1.71 0.0 0 0 299.15 71.16
  L 303.03 65.49
  A 0.46 0.45 -44.7 0 1 303.78 65.49
  L 307.88 71.52
  A 0.89 0.87 -16.8 0 0 308.61 71.90
  L 322.41 71.90
  A 0.34 0.33 -17.1 0 0 322.69 71.38
  L 311.20 54.48
  A 1.12 1.12 0.0 0 1 311.20 53.22
  L 330.99 24.33
  A 0.16 0.16 0.0 0 0 330.73 24.14
  Z
  M 33.09 53.01
  C 32.65 63.37 38.07 71.82 49.11 72.29
  C 60.15 72.75 66.26 64.79 66.70 54.43
  C 67.14 44.07 61.72 35.62 50.68 35.15
  C 39.65 34.69 33.53 42.65 33.09 53.01
  Z
  M 213.80 53.05
  C 213.41 63.41 218.87 71.83 229.90 72.24
  C 240.93 72.66 247.00 64.67 247.39 54.31
  C 247.78 43.96 242.32 35.54 231.29 35.12
  C 220.26 34.71 214.19 42.69 213.80 53.05
  Z
  M 128.69 35.74
  Q 128.37 36.42 128.37 37.01
  Q 128.20 53.25 128.14 69.51
  Q 128.14 70.08 128.59 70.96
  Q 128.55 71.21 128.59 71.40
  A 0.41 0.40 -6.1 0 0 128.99 71.71
  L 134.89 71.70
  Q 135.64 71.87 135.66 71.19
  Q 135.86 64.55 135.35 57.81
  Q 139.52 57.03 141.52 60.24
  Q 144.61 65.22 148.05 71.27
  A 0.94 0.93 75.0 0 0 148.86 71.74
  L 162.68 71.74
  A 0.64 0.63 -80.3 0 0 163.28 71.31
  L 166.09 63.63
  A 1.12 1.11 -79.7 0 1 167.13 62.90
  L 177.97 62.90
  A 0.76 0.76 0.0 0 1 178.69 63.41
  L 181.36 70.80
  A 1.42 1.42 0.0 0 0 182.69 71.73
  L 187.64 71.73
  A 1.03 1.03 0.0 0 0 188.61 70.35
  L 176.33 36.37
  A 0.93 0.92 -9.9 0 0 175.46 35.76
  L 169.53 35.76
  A 0.91 0.91 0.0 0 0 168.68 36.35
  L 156.40 69.97
  A 0.54 0.53 39.5 0 1 155.44 70.06
  Q 151.47 63.51 148.13 58.40
  C 147.40 57.30 146.51 56.75 145.69 55.94
  A 0.47 0.47 0.0 0 1 145.81 55.19
  C 155.27 50.49 153.65 37.21 142.74 36.00
  Q 139.67 35.66 128.69 35.74
  Z
  M 79.75 71.26
  L 79.75 59.93
  A 0.66 0.65 -0.0 0 1 80.41 59.28
  C 90.37 59.30 97.53 55.92 96.46 44.77
  C 95.44 34.08 81.08 35.68 73.33 35.82
  A 0.45 0.45 0.0 0 0 72.89 36.27
  L 72.89 71.24
  A 0.50 0.49 0.0 0 0 73.39 71.73
  L 79.28 71.73
  A 0.47 0.47 0.0 0 0 79.75 71.26
  Z
  M 122.20 71.64
  Q 123.46 68.76 122.74 65.99
  A 1.14 1.13 81.7 0 0 121.61 65.14
  L 109.41 65.60
  L 109.32 57.22
  A 0.54 0.54 0.0 0 1 109.86 56.67
  L 120.27 56.67
  A 0.59 0.59 0.0 0 0 120.86 56.08
  L 120.86 51.04
  A 0.65 0.65 0.0 0 0 120.01 50.42
  Q 118.86 50.81 116.48 50.23
  A 3.82 3.51 47.5 0 0 115.44 50.14
  L 109.91 50.50
  A 0.62 0.62 0.0 0 1 109.24 49.88
  L 109.24 42.67
  A 0.78 0.77 0.0 0 1 110.02 41.90
  L 121.47 41.90
  A 0.34 0.34 0.0 0 0 121.81 41.56
  L 121.81 36.19
  A 0.40 0.40 0.0 0 0 121.41 35.79
  L 102.96 35.79
  A 0.61 0.60 90.0 0 0 102.36 36.40
  L 102.36 71.10
  A 0.69 0.69 0.0 0 0 103.06 71.79
  L 122.20 71.64
  Z
  M 203.27 71.69
  L 203.32 43.54
  Q 202.87 41.88 203.97 41.89
  Q 208.10 41.93 212.17 41.92
  A 0.78 0.77 -90.0 0 0 212.94 41.14
  L 212.94 36.45
  A 0.66 0.65 90.0 0 0 212.29 35.79
  L 187.27 35.79
  A 0.65 0.64 -90.0 0 0 186.63 36.44
  L 186.63 41.10
  A 0.78 0.78 0.0 0 0 187.41 41.88
  L 195.60 41.88
  A 0.81 0.81 0.0 0 1 196.41 42.69
  L 196.41 71.10
  A 0.53 0.53 0.0 0 0 196.94 71.63
  L 203.27 71.69
  Z
  M 253.68 70.01
  Q 253.53 70.61 253.62 71.15
  A 0.72 0.71 84.6 0 0 254.32 71.74
  L 259.88 71.74
  A 0.59 0.59 0.0 0 0 260.47 71.17
  L 260.84 63.35
  A 0.53 0.48 42.1 0 0 260.83 63.25
  Q 260.49 61.14 260.55 58.34
  A 0.69 0.69 0.0 0 1 261.22 57.66
  Q 264.79 57.52 266.66 60.38
  Q 268.28 62.86 273.25 71.52
  A 0.41 0.38 -13.6 0 0 273.60 71.72
  L 281.27 71.72
  A 0.11 0.11 0.0 0 0 281.37 71.55
  Q 277.42 64.95 273.56 58.94
  C 272.66 57.54 271.17 56.62 270.62 55.84
  A 0.48 0.48 0.0 0 1 270.84 55.12
  C 276.27 52.96 278.33 46.74 276.11 41.53
  Q 273.86 36.23 266.79 35.95
  Q 260.49 35.71 253.52 35.80
  Q 253.28 50.83 253.28 65.75
  Q 253.28 66.79 253.68 70.01
  Z
  M 274.20 86.02
  L 299.06 54.44
  A 0.77 0.76 -42.9 0 0 299.10 53.54
  L 289.33 39.18
  A 0.46 0.45 -17.0 0 1 289.71 38.47
  L 296.32 38.47
  A 1.31 1.31 0.0 0 1 297.41 39.05
  L 303.13 47.47
  A 0.39 0.39 0.0 0 0 303.77 47.47
  L 311.20 36.62
  A 0.31 0.31 0.0 0 0 310.94 36.14
  L 308.78 36.14
  A 1.12 1.11 17.0 0 0 307.86 36.62
  L 303.76 42.60
  A 0.39 0.39 0.0 0 1 303.11 42.60
  L 299.01 36.58
  A 1.01 1.00 72.8 0 0 298.18 36.14
  L 284.33 36.14
  A 0.24 0.24 0.0 0 0 284.13 36.52
  L 295.71 53.56
  A 0.75 0.74 -45.5 0 1 295.71 54.39
  L 274.09 85.94
  A 0.07 0.07 0.0 0 0 274.20 86.02
  Z"
/>
<path fill="#ae1116" d="
  M 330.99 24.33
  L 311.20 53.22
  A 1.12 1.12 0.0 0 0 311.20 54.48
  L 322.69 71.38
  A 0.34 0.33 -17.1 0 1 322.41 71.90
  L 308.61 71.90
  A 0.89 0.87 -16.8 0 1 307.88 71.52
  L 303.78 65.49
  A 0.46 0.45 -44.7 0 0 303.03 65.49
  L 299.15 71.16
  A 1.71 1.71 0.0 0 1 297.75 71.89
  L 296.09 71.89
  A 0.50 0.50 0.0 0 1 295.67 71.11
  L 302.99 60.42
  A 0.48 0.48 0.0 0 1 303.78 60.43
  L 309.68 69.10
  A 0.41 0.39 72.6 0 0 310.01 69.28
  L 317.84 69.28
  A 0.04 0.03 69.7 0 0 317.86 69.22
  L 307.74 54.33
  A 0.90 0.90 0.0 0 1 307.78 53.28
  L 330.73 24.14
  A 0.16 0.16 0.0 0 1 330.99 24.33
  Z"
/>
<path fill="#e9eaea" d="
  M 50.68 35.15
  C 61.72 35.62 67.14 44.07 66.70 54.43
  C 66.26 64.79 60.15 72.75 49.11 72.29
  C 38.07 71.82 32.65 63.37 33.09 53.01
  C 33.53 42.65 39.65 34.69 50.68 35.15
  Z
  M 49.8729 66.2697
  A 12.48 9.86 90.4 0 0 59.8198 53.8588
  A 12.48 9.86 90.4 0 0 50.0471 41.3103
  A 12.48 9.86 90.4 0 0 40.1002 53.7212
  A 12.48 9.86 90.4 0 0 49.8729 66.2697
  Z"
/>
<path fill="#e9eaea" d="
  M 213.80 53.05
  C 214.19 42.69 220.26 34.71 231.29 35.12
  C 242.32 35.54 247.78 43.96 247.39 54.31
  C 247.00 64.67 240.93 72.66 229.90 72.24
  C 218.87 71.83 213.41 63.41 213.80 53.05
  Z
  M 230.5749 66.2098
  A 12.43 9.87 90.3 0 0 240.5099 53.8317
  A 12.43 9.87 90.3 0 0 230.7051 41.3502
  A 12.43 9.87 90.3 0 0 220.7701 53.7283
  A 12.43 9.87 90.3 0 0 230.5749 66.2098
  Z"
/>
<path fill="#e9eaea" d="
  M 135.35 57.81
  L 134.89 71.70
  L 128.99 71.71
  A 0.41 0.40 -6.1 0 1 128.59 71.40
  Q 128.55 71.21 128.59 70.96
  Q 129.05 70.08 129.05 69.75
  Q 129.07 53.37 128.93 37.00
  Q 128.93 36.46 128.69 35.74
  Q 139.67 35.66 142.74 36.00
  C 153.65 37.21 155.27 50.49 145.81 55.19
  A 0.47 0.47 0.0 0 0 145.69 55.94
  C 146.51 56.75 147.40 57.30 148.13 58.40
  Q 151.47 63.51 155.44 70.06
  A 0.54 0.53 39.5 0 0 156.40 69.97
  L 168.68 36.35
  A 0.91 0.91 0.0 0 1 169.53 35.76
  L 175.46 35.76
  A 0.93 0.92 -9.9 0 1 176.33 36.37
  L 188.61 70.35
  A 1.03 1.03 0.0 0 1 187.64 71.73
  L 182.69 71.73
  A 1.42 1.42 0.0 0 1 181.36 70.80
  L 178.69 63.41
  A 0.76 0.76 0.0 0 0 177.97 62.90
  L 167.13 62.90
  A 1.12 1.11 -79.7 0 0 166.09 63.63
  L 163.28 71.31
  A 0.64 0.63 -80.3 0 1 162.68 71.74
  L 148.86 71.74
  A 0.94 0.93 75.0 0 1 148.05 71.27
  Q 144.61 65.22 141.52 60.24
  Q 139.52 57.03 135.35 57.81
  Z
  M 135.51 42.12
  L 135.43 51.16
  A 0.52 0.52 0.0 0 0 135.95 51.68
  L 139.16 51.71
  A 5.59 4.85 0.5 0 0 144.79 46.91
  L 144.79 46.53
  A 5.59 4.85 0.5 0 0 139.24 41.63
  L 136.03 41.60
  A 0.52 0.52 0.0 0 0 135.51 42.12
  Z
  M 168.25 56.51
  A 0.45 0.45 0.0 0 0 168.67 57.11
  L 176.08 57.13
  A 0.45 0.45 0.0 0 0 176.50 56.54
  L 172.84 45.41
  A 0.45 0.45 0.0 0 0 171.99 45.41
  L 168.25 56.51
  Z"
/>
<path fill="#e9eaea" d="
  M 79.75 71.26
  A 0.47 0.47 0.0 0 1 79.28 71.73
  L 73.39 71.73
  A 0.50 0.49 0.0 0 1 72.89 71.24
  L 72.89 36.27
  A 0.45 0.45 0.0 0 1 73.33 35.82
  C 81.08 35.68 95.44 34.08 96.46 44.77
  C 97.53 55.92 90.37 59.30 80.41 59.28
  A 0.66 0.65 0.0 0 0 79.75 59.93
  L 79.75 71.26
  Z
  M 79.70 42.11
  L 79.80 52.69
  A 0.47 0.47 0.0 0 0 80.27 53.16
  L 83.63 53.13
  A 5.93 5.33 -0.5 0 0 89.51 47.75
  L 89.51 46.89
  A 5.93 5.33 -0.5 0 0 83.53 41.61
  L 80.17 41.64
  A 0.47 0.47 0.0 0 0 79.70 42.11
  Z"
/>
<path fill="#e9eaea" d="
  M 109.41 65.60
  L 121.60 65.96
  A 0.48 0.48 0.0 0 1 122.07 66.43
  L 122.20 71.64
  L 103.06 71.79
  A 0.69 0.69 0.0 0 1 102.36 71.10
  L 102.36 36.40
  A 0.61 0.60 90.0 0 1 102.96 35.79
  L 121.41 35.79
  A 0.40 0.40 0.0 0 1 121.81 36.19
  L 121.81 41.56
  A 0.34 0.34 0.0 0 1 121.47 41.90
  L 110.02 41.90
  A 0.78 0.77 -0.0 0 0 109.24 42.67
  L 109.24 49.88
  A 0.62 0.62 0.0 0 0 109.91 50.50
  L 115.44 50.14
  A 3.82 3.51 47.5 0 1 116.48 50.23
  Q 118.86 50.81 120.01 50.42
  A 0.65 0.65 0.0 0 1 120.86 51.04
  L 120.86 56.08
  A 0.59 0.59 0.0 0 1 120.27 56.67
  L 109.86 56.67
  A 0.54 0.54 0.0 0 0 109.32 57.22
  L 109.41 65.60
  Z"
/>
<path fill="#99969a" d="
  M 128.69 35.74
  Q 128.93 36.46 128.93 37.00
  Q 129.07 53.37 129.05 69.75
  Q 129.05 70.08 128.59 70.96
  Q 128.14 70.08 128.14 69.51
  Q 128.20 53.25 128.37 37.01
  Q 128.37 36.42 128.69 35.74
  Z"
/>
<path fill="#e9eaea" d="
  M 203.32 43.54
  L 203.27 71.69
  L 196.94 71.63
  A 0.53 0.53 0.0 0 1 196.41 71.10
  L 196.41 42.69
  A 0.81 0.81 0.0 0 0 195.60 41.88
  L 187.41 41.88
  A 0.78 0.78 0.0 0 1 186.63 41.10
  L 186.63 36.44
  A 0.65 0.64 -90.0 0 1 187.27 35.79
  L 212.29 35.79
  A 0.66 0.65 -90.0 0 1 212.94 36.45
  L 212.94 41.14
  A 0.78 0.77 -90.0 0 1 212.17 41.92
  Q 208.10 41.93 203.97 41.89
  Q 202.87 41.88 203.32 43.54
  Z"
/>
<path fill="#99969a" d="
  M 253.52 35.80
  Q 254.16 38.01 254.13 40.25
  Q 253.98 52.88 254.11 65.50
  Q 254.12 66.86 253.68 70.01
  Q 253.28 66.79 253.28 65.75
  Q 253.28 50.83 253.52 35.80
  Z"
/>
<path fill="#e9eaea" d="
  M 253.68 70.01
  Q 254.12 66.86 254.11 65.50
  Q 253.98 52.88 254.13 40.25
  Q 254.16 38.01 253.52 35.80
  Q 260.49 35.71 266.79 35.95
  Q 273.86 36.23 276.11 41.53
  C 278.33 46.74 276.27 52.96 270.84 55.12
  A 0.48 0.48 0.0 0 0 270.62 55.84
  C 271.17 56.62 272.66 57.54 273.56 58.94
  Q 277.42 64.95 281.37 71.55
  A 0.11 0.11 0.0 0 1 281.27 71.72
  L 273.60 71.72
  A 0.41 0.38 -13.6 0 1 273.25 71.52
  Q 268.28 62.86 266.66 60.38
  Q 264.79 57.52 261.22 57.66
  A 0.69 0.69 0.0 0 0 260.55 58.34
  Q 260.49 61.14 260.83 63.25
  A 0.53 0.48 42.1 0 1 260.84 63.35
  L 260.47 71.17
  A 0.59 0.59 0.0 0 1 259.88 71.74
  L 254.32 71.74
  A 0.72 0.71 84.6 0 1 253.62 71.15
  Q 253.53 70.61 253.68 70.01
  Z
  M 260.43 42.25
  L 260.53 51.11
  A 0.60 0.60 0.0 0 0 261.13 51.70
  L 264.53 51.67
  A 5.34 4.84 -0.6 0 0 269.82 46.77
  L 269.82 46.39
  A 5.34 4.84 -0.6 0 0 264.43 41.61
  L 261.03 41.64
  A 0.60 0.60 0.0 0 0 260.43 42.25
  Z"
/>
<path fill="#e9eaea" d="
  M 274.09 85.94
  L 295.71 54.39
  A 0.75 0.74 -45.5 0 0 295.71 53.56
  L 284.13 36.52
  A 0.24 0.24 0.0 0 1 284.33 36.14
  L 298.18 36.14
  A 1.01 1.00 72.8 0 1 299.01 36.58
  L 303.11 42.60
  A 0.39 0.39 0.0 0 0 303.76 42.60
  L 307.86 36.62
  A 1.12 1.11 17.0 0 1 308.78 36.14
  L 310.94 36.14
  A 0.31 0.31 0.0 0 1 311.20 36.62
  L 303.77 47.47
  A 0.39 0.39 0.0 0 1 303.13 47.47
  L 297.41 39.05
  A 1.31 1.31 0.0 0 0 296.32 38.47
  L 289.71 38.47
  A 0.46 0.45 -17.0 0 0 289.33 39.18
  L 299.10 53.54
  A 0.77 0.76 -42.9 0 1 299.06 54.44
  L 274.20 86.02
  A 0.07 0.07 0.0 0 1 274.09 85.94
  Z"
/>
<ellipse fill="#212529" cx="0.00" cy="0.00" transform="translate(49.96,53.79) rotate(90.4)" rx="12.48" ry="9.86"/>
<path fill="#212529" d="
  M 79.70 42.11
  A 0.47 0.47 0.0 0 1 80.17 41.64
  L 83.53 41.61
  A 5.93 5.33 -0.5 0 1 89.51 46.89
  L 89.51 47.75
  A 5.93 5.33 -0.5 0 1 83.63 53.13
  L 80.27 53.16
  A 0.47 0.47 0.0 0 1 79.80 52.69
  L 79.70 42.11
  Z"
/>
<path fill="#212529" d="
  M 135.51 42.12
  A 0.52 0.52 0.0 0 1 136.03 41.60
  L 139.24 41.63
  A 5.59 4.85 0.5 0 1 144.79 46.53
  L 144.79 46.91
  A 5.59 4.85 0.5 0 1 139.16 51.71
  L 135.95 51.68
  A 0.52 0.52 0.0 0 1 135.43 51.16
  L 135.51 42.12
  Z"
/>
<ellipse fill="#212529" cx="0.00" cy="0.00" transform="translate(230.64,53.78) rotate(90.3)" rx="12.43" ry="9.87"/>
<path fill="#212529" d="
  M 260.43 42.25
  A 0.60 0.60 0.0 0 1 261.03 41.64
  L 264.43 41.61
  A 5.34 4.84 -0.6 0 1 269.82 46.39
  L 269.82 46.77
  A 5.34 4.84 -0.6 0 1 264.53 51.67
  L 261.13 51.70
  A 0.60 0.60 0.0 0 1 260.53 51.11
  L 260.43 42.25
  Z"
/>
<path fill="#99969a" d="
  M 203.27 71.69
  L 203.32 43.54
  L 203.27 71.69
  Z"
/>
<path fill="#212529" d="
  M 168.25 56.51
  L 171.99 45.41
  A 0.45 0.45 0.0 0 1 172.84 45.41
  L 176.50 56.54
  A 0.45 0.45 0.0 0 1 176.08 57.13
  L 168.67 57.11
  A 0.45 0.45 0.0 0 1 168.25 56.51
  Z"
/>
<path fill="#99969a" d="
  M 135.35 57.81
  Q 135.86 64.55 135.66 71.19
  Q 135.64 71.87 134.89 71.70
  L 135.35 57.81
  Z"
/>
<path fill="#99969a" d="
  M 122.20 71.64
  L 122.07 66.43
  A 0.48 0.48 0.0 0 0 121.60 65.96
  L 109.41 65.60
  L 121.61 65.14
  A 1.14 1.13 81.7 0 1 122.74 65.99
  Q 123.46 68.76 122.20 71.64
  Z"
/>
</svg>
