<?xml version="1.0" encoding="UTF-8"?> <svg xmlns="http://www.w3.org/2000/svg" id="Layer_1" data-name="Layer 1" viewBox="0 0 235.81 90.09"><defs><style> .cls-1 { fill: #000; } .cls-1, .cls-2, .cls-3, .cls-4 { stroke-width: 0px; } .cls-2, .cls-4 { fill: #3e3e3e; } .cls-5 { fill: none; stroke: #010101; stroke-miterlimit: 10; stroke-width: .7px; } .cls-3 { fill: #af2026; } .cls-4 { fill-rule: evenodd; } </style></defs><g><polygon class="cls-3" points="198.8 40.43 235.81 0 223.41 30.37 230.83 30.37 189.03 76.86 210.82 40.43 198.8 40.43"></polygon><path class="cls-4" d="M203.29,50.49h-4.75v-10h-8.59v9.95h-4.72v-24.09h4.7v9.83h8.59v-9.84h4.76v24.16Z"></path><path class="cls-4" d="M2.85,30.97c.09-.39.16-.79.26-1.16.58-2.03,1.99-3.1,3.9-3.58,1.44-.36,2.9-.4,4.37-.28,1.66.12,3.32.3,4.97.46.1,0,.2.04.34.08-.04.39-.09.77-.14,1.19-.76-.09-1.48-.19-2.2-.24-1.79-.11-3.58-.24-5.38-.28-.66,0-1.34.18-2,.39-1.72.55-2.69,1.82-2.8,3.68-.05.89.02,1.81.18,2.68.26,1.39,1.17,2.26,2.45,2.63,1.34.39,2.72.61,4.09.93,1.03.24,2.08.47,3.09.82,1.94.67,3,2.14,3.16,4.25.1,1.28.05,2.55-.23,3.79-.57,2.45-2.09,3.81-4.43,4.26-1.39.28-2.78.24-4.18.15-1.76-.12-3.5-.3-5.32-.46.04-.43.06-.82.11-1.26.37.04.72.09,1.07.12,2.07.16,4.14.34,6.21.44.68.03,1.39-.09,2.05-.26,1.95-.53,3.1-1.96,3.36-4.11.14-1.04.17-2.07-.04-3.11-.22-1.1-.83-1.89-1.79-2.4-1.11-.56-2.3-.75-3.5-.99-1.34-.27-2.7-.5-4.02-.89-2.11-.62-3.31-2.12-3.53-4.42,0-.06-.04-.12-.07-.18v-2.24Z"></path><path class="cls-4" d="M152.06,30.59v5.61h8.19v4.22h-8.18v5.76h10.22v4.26h-14.95v-24.1h14.95v4.25c-3.41,0-6.81,0-10.23,0Z"></path><path class="cls-4" d="M181.29,26.86c-.05,1.33-.09,2.6-.14,3.91-.65-.09-1.27-.17-1.9-.23-1.71-.17-3.41-.4-5.13-.24-1.79.18-2.79,1-3.16,2.83-.25,1.25-.38,2.55-.44,3.83-.07,2.02-.09,4.05.26,6.06.03.18.07.35.11.53.47,1.9,1.51,2.86,3.39,2.9,1.65.03,3.32-.12,4.97-.2.62-.03,1.24-.14,1.93-.22v4.05c-.83.14-1.68.31-2.55.44-1.84.25-3.68.46-5.54.29-1.79-.16-3.47-.6-4.83-1.92-1.12-1.09-1.7-2.5-2.06-4.03-.4-1.7-.53-3.43-.56-5.18-.05-2.36-.06-4.73.41-7.07.21-1.05.52-2.12.96-3.09,1.01-2.2,2.88-3.14,5.11-3.47,2.6-.4,5.16-.03,7.71.46.48.1.95.21,1.46.33Z"></path><path class="cls-4" d="M136.75,50.45h-4.7v-19.78h-.47c-1.76,0-3.54-.01-5.3,0-.34.01-.43-.1-.42-.44.02-1.27,0-2.55,0-3.86h17v4.29h-6.11v19.78Z"></path><path class="cls-4" d="M84.8,27.52v22.99h-1.18v-24.22c.89,0,1.79,0,2.7.02.09,0,.22.21.29.35,2.23,4.62,4.45,9.26,6.68,13.88,1.31,2.73,2.63,5.47,3.95,8.21.33.69.36.71,1.18.56v-22.99h1.19v24.24h-1.1c-.44,0-.88-.04-1.31,0-.32.02-.47-.1-.62-.39-1.64-3.47-3.32-6.93-4.99-10.39-1.89-3.91-3.77-7.81-5.65-11.73q-.31-.65-1.12-.53Z"></path><path class="cls-4" d="M119.68,39.71h-4.96v-1.17h6.19v1.37c0,3.22,0,6.43,0,9.65,0,.23.02.42-.29.47-2.46.4-4.92.82-7.42.81-1.78-.01-3.47-.38-4.94-1.48-1.52-1.15-2.32-2.79-2.77-4.63-.59-2.33-.68-4.73-.63-7.13.04-1.74.15-3.46.54-5.15.39-1.67,1-3.22,2.22-4.43,1.23-1.23,2.74-1.78,4.39-1.97,2.48-.28,4.92.12,7.35.5.52.08,1.02.2,1.54.3-.03.41-.05.78-.08,1.11-1.56-.22-3.08-.49-4.62-.66-1.51-.17-3.02-.26-4.54.02-2.55.47-4.09,2.08-4.83,4.61-.5,1.7-.64,3.46-.68,5.22-.07,2.14-.03,4.3.37,6.41.13.72.32,1.43.58,2.1.92,2.45,2.73,3.66,5.19,3.92,2.12.21,4.21-.07,6.29-.39.38-.06.74-.12,1.12-.19v-9.3Z"></path><path class="cls-4" d="M38.29,50.55c.36-1.23.69-2.38,1.03-3.53,2-6.75,3.99-13.51,5.97-20.27.12-.37.26-.5.64-.48.88.03,1.79.03,2.67,0,.31,0,.44.09.53.4,2.27,7.71,4.54,15.41,6.82,23.12.06.22.13.45.21.74-.38,0-.73.04-1.06-.01-.1-.02-.23-.24-.27-.38-.65-2.19-1.28-4.39-1.91-6.6-.1-.36-.25-.45-.6-.45-3.41.01-6.82.01-10.23,0-.33,0-.46.08-.55.41-.62,2.21-1.28,4.4-1.9,6.59-.09.34-.22.49-.57.45-.23-.04-.47,0-.79,0ZM42.06,41.87h10.35c-1.43-4.82-2.83-9.61-4.25-14.38h-1.85c-1.41,4.79-2.82,9.56-4.25,14.38Z"></path><path class="cls-4" d="M22.04,26.32h13.61v1.14h-12.39v10.07h10.39v1.21h-10.39v10.61h12.39v1.17h-13.61c0-8.07,0-16.11,0-24.2Z"></path><path class="cls-4" d="M60.19,26.32h1.17v23.03h11.36v1.17h-12.53v-24.2Z"></path><path class="cls-4" d="M76.27,26.32h1.16v24.19h-1.16v-24.19Z"></path><path class="cls-2" d="M207.02,21.48c.44,0,.87.11,1.29.34.42.23.75.55.98.97.23.42.35.86.35,1.32s-.12.89-.35,1.31-.56.74-.97.97-.85.35-1.31.35-.89-.12-1.31-.35-.74-.56-.97-.97c-.23-.42-.35-.85-.35-1.31s.12-.9.35-1.32c.24-.42.56-.75.99-.97.42-.23.85-.34,1.29-.34ZM207.02,21.92c-.37,0-.73.09-1.08.28s-.62.46-.82.81c-.2.35-.3.72-.3,1.1s.1.74.29,1.09.47.62.81.81.71.29,1.09.29.74-.1,1.09-.29.62-.47.81-.81.29-.71.29-1.09-.1-.75-.29-1.1c-.2-.35-.47-.62-.82-.81-.35-.19-.71-.28-1.08-.28ZM205.87,25.57v-2.83h.97c.33,0,.57.03.72.08.15.05.27.14.36.27.09.13.13.27.13.41,0,.21-.07.39-.22.54s-.34.24-.59.26c.1.04.18.09.24.15.11.11.25.3.42.56l.35.55h-.56l-.25-.45c-.2-.35-.36-.57-.48-.66-.08-.07-.21-.1-.37-.1h-.27v1.2h-.46ZM206.33,23.97h.55c.27,0,.45-.04.54-.12s.14-.18.14-.31c0-.08-.02-.16-.07-.22-.05-.07-.11-.12-.19-.15-.08-.03-.24-.05-.46-.05h-.52v.85Z"></path></g><line class="cls-5" y1="64.54" x2="181.16" y2="64.54"></line><g><path class="cls-1" d="M9.01,87.45h-1.13c-.04-.23-.09-.67-.13-1.33-.5,1.02-1.36,1.53-2.58,1.53-.83,0-1.46-.22-1.9-.66-.44-.44-.66-.96-.66-1.58,0-.74.32-1.36.95-1.84.63-.48,1.71-.72,3.22-.72.2,0,.53,0,.98.03,0-.58-.04-1-.13-1.26-.09-.26-.28-.47-.57-.62-.29-.16-.67-.23-1.15-.23-1.16,0-1.84.44-2.03,1.33l-1.06-.18c.26-1.35,1.34-2.03,3.25-2.03,1.02,0,1.74.23,2.16.67.43.45.64,1.23.64,2.34v3.13c0,.52.05,1,.15,1.43ZM7.75,83.77c-.47-.03-.82-.04-1.06-.04-.9,0-1.61.15-2.11.45-.5.3-.75.73-.75,1.3,0,.36.13.67.4.92.27.25.66.38,1.17.38.69,0,1.26-.25,1.7-.75.44-.5.67-1.09.67-1.77,0-.14,0-.3-.02-.48Z"></path><path class="cls-1" d="M24.98,76.43c2.38,0,3.57,1.3,3.57,3.91v.75c0,1.94-.78,3.09-2.33,3.45-.36.08-1.03.12-1.99.12h-5.03v2.78h-3.91v-11.01h9.68ZM23.65,81.8c.69,0,1.04-.28,1.04-.83v-.62c0-.61-.35-.91-1.04-.91h-4.49v2.37h4.49ZM27.14,87.45l6.07-11.01h4.45l6.03,11.01h-4.2l-1.04-1.87h-6.23l-1,1.87h-4.07ZM33.38,83.25h3.74l-1.83-3.45-1.91,3.45ZM56.11,82.75c-.06.06-.24.15-.54.29.86.39,1.29,1.1,1.29,2.12v2.29h-3.7v-2.24c0-.44-.25-.67-.75-.67h-4.99v2.91h-3.66v-11.01h9.68c2.27,0,3.41.98,3.41,2.95v1.54c0,.86-.25,1.47-.75,1.83ZM52.2,81.8c.72,0,1.08-.23,1.08-.71v-.91c0-.5-.29-.75-.87-.75h-4.99v2.37h4.78ZM67.62,84.12v-.21c0-.44-.4-.67-1.21-.67h-4.57c-2.41,0-3.62-.96-3.62-2.87v-.54c0-1.47.48-2.44,1.45-2.91.64-.33,1.79-.5,3.45-.5h3.28c2.11,0,3.41.43,3.91,1.29.28.5.42.98.42,1.45v.13h-8.11c-.55-.06-.83.11-.83.5v.17c0,.36.21.54.62.54h5.11c2.36,0,3.53,1.07,3.53,3.2v.5c0,1.27-.44,2.16-1.33,2.66-.67.39-1.7.58-3.12.58h-4.61c-2.47,0-3.7-.79-3.7-2.37v-.42h8.31c.67,0,1-.18,1-.54ZM85.91,77.18c.75.72,1.12,2.07,1.12,4.03v3.2c-.14,1.22-.64,2.06-1.5,2.54-.67.33-1.7.5-3.12.5h-5.94c-1.41,0-2.54-.33-3.37-1-.47-.39-.76-1.04-.87-1.95v-3.28c0-1.8.3-3.05.89-3.74.6-.69,1.74-1.04,3.43-1.04h5.65c1.97,0,3.2.25,3.7.75ZM76.14,80.84v2.16c0,.55.08.91.25,1.08.19.25.55.37,1.08.37h4.32c.91,0,1.37-.4,1.37-1.2v-2.7c0-.75-.46-1.12-1.37-1.12h-4.03c-.61,0-1.03.09-1.27.27-.24.18-.35.56-.35,1.14ZM88.66,87.45v-11.01h5.36l5.74,7.19v-7.19h3.62v11.01h-5.28l-5.65-7.07v7.07h-3.78ZM114.18,84.12v-.21c0-.33-.12-.54-.37-.62-.11-.03-.4-.04-.87-.04h-4.57c-2.41,0-3.62-.96-3.62-2.87v-.54c0-1.47.48-2.45,1.46-2.95.67-.3,1.83-.46,3.49-.46h3.24c2.11,0,3.41.43,3.91,1.29.3.53.46,1.01.46,1.45v.13h-8.15c-.56-.06-.83.11-.83.5v.17c0,.36.21.54.62.54h5.15c1.02,0,1.8.17,2.33.5.78.5,1.16,1.4,1.16,2.7v.5c0,1.3-.43,2.19-1.29,2.66-.64.39-1.68.58-3.12.58h-4.66c-2.47,0-3.7-.79-3.7-2.37v-.42h8.31c.69,0,1.04-.18,1.04-.54Z"></path><path class="cls-1" d="M130.21,84.1l1.14.26c-.54,2.2-1.77,3.29-3.69,3.29-1.26,0-2.25-.51-2.96-1.52-.72-1.02-1.07-2.27-1.07-3.75s.37-2.76,1.12-3.69,1.75-1.39,3.01-1.39c1.87,0,3.06,1.07,3.59,3.2l-1.17.23c-.43-1.58-1.24-2.38-2.42-2.38-.88,0-1.56.37-2.04,1.1s-.73,1.77-.73,3.1c0,1.22.25,2.2.74,2.93s1.15,1.1,1.97,1.1c1.27,0,2.11-.83,2.52-2.49Z"></path><path class="cls-1" d="M135.43,87.65c-1.01,0-1.8-.37-2.36-1.12s-.85-1.68-.85-2.79c0-1.17.32-2.11.95-2.81.64-.7,1.43-1.05,2.38-1.05,1.01,0,1.81.37,2.4,1.1s.88,1.66.88,2.76-.32,2.08-.95,2.81c-.63.73-1.45,1.09-2.45,1.09ZM135.51,86.71c.58,0,1.07-.24,1.46-.72.39-.48.59-1.23.59-2.24s-.21-1.76-.62-2.22c-.41-.46-.9-.69-1.45-.69s-1.05.23-1.44.7c-.39.46-.59,1.2-.59,2.2,0,1.06.2,1.83.59,2.28.39.46.88.69,1.46.69Z"></path><path class="cls-1" d="M150.4,87.45h-1.11v-4.58c0-.47-.03-.82-.1-1.06-.07-.23-.22-.45-.48-.65-.25-.2-.54-.3-.85-.3-.44,0-.86.2-1.26.6s-.61,1.01-.61,1.83v4.15h-1.11v-4.85c0-.65-.15-1.1-.46-1.37-.31-.27-.63-.4-.97-.4-.48,0-.91.21-1.27.63-.36.42-.54.95-.54,1.59v4.4h-1.09v-7.36h.98v1.41c.55-1.08,1.3-1.62,2.27-1.62.53,0,.98.17,1.35.52.37.35.61.76.71,1.25.51-1.18,1.28-1.76,2.33-1.76.5,0,.94.14,1.31.43.38.29.62.62.74.99s.17.9.17,1.57v4.58Z"></path><path class="cls-1" d="M153.7,89.93h-1.14v-9.84h1.04v1.43c.52-1.09,1.29-1.63,2.32-1.63.87,0,1.57.36,2.1,1.09s.8,1.65.8,2.76c0,1.2-.27,2.15-.82,2.86-.55.7-1.25,1.06-2.11,1.06-.92,0-1.65-.44-2.18-1.32v3.6ZM153.7,82.71v2.08c.07.56.31,1.02.71,1.38.4.36.81.54,1.25.54.5,0,.94-.22,1.33-.66.39-.44.58-1.19.58-2.27,0-.93-.17-1.64-.52-2.15s-.81-.75-1.39-.75c-.46,0-.87.18-1.23.53-.36.35-.6.78-.72,1.29Z"></path><path class="cls-1" d="M166.28,87.45h-1.13c-.04-.23-.09-.67-.13-1.33-.51,1.02-1.37,1.53-2.58,1.53-.83,0-1.46-.22-1.9-.66-.44-.44-.66-.96-.66-1.58,0-.74.32-1.36.95-1.84s1.7-.72,3.22-.72c.2,0,.53,0,.98.03,0-.58-.05-1-.13-1.26-.09-.26-.28-.47-.57-.62s-.67-.23-1.15-.23c-1.16,0-1.84.44-2.02,1.33l-1.06-.18c.26-1.35,1.34-2.03,3.25-2.03,1.01,0,1.74.23,2.16.67.42.45.64,1.23.64,2.34v3.13c0,.52.05,1,.15,1.43ZM165.02,83.77c-.47-.03-.82-.04-1.06-.04-.9,0-1.61.15-2.11.45-.5.3-.75.73-.75,1.3,0,.36.13.67.4.92.27.25.66.38,1.17.38.69,0,1.26-.25,1.7-.75.44-.5.67-1.09.67-1.77,0-.14,0-.3-.02-.48Z"></path><path class="cls-1" d="M174.21,87.45h-1.07v-4.73c0-.68-.15-1.16-.44-1.44-.3-.28-.66-.42-1.08-.42-.58,0-1.07.23-1.47.7-.4.47-.59,1.08-.59,1.84v4.04h-1.14v-7.36h1.06v1.36c.6-1.04,1.37-1.56,2.33-1.56.55,0,1.02.14,1.4.43.39.28.65.6.79.96s.22,1,.22,1.92v4.25Z"></path><path class="cls-1" d="M181.25,80.09l-2.95,8.22c-.43,1.18-1.11,1.78-2.05,1.78-.3,0-.62-.05-.98-.15v-.9c.3.07.55.1.76.1.36,0,.67-.1.91-.31.25-.21.49-.72.74-1.53l-2.55-7.21h1.16l1.98,5.53,2.01-5.53h.97Z"></path></g></svg> 