<?xml version="1.0" encoding="UTF-8" standalone="no"?>
<!DOCTYPE svg PUBLIC "-//W3C//DTD SVG 1.1//EN" "http://www.w3.org/Graphics/SVG/1.1/DTD/svg11.dtd">
<svg xmlns="http://www.w3.org/2000/svg" version="1.1" viewBox="0.00 0.00 600.00 205.00">
<path fill="#6d6e71" d="
  M 565.89 40.82
  A 0.33 0.33 0.0 0 1 565.41 40.87
  Q 559.70 35.77 551.91 35.34
  C 548.88 35.17 545.03 35.96 544.33 39.47
  C 543.87 41.74 547.32 43.26 549.05 43.70
  C 556.84 45.72 570.42 47.47 572.60 57.06
  Q 574.58 65.78 569.46 71.69
  C 565.03 76.79 558.01 77.88 551.16 77.78
  Q 539.66 77.60 531.14 70.04
  A 0.96 0.96 0.0 0 1 531.01 68.74
  L 536.88 60.88
  A 0.45 0.45 0.0 0 1 537.56 60.83
  C 542.52 65.77 551.45 69.54 558.32 66.49
  C 561.16 65.22 562.64 62.00 559.97 59.71
  Q 558.51 58.46 555.36 57.75
  C 545.50 55.51 533.88 53.52 532.63 42.93
  C 531.71 35.20 535.89 29.44 542.90 26.68
  C 552.06 23.07 564.02 25.21 571.76 31.99
  A 0.63 0.62 39.4 0 1 571.85 32.84
  L 565.89 40.82
  Z"
/>
<path fill="#6d6e71" d="
  M 47.67 25.75
  Q 66.60 25.74 67.56 25.82
  A 0.66 0.66 0.0 0 1 68.16 26.47
  L 68.17 35.34
  A 0.65 0.65 0.0 0 1 67.52 35.99
  L 54.02 35.99
  A 0.61 0.60 -90.0 0 0 53.42 36.60
  L 53.42 76.30
  A 0.67 0.66 88.4 0 1 52.80 76.96
  Q 52.19 77.00 47.68 77.00
  Q 43.18 77.00 42.57 76.97
  A 0.67 0.66 -88.5 0 1 41.95 76.30
  L 41.93 36.60
  A 0.61 0.60 90.0 0 0 41.33 35.99
  L 27.83 36.00
  A 0.65 0.65 0.0 0 1 27.18 35.35
  L 27.18 26.48
  A 0.66 0.66 0.0 0 1 27.78 25.83
  Q 28.74 25.76 47.67 25.75
  Z"
/>
<path fill="#6d6e71" d="
  M 112.37 67.19
  L 112.37 76.56
  A 0.44 0.44 0.0 0 1 111.93 77.00
  L 76.34 77.00
  A 0.44 0.44 0.0 0 1 75.90 76.56
  L 75.90 26.19
  A 0.44 0.44 0.0 0 1 76.34 25.75
  L 111.94 25.75
  A 0.44 0.44 0.0 0 1 112.38 26.19
  L 112.38 35.56
  A 0.44 0.44 0.0 0 1 111.94 36.00
  L 87.82 36.00
  A 0.44 0.44 0.0 0 0 87.38 36.44
  L 87.38 45.31
  A 0.44 0.44 0.0 0 0 87.82 45.75
  L 111.41 45.75
  A 0.44 0.44 0.0 0 1 111.85 46.19
  L 111.85 55.56
  A 0.44 0.44 0.0 0 1 111.41 56.00
  L 87.82 56.00
  A 0.44 0.44 0.0 0 0 87.38 56.44
  L 87.38 66.31
  A 0.44 0.44 0.0 0 0 87.82 66.75
  L 111.93 66.75
  A 0.44 0.44 0.0 0 1 112.37 67.19
  Z"
/>
<path fill="#6d6e71" d="
  M 152.65 58.10
  L 163.33 76.60
  A 0.26 0.26 0.0 0 1 163.10 76.99
  L 150.96 76.99
  A 0.77 0.77 0.0 0 1 150.29 76.60
  L 140.35 59.39
  A 0.77 0.75 75.0 0 0 139.69 59.00
  L 133.66 59.00
  A 0.34 0.33 -90.0 0 0 133.33 59.34
  L 133.33 76.34
  A 0.66 0.65 90.0 0 1 132.68 77.00
  L 122.43 77.00
  A 0.61 0.60 -90.0 0 1 121.83 76.39
  L 121.83 26.36
  A 0.59 0.59 0.0 0 1 122.43 25.77
  Q 124.04 25.80 140.79 25.69
  Q 150.29 25.62 153.89 27.39
  C 161.41 31.09 163.50 37.35 162.74 45.40
  C 162.22 50.84 157.90 55.73 152.93 57.36
  A 0.51 0.51 0.0 0 0 152.65 58.10
  Z
  M 133.33 36.39
  L 133.29 48.33
  A 0.41 0.41 0.0 0 0 133.70 48.74
  L 144.21 48.78
  A 6.98 6.27 0.2 0 0 151.21 42.53
  L 151.21 42.31
  A 6.98 6.27 0.2 0 0 144.25 36.02
  L 133.74 35.98
  A 0.41 0.41 0.0 0 0 133.33 36.39
  Z"
/>
<path fill="#6d6e71" d="
  M 207.28 50.81
  Q 213.44 54.04 214.45 60.10
  C 216.08 69.94 209.96 76.75 199.96 76.90
  Q 185.52 77.13 172.25 76.97
  A 0.38 0.38 0.0 0 1 171.88 76.59
  L 171.88 26.35
  A 0.59 0.59 0.0 0 1 172.47 25.76
  Q 190.31 25.72 199.49 25.75
  C 208.36 25.78 214.69 31.88 213.56 41.15
  Q 212.81 47.24 207.28 50.10
  A 0.40 0.40 0.0 0 0 207.28 50.81
  Z
  M 183.51 36.54
  L 183.47 45.18
  A 0.56 0.56 0.0 0 0 184.03 45.74
  L 196.65 45.78
  A 5.18 4.39 0.2 0 0 201.85 41.41
  L 201.85 40.43
  A 5.18 4.39 0.2 0 0 196.69 36.02
  L 184.07 35.98
  A 0.56 0.56 0.0 0 0 183.51 36.54
  Z
  M 183.48 56.49
  L 183.50 66.29
  A 0.47 0.47 0.0 0 0 183.97 66.76
  L 197.03 66.73
  A 5.83 4.75 -0.1 0 0 202.85 61.97
  L 202.85 60.73
  A 5.83 4.75 -0.1 0 0 197.01 55.99
  L 183.95 56.02
  A 0.47 0.47 0.0 0 0 183.48 56.49
  Z"
/>
<rect fill="#6d6e71" x="223.78" y="25.76" width="11.62" height="51.24" rx="0.40"/>
<path fill="#6d6e71" d="
  M 269.42 67.53
  C 274.55 67.53 279.05 64.81 280.37 59.80
  Q 280.72 58.46 280.72 52.13
  Q 280.69 27.26 280.72 26.40
  A 0.66 0.66 0.0 0 1 281.38 25.75
  L 291.89 25.72
  A 0.59 0.58 4.2 0 1 292.47 26.39
  Q 292.46 26.40 292.58 48.43
  Q 292.65 61.41 291.09 65.37
  C 287.60 74.25 279.47 77.74 269.42 77.74
  C 259.38 77.75 251.24 74.26 247.75 65.38
  Q 246.19 61.42 246.25 48.44
  Q 246.36 26.41 246.35 26.40
  A 0.59 0.58 -4.3 0 1 246.93 25.73
  L 257.44 25.76
  A 0.66 0.66 0.0 0 1 258.10 26.41
  Q 258.13 27.27 258.11 52.14
  Q 258.11 58.47 258.47 59.81
  C 259.79 64.81 264.28 67.53 269.42 67.53
  Z"
/>
<path fill="#6d6e71" d="
  M 331.06 56.17
  Q 331.12 56.17 331.18 56.14
  A 0.29 0.06 -71.2 0 0 331.30 55.94
  L 342.66 26.36
  A 0.97 0.96 10.7 0 1 343.56 25.75
  L 358.12 25.75
  A 0.51 0.50 0.0 0 1 358.63 26.25
  L 358.63 76.51
  A 0.48 0.47 -0.0 0 1 358.15 76.98
  L 347.78 76.98
  A 0.61 0.61 0.0 0 1 347.17 76.37
  L 347.17 43.34
  A 0.18 0.17 -34.6 0 0 346.83 43.28
  L 334.05 76.08
  A 1.65 1.64 85.8 0 1 333.35 76.90
  Q 333.17 77.00 331.07 77.00
  Q 328.97 77.00 328.79 76.90
  A 1.65 1.64 -85.9 0 1 328.09 76.08
  L 315.29 43.29
  A 0.18 0.17 34.6 0 0 314.95 43.35
  L 314.97 76.38
  A 0.61 0.61 0.0 0 1 314.36 76.99
  L 303.99 77.00
  A 0.48 0.47 -0.0 0 1 303.51 76.53
  L 303.48 26.27
  A 0.51 0.50 -0.0 0 1 303.99 25.77
  L 318.55 25.76
  A 0.97 0.96 -10.7 0 1 319.45 26.37
  L 330.83 55.94
  A 0.29 0.06 71.1 0 0 330.95 56.14
  Q 331.01 56.17 331.06 56.17
  Z"
/>
<path fill="#6d6e71" d="
  M 402.48 66.74
  L 421.80 66.74
  A 0.32 0.32 0.0 0 1 422.10 67.18
  L 418.35 76.79
  A 0.32 0.32 0.0 0 1 418.05 76.99
  L 390.87 76.99
  A 0.32 0.32 0.0 0 1 390.55 76.67
  L 390.55 26.09
  A 0.32 0.32 0.0 0 1 390.87 25.77
  L 401.84 25.77
  A 0.32 0.32 0.0 0 1 402.16 26.09
  L 402.16 66.42
  A 0.32 0.32 0.0 0 0 402.48 66.74
  Z"
/>
<path fill="#6d6e71" d="
  M 450.32 25.75
  Q 453.73 25.75 456.54 25.76
  A 1.14 1.13 79.4 0 1 457.60 26.49
  L 476.80 76.33
  A 0.49 0.48 79.5 0 1 476.35 76.99
  L 464.49 76.99
  A 0.69 0.69 0.0 0 1 463.85 76.55
  L 460.97 69.07
  A 0.90 0.89 -10.3 0 0 460.15 68.50
  Q 459.10 68.50 450.32 68.50
  Q 441.54 68.50 440.49 68.50
  A 0.90 0.89 10.3 0 0 439.67 69.07
  L 436.79 76.55
  A 0.69 0.69 0.0 0 1 436.15 76.99
  L 424.29 76.99
  A 0.49 0.48 -79.5 0 1 423.84 76.33
  L 443.04 26.49
  A 1.14 1.13 -79.4 0 1 444.10 25.76
  Q 446.91 25.75 450.32 25.75
  Z
  M 450.31 58.26
  Q 454.49 58.27 457.21 58.20
  A 0.25 0.24 79.4 0 0 457.43 57.86
  C 454.86 50.79 450.87 39.27 450.64 39.17
  Q 450.47 39.09 450.33 39.09
  Q 450.19 39.09 450.03 39.17
  C 449.79 39.27 445.77 50.78 443.18 57.84
  A 0.25 0.24 -79.2 0 0 443.40 58.18
  Q 446.12 58.25 450.31 58.26
  Z"
/>
<path fill="#6d6e71" d="
  M 517.76 50.12
  A 0.40 0.40 0.0 0 0 517.76 50.83
  Q 523.92 54.06 524.92 60.12
  C 526.54 69.95 520.42 76.75 510.43 76.89
  Q 495.99 77.11 482.73 76.94
  A 0.38 0.38 0.0 0 1 482.36 76.56
  L 482.41 26.35
  A 0.59 0.59 0.0 0 1 483.00 25.76
  Q 500.83 25.74 510.00 25.78
  C 518.86 25.81 525.18 31.92 524.05 41.18
  Q 523.29 47.26 517.76 50.12
  Z
  M 493.95 36.47
  L 493.93 45.27
  A 0.47 0.47 0.0 0 0 494.40 45.74
  L 507.27 45.77
  A 5.12 4.44 0.1 0 0 512.40 41.34
  L 512.40 40.48
  A 5.12 4.44 0.1 0 0 507.29 36.03
  L 494.42 36.00
  A 0.47 0.47 0.0 0 0 493.95 36.47
  Z
  M 493.94 56.47
  L 493.96 66.31
  A 0.45 0.45 0.0 0 0 494.41 66.76
  L 507.67 66.73
  A 5.75 4.95 -0.1 0 0 513.41 61.77
  L 513.41 60.93
  A 5.75 4.95 -0.1 0 0 507.65 55.99
  L 494.39 56.02
  A 0.45 0.45 0.0 0 0 493.94 56.47
  Z"
/>
<rect fill="#f26139" x="28.94" y="107.75" width="542.86" height="11.50" rx="0.30"/>
<path fill="#6d6e71" d="
  M 70.41 166.68
  Q 70.42 162.62 70.44 157.33
  A 0.80 0.80 0.0 0 0 69.64 156.53
  L 67.53 156.52
  A 0.47 0.46 0.4 0 1 67.06 156.05
  L 67.07 153.96
  A 0.60 0.60 0.0 0 1 67.66 153.36
  Q 76.93 153.17 79.88 153.42
  C 87.33 154.05 91.32 159.65 91.30 166.76
  C 91.27 173.87 87.24 179.43 79.79 180.01
  Q 76.83 180.24 67.57 179.99
  A 0.60 0.60 0.0 0 1 66.99 179.39
  L 66.99 177.30
  A 0.47 0.46 0.0 0 1 67.46 176.83
  L 69.57 176.84
  A 0.80 0.80 0.0 0 0 70.37 176.04
  Q 70.39 170.75 70.41 166.68
  Z
  M 74.10 156.85
  L 74.14 176.53
  A 0.29 0.29 0.0 0 0 74.43 176.82
  L 78.34 176.81
  A 9.02 9.00 -0.1 0 0 87.34 167.80
  L 87.34 165.54
  A 9.02 9.00 -0.1 0 0 78.30 156.55
  L 74.39 156.56
  A 0.29 0.29 0.0 0 0 74.10 156.85
  Z"
/>
<path fill="#6d6e71" d="
  M 135.26 177.04
  L 136.82 177.04
  A 0.56 0.56 0.0 0 1 137.38 177.60
  L 137.38 179.31
  A 0.68 0.68 0.0 0 1 136.70 179.99
  L 129.37 179.99
  A 0.56 0.56 0.0 0 1 128.81 179.43
  L 128.81 177.47
  A 0.49 0.49 0.0 0 1 129.30 176.98
  L 130.73 176.98
  A 0.60 0.59 -0.0 0 0 131.33 176.39
  L 131.33 156.86
  A 0.57 0.57 0.0 0 0 130.76 156.29
  L 129.37 156.29
  A 0.55 0.54 -0.0 0 1 128.82 155.75
  L 128.82 153.74
  A 0.51 0.51 0.0 0 1 129.33 153.23
  L 134.34 153.23
  A 0.47 0.46 90.0 0 1 134.80 153.70
  L 134.80 169.24
  A 0.32 0.31 -22.6 0 0 135.34 169.46
  L 139.70 165.10
  A 0.41 0.41 0.0 0 0 139.77 164.61
  Q 138.92 163.15 139.18 162.09
  A 0.78 0.78 0.0 0 1 139.94 161.49
  L 147.17 161.49
  A 0.63 0.63 0.0 0 1 147.80 162.12
  L 147.80 163.95
  A 0.58 0.58 0.0 0 1 147.22 164.53
  L 145.86 164.53
  A 1.43 1.41 -64.9 0 0 144.94 164.87
  L 141.19 168.12
  A 0.61 0.60 51.7 0 0 141.10 168.93
  L 146.66 176.52
  A 1.19 1.15 -13.1 0 0 147.46 177.00
  Q 148.30 177.12 148.63 177.08
  A 0.64 0.64 0.0 0 1 149.36 177.71
  L 149.38 179.31
  A 0.66 0.65 89.6 0 1 148.73 179.98
  L 145.49 179.98
  A 1.30 1.28 71.6 0 1 144.45 179.45
  L 138.51 171.31
  A 0.51 0.51 0.0 0 0 137.74 171.25
  L 135.04 173.95
  A 0.86 0.84 -22.8 0 0 134.79 174.55
  L 134.79 176.57
  A 0.47 0.47 0.0 0 0 135.26 177.04
  Z"
/>
<path fill="#6d6e71" d="
  M 169.02 174.63
  A 0.08 0.07 40.2 0 0 169.16 174.62
  L 173.72 153.94
  A 0.90 0.89 5.9 0 1 174.60 153.23
  L 176.74 153.23
  A 0.80 0.80 0.0 0 1 177.52 153.86
  L 182.06 174.46
  A 0.16 0.16 0.0 0 0 182.37 174.48
  L 187.63 157.02
  A 0.45 0.44 6.9 0 0 187.18 156.45
  Q 186.09 156.49 185.65 156.60
  A 0.76 0.76 0.0 0 1 184.70 155.87
  L 184.70 153.89
  A 0.65 0.65 0.0 0 1 185.35 153.24
  L 194.00 153.24
  A 0.48 0.47 -90.0 0 1 194.47 153.72
  L 194.47 156.10
  A 0.47 0.47 0.0 0 1 193.90 156.56
  Q 192.95 156.37 192.21 156.45
  A 0.90 0.90 0.0 0 0 191.46 157.08
  L 184.75 179.38
  A 0.88 0.88 0.0 0 1 183.91 180.00
  L 180.41 180.00
  A 0.69 0.67 -5.7 0 1 179.74 179.46
  L 175.86 161.86
  A 0.27 0.27 0.0 0 0 175.33 161.86
  L 171.44 179.50
  A 0.65 0.64 6.1 0 1 170.81 180.00
  L 167.62 180.00
  A 1.22 1.20 -8.4 0 1 166.46 179.15
  L 159.69 156.86
  A 0.72 0.72 0.0 0 0 158.84 156.36
  L 157.50 156.65
  A 0.59 0.59 0.0 0 1 156.78 156.07
  L 156.78 153.75
  A 0.51 0.50 -90.0 0 1 157.28 153.24
  L 165.92 153.24
  A 0.62 0.62 0.0 0 1 166.54 153.86
  L 166.54 156.01
  A 0.58 0.58 0.0 0 1 165.81 156.57
  Q 164.89 156.32 164.18 156.46
  A 0.61 0.61 0.0 0 0 163.73 157.25
  Q 165.06 161.07 167.38 169.82
  Q 168.18 172.83 169.02 174.63
  Z"
/>
<path fill="#6d6e71" d="
  M 217.81 178.47
  L 217.81 179.39
  A 0.57 0.57 0.0 0 1 217.24 179.96
  L 215.12 179.96
  A 0.69 0.68 0.0 0 1 214.43 179.28
  L 214.43 156.95
  A 0.73 0.73 0.0 0 0 213.70 156.22
  L 212.49 156.22
  A 0.46 0.46 0.0 0 1 212.03 155.76
  L 212.03 153.99
  A 0.73 0.73 0.0 0 1 212.76 153.26
  L 217.63 153.26
  A 0.53 0.53 0.0 0 1 218.16 153.79
  L 218.16 162.95
  A 0.28 0.28 0.0 0 0 218.60 163.18
  Q 224.47 159.05 229.63 163.56
  C 234.32 167.67 232.88 178.28 226.24 180.00
  Q 221.48 181.23 218.45 178.20
  A 0.38 0.37 -67.7 0 0 217.81 178.47
  Z
  M 223.3564 177.2299
  A 6.42 5.34 90.3 0 0 228.7299 170.8380
  A 6.42 5.34 90.3 0 0 223.4236 164.3901
  A 6.42 5.34 90.3 0 0 218.0501 170.7820
  A 6.42 5.34 90.3 0 0 223.3564 177.2299
  Z"
/>
<path fill="#6d6e71" d="
  M 268.20 166.72
  C 268.18 173.81 264.16 179.37 256.73 179.95
  Q 253.78 180.18 244.54 179.94
  A 0.60 0.60 0.0 0 1 243.96 179.34
  L 243.96 177.25
  A 0.47 0.46 -0.0 0 1 244.43 176.79
  L 246.54 176.79
  A 0.80 0.80 0.0 0 0 247.34 176.00
  Q 247.35 170.72 247.36 166.67
  Q 247.37 162.61 247.39 157.34
  A 0.80 0.80 0.0 0 0 246.60 156.54
  L 244.49 156.53
  A 0.47 0.46 0.3 0 1 244.02 156.06
  L 244.03 153.97
  A 0.60 0.60 0.0 0 1 244.61 153.38
  Q 253.85 153.19 256.80 153.44
  C 264.23 154.06 268.22 159.64 268.20 166.72
  Z
  M 251.12 157.10
  L 251.12 176.30
  A 0.57 0.57 0.0 0 0 251.69 176.87
  L 255.00 176.87
  A 9.55 9.30 90.0 0 0 264.30 167.32
  L 264.30 166.08
  A 9.55 9.30 90.0 0 0 255.00 156.53
  L 251.69 156.53
  A 0.57 0.57 0.0 0 0 251.12 157.10
  Z"
/>
<path fill="#6d6e71" d="
  M 338.66 153.30
  Q 341.42 153.29 342.93 153.55
  A 0.85 0.85 0.0 0 1 343.60 154.60
  Q 343.15 156.32 341.35 156.47
  A 0.83 0.82 87.8 0 0 340.59 157.30
  L 340.59 175.93
  A 0.76 0.75 -88.8 0 0 341.31 176.69
  Q 343.27 176.75 343.94 178.15
  A 1.21 1.21 0.0 0 1 343.01 179.87
  Q 341.63 180.06 338.73 180.07
  Q 335.83 180.08 334.45 179.89
  A 1.21 1.21 0.0 0 1 333.51 178.18
  Q 334.17 176.77 336.13 176.70
  A 0.76 0.75 88.5 0 0 336.85 175.94
  L 336.75 157.31
  A 0.83 0.82 -88.1 0 0 335.99 156.48
  Q 334.19 156.34 333.73 154.63
  A 0.85 0.85 0.0 0 1 334.39 153.57
  Q 335.90 153.31 338.66 153.30
  Z"
/>
<path fill="#6d6e71" d="
  M 401.58 153.26
  L 406.66 153.26
  A 0.46 0.46 0.0 0 1 407.12 153.72
  L 407.12 176.55
  A 0.46 0.46 0.0 0 0 407.58 177.01
  L 409.07 177.01
  A 0.46 0.46 0.0 0 1 409.53 177.47
  L 409.53 179.51
  A 0.46 0.46 0.0 0 1 409.07 179.97
  L 401.53 179.97
  A 0.46 0.46 0.0 0 1 401.07 179.51
  L 401.07 177.45
  A 0.46 0.46 0.0 0 1 401.53 176.99
  L 403.11 176.99
  A 0.46 0.46 0.0 0 0 403.57 176.53
  L 403.57 156.71
  A 0.46 0.46 0.0 0 0 403.11 156.25
  L 401.58 156.25
  A 0.46 0.46 0.0 0 1 401.12 155.79
  L 401.12 153.72
  A 0.46 0.46 0.0 0 1 401.58 153.26
  Z"
/>
<path fill="#6d6e71" d="
  M 411.46 156.15
  A 0.22 0.22 0.0 0 1 411.26 155.93
  L 411.28 153.61
  A 0.37 0.37 0.0 0 1 411.64 153.25
  L 416.69 153.20
  A 0.62 0.62 0.0 0 1 417.31 153.83
  L 417.31 176.29
  A 0.70 0.68 2.6 0 0 417.94 176.97
  L 419.35 177.09
  A 0.48 0.48 0.0 0 1 419.79 177.58
  L 419.76 179.48
  A 0.52 0.52 0.0 0 1 419.23 179.99
  L 411.94 179.99
  A 0.67 0.67 0.0 0 1 411.27 179.29
  L 411.32 177.45
  A 0.34 0.32 -3.4 0 1 411.61 177.13
  L 413.18 176.94
  A 0.69 0.69 0.0 0 0 413.78 176.26
  L 413.73 156.76
  A 0.48 0.48 0.0 0 0 413.27 156.28
  L 411.46 156.15
  Z"
/>
<circle fill="#6d6e71" cx="426.07" cy="156.34" r="2.48"/>
<path fill="#6d6e71" d="
  M 300.99 161.49
  A 0.63 0.62 -0.0 0 1 301.62 162.11
  L 301.62 163.87
  A 0.62 0.61 90.0 0 1 301.01 164.49
  L 297.12 164.49
  A 0.68 0.67 -0.0 0 0 296.44 165.16
  Q 296.43 172.56 296.47 174.47
  Q 296.52 176.71 298.93 177.23
  A 1.24 1.24 0.0 0 0 299.80 177.10
  L 300.59 176.65
  A 1.63 1.63 0.0 0 1 302.62 179.16
  Q 302.01 179.85 300.44 180.12
  C 294.06 181.20 292.65 177.47 292.71 171.78
  Q 292.76 165.45 292.84 165.22
  A 0.48 0.48 0.0 0 0 292.45 164.56
  L 290.46 164.36
  A 0.47 0.47 0.0 0 1 290.08 163.71
  Q 290.31 163.19 290.14 162.36
  A 0.72 0.72 0.0 0 1 290.85 161.49
  L 292.13 161.49
  A 0.64 0.63 -0.0 0 0 292.77 160.86
  L 292.77 157.92
  A 0.70 0.70 0.0 0 1 293.47 157.22
  L 295.82 157.22
  A 0.62 0.62 0.0 0 1 296.44 157.84
  L 296.44 160.95
  A 0.54 0.54 0.0 0 0 296.98 161.49
  L 300.99 161.49
  Z"
/>
<path fill="#6d6e71" d="
  M 378.51 161.50
  A 0.63 0.62 -0.0 0 1 379.14 162.12
  L 379.14 163.88
  A 0.62 0.61 90.0 0 1 378.53 164.50
  L 374.64 164.50
  A 0.68 0.67 -0.0 0 0 373.96 165.17
  Q 373.95 172.58 373.99 174.49
  Q 374.04 176.74 376.45 177.26
  A 1.24 1.24 0.0 0 0 377.32 177.13
  L 378.11 176.68
  A 1.64 1.64 0.0 0 1 380.14 179.19
  Q 379.53 179.88 377.96 180.15
  C 371.58 181.23 370.16 177.50 370.22 171.80
  Q 370.28 165.46 370.36 165.23
  A 0.48 0.48 0.0 0 0 369.97 164.57
  L 367.97 164.37
  A 0.47 0.47 0.0 0 1 367.59 163.72
  Q 367.82 163.20 367.65 162.37
  A 0.72 0.72 0.0 0 1 368.36 161.50
  L 369.65 161.50
  A 0.64 0.63 -0.0 0 0 370.29 160.87
  L 370.29 157.93
  A 0.70 0.70 0.0 0 1 370.99 157.23
  L 373.34 157.23
  A 0.62 0.62 0.0 0 1 373.96 157.85
  L 373.96 160.96
  A 0.54 0.54 0.0 0 0 374.50 161.50
  L 378.51 161.50
  Z"
/>
<path fill="#6d6e71" d="
  M 105.38 169.06
  A 1.14 1.14 0.0 0 0 106.42 167.35
  L 105.79 166.26
  A 3.32 3.31 79.1 0 0 103.41 164.65
  Q 99.48 164.07 96.95 166.07
  A 0.90 0.88 -41.5 0 1 95.77 166.01
  L 94.66 164.89
  A 0.95 0.95 0.0 0 1 94.78 163.46
  C 99.41 160.02 109.58 159.75 110.04 167.89
  Q 110.31 172.56 110.02 176.24
  A 0.74 0.73 2.3 0 0 110.76 177.03
  L 112.06 177.04
  A 0.50 0.50 0.0 0 1 112.56 177.54
  L 112.55 179.47
  A 0.53 0.53 0.0 0 1 112.02 179.99
  L 107.29 179.98
  A 0.67 0.67 0.0 0 1 106.63 179.27
  Q 106.67 178.70 106.77 178.53
  A 0.40 0.40 0.0 0 0 106.15 178.03
  C 102.66 181.25 94.13 181.88 93.67 175.42
  C 93.22 169.00 101.12 168.87 105.38 169.06
  Z
  M 106.36 172.21
  C 104.18 171.77 96.81 171.47 97.53 175.43
  A 2.97 2.14 -5.8 0 0 100.51 177.16
  Q 104.82 176.90 106.75 173.02
  A 0.57 0.56 19.3 0 0 106.36 172.21
  Z"
/>
<path fill="#6d6e71" d="
  M 197.56 171.77
  A 0.59 0.58 -6.4 0 0 196.98 172.48
  C 198.31 178.54 204.89 178.39 208.52 174.12
  A 0.21 0.21 0.0 0 1 208.78 174.07
  Q 210.00 174.69 210.86 175.78
  A 0.21 0.21 0.0 0 1 210.87 176.03
  C 207.03 181.63 197.88 182.12 194.38 175.74
  C 192.34 172.02 192.85 165.95 196.64 163.13
  C 203.27 158.17 211.13 163.08 210.55 171.08
  A 0.71 0.71 0.0 0 1 209.84 171.74
  L 197.56 171.77
  Z
  M 197.43 168.76
  L 206.83 168.72
  A 0.13 0.13 0.0 0 0 206.96 168.58
  L 206.96 168.49
  A 4.75 4.00 -0.3 0 0 202.19 164.52
  L 202.03 164.52
  A 4.75 4.00 -0.3 0 0 197.30 168.55
  L 197.30 168.64
  A 0.13 0.13 0.0 0 0 197.43 168.76
  Z"
/>
<path fill="#6d6e71" d="
  M 282.25 169.04
  A 1.15 1.14 76.3 0 0 283.29 167.32
  L 282.66 166.23
  A 3.33 3.33 0.0 0 0 280.26 164.61
  Q 276.31 164.04 273.78 166.06
  A 0.90 0.89 -41.7 0 1 272.59 166.00
  L 271.48 164.88
  A 0.96 0.95 -40.8 0 1 271.59 163.44
  C 276.23 159.98 286.45 159.68 286.93 167.85
  Q 287.21 172.54 286.93 176.24
  A 0.74 0.73 2.2 0 0 287.67 177.03
  L 288.98 177.03
  A 0.50 0.50 0.0 0 1 289.48 177.53
  L 289.48 179.47
  A 0.53 0.53 0.0 0 1 288.95 180.00
  L 284.20 180.00
  A 0.67 0.67 0.0 0 1 283.53 179.29
  Q 283.57 178.71 283.67 178.54
  A 0.40 0.40 0.0 0 0 283.05 178.04
  C 279.55 181.28 270.99 181.94 270.51 175.45
  C 270.04 169.01 277.97 168.86 282.25 169.04
  Z
  M 283.14 172.24
  C 280.99 171.80 273.71 171.52 274.42 175.43
  A 2.93 2.12 -5.9 0 0 277.37 177.13
  Q 281.62 176.87 283.53 173.04
  A 0.56 0.56 0.0 0 0 283.14 172.24
  Z"
/>
<path fill="#6d6e71" d="
  M 315.66 169.03
  A 1.14 1.14 0.0 0 0 316.70 167.32
  L 316.08 166.24
  A 3.32 3.31 79.2 0 0 313.69 164.61
  Q 309.76 164.03 307.24 166.03
  A 0.90 0.88 -41.5 0 1 306.05 165.97
  L 304.95 164.85
  A 0.95 0.95 0.0 0 1 305.07 163.42
  C 309.70 159.99 319.87 159.73 320.32 167.86
  Q 320.58 172.53 320.29 176.22
  A 0.74 0.73 2.4 0 0 321.02 177.00
  L 322.33 177.01
  A 0.50 0.50 0.0 0 1 322.82 177.51
  L 322.82 179.44
  A 0.53 0.53 0.0 0 1 322.29 179.97
  L 317.56 179.95
  A 0.67 0.67 0.0 0 1 316.89 179.24
  Q 316.94 178.66 317.04 178.49
  A 0.40 0.40 0.0 0 0 316.42 177.99
  C 312.92 181.21 304.40 181.83 303.95 175.37
  C 303.50 168.96 311.40 168.84 315.66 169.03
  Z
  M 316.52 172.27
  C 314.36 171.83 307.05 171.54 307.76 175.47
  A 2.94 2.13 -5.8 0 0 310.72 177.18
  Q 314.99 176.92 316.91 173.07
  A 0.56 0.56 0.0 0 0 316.52 172.27
  Z"
/>
<path fill="#6d6e71" d="
  M 360.58 179.34
  L 360.58 167.92
  A 3.50 3.50 0.0 0 0 356.70 164.44
  L 356.37 164.47
  A 4.40 4.40 0.0 0 0 352.45 168.84
  L 352.45 175.81
  A 0.88 0.87 -71.9 0 0 352.80 176.51
  L 354.22 177.57
  A 1.35 1.35 0.0 0 1 353.41 180.01
  L 347.45 180.01
  A 1.34 1.34 0.0 0 1 347.10 177.38
  Q 347.81 177.18 348.45 176.71
  A 0.78 0.78 0.0 0 0 348.76 176.07
  L 348.49 165.75
  A 1.68 1.60 35.5 0 0 348.40 165.28
  Q 348.28 164.92 347.48 164.26
  A 1.49 1.40 57.3 0 1 347.95 161.71
  Q 350.26 161.19 352.55 162.13
  A 1.35 1.34 -41.4 0 0 353.41 162.18
  L 356.51 161.35
  A 3.19 3.04 -50.7 0 1 357.40 161.24
  C 366.66 161.34 364.13 170.87 364.31 176.37
  A 0.62 0.62 0.0 0 0 364.85 176.96
  L 366.66 177.18
  A 0.52 0.52 0.0 0 1 367.05 177.94
  Q 366.94 178.15 367.10 179.13
  A 0.72 0.72 0.0 0 1 366.39 179.97
  L 361.20 179.97
  A 0.63 0.62 -90.0 0 1 360.58 179.34
  Z"
/>
<path fill="#6d6e71" d="
  M 385.26 172.46
  C 386.58 178.53 393.17 178.40 396.81 174.13
  A 0.21 0.21 0.0 0 1 397.07 174.08
  Q 398.29 174.71 399.15 175.80
  A 0.21 0.21 0.0 0 1 399.16 176.05
  C 395.30 181.65 386.14 182.11 382.65 175.72
  C 380.61 171.98 381.14 165.91 384.94 163.09
  C 391.60 158.14 399.46 163.08 398.85 171.09
  A 0.71 0.71 0.0 0 1 398.14 171.75
  L 385.84 171.75
  A 0.59 0.58 -6.2 0 0 385.26 172.46
  Z
  M 385.64 168.74
  L 395.12 168.74
  A 0.13 0.13 0.0 0 0 395.25 168.61
  L 395.25 168.52
  A 4.77 3.98 0.0 0 0 390.48 164.54
  L 390.28 164.54
  A 4.77 3.98 -0.0 0 0 385.51 168.52
  L 385.51 168.61
  A 0.13 0.13 0.0 0 0 385.64 168.74
  Z"
/>
<path fill="#6d6e71" d="
  M 445.81 178.34
  Q 444.26 180.03 442.30 180.24
  C 433.54 181.21 430.59 172.65 433.40 165.82
  A 3.34 3.29 76.1 0 1 433.91 164.96
  Q 439.26 158.31 446.58 163.44
  A 0.29 0.29 0.0 0 0 446.98 163.04
  Q 446.63 162.55 446.58 162.16
  A 0.60 0.58 86.9 0 1 447.16 161.50
  L 451.83 161.50
  A 0.62 0.61 -90.0 0 1 452.44 162.12
  L 452.44 163.84
  A 0.67 0.67 0.0 0 1 451.77 164.51
  L 450.47 164.51
  A 0.55 0.54 84.0 0 0 449.94 165.17
  Q 450.26 166.59 450.05 180.73
  C 449.91 189.91 438.86 190.53 433.50 185.93
  A 0.46 0.44 39.2 0 1 433.43 185.32
  L 434.81 183.48
  A 0.34 0.34 0.0 0 1 435.29 183.40
  C 438.68 185.76 442.51 186.63 445.65 183.71
  A 1.80 1.77 76.1 0 0 446.17 182.83
  Q 446.64 180.90 446.39 178.53
  A 0.34 0.33 -26.8 0 0 445.81 178.34
  Z
  M 441.3075 177.2900
  A 6.45 5.31 90.2 0 0 446.6400 170.8585
  A 6.45 5.31 90.2 0 0 441.3525 164.3900
  A 6.45 5.31 90.2 0 0 436.0200 170.8215
  A 6.45 5.31 90.2 0 0 441.3075 177.2900
  Z"
/>
<path fill="#6d6e71" d="
  M 458.81 171.77
  A 0.59 0.58 -6.5 0 0 458.23 172.48
  C 459.57 178.54 466.16 178.39 469.79 174.11
  A 0.21 0.21 0.0 0 1 470.05 174.05
  Q 471.27 174.68 472.13 175.77
  A 0.21 0.21 0.0 0 1 472.14 176.02
  C 468.30 181.63 459.15 182.12 455.63 175.75
  C 453.58 172.01 454.09 165.94 457.88 163.11
  C 464.52 158.14 472.40 163.05 471.81 171.06
  A 0.71 0.71 0.0 0 1 471.11 171.72
  L 458.81 171.77
  Z
  M 458.72 168.72
  L 468.00 168.78
  A 0.17 0.17 0.0 0 0 468.17 168.61
  L 468.17 168.50
  A 4.73 3.96 0.4 0 0 463.46 164.51
  L 463.30 164.51
  A 4.73 3.96 0.4 0 0 458.55 168.44
  L 458.55 168.55
  A 0.17 0.17 0.0 0 0 458.72 168.72
  Z"
/>
<path fill="#6d6e71" d="
  M 476.58 164.81
  Q 476.05 164.30 474.90 164.50
  A 0.62 0.61 84.9 0 1 474.18 163.89
  L 474.18 162.07
  A 0.59 0.59 0.0 0 1 474.77 161.48
  L 479.70 161.48
  A 0.49 0.48 -83.7 0 1 480.17 162.07
  L 479.98 162.95
  A 0.29 0.28 -11.8 0 0 480.43 163.24
  C 484.59 160.23 489.49 160.40 491.90 165.01
  A 2.10 2.05 -59.9 0 1 492.15 166.00
  L 492.15 176.44
  A 0.59 0.59 0.0 0 0 492.74 177.03
  L 494.12 177.03
  A 0.65 0.64 -84.2 0 1 494.75 177.81
  Q 494.60 178.51 494.72 179.26
  A 0.62 0.62 0.0 0 1 494.11 179.98
  L 489.26 179.98
  A 0.63 0.63 0.0 0 1 488.63 179.35
  L 488.63 168.10
  A 3.69 3.68 86.9 0 0 484.55 164.43
  L 484.33 164.45
  A 4.40 4.40 0.0 0 0 480.36 168.85
  L 480.38 176.20
  A 0.76 0.76 0.0 0 0 480.98 176.94
  L 481.80 177.12
  A 1.45 1.45 0.0 0 1 481.49 179.99
  L 474.49 179.99
  A 0.34 0.33 -0.0 0 1 474.15 179.66
  L 474.15 177.26
  A 0.26 0.25 -0.0 0 1 474.41 177.01
  L 476.10 177.01
  A 0.63 0.63 0.0 0 0 476.73 176.38
  L 476.65 164.97
  A 0.24 0.21 25.2 0 0 476.58 164.81
  Z"
/>
<path fill="#6d6e71" d="
  M 510.59 168.78
  Q 511.09 165.84 507.75 164.76
  C 500.40 162.40 496.85 174.21 504.30 176.89
  Q 508.31 178.32 511.91 173.98
  A 0.22 0.21 -48.4 0 1 512.23 173.96
  L 514.13 175.86
  A 0.31 0.31 0.0 0 1 514.15 176.28
  C 508.40 183.59 496.21 180.74 496.58 170.53
  Q 496.80 164.43 501.57 162.19
  Q 506.37 159.94 510.51 162.95
  A 0.42 0.42 0.0 0 0 511.18 162.61
  L 511.18 162.12
  A 0.64 0.64 0.0 0 1 511.82 161.48
  L 513.39 161.48
  A 0.54 0.54 0.0 0 1 513.93 162.02
  L 513.93 168.84
  A 0.39 0.39 0.0 0 1 513.54 169.23
  L 510.96 169.23
  A 0.38 0.38 0.0 0 1 510.59 168.78
  Z"
/>
<path fill="#6d6e71" d="
  M 521.12 171.74
  A 0.59 0.58 -6.0 0 0 520.54 172.44
  C 521.83 178.51 528.41 178.40 532.06 174.15
  A 0.21 0.21 0.0 0 1 532.32 174.10
  Q 533.54 174.74 534.39 175.83
  A 0.21 0.21 0.0 0 1 534.40 176.08
  C 530.53 181.66 521.38 182.08 517.92 175.69
  C 515.89 171.95 516.45 165.89 520.25 163.08
  C 526.92 158.17 534.75 163.13 534.11 171.13
  A 0.71 0.71 0.0 0 1 533.40 171.78
  L 521.12 171.74
  Z
  M 520.97 168.76
  L 530.23 168.72
  A 0.16 0.16 0.0 0 0 530.39 168.56
  L 530.39 168.45
  A 4.70 3.97 -0.2 0 0 525.67 164.50
  L 525.49 164.50
  A 4.70 3.97 -0.2 0 0 520.81 168.49
  L 520.81 168.60
  A 0.16 0.16 0.0 0 0 520.97 168.76
  Z"
/>
<path fill="#6d6e71" d="
  M 114.43 179.99
  A 0.35 0.35 0.0 0 1 114.08 179.64
  L 114.08 177.29
  A 0.28 0.28 0.0 0 1 114.36 177.01
  L 115.93 177.01
  A 0.69 0.68 -0.0 0 0 116.62 176.33
  L 116.62 165.13
  A 0.64 0.63 0.0 0 0 115.98 164.50
  L 114.56 164.50
  A 0.65 0.65 0.0 0 1 113.91 163.85
  L 113.91 162.14
  A 0.65 0.65 0.0 0 1 114.56 161.49
  L 119.16 161.49
  A 0.68 0.68 0.0 0 1 119.84 162.17
  L 119.84 164.81
  A 0.27 0.27 0.0 0 0 120.33 164.96
  Q 122.96 160.97 127.91 161.55
  A 0.54 0.53 3.7 0 1 128.38 162.08
  L 128.38 164.48
  A 0.44 0.44 0.0 0 1 127.93 164.92
  C 122.16 164.75 119.89 168.11 120.06 173.37
  Q 120.14 175.60 119.88 176.21
  A 0.50 0.50 0.0 0 0 120.29 176.90
  L 122.26 177.09
  A 0.41 0.40 -86.9 0 1 122.62 177.50
  L 122.62 179.48
  A 0.51 0.51 0.0 0 1 122.11 179.99
  L 114.43 179.99
  Z"
/>
<path fill="#6d6e71" d="
  M 429.74 176.97
  A 0.53 0.53 0.0 0 1 430.27 177.50
  L 430.27 179.45
  A 0.54 0.53 -90.0 0 1 429.74 179.99
  L 422.37 179.99
  A 0.73 0.73 0.0 0 1 421.67 179.04
  Q 421.85 178.48 421.74 177.84
  A 0.70 0.70 0.0 0 1 422.43 177.02
  L 423.69 177.02
  A 0.58 0.58 0.0 0 0 424.27 176.44
  L 424.27 165.01
  A 0.60 0.60 0.0 0 0 423.67 164.41
  L 422.15 164.41
  A 0.48 0.48 0.0 0 1 421.67 163.93
  L 421.67 162.05
  A 0.55 0.55 0.0 0 1 422.22 161.50
  L 427.54 161.50
  A 0.60 0.59 -90.0 0 1 428.13 162.10
  L 428.13 176.46
  A 0.52 0.51 0.0 0 0 428.65 176.97
  L 429.74 176.97
  Z"
/>
</svg>
