<?xml version="1.0" encoding="UTF-8" standalone="no"?>
<!DOCTYPE svg PUBLIC "-//W3C//DTD SVG 1.1//EN" "http://www.w3.org/Graphics/SVG/1.1/DTD/svg11.dtd">
<svg xmlns="http://www.w3.org/2000/svg" version="1.1" viewBox="0.00 0.00 504.00 171.00">
<path fill="#4a4f55" d="
  M 185.76 70.98
  Q 185.76 87.22 185.76 87.36
  Q 185.79 92.34 186.89 93.86
  Q 188.78 96.45 192.20 96.90
  A 3.71 3.71 0.0 0 0 193.14 96.90
  C 198.54 96.17 200.00 91.87 199.83 86.96
  A 1.52 1.52 0.0 0 1 201.35 85.38
  L 210.11 85.38
  A 1.36 1.35 88.2 0 1 211.46 86.65
  C 212.16 98.06 205.70 106.49 194.42 107.19
  C 186.17 107.69 178.81 104.46 175.53 97.09
  Q 174.05 93.76 174.02 84.62
  Q 174.00 77.81 174.00 70.98
  Q 174.00 64.14 174.02 57.33
  Q 174.06 48.19 175.54 44.86
  C 178.82 37.49 186.18 34.27 194.43 34.77
  C 205.71 35.47 212.17 43.90 211.46 55.31
  A 1.36 1.35 -88.2 0 1 210.11 56.58
  L 201.35 56.58
  A 1.52 1.52 0.0 0 1 199.84 55.00
  C 200.01 50.09 198.55 45.79 193.15 45.06
  A 3.71 3.71 0.0 0 0 192.21 45.06
  Q 188.79 45.51 186.90 48.10
  Q 185.80 49.62 185.76 54.59
  Q 185.76 54.73 185.76 70.98
  Z"
/>
<path fill="#4a4f55" d="
  M 359.79 79.00
  L 354.46 79.00
  A 1.72 1.72 0.0 0 1 352.74 77.28
  L 352.74 70.36
  A 1.61 1.60 -0.0 0 1 354.35 68.76
  L 370.66 68.76
  A 1.64 1.63 0.3 0 1 372.30 70.41
  Q 372.18 79.84 372.30 83.79
  Q 372.57 92.65 370.73 96.97
  C 367.25 105.13 358.25 108.28 349.56 106.97
  C 340.55 105.61 334.91 98.95 334.58 89.89
  Q 334.52 88.22 334.44 60.42
  Q 334.41 48.57 336.06 44.87
  C 340.54 34.84 353.59 32.17 363.19 37.01
  C 370.80 40.84 373.18 49.42 372.15 57.45
  A 1.20 1.20 0.0 0 1 370.96 58.49
  L 361.46 58.49
  A 0.84 0.83 86.9 0 1 360.63 57.74
  C 360.36 54.96 360.94 51.73 359.69 49.17
  C 356.34 42.35 346.25 44.60 346.26 52.27
  Q 346.27 84.14 346.23 86.15
  Q 346.13 91.02 346.94 92.71
  C 350.39 99.93 360.26 97.25 360.45 89.50
  Q 360.56 85.12 360.47 79.67
  A 0.68 0.68 0.0 0 0 359.79 79.00
  Z"
/>
<path fill="#4a4f55" d="
  M 57.59 53.42
  Q 57.65 53.42 57.70 53.41
  A 0.25 0.05 -7.4 0 0 57.90 53.34
  L 67.01 36.85
  A 2.60 2.57 -75.4 0 1 69.27 35.51
  L 77.82 35.51
  A 1.39 1.39 0.0 0 1 79.21 36.90
  L 79.21 105.07
  A 1.44 1.43 -0.0 0 1 77.77 106.50
  L 68.90 106.50
  A 1.33 1.32 -0.0 0 1 67.57 105.18
  L 67.57 57.79
  A 0.25 0.24 59.3 0 0 67.11 57.67
  Q 62.66 65.99 58.70 73.18
  Q 58.15 74.19 57.58 74.19
  Q 57.01 74.19 56.46 73.18
  Q 52.51 65.98 48.07 57.66
  A 0.25 0.24 -59.2 0 0 47.61 57.77
  L 47.54 105.16
  A 1.33 1.32 0.1 0 1 46.21 106.48
  L 37.34 106.47
  A 1.44 1.43 0.1 0 1 35.90 105.04
  L 36.00 36.87
  A 1.39 1.39 0.0 0 1 37.40 35.48
  L 45.95 35.49
  A 2.60 2.57 75.5 0 1 48.20 36.84
  L 57.29 53.34
  A 0.25 0.05 7.4 0 0 57.49 53.41
  Q 57.54 53.42 57.59 53.42
  Z"
/>
<path fill="#4a4f55" d="
  M 108.00 35.50
  Q 110.65 35.50 112.80 35.57
  A 2.08 2.07 84.9 0 1 114.76 37.21
  L 129.18 104.55
  A 1.62 1.61 -6.1 0 1 127.60 106.50
  L 119.72 106.50
  A 2.15 2.14 -6.0 0 1 117.62 104.80
  L 115.50 94.88
  A 0.77 0.77 0.0 0 0 114.76 94.27
  Q 113.70 94.25 107.97 94.25
  Q 102.25 94.25 101.18 94.27
  A 0.77 0.77 0.0 0 0 100.44 94.87
  L 98.31 104.79
  A 2.15 2.14 6.0 0 1 96.21 106.49
  L 88.33 106.48
  A 1.62 1.61 6.1 0 1 86.75 104.53
  L 101.25 37.20
  A 2.08 2.07 -84.8 0 1 103.21 35.56
  Q 105.36 35.49 108.00 35.50
  Z
  M 107.83 84.75
  Q 110.78 84.75 113.06 84.70
  A 0.53 0.53 0.0 0 0 113.57 84.08
  Q 108.12 52.73 107.80 52.73
  Q 107.48 52.73 102.09 84.09
  A 0.53 0.53 0.0 0 0 102.60 84.71
  Q 104.88 84.75 107.83 84.75
  Z"
/>
<path fill="#4a4f55" d="
  M 153.76 46.72
  L 153.76 105.17
  A 1.32 1.32 0.0 0 1 152.44 106.49
  L 143.55 106.49
  A 1.55 1.55 0.0 0 1 142.00 104.94
  L 142.00 46.62
  A 0.62 0.62 0.0 0 0 141.38 46.00
  L 130.12 46.00
  A 1.62 1.62 0.0 0 1 128.50 44.38
  L 128.50 36.96
  A 1.47 1.46 0.0 0 1 129.97 35.50
  L 166.65 35.50
  A 1.35 1.35 0.0 0 1 168.00 36.85
  L 168.00 44.38
  A 1.62 1.62 0.0 0 1 166.38 46.00
  L 154.48 46.00
  A 0.72 0.72 0.0 0 0 153.76 46.72
  Z"
/>
<path fill="#4a4f55" d="
  M 239.88 65.75
  Q 245.23 65.75 245.95 65.71
  A 0.59 0.59 0.0 0 0 246.51 65.13
  L 246.51 36.96
  A 1.46 1.46 0.0 0 1 247.96 35.50
  L 256.76 35.49
  A 1.50 1.50 0.0 0 1 258.25 36.99
  Q 258.26 37.75 258.26 71.00
  Q 258.26 104.25 258.25 105.01
  A 1.50 1.50 0.0 0 1 256.75 106.51
  L 247.95 106.50
  A 1.46 1.46 0.0 0 1 246.50 105.04
  L 246.50 76.87
  A 0.59 0.59 0.0 0 0 245.94 76.29
  Q 245.23 76.25 239.88 76.25
  Q 234.52 76.25 233.81 76.28
  A 0.59 0.59 0.0 0 0 233.25 76.87
  L 233.25 105.04
  A 1.46 1.46 0.0 0 1 231.80 106.50
  L 223.00 106.51
  A 1.50 1.50 0.0 0 1 221.50 105.01
  Q 221.50 104.25 221.50 71.00
  Q 221.50 37.75 221.51 36.98
  A 1.50 1.50 0.0 0 1 223.00 35.48
  L 231.80 35.50
  A 1.46 1.46 0.0 0 1 233.25 36.96
  L 233.25 65.13
  A 0.59 0.59 0.0 0 0 233.81 65.71
  Q 234.53 65.75 239.88 65.75
  Z"
/>
<path fill="#4a4f55" d="
  M 282.44 96.00
  L 303.23 96.00
  A 1.52 1.52 0.0 0 1 304.75 97.52
  L 304.75 105.11
  A 1.39 1.38 -0.0 0 1 303.36 106.49
  L 271.53 106.49
  A 1.53 1.52 -0.0 0 1 270.00 104.97
  L 270.00 37.01
  A 1.51 1.51 0.0 0 1 271.51 35.50
  L 280.32 35.50
  A 1.44 1.44 0.0 0 1 281.76 36.94
  L 281.76 95.31
  A 0.69 0.68 -90.0 0 0 282.44 96.00
  Z"
/>
<rect fill="#4a4f55" x="312.24" y="35.49" width="11.76" height="71.00" rx="1.50"/>
<path fill="#4a4f55" d="
  M 419.49 70.99
  Q 419.49 104.23 419.48 104.99
  A 1.49 1.49 0.0 0 1 417.99 106.49
  L 409.19 106.47
  A 1.46 1.46 0.0 0 1 407.75 105.02
  L 407.75 76.86
  A 0.59 0.59 0.0 0 0 407.19 76.28
  Q 406.48 76.24 401.13 76.24
  Q 395.78 76.24 395.06 76.28
  A 0.59 0.59 0.0 0 0 394.50 76.86
  L 394.50 105.01
  A 1.46 1.46 0.0 0 1 393.05 106.47
  L 384.26 106.48
  A 1.49 1.49 0.0 0 1 382.76 104.98
  Q 382.76 104.22 382.76 70.99
  Q 382.76 37.76 382.77 37.00
  A 1.49 1.49 0.0 0 1 384.26 35.50
  L 393.06 35.51
  A 1.46 1.46 0.0 0 1 394.51 36.97
  L 394.50 65.12
  A 0.59 0.59 0.0 0 0 395.06 65.71
  Q 395.78 65.75 401.13 65.75
  Q 406.48 65.75 407.19 65.71
  A 0.59 0.59 0.0 0 0 407.75 65.13
  L 407.75 36.97
  A 1.46 1.46 0.0 0 1 409.20 35.51
  L 417.99 35.50
  A 1.49 1.49 0.0 0 1 419.49 37.00
  Q 419.50 37.76 419.49 70.99
  Z"
/>
<path fill="#4a4f55" d="
  M 448.31 35.49
  Q 466.04 35.56 466.58 35.58
  A 1.47 1.47 0.0 0 1 468.04 37.05
  L 468.02 44.41
  A 1.64 1.64 0.0 0 1 466.38 46.05
  L 454.73 46.05
  A 0.59 0.59 0.0 0 0 454.14 46.63
  L 453.92 105.02
  A 1.46 1.46 0.0 0 1 452.56 106.46
  Q 451.81 106.51 448.04 106.50
  Q 444.26 106.48 443.51 106.43
  A 1.46 1.46 0.0 0 1 442.16 104.98
  L 442.39 46.59
  A 0.59 0.59 0.0 0 0 441.80 46.00
  L 430.15 45.91
  A 1.64 1.64 0.0 0 1 428.53 44.26
  L 428.56 36.90
  A 1.47 1.47 0.0 0 1 430.03 35.44
  Q 430.58 35.43 448.31 35.49
  Z"
/>
<rect fill="#0094c9" x="35.99" y="123.76" width="43.24" height="11.74" rx="1.36"/>
</svg>
